G04 #@! TF.GenerationSoftware,KiCad,Pcbnew,9.0.4-9.0.4-0~ubuntu22.04.1*
G04 #@! TF.CreationDate,2025-10-28T22:45:50+00:00*
G04 #@! TF.ProjectId,MS20-VCF,4d533230-2d56-4434-962e-6b696361645f,rev?*
G04 #@! TF.SameCoordinates,Original*
G04 #@! TF.FileFunction,Legend,Top*
G04 #@! TF.FilePolarity,Positive*
%FSLAX46Y46*%
G04 Gerber Fmt 4.6, Leading zero omitted, Abs format (unit mm)*
G04 Created by KiCad (PCBNEW 9.0.4-9.0.4-0~ubuntu22.04.1) date 2025-10-28 22:45:50*
%MOMM*%
%LPD*%
G01*
G04 APERTURE LIST*
%ADD10C,0.150000*%
%ADD11C,0.120000*%
%ADD12C,4.000000*%
%ADD13C,1.800000*%
%ADD14C,1.600000*%
%ADD15O,1.600000X1.600000*%
%ADD16O,3.700000X2.400000*%
%ADD17R,1.930000X1.830000*%
%ADD18C,2.130000*%
%ADD19R,1.700000X1.700000*%
%ADD20O,1.700000X1.700000*%
G04 APERTURE END LIST*
D10*
X122161904Y-58054819D02*
X122161904Y-57054819D01*
X122161904Y-57435771D02*
X122257142Y-57388152D01*
X122257142Y-57388152D02*
X122447618Y-57388152D01*
X122447618Y-57388152D02*
X122542856Y-57435771D01*
X122542856Y-57435771D02*
X122590475Y-57483390D01*
X122590475Y-57483390D02*
X122638094Y-57578628D01*
X122638094Y-57578628D02*
X122638094Y-57864342D01*
X122638094Y-57864342D02*
X122590475Y-57959580D01*
X122590475Y-57959580D02*
X122542856Y-58007200D01*
X122542856Y-58007200D02*
X122447618Y-58054819D01*
X122447618Y-58054819D02*
X122257142Y-58054819D01*
X122257142Y-58054819D02*
X122161904Y-58007200D01*
X123209523Y-58054819D02*
X123114285Y-58007200D01*
X123114285Y-58007200D02*
X123066666Y-57959580D01*
X123066666Y-57959580D02*
X123019047Y-57864342D01*
X123019047Y-57864342D02*
X123019047Y-57578628D01*
X123019047Y-57578628D02*
X123066666Y-57483390D01*
X123066666Y-57483390D02*
X123114285Y-57435771D01*
X123114285Y-57435771D02*
X123209523Y-57388152D01*
X123209523Y-57388152D02*
X123352380Y-57388152D01*
X123352380Y-57388152D02*
X123447618Y-57435771D01*
X123447618Y-57435771D02*
X123495237Y-57483390D01*
X123495237Y-57483390D02*
X123542856Y-57578628D01*
X123542856Y-57578628D02*
X123542856Y-57864342D01*
X123542856Y-57864342D02*
X123495237Y-57959580D01*
X123495237Y-57959580D02*
X123447618Y-58007200D01*
X123447618Y-58007200D02*
X123352380Y-58054819D01*
X123352380Y-58054819D02*
X123209523Y-58054819D01*
X124399999Y-58054819D02*
X124399999Y-57531009D01*
X124399999Y-57531009D02*
X124352380Y-57435771D01*
X124352380Y-57435771D02*
X124257142Y-57388152D01*
X124257142Y-57388152D02*
X124066666Y-57388152D01*
X124066666Y-57388152D02*
X123971428Y-57435771D01*
X124399999Y-58007200D02*
X124304761Y-58054819D01*
X124304761Y-58054819D02*
X124066666Y-58054819D01*
X124066666Y-58054819D02*
X123971428Y-58007200D01*
X123971428Y-58007200D02*
X123923809Y-57911961D01*
X123923809Y-57911961D02*
X123923809Y-57816723D01*
X123923809Y-57816723D02*
X123971428Y-57721485D01*
X123971428Y-57721485D02*
X124066666Y-57673866D01*
X124066666Y-57673866D02*
X124304761Y-57673866D01*
X124304761Y-57673866D02*
X124399999Y-57626247D01*
X124876190Y-58054819D02*
X124876190Y-57388152D01*
X124876190Y-57578628D02*
X124923809Y-57483390D01*
X124923809Y-57483390D02*
X124971428Y-57435771D01*
X124971428Y-57435771D02*
X125066666Y-57388152D01*
X125066666Y-57388152D02*
X125161904Y-57388152D01*
X125923809Y-58054819D02*
X125923809Y-57054819D01*
X125923809Y-58007200D02*
X125828571Y-58054819D01*
X125828571Y-58054819D02*
X125638095Y-58054819D01*
X125638095Y-58054819D02*
X125542857Y-58007200D01*
X125542857Y-58007200D02*
X125495238Y-57959580D01*
X125495238Y-57959580D02*
X125447619Y-57864342D01*
X125447619Y-57864342D02*
X125447619Y-57578628D01*
X125447619Y-57578628D02*
X125495238Y-57483390D01*
X125495238Y-57483390D02*
X125542857Y-57435771D01*
X125542857Y-57435771D02*
X125638095Y-57388152D01*
X125638095Y-57388152D02*
X125828571Y-57388152D01*
X125828571Y-57388152D02*
X125923809Y-57435771D01*
X127114286Y-57150057D02*
X127161905Y-57102438D01*
X127161905Y-57102438D02*
X127257143Y-57054819D01*
X127257143Y-57054819D02*
X127495238Y-57054819D01*
X127495238Y-57054819D02*
X127590476Y-57102438D01*
X127590476Y-57102438D02*
X127638095Y-57150057D01*
X127638095Y-57150057D02*
X127685714Y-57245295D01*
X127685714Y-57245295D02*
X127685714Y-57340533D01*
X127685714Y-57340533D02*
X127638095Y-57483390D01*
X127638095Y-57483390D02*
X127066667Y-58054819D01*
X127066667Y-58054819D02*
X127685714Y-58054819D01*
X117952380Y-52744875D02*
X117952380Y-51744875D01*
X117952380Y-51744875D02*
X118190475Y-51744875D01*
X118190475Y-51744875D02*
X118333332Y-51792494D01*
X118333332Y-51792494D02*
X118428570Y-51887732D01*
X118428570Y-51887732D02*
X118476189Y-51982970D01*
X118476189Y-51982970D02*
X118523808Y-52173446D01*
X118523808Y-52173446D02*
X118523808Y-52316303D01*
X118523808Y-52316303D02*
X118476189Y-52506779D01*
X118476189Y-52506779D02*
X118428570Y-52602017D01*
X118428570Y-52602017D02*
X118333332Y-52697256D01*
X118333332Y-52697256D02*
X118190475Y-52744875D01*
X118190475Y-52744875D02*
X117952380Y-52744875D01*
X119095237Y-52744875D02*
X118999999Y-52697256D01*
X118999999Y-52697256D02*
X118952380Y-52649636D01*
X118952380Y-52649636D02*
X118904761Y-52554398D01*
X118904761Y-52554398D02*
X118904761Y-52268684D01*
X118904761Y-52268684D02*
X118952380Y-52173446D01*
X118952380Y-52173446D02*
X118999999Y-52125827D01*
X118999999Y-52125827D02*
X119095237Y-52078208D01*
X119095237Y-52078208D02*
X119238094Y-52078208D01*
X119238094Y-52078208D02*
X119333332Y-52125827D01*
X119333332Y-52125827D02*
X119380951Y-52173446D01*
X119380951Y-52173446D02*
X119428570Y-52268684D01*
X119428570Y-52268684D02*
X119428570Y-52554398D01*
X119428570Y-52554398D02*
X119380951Y-52649636D01*
X119380951Y-52649636D02*
X119333332Y-52697256D01*
X119333332Y-52697256D02*
X119238094Y-52744875D01*
X119238094Y-52744875D02*
X119095237Y-52744875D01*
X120285713Y-52078208D02*
X120285713Y-52744875D01*
X119857142Y-52078208D02*
X119857142Y-52602017D01*
X119857142Y-52602017D02*
X119904761Y-52697256D01*
X119904761Y-52697256D02*
X119999999Y-52744875D01*
X119999999Y-52744875D02*
X120142856Y-52744875D01*
X120142856Y-52744875D02*
X120238094Y-52697256D01*
X120238094Y-52697256D02*
X120285713Y-52649636D01*
X120761904Y-52744875D02*
X120761904Y-51744875D01*
X120761904Y-52125827D02*
X120857142Y-52078208D01*
X120857142Y-52078208D02*
X121047618Y-52078208D01*
X121047618Y-52078208D02*
X121142856Y-52125827D01*
X121142856Y-52125827D02*
X121190475Y-52173446D01*
X121190475Y-52173446D02*
X121238094Y-52268684D01*
X121238094Y-52268684D02*
X121238094Y-52554398D01*
X121238094Y-52554398D02*
X121190475Y-52649636D01*
X121190475Y-52649636D02*
X121142856Y-52697256D01*
X121142856Y-52697256D02*
X121047618Y-52744875D01*
X121047618Y-52744875D02*
X120857142Y-52744875D01*
X120857142Y-52744875D02*
X120761904Y-52697256D01*
X121809523Y-52744875D02*
X121714285Y-52697256D01*
X121714285Y-52697256D02*
X121666666Y-52602017D01*
X121666666Y-52602017D02*
X121666666Y-51744875D01*
X122571428Y-52697256D02*
X122476190Y-52744875D01*
X122476190Y-52744875D02*
X122285714Y-52744875D01*
X122285714Y-52744875D02*
X122190476Y-52697256D01*
X122190476Y-52697256D02*
X122142857Y-52602017D01*
X122142857Y-52602017D02*
X122142857Y-52221065D01*
X122142857Y-52221065D02*
X122190476Y-52125827D01*
X122190476Y-52125827D02*
X122285714Y-52078208D01*
X122285714Y-52078208D02*
X122476190Y-52078208D01*
X122476190Y-52078208D02*
X122571428Y-52125827D01*
X122571428Y-52125827D02*
X122619047Y-52221065D01*
X122619047Y-52221065D02*
X122619047Y-52316303D01*
X122619047Y-52316303D02*
X122142857Y-52411541D01*
X123809524Y-52744875D02*
X123809524Y-51744875D01*
X123809524Y-51744875D02*
X124142857Y-52459160D01*
X124142857Y-52459160D02*
X124476190Y-51744875D01*
X124476190Y-51744875D02*
X124476190Y-52744875D01*
X124904762Y-52697256D02*
X125047619Y-52744875D01*
X125047619Y-52744875D02*
X125285714Y-52744875D01*
X125285714Y-52744875D02*
X125380952Y-52697256D01*
X125380952Y-52697256D02*
X125428571Y-52649636D01*
X125428571Y-52649636D02*
X125476190Y-52554398D01*
X125476190Y-52554398D02*
X125476190Y-52459160D01*
X125476190Y-52459160D02*
X125428571Y-52363922D01*
X125428571Y-52363922D02*
X125380952Y-52316303D01*
X125380952Y-52316303D02*
X125285714Y-52268684D01*
X125285714Y-52268684D02*
X125095238Y-52221065D01*
X125095238Y-52221065D02*
X125000000Y-52173446D01*
X125000000Y-52173446D02*
X124952381Y-52125827D01*
X124952381Y-52125827D02*
X124904762Y-52030589D01*
X124904762Y-52030589D02*
X124904762Y-51935351D01*
X124904762Y-51935351D02*
X124952381Y-51840113D01*
X124952381Y-51840113D02*
X125000000Y-51792494D01*
X125000000Y-51792494D02*
X125095238Y-51744875D01*
X125095238Y-51744875D02*
X125333333Y-51744875D01*
X125333333Y-51744875D02*
X125476190Y-51792494D01*
X125904762Y-52363922D02*
X126666667Y-52363922D01*
X127095238Y-51840113D02*
X127142857Y-51792494D01*
X127142857Y-51792494D02*
X127238095Y-51744875D01*
X127238095Y-51744875D02*
X127476190Y-51744875D01*
X127476190Y-51744875D02*
X127571428Y-51792494D01*
X127571428Y-51792494D02*
X127619047Y-51840113D01*
X127619047Y-51840113D02*
X127666666Y-51935351D01*
X127666666Y-51935351D02*
X127666666Y-52030589D01*
X127666666Y-52030589D02*
X127619047Y-52173446D01*
X127619047Y-52173446D02*
X127047619Y-52744875D01*
X127047619Y-52744875D02*
X127666666Y-52744875D01*
X128285714Y-51744875D02*
X128380952Y-51744875D01*
X128380952Y-51744875D02*
X128476190Y-51792494D01*
X128476190Y-51792494D02*
X128523809Y-51840113D01*
X128523809Y-51840113D02*
X128571428Y-51935351D01*
X128571428Y-51935351D02*
X128619047Y-52125827D01*
X128619047Y-52125827D02*
X128619047Y-52363922D01*
X128619047Y-52363922D02*
X128571428Y-52554398D01*
X128571428Y-52554398D02*
X128523809Y-52649636D01*
X128523809Y-52649636D02*
X128476190Y-52697256D01*
X128476190Y-52697256D02*
X128380952Y-52744875D01*
X128380952Y-52744875D02*
X128285714Y-52744875D01*
X128285714Y-52744875D02*
X128190476Y-52697256D01*
X128190476Y-52697256D02*
X128142857Y-52649636D01*
X128142857Y-52649636D02*
X128095238Y-52554398D01*
X128095238Y-52554398D02*
X128047619Y-52363922D01*
X128047619Y-52363922D02*
X128047619Y-52125827D01*
X128047619Y-52125827D02*
X128095238Y-51935351D01*
X128095238Y-51935351D02*
X128142857Y-51840113D01*
X128142857Y-51840113D02*
X128190476Y-51792494D01*
X128190476Y-51792494D02*
X128285714Y-51744875D01*
X129666667Y-51744875D02*
X130000000Y-52744875D01*
X130000000Y-52744875D02*
X130333333Y-51744875D01*
X131238095Y-52649636D02*
X131190476Y-52697256D01*
X131190476Y-52697256D02*
X131047619Y-52744875D01*
X131047619Y-52744875D02*
X130952381Y-52744875D01*
X130952381Y-52744875D02*
X130809524Y-52697256D01*
X130809524Y-52697256D02*
X130714286Y-52602017D01*
X130714286Y-52602017D02*
X130666667Y-52506779D01*
X130666667Y-52506779D02*
X130619048Y-52316303D01*
X130619048Y-52316303D02*
X130619048Y-52173446D01*
X130619048Y-52173446D02*
X130666667Y-51982970D01*
X130666667Y-51982970D02*
X130714286Y-51887732D01*
X130714286Y-51887732D02*
X130809524Y-51792494D01*
X130809524Y-51792494D02*
X130952381Y-51744875D01*
X130952381Y-51744875D02*
X131047619Y-51744875D01*
X131047619Y-51744875D02*
X131190476Y-51792494D01*
X131190476Y-51792494D02*
X131238095Y-51840113D01*
X132000000Y-52221065D02*
X131666667Y-52221065D01*
X131666667Y-52744875D02*
X131666667Y-51744875D01*
X131666667Y-51744875D02*
X132142857Y-51744875D01*
X118738095Y-53354819D02*
X119071428Y-54354819D01*
X119071428Y-54354819D02*
X119404761Y-53354819D01*
X119690476Y-53450057D02*
X119738095Y-53402438D01*
X119738095Y-53402438D02*
X119833333Y-53354819D01*
X119833333Y-53354819D02*
X120071428Y-53354819D01*
X120071428Y-53354819D02*
X120166666Y-53402438D01*
X120166666Y-53402438D02*
X120214285Y-53450057D01*
X120214285Y-53450057D02*
X120261904Y-53545295D01*
X120261904Y-53545295D02*
X120261904Y-53640533D01*
X120261904Y-53640533D02*
X120214285Y-53783390D01*
X120214285Y-53783390D02*
X119642857Y-54354819D01*
X119642857Y-54354819D02*
X120261904Y-54354819D01*
X120690476Y-54259580D02*
X120738095Y-54307200D01*
X120738095Y-54307200D02*
X120690476Y-54354819D01*
X120690476Y-54354819D02*
X120642857Y-54307200D01*
X120642857Y-54307200D02*
X120690476Y-54259580D01*
X120690476Y-54259580D02*
X120690476Y-54354819D01*
X121357142Y-53354819D02*
X121452380Y-53354819D01*
X121452380Y-53354819D02*
X121547618Y-53402438D01*
X121547618Y-53402438D02*
X121595237Y-53450057D01*
X121595237Y-53450057D02*
X121642856Y-53545295D01*
X121642856Y-53545295D02*
X121690475Y-53735771D01*
X121690475Y-53735771D02*
X121690475Y-53973866D01*
X121690475Y-53973866D02*
X121642856Y-54164342D01*
X121642856Y-54164342D02*
X121595237Y-54259580D01*
X121595237Y-54259580D02*
X121547618Y-54307200D01*
X121547618Y-54307200D02*
X121452380Y-54354819D01*
X121452380Y-54354819D02*
X121357142Y-54354819D01*
X121357142Y-54354819D02*
X121261904Y-54307200D01*
X121261904Y-54307200D02*
X121214285Y-54259580D01*
X121214285Y-54259580D02*
X121166666Y-54164342D01*
X121166666Y-54164342D02*
X121119047Y-53973866D01*
X121119047Y-53973866D02*
X121119047Y-53735771D01*
X121119047Y-53735771D02*
X121166666Y-53545295D01*
X121166666Y-53545295D02*
X121214285Y-53450057D01*
X121214285Y-53450057D02*
X121261904Y-53402438D01*
X121261904Y-53402438D02*
X121357142Y-53354819D01*
X123214285Y-53831009D02*
X123357142Y-53878628D01*
X123357142Y-53878628D02*
X123404761Y-53926247D01*
X123404761Y-53926247D02*
X123452380Y-54021485D01*
X123452380Y-54021485D02*
X123452380Y-54164342D01*
X123452380Y-54164342D02*
X123404761Y-54259580D01*
X123404761Y-54259580D02*
X123357142Y-54307200D01*
X123357142Y-54307200D02*
X123261904Y-54354819D01*
X123261904Y-54354819D02*
X122880952Y-54354819D01*
X122880952Y-54354819D02*
X122880952Y-53354819D01*
X122880952Y-53354819D02*
X123214285Y-53354819D01*
X123214285Y-53354819D02*
X123309523Y-53402438D01*
X123309523Y-53402438D02*
X123357142Y-53450057D01*
X123357142Y-53450057D02*
X123404761Y-53545295D01*
X123404761Y-53545295D02*
X123404761Y-53640533D01*
X123404761Y-53640533D02*
X123357142Y-53735771D01*
X123357142Y-53735771D02*
X123309523Y-53783390D01*
X123309523Y-53783390D02*
X123214285Y-53831009D01*
X123214285Y-53831009D02*
X122880952Y-53831009D01*
X124023809Y-54354819D02*
X123928571Y-54307200D01*
X123928571Y-54307200D02*
X123880952Y-54211961D01*
X123880952Y-54211961D02*
X123880952Y-53354819D01*
X124785714Y-54307200D02*
X124690476Y-54354819D01*
X124690476Y-54354819D02*
X124500000Y-54354819D01*
X124500000Y-54354819D02*
X124404762Y-54307200D01*
X124404762Y-54307200D02*
X124357143Y-54211961D01*
X124357143Y-54211961D02*
X124357143Y-53831009D01*
X124357143Y-53831009D02*
X124404762Y-53735771D01*
X124404762Y-53735771D02*
X124500000Y-53688152D01*
X124500000Y-53688152D02*
X124690476Y-53688152D01*
X124690476Y-53688152D02*
X124785714Y-53735771D01*
X124785714Y-53735771D02*
X124833333Y-53831009D01*
X124833333Y-53831009D02*
X124833333Y-53926247D01*
X124833333Y-53926247D02*
X124357143Y-54021485D01*
X125642857Y-54307200D02*
X125547619Y-54354819D01*
X125547619Y-54354819D02*
X125357143Y-54354819D01*
X125357143Y-54354819D02*
X125261905Y-54307200D01*
X125261905Y-54307200D02*
X125214286Y-54211961D01*
X125214286Y-54211961D02*
X125214286Y-53831009D01*
X125214286Y-53831009D02*
X125261905Y-53735771D01*
X125261905Y-53735771D02*
X125357143Y-53688152D01*
X125357143Y-53688152D02*
X125547619Y-53688152D01*
X125547619Y-53688152D02*
X125642857Y-53735771D01*
X125642857Y-53735771D02*
X125690476Y-53831009D01*
X125690476Y-53831009D02*
X125690476Y-53926247D01*
X125690476Y-53926247D02*
X125214286Y-54021485D01*
X126119048Y-53688152D02*
X126119048Y-54688152D01*
X126119048Y-53735771D02*
X126214286Y-53688152D01*
X126214286Y-53688152D02*
X126404762Y-53688152D01*
X126404762Y-53688152D02*
X126500000Y-53735771D01*
X126500000Y-53735771D02*
X126547619Y-53783390D01*
X126547619Y-53783390D02*
X126595238Y-53878628D01*
X126595238Y-53878628D02*
X126595238Y-54164342D01*
X126595238Y-54164342D02*
X126547619Y-54259580D01*
X126547619Y-54259580D02*
X126500000Y-54307200D01*
X126500000Y-54307200D02*
X126404762Y-54354819D01*
X126404762Y-54354819D02*
X126214286Y-54354819D01*
X126214286Y-54354819D02*
X126119048Y-54307200D01*
X126976191Y-54307200D02*
X127119048Y-54354819D01*
X127119048Y-54354819D02*
X127357143Y-54354819D01*
X127357143Y-54354819D02*
X127452381Y-54307200D01*
X127452381Y-54307200D02*
X127500000Y-54259580D01*
X127500000Y-54259580D02*
X127547619Y-54164342D01*
X127547619Y-54164342D02*
X127547619Y-54069104D01*
X127547619Y-54069104D02*
X127500000Y-53973866D01*
X127500000Y-53973866D02*
X127452381Y-53926247D01*
X127452381Y-53926247D02*
X127357143Y-53878628D01*
X127357143Y-53878628D02*
X127166667Y-53831009D01*
X127166667Y-53831009D02*
X127071429Y-53783390D01*
X127071429Y-53783390D02*
X127023810Y-53735771D01*
X127023810Y-53735771D02*
X126976191Y-53640533D01*
X126976191Y-53640533D02*
X126976191Y-53545295D01*
X126976191Y-53545295D02*
X127023810Y-53450057D01*
X127023810Y-53450057D02*
X127071429Y-53402438D01*
X127071429Y-53402438D02*
X127166667Y-53354819D01*
X127166667Y-53354819D02*
X127404762Y-53354819D01*
X127404762Y-53354819D02*
X127547619Y-53402438D01*
X128119048Y-54354819D02*
X128023810Y-54307200D01*
X128023810Y-54307200D02*
X127976191Y-54259580D01*
X127976191Y-54259580D02*
X127928572Y-54164342D01*
X127928572Y-54164342D02*
X127928572Y-53878628D01*
X127928572Y-53878628D02*
X127976191Y-53783390D01*
X127976191Y-53783390D02*
X128023810Y-53735771D01*
X128023810Y-53735771D02*
X128119048Y-53688152D01*
X128119048Y-53688152D02*
X128261905Y-53688152D01*
X128261905Y-53688152D02*
X128357143Y-53735771D01*
X128357143Y-53735771D02*
X128404762Y-53783390D01*
X128404762Y-53783390D02*
X128452381Y-53878628D01*
X128452381Y-53878628D02*
X128452381Y-54164342D01*
X128452381Y-54164342D02*
X128404762Y-54259580D01*
X128404762Y-54259580D02*
X128357143Y-54307200D01*
X128357143Y-54307200D02*
X128261905Y-54354819D01*
X128261905Y-54354819D02*
X128119048Y-54354819D01*
X129309524Y-53688152D02*
X129309524Y-54354819D01*
X128880953Y-53688152D02*
X128880953Y-54211961D01*
X128880953Y-54211961D02*
X128928572Y-54307200D01*
X128928572Y-54307200D02*
X129023810Y-54354819D01*
X129023810Y-54354819D02*
X129166667Y-54354819D01*
X129166667Y-54354819D02*
X129261905Y-54307200D01*
X129261905Y-54307200D02*
X129309524Y-54259580D01*
X129785715Y-53688152D02*
X129785715Y-54354819D01*
X129785715Y-53783390D02*
X129833334Y-53735771D01*
X129833334Y-53735771D02*
X129928572Y-53688152D01*
X129928572Y-53688152D02*
X130071429Y-53688152D01*
X130071429Y-53688152D02*
X130166667Y-53735771D01*
X130166667Y-53735771D02*
X130214286Y-53831009D01*
X130214286Y-53831009D02*
X130214286Y-54354819D01*
X131119048Y-54354819D02*
X131119048Y-53354819D01*
X131119048Y-54307200D02*
X131023810Y-54354819D01*
X131023810Y-54354819D02*
X130833334Y-54354819D01*
X130833334Y-54354819D02*
X130738096Y-54307200D01*
X130738096Y-54307200D02*
X130690477Y-54259580D01*
X130690477Y-54259580D02*
X130642858Y-54164342D01*
X130642858Y-54164342D02*
X130642858Y-53878628D01*
X130642858Y-53878628D02*
X130690477Y-53783390D01*
X130690477Y-53783390D02*
X130738096Y-53735771D01*
X130738096Y-53735771D02*
X130833334Y-53688152D01*
X130833334Y-53688152D02*
X131023810Y-53688152D01*
X131023810Y-53688152D02*
X131119048Y-53735771D01*
X123285714Y-55060001D02*
X123333333Y-55012382D01*
X123333333Y-55012382D02*
X123428571Y-54964763D01*
X123428571Y-54964763D02*
X123666666Y-54964763D01*
X123666666Y-54964763D02*
X123761904Y-55012382D01*
X123761904Y-55012382D02*
X123809523Y-55060001D01*
X123809523Y-55060001D02*
X123857142Y-55155239D01*
X123857142Y-55155239D02*
X123857142Y-55250477D01*
X123857142Y-55250477D02*
X123809523Y-55393334D01*
X123809523Y-55393334D02*
X123238095Y-55964763D01*
X123238095Y-55964763D02*
X123857142Y-55964763D01*
X124476190Y-54964763D02*
X124571428Y-54964763D01*
X124571428Y-54964763D02*
X124666666Y-55012382D01*
X124666666Y-55012382D02*
X124714285Y-55060001D01*
X124714285Y-55060001D02*
X124761904Y-55155239D01*
X124761904Y-55155239D02*
X124809523Y-55345715D01*
X124809523Y-55345715D02*
X124809523Y-55583810D01*
X124809523Y-55583810D02*
X124761904Y-55774286D01*
X124761904Y-55774286D02*
X124714285Y-55869524D01*
X124714285Y-55869524D02*
X124666666Y-55917144D01*
X124666666Y-55917144D02*
X124571428Y-55964763D01*
X124571428Y-55964763D02*
X124476190Y-55964763D01*
X124476190Y-55964763D02*
X124380952Y-55917144D01*
X124380952Y-55917144D02*
X124333333Y-55869524D01*
X124333333Y-55869524D02*
X124285714Y-55774286D01*
X124285714Y-55774286D02*
X124238095Y-55583810D01*
X124238095Y-55583810D02*
X124238095Y-55345715D01*
X124238095Y-55345715D02*
X124285714Y-55155239D01*
X124285714Y-55155239D02*
X124333333Y-55060001D01*
X124333333Y-55060001D02*
X124380952Y-55012382D01*
X124380952Y-55012382D02*
X124476190Y-54964763D01*
X125190476Y-55060001D02*
X125238095Y-55012382D01*
X125238095Y-55012382D02*
X125333333Y-54964763D01*
X125333333Y-54964763D02*
X125571428Y-54964763D01*
X125571428Y-54964763D02*
X125666666Y-55012382D01*
X125666666Y-55012382D02*
X125714285Y-55060001D01*
X125714285Y-55060001D02*
X125761904Y-55155239D01*
X125761904Y-55155239D02*
X125761904Y-55250477D01*
X125761904Y-55250477D02*
X125714285Y-55393334D01*
X125714285Y-55393334D02*
X125142857Y-55964763D01*
X125142857Y-55964763D02*
X125761904Y-55964763D01*
X126666666Y-54964763D02*
X126190476Y-54964763D01*
X126190476Y-54964763D02*
X126142857Y-55440953D01*
X126142857Y-55440953D02*
X126190476Y-55393334D01*
X126190476Y-55393334D02*
X126285714Y-55345715D01*
X126285714Y-55345715D02*
X126523809Y-55345715D01*
X126523809Y-55345715D02*
X126619047Y-55393334D01*
X126619047Y-55393334D02*
X126666666Y-55440953D01*
X126666666Y-55440953D02*
X126714285Y-55536191D01*
X126714285Y-55536191D02*
X126714285Y-55774286D01*
X126714285Y-55774286D02*
X126666666Y-55869524D01*
X126666666Y-55869524D02*
X126619047Y-55917144D01*
X126619047Y-55917144D02*
X126523809Y-55964763D01*
X126523809Y-55964763D02*
X126285714Y-55964763D01*
X126285714Y-55964763D02*
X126190476Y-55917144D01*
X126190476Y-55917144D02*
X126142857Y-55869524D01*
X98709580Y-67000000D02*
X98757200Y-67047619D01*
X98757200Y-67047619D02*
X98804819Y-67190476D01*
X98804819Y-67190476D02*
X98804819Y-67285714D01*
X98804819Y-67285714D02*
X98757200Y-67428571D01*
X98757200Y-67428571D02*
X98661961Y-67523809D01*
X98661961Y-67523809D02*
X98566723Y-67571428D01*
X98566723Y-67571428D02*
X98376247Y-67619047D01*
X98376247Y-67619047D02*
X98233390Y-67619047D01*
X98233390Y-67619047D02*
X98042914Y-67571428D01*
X98042914Y-67571428D02*
X97947676Y-67523809D01*
X97947676Y-67523809D02*
X97852438Y-67428571D01*
X97852438Y-67428571D02*
X97804819Y-67285714D01*
X97804819Y-67285714D02*
X97804819Y-67190476D01*
X97804819Y-67190476D02*
X97852438Y-67047619D01*
X97852438Y-67047619D02*
X97900057Y-67000000D01*
X97804819Y-66571428D02*
X98614342Y-66571428D01*
X98614342Y-66571428D02*
X98709580Y-66523809D01*
X98709580Y-66523809D02*
X98757200Y-66476190D01*
X98757200Y-66476190D02*
X98804819Y-66380952D01*
X98804819Y-66380952D02*
X98804819Y-66190476D01*
X98804819Y-66190476D02*
X98757200Y-66095238D01*
X98757200Y-66095238D02*
X98709580Y-66047619D01*
X98709580Y-66047619D02*
X98614342Y-66000000D01*
X98614342Y-66000000D02*
X97804819Y-66000000D01*
X97804819Y-65666666D02*
X97804819Y-65095238D01*
X98804819Y-65380952D02*
X97804819Y-65380952D01*
X98709580Y-64190476D02*
X98757200Y-64238095D01*
X98757200Y-64238095D02*
X98804819Y-64380952D01*
X98804819Y-64380952D02*
X98804819Y-64476190D01*
X98804819Y-64476190D02*
X98757200Y-64619047D01*
X98757200Y-64619047D02*
X98661961Y-64714285D01*
X98661961Y-64714285D02*
X98566723Y-64761904D01*
X98566723Y-64761904D02*
X98376247Y-64809523D01*
X98376247Y-64809523D02*
X98233390Y-64809523D01*
X98233390Y-64809523D02*
X98042914Y-64761904D01*
X98042914Y-64761904D02*
X97947676Y-64714285D01*
X97947676Y-64714285D02*
X97852438Y-64619047D01*
X97852438Y-64619047D02*
X97804819Y-64476190D01*
X97804819Y-64476190D02*
X97804819Y-64380952D01*
X97804819Y-64380952D02*
X97852438Y-64238095D01*
X97852438Y-64238095D02*
X97900057Y-64190476D01*
X97804819Y-63904761D02*
X98804819Y-63571428D01*
X98804819Y-63571428D02*
X97804819Y-63238095D01*
X98804819Y-62380952D02*
X98804819Y-62952380D01*
X98804819Y-62666666D02*
X97804819Y-62666666D01*
X97804819Y-62666666D02*
X97947676Y-62761904D01*
X97947676Y-62761904D02*
X98042914Y-62857142D01*
X98042914Y-62857142D02*
X98090533Y-62952380D01*
X117709580Y-46152381D02*
X117757200Y-46200000D01*
X117757200Y-46200000D02*
X117804819Y-46342857D01*
X117804819Y-46342857D02*
X117804819Y-46438095D01*
X117804819Y-46438095D02*
X117757200Y-46580952D01*
X117757200Y-46580952D02*
X117661961Y-46676190D01*
X117661961Y-46676190D02*
X117566723Y-46723809D01*
X117566723Y-46723809D02*
X117376247Y-46771428D01*
X117376247Y-46771428D02*
X117233390Y-46771428D01*
X117233390Y-46771428D02*
X117042914Y-46723809D01*
X117042914Y-46723809D02*
X116947676Y-46676190D01*
X116947676Y-46676190D02*
X116852438Y-46580952D01*
X116852438Y-46580952D02*
X116804819Y-46438095D01*
X116804819Y-46438095D02*
X116804819Y-46342857D01*
X116804819Y-46342857D02*
X116852438Y-46200000D01*
X116852438Y-46200000D02*
X116900057Y-46152381D01*
X116804819Y-45723809D02*
X117614342Y-45723809D01*
X117614342Y-45723809D02*
X117709580Y-45676190D01*
X117709580Y-45676190D02*
X117757200Y-45628571D01*
X117757200Y-45628571D02*
X117804819Y-45533333D01*
X117804819Y-45533333D02*
X117804819Y-45342857D01*
X117804819Y-45342857D02*
X117757200Y-45247619D01*
X117757200Y-45247619D02*
X117709580Y-45200000D01*
X117709580Y-45200000D02*
X117614342Y-45152381D01*
X117614342Y-45152381D02*
X116804819Y-45152381D01*
X116804819Y-44819047D02*
X116804819Y-44247619D01*
X117804819Y-44533333D02*
X116804819Y-44533333D01*
X116804819Y-43723809D02*
X116804819Y-43533333D01*
X116804819Y-43533333D02*
X116852438Y-43438095D01*
X116852438Y-43438095D02*
X116947676Y-43342857D01*
X116947676Y-43342857D02*
X117138152Y-43295238D01*
X117138152Y-43295238D02*
X117471485Y-43295238D01*
X117471485Y-43295238D02*
X117661961Y-43342857D01*
X117661961Y-43342857D02*
X117757200Y-43438095D01*
X117757200Y-43438095D02*
X117804819Y-43533333D01*
X117804819Y-43533333D02*
X117804819Y-43723809D01*
X117804819Y-43723809D02*
X117757200Y-43819047D01*
X117757200Y-43819047D02*
X117661961Y-43914285D01*
X117661961Y-43914285D02*
X117471485Y-43961904D01*
X117471485Y-43961904D02*
X117138152Y-43961904D01*
X117138152Y-43961904D02*
X116947676Y-43914285D01*
X116947676Y-43914285D02*
X116852438Y-43819047D01*
X116852438Y-43819047D02*
X116804819Y-43723809D01*
X117281009Y-42533333D02*
X117281009Y-42866666D01*
X117804819Y-42866666D02*
X116804819Y-42866666D01*
X116804819Y-42866666D02*
X116804819Y-42390476D01*
X117281009Y-41676190D02*
X117281009Y-42009523D01*
X117804819Y-42009523D02*
X116804819Y-42009523D01*
X116804819Y-42009523D02*
X116804819Y-41533333D01*
X117804819Y-40628571D02*
X117804819Y-41199999D01*
X117804819Y-40914285D02*
X116804819Y-40914285D01*
X116804819Y-40914285D02*
X116947676Y-41009523D01*
X116947676Y-41009523D02*
X117042914Y-41104761D01*
X117042914Y-41104761D02*
X117090533Y-41199999D01*
X104454819Y-79642857D02*
X103978628Y-79976190D01*
X104454819Y-80214285D02*
X103454819Y-80214285D01*
X103454819Y-80214285D02*
X103454819Y-79833333D01*
X103454819Y-79833333D02*
X103502438Y-79738095D01*
X103502438Y-79738095D02*
X103550057Y-79690476D01*
X103550057Y-79690476D02*
X103645295Y-79642857D01*
X103645295Y-79642857D02*
X103788152Y-79642857D01*
X103788152Y-79642857D02*
X103883390Y-79690476D01*
X103883390Y-79690476D02*
X103931009Y-79738095D01*
X103931009Y-79738095D02*
X103978628Y-79833333D01*
X103978628Y-79833333D02*
X103978628Y-80214285D01*
X104454819Y-78690476D02*
X104454819Y-79261904D01*
X104454819Y-78976190D02*
X103454819Y-78976190D01*
X103454819Y-78976190D02*
X103597676Y-79071428D01*
X103597676Y-79071428D02*
X103692914Y-79166666D01*
X103692914Y-79166666D02*
X103740533Y-79261904D01*
X103454819Y-77833333D02*
X103454819Y-78023809D01*
X103454819Y-78023809D02*
X103502438Y-78119047D01*
X103502438Y-78119047D02*
X103550057Y-78166666D01*
X103550057Y-78166666D02*
X103692914Y-78261904D01*
X103692914Y-78261904D02*
X103883390Y-78309523D01*
X103883390Y-78309523D02*
X104264342Y-78309523D01*
X104264342Y-78309523D02*
X104359580Y-78261904D01*
X104359580Y-78261904D02*
X104407200Y-78214285D01*
X104407200Y-78214285D02*
X104454819Y-78119047D01*
X104454819Y-78119047D02*
X104454819Y-77928571D01*
X104454819Y-77928571D02*
X104407200Y-77833333D01*
X104407200Y-77833333D02*
X104359580Y-77785714D01*
X104359580Y-77785714D02*
X104264342Y-77738095D01*
X104264342Y-77738095D02*
X104026247Y-77738095D01*
X104026247Y-77738095D02*
X103931009Y-77785714D01*
X103931009Y-77785714D02*
X103883390Y-77833333D01*
X103883390Y-77833333D02*
X103835771Y-77928571D01*
X103835771Y-77928571D02*
X103835771Y-78119047D01*
X103835771Y-78119047D02*
X103883390Y-78214285D01*
X103883390Y-78214285D02*
X103931009Y-78261904D01*
X103931009Y-78261904D02*
X104026247Y-78309523D01*
X104357142Y-55454819D02*
X104023809Y-54978628D01*
X103785714Y-55454819D02*
X103785714Y-54454819D01*
X103785714Y-54454819D02*
X104166666Y-54454819D01*
X104166666Y-54454819D02*
X104261904Y-54502438D01*
X104261904Y-54502438D02*
X104309523Y-54550057D01*
X104309523Y-54550057D02*
X104357142Y-54645295D01*
X104357142Y-54645295D02*
X104357142Y-54788152D01*
X104357142Y-54788152D02*
X104309523Y-54883390D01*
X104309523Y-54883390D02*
X104261904Y-54931009D01*
X104261904Y-54931009D02*
X104166666Y-54978628D01*
X104166666Y-54978628D02*
X103785714Y-54978628D01*
X104738095Y-54550057D02*
X104785714Y-54502438D01*
X104785714Y-54502438D02*
X104880952Y-54454819D01*
X104880952Y-54454819D02*
X105119047Y-54454819D01*
X105119047Y-54454819D02*
X105214285Y-54502438D01*
X105214285Y-54502438D02*
X105261904Y-54550057D01*
X105261904Y-54550057D02*
X105309523Y-54645295D01*
X105309523Y-54645295D02*
X105309523Y-54740533D01*
X105309523Y-54740533D02*
X105261904Y-54883390D01*
X105261904Y-54883390D02*
X104690476Y-55454819D01*
X104690476Y-55454819D02*
X105309523Y-55454819D01*
X105928571Y-54454819D02*
X106023809Y-54454819D01*
X106023809Y-54454819D02*
X106119047Y-54502438D01*
X106119047Y-54502438D02*
X106166666Y-54550057D01*
X106166666Y-54550057D02*
X106214285Y-54645295D01*
X106214285Y-54645295D02*
X106261904Y-54835771D01*
X106261904Y-54835771D02*
X106261904Y-55073866D01*
X106261904Y-55073866D02*
X106214285Y-55264342D01*
X106214285Y-55264342D02*
X106166666Y-55359580D01*
X106166666Y-55359580D02*
X106119047Y-55407200D01*
X106119047Y-55407200D02*
X106023809Y-55454819D01*
X106023809Y-55454819D02*
X105928571Y-55454819D01*
X105928571Y-55454819D02*
X105833333Y-55407200D01*
X105833333Y-55407200D02*
X105785714Y-55359580D01*
X105785714Y-55359580D02*
X105738095Y-55264342D01*
X105738095Y-55264342D02*
X105690476Y-55073866D01*
X105690476Y-55073866D02*
X105690476Y-54835771D01*
X105690476Y-54835771D02*
X105738095Y-54645295D01*
X105738095Y-54645295D02*
X105785714Y-54550057D01*
X105785714Y-54550057D02*
X105833333Y-54502438D01*
X105833333Y-54502438D02*
X105928571Y-54454819D01*
X146877142Y-55254819D02*
X146543809Y-54778628D01*
X146305714Y-55254819D02*
X146305714Y-54254819D01*
X146305714Y-54254819D02*
X146686666Y-54254819D01*
X146686666Y-54254819D02*
X146781904Y-54302438D01*
X146781904Y-54302438D02*
X146829523Y-54350057D01*
X146829523Y-54350057D02*
X146877142Y-54445295D01*
X146877142Y-54445295D02*
X146877142Y-54588152D01*
X146877142Y-54588152D02*
X146829523Y-54683390D01*
X146829523Y-54683390D02*
X146781904Y-54731009D01*
X146781904Y-54731009D02*
X146686666Y-54778628D01*
X146686666Y-54778628D02*
X146305714Y-54778628D01*
X147829523Y-55254819D02*
X147258095Y-55254819D01*
X147543809Y-55254819D02*
X147543809Y-54254819D01*
X147543809Y-54254819D02*
X147448571Y-54397676D01*
X147448571Y-54397676D02*
X147353333Y-54492914D01*
X147353333Y-54492914D02*
X147258095Y-54540533D01*
X148305714Y-55254819D02*
X148496190Y-55254819D01*
X148496190Y-55254819D02*
X148591428Y-55207200D01*
X148591428Y-55207200D02*
X148639047Y-55159580D01*
X148639047Y-55159580D02*
X148734285Y-55016723D01*
X148734285Y-55016723D02*
X148781904Y-54826247D01*
X148781904Y-54826247D02*
X148781904Y-54445295D01*
X148781904Y-54445295D02*
X148734285Y-54350057D01*
X148734285Y-54350057D02*
X148686666Y-54302438D01*
X148686666Y-54302438D02*
X148591428Y-54254819D01*
X148591428Y-54254819D02*
X148400952Y-54254819D01*
X148400952Y-54254819D02*
X148305714Y-54302438D01*
X148305714Y-54302438D02*
X148258095Y-54350057D01*
X148258095Y-54350057D02*
X148210476Y-54445295D01*
X148210476Y-54445295D02*
X148210476Y-54683390D01*
X148210476Y-54683390D02*
X148258095Y-54778628D01*
X148258095Y-54778628D02*
X148305714Y-54826247D01*
X148305714Y-54826247D02*
X148400952Y-54873866D01*
X148400952Y-54873866D02*
X148591428Y-54873866D01*
X148591428Y-54873866D02*
X148686666Y-54826247D01*
X148686666Y-54826247D02*
X148734285Y-54778628D01*
X148734285Y-54778628D02*
X148781904Y-54683390D01*
X147037142Y-51254819D02*
X146703809Y-50778628D01*
X146465714Y-51254819D02*
X146465714Y-50254819D01*
X146465714Y-50254819D02*
X146846666Y-50254819D01*
X146846666Y-50254819D02*
X146941904Y-50302438D01*
X146941904Y-50302438D02*
X146989523Y-50350057D01*
X146989523Y-50350057D02*
X147037142Y-50445295D01*
X147037142Y-50445295D02*
X147037142Y-50588152D01*
X147037142Y-50588152D02*
X146989523Y-50683390D01*
X146989523Y-50683390D02*
X146941904Y-50731009D01*
X146941904Y-50731009D02*
X146846666Y-50778628D01*
X146846666Y-50778628D02*
X146465714Y-50778628D01*
X147418095Y-50350057D02*
X147465714Y-50302438D01*
X147465714Y-50302438D02*
X147560952Y-50254819D01*
X147560952Y-50254819D02*
X147799047Y-50254819D01*
X147799047Y-50254819D02*
X147894285Y-50302438D01*
X147894285Y-50302438D02*
X147941904Y-50350057D01*
X147941904Y-50350057D02*
X147989523Y-50445295D01*
X147989523Y-50445295D02*
X147989523Y-50540533D01*
X147989523Y-50540533D02*
X147941904Y-50683390D01*
X147941904Y-50683390D02*
X147370476Y-51254819D01*
X147370476Y-51254819D02*
X147989523Y-51254819D01*
X148941904Y-51254819D02*
X148370476Y-51254819D01*
X148656190Y-51254819D02*
X148656190Y-50254819D01*
X148656190Y-50254819D02*
X148560952Y-50397676D01*
X148560952Y-50397676D02*
X148465714Y-50492914D01*
X148465714Y-50492914D02*
X148370476Y-50540533D01*
X107954819Y-79642857D02*
X107478628Y-79976190D01*
X107954819Y-80214285D02*
X106954819Y-80214285D01*
X106954819Y-80214285D02*
X106954819Y-79833333D01*
X106954819Y-79833333D02*
X107002438Y-79738095D01*
X107002438Y-79738095D02*
X107050057Y-79690476D01*
X107050057Y-79690476D02*
X107145295Y-79642857D01*
X107145295Y-79642857D02*
X107288152Y-79642857D01*
X107288152Y-79642857D02*
X107383390Y-79690476D01*
X107383390Y-79690476D02*
X107431009Y-79738095D01*
X107431009Y-79738095D02*
X107478628Y-79833333D01*
X107478628Y-79833333D02*
X107478628Y-80214285D01*
X107954819Y-78690476D02*
X107954819Y-79261904D01*
X107954819Y-78976190D02*
X106954819Y-78976190D01*
X106954819Y-78976190D02*
X107097676Y-79071428D01*
X107097676Y-79071428D02*
X107192914Y-79166666D01*
X107192914Y-79166666D02*
X107240533Y-79261904D01*
X107050057Y-78309523D02*
X107002438Y-78261904D01*
X107002438Y-78261904D02*
X106954819Y-78166666D01*
X106954819Y-78166666D02*
X106954819Y-77928571D01*
X106954819Y-77928571D02*
X107002438Y-77833333D01*
X107002438Y-77833333D02*
X107050057Y-77785714D01*
X107050057Y-77785714D02*
X107145295Y-77738095D01*
X107145295Y-77738095D02*
X107240533Y-77738095D01*
X107240533Y-77738095D02*
X107383390Y-77785714D01*
X107383390Y-77785714D02*
X107954819Y-78357142D01*
X107954819Y-78357142D02*
X107954819Y-77738095D01*
X109933333Y-89454819D02*
X109600000Y-88978628D01*
X109361905Y-89454819D02*
X109361905Y-88454819D01*
X109361905Y-88454819D02*
X109742857Y-88454819D01*
X109742857Y-88454819D02*
X109838095Y-88502438D01*
X109838095Y-88502438D02*
X109885714Y-88550057D01*
X109885714Y-88550057D02*
X109933333Y-88645295D01*
X109933333Y-88645295D02*
X109933333Y-88788152D01*
X109933333Y-88788152D02*
X109885714Y-88883390D01*
X109885714Y-88883390D02*
X109838095Y-88931009D01*
X109838095Y-88931009D02*
X109742857Y-88978628D01*
X109742857Y-88978628D02*
X109361905Y-88978628D01*
X110504762Y-88883390D02*
X110409524Y-88835771D01*
X110409524Y-88835771D02*
X110361905Y-88788152D01*
X110361905Y-88788152D02*
X110314286Y-88692914D01*
X110314286Y-88692914D02*
X110314286Y-88645295D01*
X110314286Y-88645295D02*
X110361905Y-88550057D01*
X110361905Y-88550057D02*
X110409524Y-88502438D01*
X110409524Y-88502438D02*
X110504762Y-88454819D01*
X110504762Y-88454819D02*
X110695238Y-88454819D01*
X110695238Y-88454819D02*
X110790476Y-88502438D01*
X110790476Y-88502438D02*
X110838095Y-88550057D01*
X110838095Y-88550057D02*
X110885714Y-88645295D01*
X110885714Y-88645295D02*
X110885714Y-88692914D01*
X110885714Y-88692914D02*
X110838095Y-88788152D01*
X110838095Y-88788152D02*
X110790476Y-88835771D01*
X110790476Y-88835771D02*
X110695238Y-88883390D01*
X110695238Y-88883390D02*
X110504762Y-88883390D01*
X110504762Y-88883390D02*
X110409524Y-88931009D01*
X110409524Y-88931009D02*
X110361905Y-88978628D01*
X110361905Y-88978628D02*
X110314286Y-89073866D01*
X110314286Y-89073866D02*
X110314286Y-89264342D01*
X110314286Y-89264342D02*
X110361905Y-89359580D01*
X110361905Y-89359580D02*
X110409524Y-89407200D01*
X110409524Y-89407200D02*
X110504762Y-89454819D01*
X110504762Y-89454819D02*
X110695238Y-89454819D01*
X110695238Y-89454819D02*
X110790476Y-89407200D01*
X110790476Y-89407200D02*
X110838095Y-89359580D01*
X110838095Y-89359580D02*
X110885714Y-89264342D01*
X110885714Y-89264342D02*
X110885714Y-89073866D01*
X110885714Y-89073866D02*
X110838095Y-88978628D01*
X110838095Y-88978628D02*
X110790476Y-88931009D01*
X110790476Y-88931009D02*
X110695238Y-88883390D01*
X105454819Y-139642857D02*
X104978628Y-139976190D01*
X105454819Y-140214285D02*
X104454819Y-140214285D01*
X104454819Y-140214285D02*
X104454819Y-139833333D01*
X104454819Y-139833333D02*
X104502438Y-139738095D01*
X104502438Y-139738095D02*
X104550057Y-139690476D01*
X104550057Y-139690476D02*
X104645295Y-139642857D01*
X104645295Y-139642857D02*
X104788152Y-139642857D01*
X104788152Y-139642857D02*
X104883390Y-139690476D01*
X104883390Y-139690476D02*
X104931009Y-139738095D01*
X104931009Y-139738095D02*
X104978628Y-139833333D01*
X104978628Y-139833333D02*
X104978628Y-140214285D01*
X104454819Y-139309523D02*
X104454819Y-138690476D01*
X104454819Y-138690476D02*
X104835771Y-139023809D01*
X104835771Y-139023809D02*
X104835771Y-138880952D01*
X104835771Y-138880952D02*
X104883390Y-138785714D01*
X104883390Y-138785714D02*
X104931009Y-138738095D01*
X104931009Y-138738095D02*
X105026247Y-138690476D01*
X105026247Y-138690476D02*
X105264342Y-138690476D01*
X105264342Y-138690476D02*
X105359580Y-138738095D01*
X105359580Y-138738095D02*
X105407200Y-138785714D01*
X105407200Y-138785714D02*
X105454819Y-138880952D01*
X105454819Y-138880952D02*
X105454819Y-139166666D01*
X105454819Y-139166666D02*
X105407200Y-139261904D01*
X105407200Y-139261904D02*
X105359580Y-139309523D01*
X104788152Y-137833333D02*
X105454819Y-137833333D01*
X104407200Y-138071428D02*
X105121485Y-138309523D01*
X105121485Y-138309523D02*
X105121485Y-137690476D01*
X108454819Y-139642857D02*
X107978628Y-139976190D01*
X108454819Y-140214285D02*
X107454819Y-140214285D01*
X107454819Y-140214285D02*
X107454819Y-139833333D01*
X107454819Y-139833333D02*
X107502438Y-139738095D01*
X107502438Y-139738095D02*
X107550057Y-139690476D01*
X107550057Y-139690476D02*
X107645295Y-139642857D01*
X107645295Y-139642857D02*
X107788152Y-139642857D01*
X107788152Y-139642857D02*
X107883390Y-139690476D01*
X107883390Y-139690476D02*
X107931009Y-139738095D01*
X107931009Y-139738095D02*
X107978628Y-139833333D01*
X107978628Y-139833333D02*
X107978628Y-140214285D01*
X107454819Y-139309523D02*
X107454819Y-138690476D01*
X107454819Y-138690476D02*
X107835771Y-139023809D01*
X107835771Y-139023809D02*
X107835771Y-138880952D01*
X107835771Y-138880952D02*
X107883390Y-138785714D01*
X107883390Y-138785714D02*
X107931009Y-138738095D01*
X107931009Y-138738095D02*
X108026247Y-138690476D01*
X108026247Y-138690476D02*
X108264342Y-138690476D01*
X108264342Y-138690476D02*
X108359580Y-138738095D01*
X108359580Y-138738095D02*
X108407200Y-138785714D01*
X108407200Y-138785714D02*
X108454819Y-138880952D01*
X108454819Y-138880952D02*
X108454819Y-139166666D01*
X108454819Y-139166666D02*
X108407200Y-139261904D01*
X108407200Y-139261904D02*
X108359580Y-139309523D01*
X107454819Y-138071428D02*
X107454819Y-137976190D01*
X107454819Y-137976190D02*
X107502438Y-137880952D01*
X107502438Y-137880952D02*
X107550057Y-137833333D01*
X107550057Y-137833333D02*
X107645295Y-137785714D01*
X107645295Y-137785714D02*
X107835771Y-137738095D01*
X107835771Y-137738095D02*
X108073866Y-137738095D01*
X108073866Y-137738095D02*
X108264342Y-137785714D01*
X108264342Y-137785714D02*
X108359580Y-137833333D01*
X108359580Y-137833333D02*
X108407200Y-137880952D01*
X108407200Y-137880952D02*
X108454819Y-137976190D01*
X108454819Y-137976190D02*
X108454819Y-138071428D01*
X108454819Y-138071428D02*
X108407200Y-138166666D01*
X108407200Y-138166666D02*
X108359580Y-138214285D01*
X108359580Y-138214285D02*
X108264342Y-138261904D01*
X108264342Y-138261904D02*
X108073866Y-138309523D01*
X108073866Y-138309523D02*
X107835771Y-138309523D01*
X107835771Y-138309523D02*
X107645295Y-138261904D01*
X107645295Y-138261904D02*
X107550057Y-138214285D01*
X107550057Y-138214285D02*
X107502438Y-138166666D01*
X107502438Y-138166666D02*
X107454819Y-138071428D01*
X136804819Y-66000000D02*
X136328628Y-66333333D01*
X136804819Y-66571428D02*
X135804819Y-66571428D01*
X135804819Y-66571428D02*
X135804819Y-66190476D01*
X135804819Y-66190476D02*
X135852438Y-66095238D01*
X135852438Y-66095238D02*
X135900057Y-66047619D01*
X135900057Y-66047619D02*
X135995295Y-66000000D01*
X135995295Y-66000000D02*
X136138152Y-66000000D01*
X136138152Y-66000000D02*
X136233390Y-66047619D01*
X136233390Y-66047619D02*
X136281009Y-66095238D01*
X136281009Y-66095238D02*
X136328628Y-66190476D01*
X136328628Y-66190476D02*
X136328628Y-66571428D01*
X136757200Y-65190476D02*
X136804819Y-65285714D01*
X136804819Y-65285714D02*
X136804819Y-65476190D01*
X136804819Y-65476190D02*
X136757200Y-65571428D01*
X136757200Y-65571428D02*
X136661961Y-65619047D01*
X136661961Y-65619047D02*
X136281009Y-65619047D01*
X136281009Y-65619047D02*
X136185771Y-65571428D01*
X136185771Y-65571428D02*
X136138152Y-65476190D01*
X136138152Y-65476190D02*
X136138152Y-65285714D01*
X136138152Y-65285714D02*
X136185771Y-65190476D01*
X136185771Y-65190476D02*
X136281009Y-65142857D01*
X136281009Y-65142857D02*
X136376247Y-65142857D01*
X136376247Y-65142857D02*
X136471485Y-65619047D01*
X136757200Y-64761904D02*
X136804819Y-64666666D01*
X136804819Y-64666666D02*
X136804819Y-64476190D01*
X136804819Y-64476190D02*
X136757200Y-64380952D01*
X136757200Y-64380952D02*
X136661961Y-64333333D01*
X136661961Y-64333333D02*
X136614342Y-64333333D01*
X136614342Y-64333333D02*
X136519104Y-64380952D01*
X136519104Y-64380952D02*
X136471485Y-64476190D01*
X136471485Y-64476190D02*
X136471485Y-64619047D01*
X136471485Y-64619047D02*
X136423866Y-64714285D01*
X136423866Y-64714285D02*
X136328628Y-64761904D01*
X136328628Y-64761904D02*
X136281009Y-64761904D01*
X136281009Y-64761904D02*
X136185771Y-64714285D01*
X136185771Y-64714285D02*
X136138152Y-64619047D01*
X136138152Y-64619047D02*
X136138152Y-64476190D01*
X136138152Y-64476190D02*
X136185771Y-64380952D01*
X136804819Y-63380952D02*
X136804819Y-63952380D01*
X136804819Y-63666666D02*
X135804819Y-63666666D01*
X135804819Y-63666666D02*
X135947676Y-63761904D01*
X135947676Y-63761904D02*
X136042914Y-63857142D01*
X136042914Y-63857142D02*
X136090533Y-63952380D01*
X116057200Y-66933332D02*
X116104819Y-66790475D01*
X116104819Y-66790475D02*
X116104819Y-66552380D01*
X116104819Y-66552380D02*
X116057200Y-66457142D01*
X116057200Y-66457142D02*
X116009580Y-66409523D01*
X116009580Y-66409523D02*
X115914342Y-66361904D01*
X115914342Y-66361904D02*
X115819104Y-66361904D01*
X115819104Y-66361904D02*
X115723866Y-66409523D01*
X115723866Y-66409523D02*
X115676247Y-66457142D01*
X115676247Y-66457142D02*
X115628628Y-66552380D01*
X115628628Y-66552380D02*
X115581009Y-66742856D01*
X115581009Y-66742856D02*
X115533390Y-66838094D01*
X115533390Y-66838094D02*
X115485771Y-66885713D01*
X115485771Y-66885713D02*
X115390533Y-66933332D01*
X115390533Y-66933332D02*
X115295295Y-66933332D01*
X115295295Y-66933332D02*
X115200057Y-66885713D01*
X115200057Y-66885713D02*
X115152438Y-66838094D01*
X115152438Y-66838094D02*
X115104819Y-66742856D01*
X115104819Y-66742856D02*
X115104819Y-66504761D01*
X115104819Y-66504761D02*
X115152438Y-66361904D01*
X115104819Y-66028570D02*
X116104819Y-65790475D01*
X116104819Y-65790475D02*
X115390533Y-65599999D01*
X115390533Y-65599999D02*
X116104819Y-65409523D01*
X116104819Y-65409523D02*
X115104819Y-65171428D01*
X116104819Y-64266666D02*
X116104819Y-64838094D01*
X116104819Y-64552380D02*
X115104819Y-64552380D01*
X115104819Y-64552380D02*
X115247676Y-64647618D01*
X115247676Y-64647618D02*
X115342914Y-64742856D01*
X115342914Y-64742856D02*
X115390533Y-64838094D01*
X107557142Y-111454819D02*
X107223809Y-110978628D01*
X106985714Y-111454819D02*
X106985714Y-110454819D01*
X106985714Y-110454819D02*
X107366666Y-110454819D01*
X107366666Y-110454819D02*
X107461904Y-110502438D01*
X107461904Y-110502438D02*
X107509523Y-110550057D01*
X107509523Y-110550057D02*
X107557142Y-110645295D01*
X107557142Y-110645295D02*
X107557142Y-110788152D01*
X107557142Y-110788152D02*
X107509523Y-110883390D01*
X107509523Y-110883390D02*
X107461904Y-110931009D01*
X107461904Y-110931009D02*
X107366666Y-110978628D01*
X107366666Y-110978628D02*
X106985714Y-110978628D01*
X108414285Y-110788152D02*
X108414285Y-111454819D01*
X108176190Y-110407200D02*
X107938095Y-111121485D01*
X107938095Y-111121485D02*
X108557142Y-111121485D01*
X108890476Y-110550057D02*
X108938095Y-110502438D01*
X108938095Y-110502438D02*
X109033333Y-110454819D01*
X109033333Y-110454819D02*
X109271428Y-110454819D01*
X109271428Y-110454819D02*
X109366666Y-110502438D01*
X109366666Y-110502438D02*
X109414285Y-110550057D01*
X109414285Y-110550057D02*
X109461904Y-110645295D01*
X109461904Y-110645295D02*
X109461904Y-110740533D01*
X109461904Y-110740533D02*
X109414285Y-110883390D01*
X109414285Y-110883390D02*
X108842857Y-111454819D01*
X108842857Y-111454819D02*
X109461904Y-111454819D01*
X141357142Y-112154819D02*
X141023809Y-111678628D01*
X140785714Y-112154819D02*
X140785714Y-111154819D01*
X140785714Y-111154819D02*
X141166666Y-111154819D01*
X141166666Y-111154819D02*
X141261904Y-111202438D01*
X141261904Y-111202438D02*
X141309523Y-111250057D01*
X141309523Y-111250057D02*
X141357142Y-111345295D01*
X141357142Y-111345295D02*
X141357142Y-111488152D01*
X141357142Y-111488152D02*
X141309523Y-111583390D01*
X141309523Y-111583390D02*
X141261904Y-111631009D01*
X141261904Y-111631009D02*
X141166666Y-111678628D01*
X141166666Y-111678628D02*
X140785714Y-111678628D01*
X142214285Y-111488152D02*
X142214285Y-112154819D01*
X141976190Y-111107200D02*
X141738095Y-111821485D01*
X141738095Y-111821485D02*
X142357142Y-111821485D01*
X142642857Y-111154819D02*
X143261904Y-111154819D01*
X143261904Y-111154819D02*
X142928571Y-111535771D01*
X142928571Y-111535771D02*
X143071428Y-111535771D01*
X143071428Y-111535771D02*
X143166666Y-111583390D01*
X143166666Y-111583390D02*
X143214285Y-111631009D01*
X143214285Y-111631009D02*
X143261904Y-111726247D01*
X143261904Y-111726247D02*
X143261904Y-111964342D01*
X143261904Y-111964342D02*
X143214285Y-112059580D01*
X143214285Y-112059580D02*
X143166666Y-112107200D01*
X143166666Y-112107200D02*
X143071428Y-112154819D01*
X143071428Y-112154819D02*
X142785714Y-112154819D01*
X142785714Y-112154819D02*
X142690476Y-112107200D01*
X142690476Y-112107200D02*
X142642857Y-112059580D01*
X141357142Y-108154819D02*
X141023809Y-107678628D01*
X140785714Y-108154819D02*
X140785714Y-107154819D01*
X140785714Y-107154819D02*
X141166666Y-107154819D01*
X141166666Y-107154819D02*
X141261904Y-107202438D01*
X141261904Y-107202438D02*
X141309523Y-107250057D01*
X141309523Y-107250057D02*
X141357142Y-107345295D01*
X141357142Y-107345295D02*
X141357142Y-107488152D01*
X141357142Y-107488152D02*
X141309523Y-107583390D01*
X141309523Y-107583390D02*
X141261904Y-107631009D01*
X141261904Y-107631009D02*
X141166666Y-107678628D01*
X141166666Y-107678628D02*
X140785714Y-107678628D01*
X142214285Y-107488152D02*
X142214285Y-108154819D01*
X141976190Y-107107200D02*
X141738095Y-107821485D01*
X141738095Y-107821485D02*
X142357142Y-107821485D01*
X143261904Y-108154819D02*
X142690476Y-108154819D01*
X142976190Y-108154819D02*
X142976190Y-107154819D01*
X142976190Y-107154819D02*
X142880952Y-107297676D01*
X142880952Y-107297676D02*
X142785714Y-107392914D01*
X142785714Y-107392914D02*
X142690476Y-107440533D01*
X107557142Y-114554819D02*
X107223809Y-114078628D01*
X106985714Y-114554819D02*
X106985714Y-113554819D01*
X106985714Y-113554819D02*
X107366666Y-113554819D01*
X107366666Y-113554819D02*
X107461904Y-113602438D01*
X107461904Y-113602438D02*
X107509523Y-113650057D01*
X107509523Y-113650057D02*
X107557142Y-113745295D01*
X107557142Y-113745295D02*
X107557142Y-113888152D01*
X107557142Y-113888152D02*
X107509523Y-113983390D01*
X107509523Y-113983390D02*
X107461904Y-114031009D01*
X107461904Y-114031009D02*
X107366666Y-114078628D01*
X107366666Y-114078628D02*
X106985714Y-114078628D01*
X107890476Y-113554819D02*
X108509523Y-113554819D01*
X108509523Y-113554819D02*
X108176190Y-113935771D01*
X108176190Y-113935771D02*
X108319047Y-113935771D01*
X108319047Y-113935771D02*
X108414285Y-113983390D01*
X108414285Y-113983390D02*
X108461904Y-114031009D01*
X108461904Y-114031009D02*
X108509523Y-114126247D01*
X108509523Y-114126247D02*
X108509523Y-114364342D01*
X108509523Y-114364342D02*
X108461904Y-114459580D01*
X108461904Y-114459580D02*
X108414285Y-114507200D01*
X108414285Y-114507200D02*
X108319047Y-114554819D01*
X108319047Y-114554819D02*
X108033333Y-114554819D01*
X108033333Y-114554819D02*
X107938095Y-114507200D01*
X107938095Y-114507200D02*
X107890476Y-114459580D01*
X109080952Y-113983390D02*
X108985714Y-113935771D01*
X108985714Y-113935771D02*
X108938095Y-113888152D01*
X108938095Y-113888152D02*
X108890476Y-113792914D01*
X108890476Y-113792914D02*
X108890476Y-113745295D01*
X108890476Y-113745295D02*
X108938095Y-113650057D01*
X108938095Y-113650057D02*
X108985714Y-113602438D01*
X108985714Y-113602438D02*
X109080952Y-113554819D01*
X109080952Y-113554819D02*
X109271428Y-113554819D01*
X109271428Y-113554819D02*
X109366666Y-113602438D01*
X109366666Y-113602438D02*
X109414285Y-113650057D01*
X109414285Y-113650057D02*
X109461904Y-113745295D01*
X109461904Y-113745295D02*
X109461904Y-113792914D01*
X109461904Y-113792914D02*
X109414285Y-113888152D01*
X109414285Y-113888152D02*
X109366666Y-113935771D01*
X109366666Y-113935771D02*
X109271428Y-113983390D01*
X109271428Y-113983390D02*
X109080952Y-113983390D01*
X109080952Y-113983390D02*
X108985714Y-114031009D01*
X108985714Y-114031009D02*
X108938095Y-114078628D01*
X108938095Y-114078628D02*
X108890476Y-114173866D01*
X108890476Y-114173866D02*
X108890476Y-114364342D01*
X108890476Y-114364342D02*
X108938095Y-114459580D01*
X108938095Y-114459580D02*
X108985714Y-114507200D01*
X108985714Y-114507200D02*
X109080952Y-114554819D01*
X109080952Y-114554819D02*
X109271428Y-114554819D01*
X109271428Y-114554819D02*
X109366666Y-114507200D01*
X109366666Y-114507200D02*
X109414285Y-114459580D01*
X109414285Y-114459580D02*
X109461904Y-114364342D01*
X109461904Y-114364342D02*
X109461904Y-114173866D01*
X109461904Y-114173866D02*
X109414285Y-114078628D01*
X109414285Y-114078628D02*
X109366666Y-114031009D01*
X109366666Y-114031009D02*
X109271428Y-113983390D01*
X116057200Y-126433332D02*
X116104819Y-126290475D01*
X116104819Y-126290475D02*
X116104819Y-126052380D01*
X116104819Y-126052380D02*
X116057200Y-125957142D01*
X116057200Y-125957142D02*
X116009580Y-125909523D01*
X116009580Y-125909523D02*
X115914342Y-125861904D01*
X115914342Y-125861904D02*
X115819104Y-125861904D01*
X115819104Y-125861904D02*
X115723866Y-125909523D01*
X115723866Y-125909523D02*
X115676247Y-125957142D01*
X115676247Y-125957142D02*
X115628628Y-126052380D01*
X115628628Y-126052380D02*
X115581009Y-126242856D01*
X115581009Y-126242856D02*
X115533390Y-126338094D01*
X115533390Y-126338094D02*
X115485771Y-126385713D01*
X115485771Y-126385713D02*
X115390533Y-126433332D01*
X115390533Y-126433332D02*
X115295295Y-126433332D01*
X115295295Y-126433332D02*
X115200057Y-126385713D01*
X115200057Y-126385713D02*
X115152438Y-126338094D01*
X115152438Y-126338094D02*
X115104819Y-126242856D01*
X115104819Y-126242856D02*
X115104819Y-126004761D01*
X115104819Y-126004761D02*
X115152438Y-125861904D01*
X115104819Y-125528570D02*
X116104819Y-125290475D01*
X116104819Y-125290475D02*
X115390533Y-125099999D01*
X115390533Y-125099999D02*
X116104819Y-124909523D01*
X116104819Y-124909523D02*
X115104819Y-124671428D01*
X115104819Y-124385713D02*
X115104819Y-123766666D01*
X115104819Y-123766666D02*
X115485771Y-124099999D01*
X115485771Y-124099999D02*
X115485771Y-123957142D01*
X115485771Y-123957142D02*
X115533390Y-123861904D01*
X115533390Y-123861904D02*
X115581009Y-123814285D01*
X115581009Y-123814285D02*
X115676247Y-123766666D01*
X115676247Y-123766666D02*
X115914342Y-123766666D01*
X115914342Y-123766666D02*
X116009580Y-123814285D01*
X116009580Y-123814285D02*
X116057200Y-123861904D01*
X116057200Y-123861904D02*
X116104819Y-123957142D01*
X116104819Y-123957142D02*
X116104819Y-124242856D01*
X116104819Y-124242856D02*
X116057200Y-124338094D01*
X116057200Y-124338094D02*
X116009580Y-124385713D01*
X136709580Y-126000000D02*
X136757200Y-126047619D01*
X136757200Y-126047619D02*
X136804819Y-126190476D01*
X136804819Y-126190476D02*
X136804819Y-126285714D01*
X136804819Y-126285714D02*
X136757200Y-126428571D01*
X136757200Y-126428571D02*
X136661961Y-126523809D01*
X136661961Y-126523809D02*
X136566723Y-126571428D01*
X136566723Y-126571428D02*
X136376247Y-126619047D01*
X136376247Y-126619047D02*
X136233390Y-126619047D01*
X136233390Y-126619047D02*
X136042914Y-126571428D01*
X136042914Y-126571428D02*
X135947676Y-126523809D01*
X135947676Y-126523809D02*
X135852438Y-126428571D01*
X135852438Y-126428571D02*
X135804819Y-126285714D01*
X135804819Y-126285714D02*
X135804819Y-126190476D01*
X135804819Y-126190476D02*
X135852438Y-126047619D01*
X135852438Y-126047619D02*
X135900057Y-126000000D01*
X135804819Y-125571428D02*
X136614342Y-125571428D01*
X136614342Y-125571428D02*
X136709580Y-125523809D01*
X136709580Y-125523809D02*
X136757200Y-125476190D01*
X136757200Y-125476190D02*
X136804819Y-125380952D01*
X136804819Y-125380952D02*
X136804819Y-125190476D01*
X136804819Y-125190476D02*
X136757200Y-125095238D01*
X136757200Y-125095238D02*
X136709580Y-125047619D01*
X136709580Y-125047619D02*
X136614342Y-125000000D01*
X136614342Y-125000000D02*
X135804819Y-125000000D01*
X135804819Y-124666666D02*
X135804819Y-124095238D01*
X136804819Y-124380952D02*
X135804819Y-124380952D01*
X136709580Y-123190476D02*
X136757200Y-123238095D01*
X136757200Y-123238095D02*
X136804819Y-123380952D01*
X136804819Y-123380952D02*
X136804819Y-123476190D01*
X136804819Y-123476190D02*
X136757200Y-123619047D01*
X136757200Y-123619047D02*
X136661961Y-123714285D01*
X136661961Y-123714285D02*
X136566723Y-123761904D01*
X136566723Y-123761904D02*
X136376247Y-123809523D01*
X136376247Y-123809523D02*
X136233390Y-123809523D01*
X136233390Y-123809523D02*
X136042914Y-123761904D01*
X136042914Y-123761904D02*
X135947676Y-123714285D01*
X135947676Y-123714285D02*
X135852438Y-123619047D01*
X135852438Y-123619047D02*
X135804819Y-123476190D01*
X135804819Y-123476190D02*
X135804819Y-123380952D01*
X135804819Y-123380952D02*
X135852438Y-123238095D01*
X135852438Y-123238095D02*
X135900057Y-123190476D01*
X135804819Y-122904761D02*
X136804819Y-122571428D01*
X136804819Y-122571428D02*
X135804819Y-122238095D01*
X135900057Y-121952380D02*
X135852438Y-121904761D01*
X135852438Y-121904761D02*
X135804819Y-121809523D01*
X135804819Y-121809523D02*
X135804819Y-121571428D01*
X135804819Y-121571428D02*
X135852438Y-121476190D01*
X135852438Y-121476190D02*
X135900057Y-121428571D01*
X135900057Y-121428571D02*
X135995295Y-121380952D01*
X135995295Y-121380952D02*
X136090533Y-121380952D01*
X136090533Y-121380952D02*
X136233390Y-121428571D01*
X136233390Y-121428571D02*
X136804819Y-121999999D01*
X136804819Y-121999999D02*
X136804819Y-121380952D01*
X98804819Y-125000000D02*
X98328628Y-125333333D01*
X98804819Y-125571428D02*
X97804819Y-125571428D01*
X97804819Y-125571428D02*
X97804819Y-125190476D01*
X97804819Y-125190476D02*
X97852438Y-125095238D01*
X97852438Y-125095238D02*
X97900057Y-125047619D01*
X97900057Y-125047619D02*
X97995295Y-125000000D01*
X97995295Y-125000000D02*
X98138152Y-125000000D01*
X98138152Y-125000000D02*
X98233390Y-125047619D01*
X98233390Y-125047619D02*
X98281009Y-125095238D01*
X98281009Y-125095238D02*
X98328628Y-125190476D01*
X98328628Y-125190476D02*
X98328628Y-125571428D01*
X98757200Y-124190476D02*
X98804819Y-124285714D01*
X98804819Y-124285714D02*
X98804819Y-124476190D01*
X98804819Y-124476190D02*
X98757200Y-124571428D01*
X98757200Y-124571428D02*
X98661961Y-124619047D01*
X98661961Y-124619047D02*
X98281009Y-124619047D01*
X98281009Y-124619047D02*
X98185771Y-124571428D01*
X98185771Y-124571428D02*
X98138152Y-124476190D01*
X98138152Y-124476190D02*
X98138152Y-124285714D01*
X98138152Y-124285714D02*
X98185771Y-124190476D01*
X98185771Y-124190476D02*
X98281009Y-124142857D01*
X98281009Y-124142857D02*
X98376247Y-124142857D01*
X98376247Y-124142857D02*
X98471485Y-124619047D01*
X98757200Y-123761904D02*
X98804819Y-123666666D01*
X98804819Y-123666666D02*
X98804819Y-123476190D01*
X98804819Y-123476190D02*
X98757200Y-123380952D01*
X98757200Y-123380952D02*
X98661961Y-123333333D01*
X98661961Y-123333333D02*
X98614342Y-123333333D01*
X98614342Y-123333333D02*
X98519104Y-123380952D01*
X98519104Y-123380952D02*
X98471485Y-123476190D01*
X98471485Y-123476190D02*
X98471485Y-123619047D01*
X98471485Y-123619047D02*
X98423866Y-123714285D01*
X98423866Y-123714285D02*
X98328628Y-123761904D01*
X98328628Y-123761904D02*
X98281009Y-123761904D01*
X98281009Y-123761904D02*
X98185771Y-123714285D01*
X98185771Y-123714285D02*
X98138152Y-123619047D01*
X98138152Y-123619047D02*
X98138152Y-123476190D01*
X98138152Y-123476190D02*
X98185771Y-123380952D01*
X97900057Y-122952380D02*
X97852438Y-122904761D01*
X97852438Y-122904761D02*
X97804819Y-122809523D01*
X97804819Y-122809523D02*
X97804819Y-122571428D01*
X97804819Y-122571428D02*
X97852438Y-122476190D01*
X97852438Y-122476190D02*
X97900057Y-122428571D01*
X97900057Y-122428571D02*
X97995295Y-122380952D01*
X97995295Y-122380952D02*
X98090533Y-122380952D01*
X98090533Y-122380952D02*
X98233390Y-122428571D01*
X98233390Y-122428571D02*
X98804819Y-122999999D01*
X98804819Y-122999999D02*
X98804819Y-122380952D01*
X117709580Y-106452381D02*
X117757200Y-106500000D01*
X117757200Y-106500000D02*
X117804819Y-106642857D01*
X117804819Y-106642857D02*
X117804819Y-106738095D01*
X117804819Y-106738095D02*
X117757200Y-106880952D01*
X117757200Y-106880952D02*
X117661961Y-106976190D01*
X117661961Y-106976190D02*
X117566723Y-107023809D01*
X117566723Y-107023809D02*
X117376247Y-107071428D01*
X117376247Y-107071428D02*
X117233390Y-107071428D01*
X117233390Y-107071428D02*
X117042914Y-107023809D01*
X117042914Y-107023809D02*
X116947676Y-106976190D01*
X116947676Y-106976190D02*
X116852438Y-106880952D01*
X116852438Y-106880952D02*
X116804819Y-106738095D01*
X116804819Y-106738095D02*
X116804819Y-106642857D01*
X116804819Y-106642857D02*
X116852438Y-106500000D01*
X116852438Y-106500000D02*
X116900057Y-106452381D01*
X116804819Y-106023809D02*
X117614342Y-106023809D01*
X117614342Y-106023809D02*
X117709580Y-105976190D01*
X117709580Y-105976190D02*
X117757200Y-105928571D01*
X117757200Y-105928571D02*
X117804819Y-105833333D01*
X117804819Y-105833333D02*
X117804819Y-105642857D01*
X117804819Y-105642857D02*
X117757200Y-105547619D01*
X117757200Y-105547619D02*
X117709580Y-105500000D01*
X117709580Y-105500000D02*
X117614342Y-105452381D01*
X117614342Y-105452381D02*
X116804819Y-105452381D01*
X116804819Y-105119047D02*
X116804819Y-104547619D01*
X117804819Y-104833333D02*
X116804819Y-104833333D01*
X116804819Y-104023809D02*
X116804819Y-103833333D01*
X116804819Y-103833333D02*
X116852438Y-103738095D01*
X116852438Y-103738095D02*
X116947676Y-103642857D01*
X116947676Y-103642857D02*
X117138152Y-103595238D01*
X117138152Y-103595238D02*
X117471485Y-103595238D01*
X117471485Y-103595238D02*
X117661961Y-103642857D01*
X117661961Y-103642857D02*
X117757200Y-103738095D01*
X117757200Y-103738095D02*
X117804819Y-103833333D01*
X117804819Y-103833333D02*
X117804819Y-104023809D01*
X117804819Y-104023809D02*
X117757200Y-104119047D01*
X117757200Y-104119047D02*
X117661961Y-104214285D01*
X117661961Y-104214285D02*
X117471485Y-104261904D01*
X117471485Y-104261904D02*
X117138152Y-104261904D01*
X117138152Y-104261904D02*
X116947676Y-104214285D01*
X116947676Y-104214285D02*
X116852438Y-104119047D01*
X116852438Y-104119047D02*
X116804819Y-104023809D01*
X117281009Y-102833333D02*
X117281009Y-103166666D01*
X117804819Y-103166666D02*
X116804819Y-103166666D01*
X116804819Y-103166666D02*
X116804819Y-102690476D01*
X117281009Y-101976190D02*
X117281009Y-102309523D01*
X117804819Y-102309523D02*
X116804819Y-102309523D01*
X116804819Y-102309523D02*
X116804819Y-101833333D01*
X116900057Y-101499999D02*
X116852438Y-101452380D01*
X116852438Y-101452380D02*
X116804819Y-101357142D01*
X116804819Y-101357142D02*
X116804819Y-101119047D01*
X116804819Y-101119047D02*
X116852438Y-101023809D01*
X116852438Y-101023809D02*
X116900057Y-100976190D01*
X116900057Y-100976190D02*
X116995295Y-100928571D01*
X116995295Y-100928571D02*
X117090533Y-100928571D01*
X117090533Y-100928571D02*
X117233390Y-100976190D01*
X117233390Y-100976190D02*
X117804819Y-101547618D01*
X117804819Y-101547618D02*
X117804819Y-100928571D01*
X120160476Y-134034819D02*
X120160476Y-134749104D01*
X120160476Y-134749104D02*
X120112857Y-134891961D01*
X120112857Y-134891961D02*
X120017619Y-134987200D01*
X120017619Y-134987200D02*
X119874762Y-135034819D01*
X119874762Y-135034819D02*
X119779524Y-135034819D01*
X121160476Y-135034819D02*
X120589048Y-135034819D01*
X120874762Y-135034819D02*
X120874762Y-134034819D01*
X120874762Y-134034819D02*
X120779524Y-134177676D01*
X120779524Y-134177676D02*
X120684286Y-134272914D01*
X120684286Y-134272914D02*
X120589048Y-134320533D01*
X121541429Y-134130057D02*
X121589048Y-134082438D01*
X121589048Y-134082438D02*
X121684286Y-134034819D01*
X121684286Y-134034819D02*
X121922381Y-134034819D01*
X121922381Y-134034819D02*
X122017619Y-134082438D01*
X122017619Y-134082438D02*
X122065238Y-134130057D01*
X122065238Y-134130057D02*
X122112857Y-134225295D01*
X122112857Y-134225295D02*
X122112857Y-134320533D01*
X122112857Y-134320533D02*
X122065238Y-134463390D01*
X122065238Y-134463390D02*
X121493810Y-135034819D01*
X121493810Y-135034819D02*
X122112857Y-135034819D01*
X110160476Y-134034819D02*
X110160476Y-134749104D01*
X110160476Y-134749104D02*
X110112857Y-134891961D01*
X110112857Y-134891961D02*
X110017619Y-134987200D01*
X110017619Y-134987200D02*
X109874762Y-135034819D01*
X109874762Y-135034819D02*
X109779524Y-135034819D01*
X111160476Y-135034819D02*
X110589048Y-135034819D01*
X110874762Y-135034819D02*
X110874762Y-134034819D01*
X110874762Y-134034819D02*
X110779524Y-134177676D01*
X110779524Y-134177676D02*
X110684286Y-134272914D01*
X110684286Y-134272914D02*
X110589048Y-134320533D01*
X112065238Y-134034819D02*
X111589048Y-134034819D01*
X111589048Y-134034819D02*
X111541429Y-134511009D01*
X111541429Y-134511009D02*
X111589048Y-134463390D01*
X111589048Y-134463390D02*
X111684286Y-134415771D01*
X111684286Y-134415771D02*
X111922381Y-134415771D01*
X111922381Y-134415771D02*
X112017619Y-134463390D01*
X112017619Y-134463390D02*
X112065238Y-134511009D01*
X112065238Y-134511009D02*
X112112857Y-134606247D01*
X112112857Y-134606247D02*
X112112857Y-134844342D01*
X112112857Y-134844342D02*
X112065238Y-134939580D01*
X112065238Y-134939580D02*
X112017619Y-134987200D01*
X112017619Y-134987200D02*
X111922381Y-135034819D01*
X111922381Y-135034819D02*
X111684286Y-135034819D01*
X111684286Y-135034819D02*
X111589048Y-134987200D01*
X111589048Y-134987200D02*
X111541429Y-134939580D01*
X120636666Y-74534819D02*
X120636666Y-75249104D01*
X120636666Y-75249104D02*
X120589047Y-75391961D01*
X120589047Y-75391961D02*
X120493809Y-75487200D01*
X120493809Y-75487200D02*
X120350952Y-75534819D01*
X120350952Y-75534819D02*
X120255714Y-75534819D01*
X121589047Y-74534819D02*
X121112857Y-74534819D01*
X121112857Y-74534819D02*
X121065238Y-75011009D01*
X121065238Y-75011009D02*
X121112857Y-74963390D01*
X121112857Y-74963390D02*
X121208095Y-74915771D01*
X121208095Y-74915771D02*
X121446190Y-74915771D01*
X121446190Y-74915771D02*
X121541428Y-74963390D01*
X121541428Y-74963390D02*
X121589047Y-75011009D01*
X121589047Y-75011009D02*
X121636666Y-75106247D01*
X121636666Y-75106247D02*
X121636666Y-75344342D01*
X121636666Y-75344342D02*
X121589047Y-75439580D01*
X121589047Y-75439580D02*
X121541428Y-75487200D01*
X121541428Y-75487200D02*
X121446190Y-75534819D01*
X121446190Y-75534819D02*
X121208095Y-75534819D01*
X121208095Y-75534819D02*
X121112857Y-75487200D01*
X121112857Y-75487200D02*
X121065238Y-75439580D01*
X130160476Y-134034819D02*
X130160476Y-134749104D01*
X130160476Y-134749104D02*
X130112857Y-134891961D01*
X130112857Y-134891961D02*
X130017619Y-134987200D01*
X130017619Y-134987200D02*
X129874762Y-135034819D01*
X129874762Y-135034819D02*
X129779524Y-135034819D01*
X131160476Y-135034819D02*
X130589048Y-135034819D01*
X130874762Y-135034819D02*
X130874762Y-134034819D01*
X130874762Y-134034819D02*
X130779524Y-134177676D01*
X130779524Y-134177676D02*
X130684286Y-134272914D01*
X130684286Y-134272914D02*
X130589048Y-134320533D01*
X132112857Y-135034819D02*
X131541429Y-135034819D01*
X131827143Y-135034819D02*
X131827143Y-134034819D01*
X131827143Y-134034819D02*
X131731905Y-134177676D01*
X131731905Y-134177676D02*
X131636667Y-134272914D01*
X131636667Y-134272914D02*
X131541429Y-134320533D01*
X130636666Y-74534819D02*
X130636666Y-75249104D01*
X130636666Y-75249104D02*
X130589047Y-75391961D01*
X130589047Y-75391961D02*
X130493809Y-75487200D01*
X130493809Y-75487200D02*
X130350952Y-75534819D01*
X130350952Y-75534819D02*
X130255714Y-75534819D01*
X131065238Y-74630057D02*
X131112857Y-74582438D01*
X131112857Y-74582438D02*
X131208095Y-74534819D01*
X131208095Y-74534819D02*
X131446190Y-74534819D01*
X131446190Y-74534819D02*
X131541428Y-74582438D01*
X131541428Y-74582438D02*
X131589047Y-74630057D01*
X131589047Y-74630057D02*
X131636666Y-74725295D01*
X131636666Y-74725295D02*
X131636666Y-74820533D01*
X131636666Y-74820533D02*
X131589047Y-74963390D01*
X131589047Y-74963390D02*
X131017619Y-75534819D01*
X131017619Y-75534819D02*
X131636666Y-75534819D01*
X110636666Y-74534819D02*
X110636666Y-75249104D01*
X110636666Y-75249104D02*
X110589047Y-75391961D01*
X110589047Y-75391961D02*
X110493809Y-75487200D01*
X110493809Y-75487200D02*
X110350952Y-75534819D01*
X110350952Y-75534819D02*
X110255714Y-75534819D01*
X111636666Y-75534819D02*
X111065238Y-75534819D01*
X111350952Y-75534819D02*
X111350952Y-74534819D01*
X111350952Y-74534819D02*
X111255714Y-74677676D01*
X111255714Y-74677676D02*
X111160476Y-74772914D01*
X111160476Y-74772914D02*
X111065238Y-74820533D01*
D11*
X101030000Y-57930000D02*
X110970000Y-57930000D01*
X101030000Y-61795000D02*
X101030000Y-57930000D01*
X101030000Y-70170000D02*
X101030000Y-66305000D01*
X101030000Y-70170000D02*
X102629000Y-70170000D01*
X104371000Y-70170000D02*
X105130000Y-70170000D01*
X106871000Y-70170000D02*
X107630000Y-70170000D01*
X109370000Y-70170000D02*
X110970000Y-70170000D01*
X110970000Y-61795000D02*
X110970000Y-57930000D01*
X110970000Y-70170000D02*
X110970000Y-66305000D01*
X120030000Y-36630000D02*
X129970000Y-36630000D01*
X120030000Y-40495000D02*
X120030000Y-36630000D01*
X120030000Y-48870000D02*
X120030000Y-45005000D01*
X120030000Y-48870000D02*
X121629000Y-48870000D01*
X123371000Y-48870000D02*
X124130000Y-48870000D01*
X125871000Y-48870000D02*
X126630000Y-48870000D01*
X128370000Y-48870000D02*
X129970000Y-48870000D01*
X129970000Y-40495000D02*
X129970000Y-36630000D01*
X129970000Y-48870000D02*
X129970000Y-45005000D01*
X102630000Y-75730000D02*
X102630000Y-82270000D01*
X102630000Y-82270000D02*
X105370000Y-82270000D01*
X104000000Y-74960000D02*
X104000000Y-75730000D01*
X104000000Y-83040000D02*
X104000000Y-82270000D01*
X105370000Y-75730000D02*
X102630000Y-75730000D01*
X105370000Y-82270000D02*
X105370000Y-75730000D01*
X100960000Y-55000000D02*
X101730000Y-55000000D01*
X101730000Y-53630000D02*
X101730000Y-56370000D01*
X101730000Y-56370000D02*
X108270000Y-56370000D01*
X108270000Y-53630000D02*
X101730000Y-53630000D01*
X108270000Y-56370000D02*
X108270000Y-53630000D01*
X109040000Y-55000000D02*
X108270000Y-55000000D01*
X143560000Y-54800000D02*
X144330000Y-54800000D01*
X144330000Y-53430000D02*
X144330000Y-56170000D01*
X144330000Y-56170000D02*
X150870000Y-56170000D01*
X150870000Y-53430000D02*
X144330000Y-53430000D01*
X150870000Y-56170000D02*
X150870000Y-53430000D01*
X151640000Y-54800000D02*
X150870000Y-54800000D01*
X143560000Y-50800000D02*
X144330000Y-50800000D01*
X144330000Y-49430000D02*
X144330000Y-52170000D01*
X144330000Y-52170000D02*
X150870000Y-52170000D01*
X150870000Y-49430000D02*
X144330000Y-49430000D01*
X150870000Y-52170000D02*
X150870000Y-49430000D01*
X151640000Y-50800000D02*
X150870000Y-50800000D01*
X106130000Y-75730000D02*
X106130000Y-82270000D01*
X106130000Y-82270000D02*
X108870000Y-82270000D01*
X107500000Y-74960000D02*
X107500000Y-75730000D01*
X107500000Y-83040000D02*
X107500000Y-82270000D01*
X108870000Y-75730000D02*
X106130000Y-75730000D01*
X108870000Y-82270000D02*
X108870000Y-75730000D01*
X106060000Y-89000000D02*
X106830000Y-89000000D01*
X106830000Y-87630000D02*
X106830000Y-90370000D01*
X106830000Y-90370000D02*
X113370000Y-90370000D01*
X113370000Y-87630000D02*
X106830000Y-87630000D01*
X113370000Y-90370000D02*
X113370000Y-87630000D01*
X114140000Y-89000000D02*
X113370000Y-89000000D01*
X103630000Y-135730000D02*
X103630000Y-142270000D01*
X103630000Y-142270000D02*
X106370000Y-142270000D01*
X105000000Y-134960000D02*
X105000000Y-135730000D01*
X105000000Y-143040000D02*
X105000000Y-142270000D01*
X106370000Y-135730000D02*
X103630000Y-135730000D01*
X106370000Y-142270000D02*
X106370000Y-135730000D01*
X106630000Y-135730000D02*
X106630000Y-142270000D01*
X106630000Y-142270000D02*
X109370000Y-142270000D01*
X108000000Y-134960000D02*
X108000000Y-135730000D01*
X108000000Y-143040000D02*
X108000000Y-142270000D01*
X109370000Y-135730000D02*
X106630000Y-135730000D01*
X109370000Y-142270000D02*
X109370000Y-135730000D01*
X139030000Y-57930000D02*
X148970000Y-57930000D01*
X139030000Y-61795000D02*
X139030000Y-57930000D01*
X139030000Y-70170000D02*
X139030000Y-66305000D01*
X139030000Y-70170000D02*
X140629000Y-70170000D01*
X142371000Y-70170000D02*
X143130000Y-70170000D01*
X144871000Y-70170000D02*
X145630000Y-70170000D01*
X147370000Y-70170000D02*
X148970000Y-70170000D01*
X148970000Y-61795000D02*
X148970000Y-57930000D01*
X148970000Y-70170000D02*
X148970000Y-66305000D01*
X118650000Y-59000000D02*
X128350000Y-59000000D01*
X118650000Y-65600000D02*
X118650000Y-59000000D01*
X118650000Y-65600000D02*
X118650000Y-71600000D01*
X118650000Y-71600000D02*
X118650000Y-72000000D01*
X118650000Y-72000000D02*
X118650000Y-72200000D01*
X128350000Y-72200000D02*
X118650000Y-72200000D01*
X131350000Y-59000000D02*
X128350000Y-59000000D01*
X131350000Y-59000000D02*
X131350000Y-72200000D01*
X131350000Y-72200000D02*
X128350000Y-72200000D01*
X104160000Y-111000000D02*
X104930000Y-111000000D01*
X104930000Y-109630000D02*
X104930000Y-112370000D01*
X104930000Y-112370000D02*
X111470000Y-112370000D01*
X111470000Y-109630000D02*
X104930000Y-109630000D01*
X111470000Y-112370000D02*
X111470000Y-109630000D01*
X112240000Y-111000000D02*
X111470000Y-111000000D01*
X137960000Y-111700000D02*
X138730000Y-111700000D01*
X138730000Y-110330000D02*
X138730000Y-113070000D01*
X138730000Y-113070000D02*
X145270000Y-113070000D01*
X145270000Y-110330000D02*
X138730000Y-110330000D01*
X145270000Y-113070000D02*
X145270000Y-110330000D01*
X146040000Y-111700000D02*
X145270000Y-111700000D01*
X137960000Y-107700000D02*
X138730000Y-107700000D01*
X138730000Y-106330000D02*
X138730000Y-109070000D01*
X138730000Y-109070000D02*
X145270000Y-109070000D01*
X145270000Y-106330000D02*
X138730000Y-106330000D01*
X145270000Y-109070000D02*
X145270000Y-106330000D01*
X146040000Y-107700000D02*
X145270000Y-107700000D01*
X104160000Y-114100000D02*
X104930000Y-114100000D01*
X104930000Y-112730000D02*
X104930000Y-115470000D01*
X104930000Y-115470000D02*
X111470000Y-115470000D01*
X111470000Y-112730000D02*
X104930000Y-112730000D01*
X111470000Y-115470000D02*
X111470000Y-112730000D01*
X112240000Y-114100000D02*
X111470000Y-114100000D01*
X118650000Y-118500000D02*
X128350000Y-118500000D01*
X118650000Y-125100000D02*
X118650000Y-118500000D01*
X118650000Y-125100000D02*
X118650000Y-131100000D01*
X118650000Y-131100000D02*
X118650000Y-131500000D01*
X118650000Y-131500000D02*
X118650000Y-131700000D01*
X128350000Y-131700000D02*
X118650000Y-131700000D01*
X131350000Y-118500000D02*
X128350000Y-118500000D01*
X131350000Y-118500000D02*
X131350000Y-131700000D01*
X131350000Y-131700000D02*
X128350000Y-131700000D01*
X139030000Y-116930000D02*
X148970000Y-116930000D01*
X139030000Y-120795000D02*
X139030000Y-116930000D01*
X139030000Y-129170000D02*
X139030000Y-125305000D01*
X139030000Y-129170000D02*
X140629000Y-129170000D01*
X142371000Y-129170000D02*
X143130000Y-129170000D01*
X144871000Y-129170000D02*
X145630000Y-129170000D01*
X147370000Y-129170000D02*
X148970000Y-129170000D01*
X148970000Y-120795000D02*
X148970000Y-116930000D01*
X148970000Y-129170000D02*
X148970000Y-125305000D01*
X101030000Y-116930000D02*
X110970000Y-116930000D01*
X101030000Y-120795000D02*
X101030000Y-116930000D01*
X101030000Y-129170000D02*
X101030000Y-125305000D01*
X101030000Y-129170000D02*
X102629000Y-129170000D01*
X104371000Y-129170000D02*
X105130000Y-129170000D01*
X106871000Y-129170000D02*
X107630000Y-129170000D01*
X109370000Y-129170000D02*
X110970000Y-129170000D01*
X110970000Y-120795000D02*
X110970000Y-116930000D01*
X110970000Y-129170000D02*
X110970000Y-125305000D01*
X120030000Y-96930000D02*
X129970000Y-96930000D01*
X120030000Y-100795000D02*
X120030000Y-96930000D01*
X120030000Y-109170000D02*
X120030000Y-105305000D01*
X120030000Y-109170000D02*
X121629000Y-109170000D01*
X123371000Y-109170000D02*
X124130000Y-109170000D01*
X125871000Y-109170000D02*
X126630000Y-109170000D01*
X128370000Y-109170000D02*
X129970000Y-109170000D01*
X129970000Y-100795000D02*
X129970000Y-96930000D01*
X129970000Y-109170000D02*
X129970000Y-105305000D01*
X120500000Y-135480000D02*
X120500000Y-145980000D01*
X123940000Y-132500000D02*
X123940000Y-133300000D01*
X123940000Y-132500000D02*
X124800000Y-132500000D01*
X124500000Y-145980000D02*
X120500000Y-145980000D01*
X124650000Y-135480000D02*
X120500000Y-135480000D01*
X129500000Y-135480000D02*
X125350000Y-135480000D01*
X129500000Y-135480000D02*
X129500000Y-145980000D01*
X129500000Y-145980000D02*
X125500000Y-145980000D01*
X126800000Y-139980000D02*
G75*
G02*
X123200000Y-139980000I-1800000J0D01*
G01*
X123200000Y-139980000D02*
G75*
G02*
X126800000Y-139980000I1800000J0D01*
G01*
X110500000Y-135480000D02*
X110500000Y-145980000D01*
X113940000Y-132500000D02*
X113940000Y-133300000D01*
X113940000Y-132500000D02*
X114800000Y-132500000D01*
X114500000Y-145980000D02*
X110500000Y-145980000D01*
X114650000Y-135480000D02*
X110500000Y-135480000D01*
X119500000Y-135480000D02*
X115350000Y-135480000D01*
X119500000Y-135480000D02*
X119500000Y-145980000D01*
X119500000Y-145980000D02*
X115500000Y-145980000D01*
X116800000Y-139980000D02*
G75*
G02*
X113200000Y-139980000I-1800000J0D01*
G01*
X113200000Y-139980000D02*
G75*
G02*
X116800000Y-139980000I1800000J0D01*
G01*
X120500000Y-75980000D02*
X120500000Y-86480000D01*
X123940000Y-73000000D02*
X123940000Y-73800000D01*
X123940000Y-73000000D02*
X124800000Y-73000000D01*
X124500000Y-86480000D02*
X120500000Y-86480000D01*
X124650000Y-75980000D02*
X120500000Y-75980000D01*
X129500000Y-75980000D02*
X125350000Y-75980000D01*
X129500000Y-75980000D02*
X129500000Y-86480000D01*
X129500000Y-86480000D02*
X125500000Y-86480000D01*
X126800000Y-80480000D02*
G75*
G02*
X123200000Y-80480000I-1800000J0D01*
G01*
X123200000Y-80480000D02*
G75*
G02*
X126800000Y-80480000I1800000J0D01*
G01*
X130500000Y-135480000D02*
X130500000Y-145980000D01*
X133940000Y-132500000D02*
X133940000Y-133300000D01*
X133940000Y-132500000D02*
X134800000Y-132500000D01*
X134500000Y-145980000D02*
X130500000Y-145980000D01*
X134650000Y-135480000D02*
X130500000Y-135480000D01*
X139500000Y-135480000D02*
X135350000Y-135480000D01*
X139500000Y-135480000D02*
X139500000Y-145980000D01*
X139500000Y-145980000D02*
X135500000Y-145980000D01*
X136800000Y-139980000D02*
G75*
G02*
X133200000Y-139980000I-1800000J0D01*
G01*
X133200000Y-139980000D02*
G75*
G02*
X136800000Y-139980000I1800000J0D01*
G01*
X130500000Y-75980000D02*
X130500000Y-86480000D01*
X133940000Y-73000000D02*
X133940000Y-73800000D01*
X133940000Y-73000000D02*
X134800000Y-73000000D01*
X134500000Y-86480000D02*
X130500000Y-86480000D01*
X134650000Y-75980000D02*
X130500000Y-75980000D01*
X139500000Y-75980000D02*
X135350000Y-75980000D01*
X139500000Y-75980000D02*
X139500000Y-86480000D01*
X139500000Y-86480000D02*
X135500000Y-86480000D01*
X136800000Y-80480000D02*
G75*
G02*
X133200000Y-80480000I-1800000J0D01*
G01*
X133200000Y-80480000D02*
G75*
G02*
X136800000Y-80480000I1800000J0D01*
G01*
X110500000Y-75980000D02*
X110500000Y-86480000D01*
X113940000Y-73000000D02*
X113940000Y-73800000D01*
X113940000Y-73000000D02*
X114800000Y-73000000D01*
X114500000Y-86480000D02*
X110500000Y-86480000D01*
X114650000Y-75980000D02*
X110500000Y-75980000D01*
X119500000Y-75980000D02*
X115350000Y-75980000D01*
X119500000Y-75980000D02*
X119500000Y-86480000D01*
X119500000Y-86480000D02*
X115500000Y-86480000D01*
X116800000Y-80480000D02*
G75*
G02*
X113200000Y-80480000I-1800000J0D01*
G01*
X113200000Y-80480000D02*
G75*
G02*
X116800000Y-80480000I1800000J0D01*
G01*
%LPC*%
D12*
X101600000Y-64050000D03*
X110400000Y-64050000D03*
D13*
X103500000Y-71050000D03*
X106000000Y-71050000D03*
X108500000Y-71050000D03*
D12*
X120600000Y-42750000D03*
X129400000Y-42750000D03*
D13*
X122500000Y-49750000D03*
X125000000Y-49750000D03*
X127500000Y-49750000D03*
D14*
X104000000Y-84080000D03*
D15*
X104000000Y-73920000D03*
D14*
X99920000Y-55000000D03*
D15*
X110080000Y-55000000D03*
D14*
X142520000Y-54800000D03*
D15*
X152680000Y-54800000D03*
D14*
X152680000Y-50800000D03*
D15*
X142520000Y-50800000D03*
D14*
X107500000Y-73920000D03*
D15*
X107500000Y-84080000D03*
D14*
X115180000Y-89000000D03*
D15*
X105020000Y-89000000D03*
D14*
X105000000Y-144080000D03*
D15*
X105000000Y-133920000D03*
D14*
X108000000Y-144080000D03*
D15*
X108000000Y-133920000D03*
D12*
X139600000Y-64050000D03*
X148400000Y-64050000D03*
D13*
X141500000Y-71050000D03*
X144000000Y-71050000D03*
X146500000Y-71050000D03*
D16*
X122600000Y-60900000D03*
X122600000Y-65600000D03*
X122600000Y-70300000D03*
X127400000Y-60900000D03*
X127400000Y-65600000D03*
X127400000Y-70300000D03*
D14*
X103120000Y-111000000D03*
D15*
X113280000Y-111000000D03*
D14*
X147080000Y-111700000D03*
D15*
X136920000Y-111700000D03*
D14*
X136920000Y-107700000D03*
D15*
X147080000Y-107700000D03*
D14*
X103120000Y-114100000D03*
D15*
X113280000Y-114100000D03*
D16*
X122600000Y-120400000D03*
X122600000Y-125100000D03*
X122600000Y-129800000D03*
X127400000Y-120400000D03*
X127400000Y-125100000D03*
X127400000Y-129800000D03*
D12*
X139600000Y-123050000D03*
X148400000Y-123050000D03*
D13*
X141500000Y-130050000D03*
X144000000Y-130050000D03*
X146500000Y-130050000D03*
D12*
X101600000Y-123050000D03*
X110400000Y-123050000D03*
D13*
X103500000Y-130050000D03*
X106000000Y-130050000D03*
X108500000Y-130050000D03*
D12*
X120600000Y-103050000D03*
X129400000Y-103050000D03*
D13*
X122500000Y-110050000D03*
X125000000Y-110050000D03*
X127500000Y-110050000D03*
D17*
X125000000Y-133500000D03*
D18*
X125000000Y-144900000D03*
X125000000Y-136600000D03*
D17*
X115000000Y-133500000D03*
D18*
X115000000Y-144900000D03*
X115000000Y-136600000D03*
D17*
X125000000Y-74000000D03*
D18*
X125000000Y-85400000D03*
X125000000Y-77100000D03*
D17*
X135000000Y-133500000D03*
D18*
X135000000Y-144900000D03*
X135000000Y-136600000D03*
D17*
X135000000Y-74000000D03*
D18*
X135000000Y-85400000D03*
X135000000Y-77100000D03*
D17*
X115000000Y-74000000D03*
D18*
X115000000Y-85400000D03*
X115000000Y-77100000D03*
D19*
X98000000Y-69000000D03*
D20*
X98000000Y-71540000D03*
X98000000Y-74080000D03*
X98000000Y-76620000D03*
X98000000Y-79160000D03*
X98000000Y-81700000D03*
D19*
X152000000Y-69000000D03*
D20*
X152000000Y-71540000D03*
X152000000Y-74080000D03*
X152000000Y-76620000D03*
X152000000Y-79160000D03*
X152000000Y-81700000D03*
D19*
X98000000Y-130000000D03*
D20*
X98000000Y-132540000D03*
X98000000Y-135080000D03*
X98000000Y-137620000D03*
X98000000Y-140160000D03*
X98000000Y-142700000D03*
D19*
X152000000Y-130000000D03*
D20*
X152000000Y-132540000D03*
X152000000Y-135080000D03*
X152000000Y-137620000D03*
X152000000Y-140160000D03*
X152000000Y-142700000D03*
%LPD*%
M02*
