%TF.GenerationSoftware,KiCad,Pcbnew,9.0.4-9.0.4-0~ubuntu22.04.1*%
%TF.CreationDate,2025-10-28T22:45:50+00:00*%
%TF.ProjectId,MS20-VCF,4d533230-2d56-4434-962e-6b696361645f,rev?*%
%TF.SameCoordinates,Original*%
%TF.FileFunction,Drillmap*%
%TF.FilePolarity,Positive*%
%FSLAX45Y45*%
G04 Gerber Fmt 4.5, Leading zero omitted, Abs format (unit mm)*
G04 Created by KiCad (PCBNEW 9.0.4-9.0.4-0~ubuntu22.04.1) date 2025-10-28 22:45:50*
%MOMM*%
%LPD*%
G01*
G04 APERTURE LIST*
%ADD10C,0.050000*%
%ADD11C,0.200000*%
%ADD12C,0.100000*%
%ADD13C,0.122000*%
%ADD14C,0.142000*%
%ADD15C,0.143000*%
G04 APERTURE END LIST*
D10*
X9500000Y-3650000D02*
X15500000Y-3650000D01*
X15500000Y-3650000D02*
X15500000Y-14650000D01*
X9500000Y-3650000D02*
X9500000Y-14650000D01*
X9500000Y-14650000D02*
X15500000Y-14650000D01*
D11*
D12*
X11140000Y-13920000D02*
X11180000Y-13960000D01*
X11180000Y-13920000D02*
X11140000Y-13960000D01*
X11740000Y-12690000D02*
X11780000Y-12730000D01*
X11780000Y-12690000D02*
X11740000Y-12730000D01*
X13100000Y-8700000D02*
X13140000Y-8740000D01*
X13140000Y-8700000D02*
X13100000Y-8740000D01*
X13270000Y-13050000D02*
X13310000Y-13090000D01*
X13310000Y-13050000D02*
X13270000Y-13090000D01*
X10032000Y-5500000D02*
G75*
G02*
X9952000Y-5500000I-40000J0D01*
G01*
X9952000Y-5500000D02*
G75*
G02*
X10032000Y-5500000I40000J0D01*
G01*
X10352000Y-11100000D02*
G75*
G02*
X10272000Y-11100000I-40000J0D01*
G01*
X10272000Y-11100000D02*
G75*
G02*
X10352000Y-11100000I40000J0D01*
G01*
X10352000Y-11410000D02*
G75*
G02*
X10272000Y-11410000I-40000J0D01*
G01*
X10272000Y-11410000D02*
G75*
G02*
X10352000Y-11410000I40000J0D01*
G01*
X10440000Y-7392000D02*
G75*
G02*
X10360000Y-7392000I-40000J0D01*
G01*
X10360000Y-7392000D02*
G75*
G02*
X10440000Y-7392000I40000J0D01*
G01*
X10440000Y-8408000D02*
G75*
G02*
X10360000Y-8408000I-40000J0D01*
G01*
X10360000Y-8408000D02*
G75*
G02*
X10440000Y-8408000I40000J0D01*
G01*
X10540000Y-13392000D02*
G75*
G02*
X10460000Y-13392000I-40000J0D01*
G01*
X10460000Y-13392000D02*
G75*
G02*
X10540000Y-13392000I40000J0D01*
G01*
X10540000Y-14408000D02*
G75*
G02*
X10460000Y-14408000I-40000J0D01*
G01*
X10460000Y-14408000D02*
G75*
G02*
X10540000Y-14408000I40000J0D01*
G01*
X10542000Y-8900000D02*
G75*
G02*
X10462000Y-8900000I-40000J0D01*
G01*
X10462000Y-8900000D02*
G75*
G02*
X10542000Y-8900000I40000J0D01*
G01*
X10790000Y-7392000D02*
G75*
G02*
X10710000Y-7392000I-40000J0D01*
G01*
X10710000Y-7392000D02*
G75*
G02*
X10790000Y-7392000I40000J0D01*
G01*
X10790000Y-8408000D02*
G75*
G02*
X10710000Y-8408000I-40000J0D01*
G01*
X10710000Y-8408000D02*
G75*
G02*
X10790000Y-8408000I40000J0D01*
G01*
X10840000Y-13392000D02*
G75*
G02*
X10760000Y-13392000I-40000J0D01*
G01*
X10760000Y-13392000D02*
G75*
G02*
X10840000Y-13392000I40000J0D01*
G01*
X10840000Y-14408000D02*
G75*
G02*
X10760000Y-14408000I-40000J0D01*
G01*
X10760000Y-14408000D02*
G75*
G02*
X10840000Y-14408000I40000J0D01*
G01*
X11048000Y-5500000D02*
G75*
G02*
X10968000Y-5500000I-40000J0D01*
G01*
X10968000Y-5500000D02*
G75*
G02*
X11048000Y-5500000I40000J0D01*
G01*
X11368000Y-11100000D02*
G75*
G02*
X11288000Y-11100000I-40000J0D01*
G01*
X11288000Y-11100000D02*
G75*
G02*
X11368000Y-11100000I40000J0D01*
G01*
X11368000Y-11410000D02*
G75*
G02*
X11288000Y-11410000I-40000J0D01*
G01*
X11288000Y-11410000D02*
G75*
G02*
X11368000Y-11410000I40000J0D01*
G01*
X11558000Y-8900000D02*
G75*
G02*
X11478000Y-8900000I-40000J0D01*
G01*
X11478000Y-8900000D02*
G75*
G02*
X11558000Y-8900000I40000J0D01*
G01*
X13732000Y-10770000D02*
G75*
G02*
X13652000Y-10770000I-40000J0D01*
G01*
X13652000Y-10770000D02*
G75*
G02*
X13732000Y-10770000I40000J0D01*
G01*
X13732000Y-11170000D02*
G75*
G02*
X13652000Y-11170000I-40000J0D01*
G01*
X13652000Y-11170000D02*
G75*
G02*
X13732000Y-11170000I40000J0D01*
G01*
X14292000Y-5080000D02*
G75*
G02*
X14212000Y-5080000I-40000J0D01*
G01*
X14212000Y-5080000D02*
G75*
G02*
X14292000Y-5080000I40000J0D01*
G01*
X14292000Y-5480000D02*
G75*
G02*
X14212000Y-5480000I-40000J0D01*
G01*
X14212000Y-5480000D02*
G75*
G02*
X14292000Y-5480000I40000J0D01*
G01*
X14748000Y-10770000D02*
G75*
G02*
X14668000Y-10770000I-40000J0D01*
G01*
X14668000Y-10770000D02*
G75*
G02*
X14748000Y-10770000I40000J0D01*
G01*
X14748000Y-11170000D02*
G75*
G02*
X14668000Y-11170000I-40000J0D01*
G01*
X14668000Y-11170000D02*
G75*
G02*
X14748000Y-11170000I40000J0D01*
G01*
X15308000Y-5080000D02*
G75*
G02*
X15228000Y-5080000I-40000J0D01*
G01*
X15228000Y-5080000D02*
G75*
G02*
X15308000Y-5080000I40000J0D01*
G01*
X15308000Y-5480000D02*
G75*
G02*
X15228000Y-5480000I-40000J0D01*
G01*
X15228000Y-5480000D02*
G75*
G02*
X15308000Y-5480000I40000J0D01*
G01*
X9800000Y-6850000D02*
X9800000Y-6950000D01*
X9750000Y-6900000D02*
X9850000Y-6900000D01*
X9800000Y-7104000D02*
X9800000Y-7204000D01*
X9750000Y-7154000D02*
X9850000Y-7154000D01*
X9800000Y-7358000D02*
X9800000Y-7458000D01*
X9750000Y-7408000D02*
X9850000Y-7408000D01*
X9800000Y-7612000D02*
X9800000Y-7712000D01*
X9750000Y-7662000D02*
X9850000Y-7662000D01*
X9800000Y-7866000D02*
X9800000Y-7966000D01*
X9750000Y-7916000D02*
X9850000Y-7916000D01*
X9800000Y-8120000D02*
X9800000Y-8220000D01*
X9750000Y-8170000D02*
X9850000Y-8170000D01*
X9800000Y-12950000D02*
X9800000Y-13050000D01*
X9750000Y-13000000D02*
X9850000Y-13000000D01*
X9800000Y-13204000D02*
X9800000Y-13304000D01*
X9750000Y-13254000D02*
X9850000Y-13254000D01*
X9800000Y-13458000D02*
X9800000Y-13558000D01*
X9750000Y-13508000D02*
X9850000Y-13508000D01*
X9800000Y-13712000D02*
X9800000Y-13812000D01*
X9750000Y-13762000D02*
X9850000Y-13762000D01*
X9800000Y-13966000D02*
X9800000Y-14066000D01*
X9750000Y-14016000D02*
X9850000Y-14016000D01*
X9800000Y-14220000D02*
X9800000Y-14320000D01*
X9750000Y-14270000D02*
X9850000Y-14270000D01*
X10350000Y-7055000D02*
X10350000Y-7155000D01*
X10300000Y-7105000D02*
X10400000Y-7105000D01*
X10350000Y-12955000D02*
X10350000Y-13055000D01*
X10300000Y-13005000D02*
X10400000Y-13005000D01*
X10600000Y-7055000D02*
X10600000Y-7155000D01*
X10550000Y-7105000D02*
X10650000Y-7105000D01*
X10600000Y-12955000D02*
X10600000Y-13055000D01*
X10550000Y-13005000D02*
X10650000Y-13005000D01*
X10850000Y-7055000D02*
X10850000Y-7155000D01*
X10800000Y-7105000D02*
X10900000Y-7105000D01*
X10850000Y-12955000D02*
X10850000Y-13055000D01*
X10800000Y-13005000D02*
X10900000Y-13005000D01*
X12250000Y-4925000D02*
X12250000Y-5025000D01*
X12200000Y-4975000D02*
X12300000Y-4975000D01*
X12250000Y-10955000D02*
X12250000Y-11055000D01*
X12200000Y-11005000D02*
X12300000Y-11005000D01*
X12260000Y-6040000D02*
X12260000Y-6140000D01*
X12210000Y-6090000D02*
X12310000Y-6090000D01*
X12320000Y-6040000D02*
X12200000Y-6040000D01*
X12200000Y-6140000D02*
G75*
G02*
X12200000Y-6040000I0J50000D01*
G01*
X12200000Y-6140000D02*
X12320000Y-6140000D01*
X12320000Y-6140000D02*
G75*
G03*
X12320000Y-6040000I0J50000D01*
G01*
X12260000Y-6510000D02*
X12260000Y-6610000D01*
X12210000Y-6560000D02*
X12310000Y-6560000D01*
X12320000Y-6510000D02*
X12200000Y-6510000D01*
X12200000Y-6610000D02*
G75*
G02*
X12200000Y-6510000I0J50000D01*
G01*
X12200000Y-6610000D02*
X12320000Y-6610000D01*
X12320000Y-6610000D02*
G75*
G03*
X12320000Y-6510000I0J50000D01*
G01*
X12260000Y-6980000D02*
X12260000Y-7080000D01*
X12210000Y-7030000D02*
X12310000Y-7030000D01*
X12320000Y-6980000D02*
X12200000Y-6980000D01*
X12200000Y-7080000D02*
G75*
G02*
X12200000Y-6980000I0J50000D01*
G01*
X12200000Y-7080000D02*
X12320000Y-7080000D01*
X12320000Y-7080000D02*
G75*
G03*
X12320000Y-6980000I0J50000D01*
G01*
X12260000Y-11990000D02*
X12260000Y-12090000D01*
X12210000Y-12040000D02*
X12310000Y-12040000D01*
X12320000Y-11990000D02*
X12200000Y-11990000D01*
X12200000Y-12090000D02*
G75*
G02*
X12200000Y-11990000I0J50000D01*
G01*
X12200000Y-12090000D02*
X12320000Y-12090000D01*
X12320000Y-12090000D02*
G75*
G03*
X12320000Y-11990000I0J50000D01*
G01*
X12260000Y-12460000D02*
X12260000Y-12560000D01*
X12210000Y-12510000D02*
X12310000Y-12510000D01*
X12320000Y-12460000D02*
X12200000Y-12460000D01*
X12200000Y-12560000D02*
G75*
G02*
X12200000Y-12460000I0J50000D01*
G01*
X12200000Y-12560000D02*
X12320000Y-12560000D01*
X12320000Y-12560000D02*
G75*
G03*
X12320000Y-12460000I0J50000D01*
G01*
X12260000Y-12930000D02*
X12260000Y-13030000D01*
X12210000Y-12980000D02*
X12310000Y-12980000D01*
X12320000Y-12930000D02*
X12200000Y-12930000D01*
X12200000Y-13030000D02*
G75*
G02*
X12200000Y-12930000I0J50000D01*
G01*
X12200000Y-13030000D02*
X12320000Y-13030000D01*
X12320000Y-13030000D02*
G75*
G03*
X12320000Y-12930000I0J50000D01*
G01*
X12500000Y-4925000D02*
X12500000Y-5025000D01*
X12450000Y-4975000D02*
X12550000Y-4975000D01*
X12500000Y-10955000D02*
X12500000Y-11055000D01*
X12450000Y-11005000D02*
X12550000Y-11005000D01*
X12740000Y-6040000D02*
X12740000Y-6140000D01*
X12690000Y-6090000D02*
X12790000Y-6090000D01*
X12800000Y-6040000D02*
X12680000Y-6040000D01*
X12680000Y-6140000D02*
G75*
G02*
X12680000Y-6040000I0J50000D01*
G01*
X12680000Y-6140000D02*
X12800000Y-6140000D01*
X12800000Y-6140000D02*
G75*
G03*
X12800000Y-6040000I0J50000D01*
G01*
X12740000Y-6510000D02*
X12740000Y-6610000D01*
X12690000Y-6560000D02*
X12790000Y-6560000D01*
X12800000Y-6510000D02*
X12680000Y-6510000D01*
X12680000Y-6610000D02*
G75*
G02*
X12680000Y-6510000I0J50000D01*
G01*
X12680000Y-6610000D02*
X12800000Y-6610000D01*
X12800000Y-6610000D02*
G75*
G03*
X12800000Y-6510000I0J50000D01*
G01*
X12740000Y-6980000D02*
X12740000Y-7080000D01*
X12690000Y-7030000D02*
X12790000Y-7030000D01*
X12800000Y-6980000D02*
X12680000Y-6980000D01*
X12680000Y-7080000D02*
G75*
G02*
X12680000Y-6980000I0J50000D01*
G01*
X12680000Y-7080000D02*
X12800000Y-7080000D01*
X12800000Y-7080000D02*
G75*
G03*
X12800000Y-6980000I0J50000D01*
G01*
X12740000Y-11990000D02*
X12740000Y-12090000D01*
X12690000Y-12040000D02*
X12790000Y-12040000D01*
X12800000Y-11990000D02*
X12680000Y-11990000D01*
X12680000Y-12090000D02*
G75*
G02*
X12680000Y-11990000I0J50000D01*
G01*
X12680000Y-12090000D02*
X12800000Y-12090000D01*
X12800000Y-12090000D02*
G75*
G03*
X12800000Y-11990000I0J50000D01*
G01*
X12740000Y-12460000D02*
X12740000Y-12560000D01*
X12690000Y-12510000D02*
X12790000Y-12510000D01*
X12800000Y-12460000D02*
X12680000Y-12460000D01*
X12680000Y-12560000D02*
G75*
G02*
X12680000Y-12460000I0J50000D01*
G01*
X12680000Y-12560000D02*
X12800000Y-12560000D01*
X12800000Y-12560000D02*
G75*
G03*
X12800000Y-12460000I0J50000D01*
G01*
X12740000Y-12930000D02*
X12740000Y-13030000D01*
X12690000Y-12980000D02*
X12790000Y-12980000D01*
X12800000Y-12930000D02*
X12680000Y-12930000D01*
X12680000Y-13030000D02*
G75*
G02*
X12680000Y-12930000I0J50000D01*
G01*
X12680000Y-13030000D02*
X12800000Y-13030000D01*
X12800000Y-13030000D02*
G75*
G03*
X12800000Y-12930000I0J50000D01*
G01*
X12750000Y-4925000D02*
X12750000Y-5025000D01*
X12700000Y-4975000D02*
X12800000Y-4975000D01*
X12750000Y-10955000D02*
X12750000Y-11055000D01*
X12700000Y-11005000D02*
X12800000Y-11005000D01*
X14150000Y-7055000D02*
X14150000Y-7155000D01*
X14100000Y-7105000D02*
X14200000Y-7105000D01*
X14150000Y-12955000D02*
X14150000Y-13055000D01*
X14100000Y-13005000D02*
X14200000Y-13005000D01*
X14400000Y-7055000D02*
X14400000Y-7155000D01*
X14350000Y-7105000D02*
X14450000Y-7105000D01*
X14400000Y-12955000D02*
X14400000Y-13055000D01*
X14350000Y-13005000D02*
X14450000Y-13005000D01*
X14650000Y-7055000D02*
X14650000Y-7155000D01*
X14600000Y-7105000D02*
X14700000Y-7105000D01*
X14650000Y-12955000D02*
X14650000Y-13055000D01*
X14600000Y-13005000D02*
X14700000Y-13005000D01*
X15200000Y-6850000D02*
X15200000Y-6950000D01*
X15150000Y-6900000D02*
X15250000Y-6900000D01*
X15200000Y-7104000D02*
X15200000Y-7204000D01*
X15150000Y-7154000D02*
X15250000Y-7154000D01*
X15200000Y-7358000D02*
X15200000Y-7458000D01*
X15150000Y-7408000D02*
X15250000Y-7408000D01*
X15200000Y-7612000D02*
X15200000Y-7712000D01*
X15150000Y-7662000D02*
X15250000Y-7662000D01*
X15200000Y-7866000D02*
X15200000Y-7966000D01*
X15150000Y-7916000D02*
X15250000Y-7916000D01*
X15200000Y-8120000D02*
X15200000Y-8220000D01*
X15150000Y-8170000D02*
X15250000Y-8170000D01*
X15200000Y-12950000D02*
X15200000Y-13050000D01*
X15150000Y-13000000D02*
X15250000Y-13000000D01*
X15200000Y-13204000D02*
X15200000Y-13304000D01*
X15150000Y-13254000D02*
X15250000Y-13254000D01*
X15200000Y-13458000D02*
X15200000Y-13558000D01*
X15150000Y-13508000D02*
X15250000Y-13508000D01*
X15200000Y-13712000D02*
X15200000Y-13812000D01*
X15150000Y-13762000D02*
X15250000Y-13762000D01*
X15200000Y-13966000D02*
X15200000Y-14066000D01*
X15150000Y-14016000D02*
X15250000Y-14016000D01*
X15200000Y-14220000D02*
X15200000Y-14320000D01*
X15150000Y-14270000D02*
X15250000Y-14270000D01*
D13*
X11543134Y-7443134D02*
X11543134Y-7356866D01*
X11456866Y-7356866D01*
X11456866Y-7443134D01*
X11543134Y-7443134D01*
X11543134Y-13393134D02*
X11543134Y-13306866D01*
X11456866Y-13306866D01*
X11456866Y-13393134D01*
X11543134Y-13393134D01*
X12543134Y-7443134D02*
X12543134Y-7356866D01*
X12456866Y-7356866D01*
X12456866Y-7443134D01*
X12543134Y-7443134D01*
X12543134Y-13393134D02*
X12543134Y-13306866D01*
X12456866Y-13306866D01*
X12456866Y-13393134D01*
X12543134Y-13393134D01*
X13543134Y-7443134D02*
X13543134Y-7356866D01*
X13456866Y-7356866D01*
X13456866Y-7443134D01*
X13543134Y-7443134D01*
X13543134Y-13393134D02*
X13543134Y-13306866D01*
X13456866Y-13306866D01*
X13456866Y-13393134D01*
X13543134Y-13393134D01*
D14*
X11500000Y-7781000D02*
X11571000Y-7710000D01*
X11500000Y-7639000D01*
X11429000Y-7710000D01*
X11500000Y-7781000D01*
X11500000Y-13731000D02*
X11571000Y-13660000D01*
X11500000Y-13589000D01*
X11429000Y-13660000D01*
X11500000Y-13731000D01*
X12500000Y-7781000D02*
X12571000Y-7710000D01*
X12500000Y-7639000D01*
X12429000Y-7710000D01*
X12500000Y-7781000D01*
X12500000Y-13731000D02*
X12571000Y-13660000D01*
X12500000Y-13589000D01*
X12429000Y-13660000D01*
X12500000Y-13731000D01*
X13500000Y-7781000D02*
X13571000Y-7710000D01*
X13500000Y-7639000D01*
X13429000Y-7710000D01*
X13500000Y-7781000D01*
X13500000Y-13731000D02*
X13571000Y-13660000D01*
X13500000Y-13589000D01*
X13429000Y-13660000D01*
X13500000Y-13731000D01*
D15*
X11428500Y-8468500D02*
X11571500Y-8611500D01*
X11571500Y-8468500D02*
X11428500Y-8611500D01*
X11571500Y-8540000D02*
G75*
G02*
X11428500Y-8540000I-71500J0D01*
G01*
X11428500Y-8540000D02*
G75*
G02*
X11571500Y-8540000I71500J0D01*
G01*
X11428500Y-14418500D02*
X11571500Y-14561500D01*
X11571500Y-14418500D02*
X11428500Y-14561500D01*
X11571500Y-14490000D02*
G75*
G02*
X11428500Y-14490000I-71500J0D01*
G01*
X11428500Y-14490000D02*
G75*
G02*
X11571500Y-14490000I71500J0D01*
G01*
X12428500Y-8468500D02*
X12571500Y-8611500D01*
X12571500Y-8468500D02*
X12428500Y-8611500D01*
X12571500Y-8540000D02*
G75*
G02*
X12428500Y-8540000I-71500J0D01*
G01*
X12428500Y-8540000D02*
G75*
G02*
X12571500Y-8540000I71500J0D01*
G01*
X12428500Y-14418500D02*
X12571500Y-14561500D01*
X12571500Y-14418500D02*
X12428500Y-14561500D01*
X12571500Y-14490000D02*
G75*
G02*
X12428500Y-14490000I-71500J0D01*
G01*
X12428500Y-14490000D02*
G75*
G02*
X12571500Y-14490000I71500J0D01*
G01*
X13428500Y-8468500D02*
X13571500Y-8611500D01*
X13571500Y-8468500D02*
X13428500Y-8611500D01*
X13571500Y-8540000D02*
G75*
G02*
X13428500Y-8540000I-71500J0D01*
G01*
X13428500Y-8540000D02*
G75*
G02*
X13571500Y-8540000I71500J0D01*
G01*
X13428500Y-14418500D02*
X13571500Y-14561500D01*
X13571500Y-14418500D02*
X13428500Y-14561500D01*
X13571500Y-14490000D02*
G75*
G02*
X13428500Y-14490000I-71500J0D01*
G01*
X13428500Y-14490000D02*
G75*
G02*
X13571500Y-14490000I71500J0D01*
G01*
D11*
X9758277Y-14963984D02*
X9758277Y-14763984D01*
X9758277Y-14763984D02*
X9805896Y-14763984D01*
X9805896Y-14763984D02*
X9834467Y-14773508D01*
X9834467Y-14773508D02*
X9853515Y-14792555D01*
X9853515Y-14792555D02*
X9863039Y-14811603D01*
X9863039Y-14811603D02*
X9872563Y-14849698D01*
X9872563Y-14849698D02*
X9872563Y-14878269D01*
X9872563Y-14878269D02*
X9863039Y-14916365D01*
X9863039Y-14916365D02*
X9853515Y-14935412D01*
X9853515Y-14935412D02*
X9834467Y-14954460D01*
X9834467Y-14954460D02*
X9805896Y-14963984D01*
X9805896Y-14963984D02*
X9758277Y-14963984D01*
X9958277Y-14963984D02*
X9958277Y-14830650D01*
X9958277Y-14868746D02*
X9967801Y-14849698D01*
X9967801Y-14849698D02*
X9977324Y-14840174D01*
X9977324Y-14840174D02*
X9996372Y-14830650D01*
X9996372Y-14830650D02*
X10015420Y-14830650D01*
X10082086Y-14963984D02*
X10082086Y-14830650D01*
X10082086Y-14763984D02*
X10072563Y-14773508D01*
X10072563Y-14773508D02*
X10082086Y-14783031D01*
X10082086Y-14783031D02*
X10091610Y-14773508D01*
X10091610Y-14773508D02*
X10082086Y-14763984D01*
X10082086Y-14763984D02*
X10082086Y-14783031D01*
X10205896Y-14963984D02*
X10186848Y-14954460D01*
X10186848Y-14954460D02*
X10177324Y-14935412D01*
X10177324Y-14935412D02*
X10177324Y-14763984D01*
X10310658Y-14963984D02*
X10291610Y-14954460D01*
X10291610Y-14954460D02*
X10282086Y-14935412D01*
X10282086Y-14935412D02*
X10282086Y-14763984D01*
X10539229Y-14963984D02*
X10539229Y-14763984D01*
X10539229Y-14763984D02*
X10605896Y-14906841D01*
X10605896Y-14906841D02*
X10672563Y-14763984D01*
X10672563Y-14763984D02*
X10672563Y-14963984D01*
X10853515Y-14963984D02*
X10853515Y-14859222D01*
X10853515Y-14859222D02*
X10843991Y-14840174D01*
X10843991Y-14840174D02*
X10824944Y-14830650D01*
X10824944Y-14830650D02*
X10786848Y-14830650D01*
X10786848Y-14830650D02*
X10767801Y-14840174D01*
X10853515Y-14954460D02*
X10834467Y-14963984D01*
X10834467Y-14963984D02*
X10786848Y-14963984D01*
X10786848Y-14963984D02*
X10767801Y-14954460D01*
X10767801Y-14954460D02*
X10758277Y-14935412D01*
X10758277Y-14935412D02*
X10758277Y-14916365D01*
X10758277Y-14916365D02*
X10767801Y-14897317D01*
X10767801Y-14897317D02*
X10786848Y-14887793D01*
X10786848Y-14887793D02*
X10834467Y-14887793D01*
X10834467Y-14887793D02*
X10853515Y-14878269D01*
X10948753Y-14830650D02*
X10948753Y-15030650D01*
X10948753Y-14840174D02*
X10967801Y-14830650D01*
X10967801Y-14830650D02*
X11005896Y-14830650D01*
X11005896Y-14830650D02*
X11024944Y-14840174D01*
X11024944Y-14840174D02*
X11034467Y-14849698D01*
X11034467Y-14849698D02*
X11043991Y-14868746D01*
X11043991Y-14868746D02*
X11043991Y-14925888D01*
X11043991Y-14925888D02*
X11034467Y-14944936D01*
X11034467Y-14944936D02*
X11024944Y-14954460D01*
X11024944Y-14954460D02*
X11005896Y-14963984D01*
X11005896Y-14963984D02*
X10967801Y-14963984D01*
X10967801Y-14963984D02*
X10948753Y-14954460D01*
X11129705Y-14944936D02*
X11139229Y-14954460D01*
X11139229Y-14954460D02*
X11129705Y-14963984D01*
X11129705Y-14963984D02*
X11120182Y-14954460D01*
X11120182Y-14954460D02*
X11129705Y-14944936D01*
X11129705Y-14944936D02*
X11129705Y-14963984D01*
X11129705Y-14840174D02*
X11139229Y-14849698D01*
X11139229Y-14849698D02*
X11129705Y-14859222D01*
X11129705Y-14859222D02*
X11120182Y-14849698D01*
X11120182Y-14849698D02*
X11129705Y-14840174D01*
X11129705Y-14840174D02*
X11129705Y-14859222D01*
D12*
X9457500Y-15272500D02*
X9497500Y-15312500D01*
X9497500Y-15272500D02*
X9457500Y-15312500D01*
D11*
X9796372Y-15183984D02*
X9815420Y-15183984D01*
X9815420Y-15183984D02*
X9834467Y-15193508D01*
X9834467Y-15193508D02*
X9843991Y-15203031D01*
X9843991Y-15203031D02*
X9853515Y-15222079D01*
X9853515Y-15222079D02*
X9863039Y-15260174D01*
X9863039Y-15260174D02*
X9863039Y-15307793D01*
X9863039Y-15307793D02*
X9853515Y-15345888D01*
X9853515Y-15345888D02*
X9843991Y-15364936D01*
X9843991Y-15364936D02*
X9834467Y-15374460D01*
X9834467Y-15374460D02*
X9815420Y-15383984D01*
X9815420Y-15383984D02*
X9796372Y-15383984D01*
X9796372Y-15383984D02*
X9777324Y-15374460D01*
X9777324Y-15374460D02*
X9767801Y-15364936D01*
X9767801Y-15364936D02*
X9758277Y-15345888D01*
X9758277Y-15345888D02*
X9748753Y-15307793D01*
X9748753Y-15307793D02*
X9748753Y-15260174D01*
X9748753Y-15260174D02*
X9758277Y-15222079D01*
X9758277Y-15222079D02*
X9767801Y-15203031D01*
X9767801Y-15203031D02*
X9777324Y-15193508D01*
X9777324Y-15193508D02*
X9796372Y-15183984D01*
X9948753Y-15364936D02*
X9958277Y-15374460D01*
X9958277Y-15374460D02*
X9948753Y-15383984D01*
X9948753Y-15383984D02*
X9939229Y-15374460D01*
X9939229Y-15374460D02*
X9948753Y-15364936D01*
X9948753Y-15364936D02*
X9948753Y-15383984D01*
X10129705Y-15250650D02*
X10129705Y-15383984D01*
X10082086Y-15174460D02*
X10034467Y-15317317D01*
X10034467Y-15317317D02*
X10158277Y-15317317D01*
X10272563Y-15183984D02*
X10291610Y-15183984D01*
X10291610Y-15183984D02*
X10310658Y-15193508D01*
X10310658Y-15193508D02*
X10320182Y-15203031D01*
X10320182Y-15203031D02*
X10329705Y-15222079D01*
X10329705Y-15222079D02*
X10339229Y-15260174D01*
X10339229Y-15260174D02*
X10339229Y-15307793D01*
X10339229Y-15307793D02*
X10329705Y-15345888D01*
X10329705Y-15345888D02*
X10320182Y-15364936D01*
X10320182Y-15364936D02*
X10310658Y-15374460D01*
X10310658Y-15374460D02*
X10291610Y-15383984D01*
X10291610Y-15383984D02*
X10272563Y-15383984D01*
X10272563Y-15383984D02*
X10253515Y-15374460D01*
X10253515Y-15374460D02*
X10243991Y-15364936D01*
X10243991Y-15364936D02*
X10234467Y-15345888D01*
X10234467Y-15345888D02*
X10224944Y-15307793D01*
X10224944Y-15307793D02*
X10224944Y-15260174D01*
X10224944Y-15260174D02*
X10234467Y-15222079D01*
X10234467Y-15222079D02*
X10243991Y-15203031D01*
X10243991Y-15203031D02*
X10253515Y-15193508D01*
X10253515Y-15193508D02*
X10272563Y-15183984D01*
X10463039Y-15183984D02*
X10482086Y-15183984D01*
X10482086Y-15183984D02*
X10501134Y-15193508D01*
X10501134Y-15193508D02*
X10510658Y-15203031D01*
X10510658Y-15203031D02*
X10520182Y-15222079D01*
X10520182Y-15222079D02*
X10529705Y-15260174D01*
X10529705Y-15260174D02*
X10529705Y-15307793D01*
X10529705Y-15307793D02*
X10520182Y-15345888D01*
X10520182Y-15345888D02*
X10510658Y-15364936D01*
X10510658Y-15364936D02*
X10501134Y-15374460D01*
X10501134Y-15374460D02*
X10482086Y-15383984D01*
X10482086Y-15383984D02*
X10463039Y-15383984D01*
X10463039Y-15383984D02*
X10443991Y-15374460D01*
X10443991Y-15374460D02*
X10434467Y-15364936D01*
X10434467Y-15364936D02*
X10424944Y-15345888D01*
X10424944Y-15345888D02*
X10415420Y-15307793D01*
X10415420Y-15307793D02*
X10415420Y-15260174D01*
X10415420Y-15260174D02*
X10424944Y-15222079D01*
X10424944Y-15222079D02*
X10434467Y-15203031D01*
X10434467Y-15203031D02*
X10443991Y-15193508D01*
X10443991Y-15193508D02*
X10463039Y-15183984D01*
X10615420Y-15383984D02*
X10615420Y-15250650D01*
X10615420Y-15269698D02*
X10624944Y-15260174D01*
X10624944Y-15260174D02*
X10643991Y-15250650D01*
X10643991Y-15250650D02*
X10672563Y-15250650D01*
X10672563Y-15250650D02*
X10691610Y-15260174D01*
X10691610Y-15260174D02*
X10701134Y-15279222D01*
X10701134Y-15279222D02*
X10701134Y-15383984D01*
X10701134Y-15279222D02*
X10710658Y-15260174D01*
X10710658Y-15260174D02*
X10729705Y-15250650D01*
X10729705Y-15250650D02*
X10758277Y-15250650D01*
X10758277Y-15250650D02*
X10777325Y-15260174D01*
X10777325Y-15260174D02*
X10786848Y-15279222D01*
X10786848Y-15279222D02*
X10786848Y-15383984D01*
X10882086Y-15383984D02*
X10882086Y-15250650D01*
X10882086Y-15269698D02*
X10891610Y-15260174D01*
X10891610Y-15260174D02*
X10910658Y-15250650D01*
X10910658Y-15250650D02*
X10939229Y-15250650D01*
X10939229Y-15250650D02*
X10958277Y-15260174D01*
X10958277Y-15260174D02*
X10967801Y-15279222D01*
X10967801Y-15279222D02*
X10967801Y-15383984D01*
X10967801Y-15279222D02*
X10977325Y-15260174D01*
X10977325Y-15260174D02*
X10996372Y-15250650D01*
X10996372Y-15250650D02*
X11024944Y-15250650D01*
X11024944Y-15250650D02*
X11043991Y-15260174D01*
X11043991Y-15260174D02*
X11053515Y-15279222D01*
X11053515Y-15279222D02*
X11053515Y-15383984D01*
X11443991Y-15174460D02*
X11272563Y-15431603D01*
X11701134Y-15183984D02*
X11720182Y-15183984D01*
X11720182Y-15183984D02*
X11739229Y-15193508D01*
X11739229Y-15193508D02*
X11748753Y-15203031D01*
X11748753Y-15203031D02*
X11758277Y-15222079D01*
X11758277Y-15222079D02*
X11767801Y-15260174D01*
X11767801Y-15260174D02*
X11767801Y-15307793D01*
X11767801Y-15307793D02*
X11758277Y-15345888D01*
X11758277Y-15345888D02*
X11748753Y-15364936D01*
X11748753Y-15364936D02*
X11739229Y-15374460D01*
X11739229Y-15374460D02*
X11720182Y-15383984D01*
X11720182Y-15383984D02*
X11701134Y-15383984D01*
X11701134Y-15383984D02*
X11682086Y-15374460D01*
X11682086Y-15374460D02*
X11672563Y-15364936D01*
X11672563Y-15364936D02*
X11663039Y-15345888D01*
X11663039Y-15345888D02*
X11653515Y-15307793D01*
X11653515Y-15307793D02*
X11653515Y-15260174D01*
X11653515Y-15260174D02*
X11663039Y-15222079D01*
X11663039Y-15222079D02*
X11672563Y-15203031D01*
X11672563Y-15203031D02*
X11682086Y-15193508D01*
X11682086Y-15193508D02*
X11701134Y-15183984D01*
X11853515Y-15364936D02*
X11863039Y-15374460D01*
X11863039Y-15374460D02*
X11853515Y-15383984D01*
X11853515Y-15383984D02*
X11843991Y-15374460D01*
X11843991Y-15374460D02*
X11853515Y-15364936D01*
X11853515Y-15364936D02*
X11853515Y-15383984D01*
X11986848Y-15183984D02*
X12005896Y-15183984D01*
X12005896Y-15183984D02*
X12024944Y-15193508D01*
X12024944Y-15193508D02*
X12034467Y-15203031D01*
X12034467Y-15203031D02*
X12043991Y-15222079D01*
X12043991Y-15222079D02*
X12053515Y-15260174D01*
X12053515Y-15260174D02*
X12053515Y-15307793D01*
X12053515Y-15307793D02*
X12043991Y-15345888D01*
X12043991Y-15345888D02*
X12034467Y-15364936D01*
X12034467Y-15364936D02*
X12024944Y-15374460D01*
X12024944Y-15374460D02*
X12005896Y-15383984D01*
X12005896Y-15383984D02*
X11986848Y-15383984D01*
X11986848Y-15383984D02*
X11967801Y-15374460D01*
X11967801Y-15374460D02*
X11958277Y-15364936D01*
X11958277Y-15364936D02*
X11948753Y-15345888D01*
X11948753Y-15345888D02*
X11939229Y-15307793D01*
X11939229Y-15307793D02*
X11939229Y-15260174D01*
X11939229Y-15260174D02*
X11948753Y-15222079D01*
X11948753Y-15222079D02*
X11958277Y-15203031D01*
X11958277Y-15203031D02*
X11967801Y-15193508D01*
X11967801Y-15193508D02*
X11986848Y-15183984D01*
X12243991Y-15383984D02*
X12129706Y-15383984D01*
X12186848Y-15383984D02*
X12186848Y-15183984D01*
X12186848Y-15183984D02*
X12167801Y-15212555D01*
X12167801Y-15212555D02*
X12148753Y-15231603D01*
X12148753Y-15231603D02*
X12129706Y-15241127D01*
X12424944Y-15183984D02*
X12329706Y-15183984D01*
X12329706Y-15183984D02*
X12320182Y-15279222D01*
X12320182Y-15279222D02*
X12329706Y-15269698D01*
X12329706Y-15269698D02*
X12348753Y-15260174D01*
X12348753Y-15260174D02*
X12396372Y-15260174D01*
X12396372Y-15260174D02*
X12415420Y-15269698D01*
X12415420Y-15269698D02*
X12424944Y-15279222D01*
X12424944Y-15279222D02*
X12434467Y-15298269D01*
X12434467Y-15298269D02*
X12434467Y-15345888D01*
X12434467Y-15345888D02*
X12424944Y-15364936D01*
X12424944Y-15364936D02*
X12415420Y-15374460D01*
X12415420Y-15374460D02*
X12396372Y-15383984D01*
X12396372Y-15383984D02*
X12348753Y-15383984D01*
X12348753Y-15383984D02*
X12329706Y-15374460D01*
X12329706Y-15374460D02*
X12320182Y-15364936D01*
X12501134Y-15183984D02*
X12634467Y-15183984D01*
X12634467Y-15183984D02*
X12548753Y-15383984D01*
X12701134Y-15183984D02*
X12701134Y-15222079D01*
X12777325Y-15183984D02*
X12777325Y-15222079D01*
X13072563Y-15460174D02*
X13063039Y-15450650D01*
X13063039Y-15450650D02*
X13043991Y-15422079D01*
X13043991Y-15422079D02*
X13034468Y-15403031D01*
X13034468Y-15403031D02*
X13024944Y-15374460D01*
X13024944Y-15374460D02*
X13015420Y-15326841D01*
X13015420Y-15326841D02*
X13015420Y-15288746D01*
X13015420Y-15288746D02*
X13024944Y-15241127D01*
X13024944Y-15241127D02*
X13034468Y-15212555D01*
X13034468Y-15212555D02*
X13043991Y-15193508D01*
X13043991Y-15193508D02*
X13063039Y-15164936D01*
X13063039Y-15164936D02*
X13072563Y-15155412D01*
X13234468Y-15250650D02*
X13234468Y-15383984D01*
X13186848Y-15174460D02*
X13139229Y-15317317D01*
X13139229Y-15317317D02*
X13263039Y-15317317D01*
X13491610Y-15383984D02*
X13491610Y-15183984D01*
X13577325Y-15383984D02*
X13577325Y-15279222D01*
X13577325Y-15279222D02*
X13567801Y-15260174D01*
X13567801Y-15260174D02*
X13548753Y-15250650D01*
X13548753Y-15250650D02*
X13520182Y-15250650D01*
X13520182Y-15250650D02*
X13501134Y-15260174D01*
X13501134Y-15260174D02*
X13491610Y-15269698D01*
X13701134Y-15383984D02*
X13682087Y-15374460D01*
X13682087Y-15374460D02*
X13672563Y-15364936D01*
X13672563Y-15364936D02*
X13663039Y-15345888D01*
X13663039Y-15345888D02*
X13663039Y-15288746D01*
X13663039Y-15288746D02*
X13672563Y-15269698D01*
X13672563Y-15269698D02*
X13682087Y-15260174D01*
X13682087Y-15260174D02*
X13701134Y-15250650D01*
X13701134Y-15250650D02*
X13729706Y-15250650D01*
X13729706Y-15250650D02*
X13748753Y-15260174D01*
X13748753Y-15260174D02*
X13758277Y-15269698D01*
X13758277Y-15269698D02*
X13767801Y-15288746D01*
X13767801Y-15288746D02*
X13767801Y-15345888D01*
X13767801Y-15345888D02*
X13758277Y-15364936D01*
X13758277Y-15364936D02*
X13748753Y-15374460D01*
X13748753Y-15374460D02*
X13729706Y-15383984D01*
X13729706Y-15383984D02*
X13701134Y-15383984D01*
X13882087Y-15383984D02*
X13863039Y-15374460D01*
X13863039Y-15374460D02*
X13853515Y-15355412D01*
X13853515Y-15355412D02*
X13853515Y-15183984D01*
X14034468Y-15374460D02*
X14015420Y-15383984D01*
X14015420Y-15383984D02*
X13977325Y-15383984D01*
X13977325Y-15383984D02*
X13958277Y-15374460D01*
X13958277Y-15374460D02*
X13948753Y-15355412D01*
X13948753Y-15355412D02*
X13948753Y-15279222D01*
X13948753Y-15279222D02*
X13958277Y-15260174D01*
X13958277Y-15260174D02*
X13977325Y-15250650D01*
X13977325Y-15250650D02*
X14015420Y-15250650D01*
X14015420Y-15250650D02*
X14034468Y-15260174D01*
X14034468Y-15260174D02*
X14043991Y-15279222D01*
X14043991Y-15279222D02*
X14043991Y-15298269D01*
X14043991Y-15298269D02*
X13948753Y-15317317D01*
X14120182Y-15374460D02*
X14139230Y-15383984D01*
X14139230Y-15383984D02*
X14177325Y-15383984D01*
X14177325Y-15383984D02*
X14196372Y-15374460D01*
X14196372Y-15374460D02*
X14205896Y-15355412D01*
X14205896Y-15355412D02*
X14205896Y-15345888D01*
X14205896Y-15345888D02*
X14196372Y-15326841D01*
X14196372Y-15326841D02*
X14177325Y-15317317D01*
X14177325Y-15317317D02*
X14148753Y-15317317D01*
X14148753Y-15317317D02*
X14129706Y-15307793D01*
X14129706Y-15307793D02*
X14120182Y-15288746D01*
X14120182Y-15288746D02*
X14120182Y-15279222D01*
X14120182Y-15279222D02*
X14129706Y-15260174D01*
X14129706Y-15260174D02*
X14148753Y-15250650D01*
X14148753Y-15250650D02*
X14177325Y-15250650D01*
X14177325Y-15250650D02*
X14196372Y-15260174D01*
X14272563Y-15460174D02*
X14282087Y-15450650D01*
X14282087Y-15450650D02*
X14301134Y-15422079D01*
X14301134Y-15422079D02*
X14310658Y-15403031D01*
X14310658Y-15403031D02*
X14320182Y-15374460D01*
X14320182Y-15374460D02*
X14329706Y-15326841D01*
X14329706Y-15326841D02*
X14329706Y-15288746D01*
X14329706Y-15288746D02*
X14320182Y-15241127D01*
X14320182Y-15241127D02*
X14310658Y-15212555D01*
X14310658Y-15212555D02*
X14301134Y-15193508D01*
X14301134Y-15193508D02*
X14282087Y-15164936D01*
X14282087Y-15164936D02*
X14272563Y-15155412D01*
D12*
X9497500Y-15556500D02*
G75*
G02*
X9417500Y-15556500I-40000J0D01*
G01*
X9417500Y-15556500D02*
G75*
G02*
X9497500Y-15556500I40000J0D01*
G01*
D11*
X9796372Y-15447984D02*
X9815420Y-15447984D01*
X9815420Y-15447984D02*
X9834467Y-15457508D01*
X9834467Y-15457508D02*
X9843991Y-15467031D01*
X9843991Y-15467031D02*
X9853515Y-15486079D01*
X9853515Y-15486079D02*
X9863039Y-15524174D01*
X9863039Y-15524174D02*
X9863039Y-15571793D01*
X9863039Y-15571793D02*
X9853515Y-15609888D01*
X9853515Y-15609888D02*
X9843991Y-15628936D01*
X9843991Y-15628936D02*
X9834467Y-15638460D01*
X9834467Y-15638460D02*
X9815420Y-15647984D01*
X9815420Y-15647984D02*
X9796372Y-15647984D01*
X9796372Y-15647984D02*
X9777324Y-15638460D01*
X9777324Y-15638460D02*
X9767801Y-15628936D01*
X9767801Y-15628936D02*
X9758277Y-15609888D01*
X9758277Y-15609888D02*
X9748753Y-15571793D01*
X9748753Y-15571793D02*
X9748753Y-15524174D01*
X9748753Y-15524174D02*
X9758277Y-15486079D01*
X9758277Y-15486079D02*
X9767801Y-15467031D01*
X9767801Y-15467031D02*
X9777324Y-15457508D01*
X9777324Y-15457508D02*
X9796372Y-15447984D01*
X9948753Y-15628936D02*
X9958277Y-15638460D01*
X9958277Y-15638460D02*
X9948753Y-15647984D01*
X9948753Y-15647984D02*
X9939229Y-15638460D01*
X9939229Y-15638460D02*
X9948753Y-15628936D01*
X9948753Y-15628936D02*
X9948753Y-15647984D01*
X10072563Y-15533698D02*
X10053515Y-15524174D01*
X10053515Y-15524174D02*
X10043991Y-15514650D01*
X10043991Y-15514650D02*
X10034467Y-15495603D01*
X10034467Y-15495603D02*
X10034467Y-15486079D01*
X10034467Y-15486079D02*
X10043991Y-15467031D01*
X10043991Y-15467031D02*
X10053515Y-15457508D01*
X10053515Y-15457508D02*
X10072563Y-15447984D01*
X10072563Y-15447984D02*
X10110658Y-15447984D01*
X10110658Y-15447984D02*
X10129705Y-15457508D01*
X10129705Y-15457508D02*
X10139229Y-15467031D01*
X10139229Y-15467031D02*
X10148753Y-15486079D01*
X10148753Y-15486079D02*
X10148753Y-15495603D01*
X10148753Y-15495603D02*
X10139229Y-15514650D01*
X10139229Y-15514650D02*
X10129705Y-15524174D01*
X10129705Y-15524174D02*
X10110658Y-15533698D01*
X10110658Y-15533698D02*
X10072563Y-15533698D01*
X10072563Y-15533698D02*
X10053515Y-15543222D01*
X10053515Y-15543222D02*
X10043991Y-15552746D01*
X10043991Y-15552746D02*
X10034467Y-15571793D01*
X10034467Y-15571793D02*
X10034467Y-15609888D01*
X10034467Y-15609888D02*
X10043991Y-15628936D01*
X10043991Y-15628936D02*
X10053515Y-15638460D01*
X10053515Y-15638460D02*
X10072563Y-15647984D01*
X10072563Y-15647984D02*
X10110658Y-15647984D01*
X10110658Y-15647984D02*
X10129705Y-15638460D01*
X10129705Y-15638460D02*
X10139229Y-15628936D01*
X10139229Y-15628936D02*
X10148753Y-15609888D01*
X10148753Y-15609888D02*
X10148753Y-15571793D01*
X10148753Y-15571793D02*
X10139229Y-15552746D01*
X10139229Y-15552746D02*
X10129705Y-15543222D01*
X10129705Y-15543222D02*
X10110658Y-15533698D01*
X10272563Y-15447984D02*
X10291610Y-15447984D01*
X10291610Y-15447984D02*
X10310658Y-15457508D01*
X10310658Y-15457508D02*
X10320182Y-15467031D01*
X10320182Y-15467031D02*
X10329705Y-15486079D01*
X10329705Y-15486079D02*
X10339229Y-15524174D01*
X10339229Y-15524174D02*
X10339229Y-15571793D01*
X10339229Y-15571793D02*
X10329705Y-15609888D01*
X10329705Y-15609888D02*
X10320182Y-15628936D01*
X10320182Y-15628936D02*
X10310658Y-15638460D01*
X10310658Y-15638460D02*
X10291610Y-15647984D01*
X10291610Y-15647984D02*
X10272563Y-15647984D01*
X10272563Y-15647984D02*
X10253515Y-15638460D01*
X10253515Y-15638460D02*
X10243991Y-15628936D01*
X10243991Y-15628936D02*
X10234467Y-15609888D01*
X10234467Y-15609888D02*
X10224944Y-15571793D01*
X10224944Y-15571793D02*
X10224944Y-15524174D01*
X10224944Y-15524174D02*
X10234467Y-15486079D01*
X10234467Y-15486079D02*
X10243991Y-15467031D01*
X10243991Y-15467031D02*
X10253515Y-15457508D01*
X10253515Y-15457508D02*
X10272563Y-15447984D01*
X10463039Y-15447984D02*
X10482086Y-15447984D01*
X10482086Y-15447984D02*
X10501134Y-15457508D01*
X10501134Y-15457508D02*
X10510658Y-15467031D01*
X10510658Y-15467031D02*
X10520182Y-15486079D01*
X10520182Y-15486079D02*
X10529705Y-15524174D01*
X10529705Y-15524174D02*
X10529705Y-15571793D01*
X10529705Y-15571793D02*
X10520182Y-15609888D01*
X10520182Y-15609888D02*
X10510658Y-15628936D01*
X10510658Y-15628936D02*
X10501134Y-15638460D01*
X10501134Y-15638460D02*
X10482086Y-15647984D01*
X10482086Y-15647984D02*
X10463039Y-15647984D01*
X10463039Y-15647984D02*
X10443991Y-15638460D01*
X10443991Y-15638460D02*
X10434467Y-15628936D01*
X10434467Y-15628936D02*
X10424944Y-15609888D01*
X10424944Y-15609888D02*
X10415420Y-15571793D01*
X10415420Y-15571793D02*
X10415420Y-15524174D01*
X10415420Y-15524174D02*
X10424944Y-15486079D01*
X10424944Y-15486079D02*
X10434467Y-15467031D01*
X10434467Y-15467031D02*
X10443991Y-15457508D01*
X10443991Y-15457508D02*
X10463039Y-15447984D01*
X10615420Y-15647984D02*
X10615420Y-15514650D01*
X10615420Y-15533698D02*
X10624944Y-15524174D01*
X10624944Y-15524174D02*
X10643991Y-15514650D01*
X10643991Y-15514650D02*
X10672563Y-15514650D01*
X10672563Y-15514650D02*
X10691610Y-15524174D01*
X10691610Y-15524174D02*
X10701134Y-15543222D01*
X10701134Y-15543222D02*
X10701134Y-15647984D01*
X10701134Y-15543222D02*
X10710658Y-15524174D01*
X10710658Y-15524174D02*
X10729705Y-15514650D01*
X10729705Y-15514650D02*
X10758277Y-15514650D01*
X10758277Y-15514650D02*
X10777325Y-15524174D01*
X10777325Y-15524174D02*
X10786848Y-15543222D01*
X10786848Y-15543222D02*
X10786848Y-15647984D01*
X10882086Y-15647984D02*
X10882086Y-15514650D01*
X10882086Y-15533698D02*
X10891610Y-15524174D01*
X10891610Y-15524174D02*
X10910658Y-15514650D01*
X10910658Y-15514650D02*
X10939229Y-15514650D01*
X10939229Y-15514650D02*
X10958277Y-15524174D01*
X10958277Y-15524174D02*
X10967801Y-15543222D01*
X10967801Y-15543222D02*
X10967801Y-15647984D01*
X10967801Y-15543222D02*
X10977325Y-15524174D01*
X10977325Y-15524174D02*
X10996372Y-15514650D01*
X10996372Y-15514650D02*
X11024944Y-15514650D01*
X11024944Y-15514650D02*
X11043991Y-15524174D01*
X11043991Y-15524174D02*
X11053515Y-15543222D01*
X11053515Y-15543222D02*
X11053515Y-15647984D01*
X11443991Y-15438460D02*
X11272563Y-15695603D01*
X11701134Y-15447984D02*
X11720182Y-15447984D01*
X11720182Y-15447984D02*
X11739229Y-15457508D01*
X11739229Y-15457508D02*
X11748753Y-15467031D01*
X11748753Y-15467031D02*
X11758277Y-15486079D01*
X11758277Y-15486079D02*
X11767801Y-15524174D01*
X11767801Y-15524174D02*
X11767801Y-15571793D01*
X11767801Y-15571793D02*
X11758277Y-15609888D01*
X11758277Y-15609888D02*
X11748753Y-15628936D01*
X11748753Y-15628936D02*
X11739229Y-15638460D01*
X11739229Y-15638460D02*
X11720182Y-15647984D01*
X11720182Y-15647984D02*
X11701134Y-15647984D01*
X11701134Y-15647984D02*
X11682086Y-15638460D01*
X11682086Y-15638460D02*
X11672563Y-15628936D01*
X11672563Y-15628936D02*
X11663039Y-15609888D01*
X11663039Y-15609888D02*
X11653515Y-15571793D01*
X11653515Y-15571793D02*
X11653515Y-15524174D01*
X11653515Y-15524174D02*
X11663039Y-15486079D01*
X11663039Y-15486079D02*
X11672563Y-15467031D01*
X11672563Y-15467031D02*
X11682086Y-15457508D01*
X11682086Y-15457508D02*
X11701134Y-15447984D01*
X11853515Y-15628936D02*
X11863039Y-15638460D01*
X11863039Y-15638460D02*
X11853515Y-15647984D01*
X11853515Y-15647984D02*
X11843991Y-15638460D01*
X11843991Y-15638460D02*
X11853515Y-15628936D01*
X11853515Y-15628936D02*
X11853515Y-15647984D01*
X11986848Y-15447984D02*
X12005896Y-15447984D01*
X12005896Y-15447984D02*
X12024944Y-15457508D01*
X12024944Y-15457508D02*
X12034467Y-15467031D01*
X12034467Y-15467031D02*
X12043991Y-15486079D01*
X12043991Y-15486079D02*
X12053515Y-15524174D01*
X12053515Y-15524174D02*
X12053515Y-15571793D01*
X12053515Y-15571793D02*
X12043991Y-15609888D01*
X12043991Y-15609888D02*
X12034467Y-15628936D01*
X12034467Y-15628936D02*
X12024944Y-15638460D01*
X12024944Y-15638460D02*
X12005896Y-15647984D01*
X12005896Y-15647984D02*
X11986848Y-15647984D01*
X11986848Y-15647984D02*
X11967801Y-15638460D01*
X11967801Y-15638460D02*
X11958277Y-15628936D01*
X11958277Y-15628936D02*
X11948753Y-15609888D01*
X11948753Y-15609888D02*
X11939229Y-15571793D01*
X11939229Y-15571793D02*
X11939229Y-15524174D01*
X11939229Y-15524174D02*
X11948753Y-15486079D01*
X11948753Y-15486079D02*
X11958277Y-15467031D01*
X11958277Y-15467031D02*
X11967801Y-15457508D01*
X11967801Y-15457508D02*
X11986848Y-15447984D01*
X12120182Y-15447984D02*
X12243991Y-15447984D01*
X12243991Y-15447984D02*
X12177325Y-15524174D01*
X12177325Y-15524174D02*
X12205896Y-15524174D01*
X12205896Y-15524174D02*
X12224944Y-15533698D01*
X12224944Y-15533698D02*
X12234467Y-15543222D01*
X12234467Y-15543222D02*
X12243991Y-15562269D01*
X12243991Y-15562269D02*
X12243991Y-15609888D01*
X12243991Y-15609888D02*
X12234467Y-15628936D01*
X12234467Y-15628936D02*
X12224944Y-15638460D01*
X12224944Y-15638460D02*
X12205896Y-15647984D01*
X12205896Y-15647984D02*
X12148753Y-15647984D01*
X12148753Y-15647984D02*
X12129706Y-15638460D01*
X12129706Y-15638460D02*
X12120182Y-15628936D01*
X12434467Y-15647984D02*
X12320182Y-15647984D01*
X12377325Y-15647984D02*
X12377325Y-15447984D01*
X12377325Y-15447984D02*
X12358277Y-15476555D01*
X12358277Y-15476555D02*
X12339229Y-15495603D01*
X12339229Y-15495603D02*
X12320182Y-15505127D01*
X12615420Y-15447984D02*
X12520182Y-15447984D01*
X12520182Y-15447984D02*
X12510658Y-15543222D01*
X12510658Y-15543222D02*
X12520182Y-15533698D01*
X12520182Y-15533698D02*
X12539229Y-15524174D01*
X12539229Y-15524174D02*
X12586848Y-15524174D01*
X12586848Y-15524174D02*
X12605896Y-15533698D01*
X12605896Y-15533698D02*
X12615420Y-15543222D01*
X12615420Y-15543222D02*
X12624944Y-15562269D01*
X12624944Y-15562269D02*
X12624944Y-15609888D01*
X12624944Y-15609888D02*
X12615420Y-15628936D01*
X12615420Y-15628936D02*
X12605896Y-15638460D01*
X12605896Y-15638460D02*
X12586848Y-15647984D01*
X12586848Y-15647984D02*
X12539229Y-15647984D01*
X12539229Y-15647984D02*
X12520182Y-15638460D01*
X12520182Y-15638460D02*
X12510658Y-15628936D01*
X12701134Y-15447984D02*
X12701134Y-15486079D01*
X12777325Y-15447984D02*
X12777325Y-15486079D01*
X13072563Y-15724174D02*
X13063039Y-15714650D01*
X13063039Y-15714650D02*
X13043991Y-15686079D01*
X13043991Y-15686079D02*
X13034468Y-15667031D01*
X13034468Y-15667031D02*
X13024944Y-15638460D01*
X13024944Y-15638460D02*
X13015420Y-15590841D01*
X13015420Y-15590841D02*
X13015420Y-15552746D01*
X13015420Y-15552746D02*
X13024944Y-15505127D01*
X13024944Y-15505127D02*
X13034468Y-15476555D01*
X13034468Y-15476555D02*
X13043991Y-15457508D01*
X13043991Y-15457508D02*
X13063039Y-15428936D01*
X13063039Y-15428936D02*
X13072563Y-15419412D01*
X13139229Y-15467031D02*
X13148753Y-15457508D01*
X13148753Y-15457508D02*
X13167801Y-15447984D01*
X13167801Y-15447984D02*
X13215420Y-15447984D01*
X13215420Y-15447984D02*
X13234468Y-15457508D01*
X13234468Y-15457508D02*
X13243991Y-15467031D01*
X13243991Y-15467031D02*
X13253515Y-15486079D01*
X13253515Y-15486079D02*
X13253515Y-15505127D01*
X13253515Y-15505127D02*
X13243991Y-15533698D01*
X13243991Y-15533698D02*
X13129706Y-15647984D01*
X13129706Y-15647984D02*
X13253515Y-15647984D01*
X13424944Y-15514650D02*
X13424944Y-15647984D01*
X13377325Y-15438460D02*
X13329706Y-15581317D01*
X13329706Y-15581317D02*
X13453515Y-15581317D01*
X13682087Y-15647984D02*
X13682087Y-15447984D01*
X13767801Y-15647984D02*
X13767801Y-15543222D01*
X13767801Y-15543222D02*
X13758277Y-15524174D01*
X13758277Y-15524174D02*
X13739230Y-15514650D01*
X13739230Y-15514650D02*
X13710658Y-15514650D01*
X13710658Y-15514650D02*
X13691610Y-15524174D01*
X13691610Y-15524174D02*
X13682087Y-15533698D01*
X13891610Y-15647984D02*
X13872563Y-15638460D01*
X13872563Y-15638460D02*
X13863039Y-15628936D01*
X13863039Y-15628936D02*
X13853515Y-15609888D01*
X13853515Y-15609888D02*
X13853515Y-15552746D01*
X13853515Y-15552746D02*
X13863039Y-15533698D01*
X13863039Y-15533698D02*
X13872563Y-15524174D01*
X13872563Y-15524174D02*
X13891610Y-15514650D01*
X13891610Y-15514650D02*
X13920182Y-15514650D01*
X13920182Y-15514650D02*
X13939230Y-15524174D01*
X13939230Y-15524174D02*
X13948753Y-15533698D01*
X13948753Y-15533698D02*
X13958277Y-15552746D01*
X13958277Y-15552746D02*
X13958277Y-15609888D01*
X13958277Y-15609888D02*
X13948753Y-15628936D01*
X13948753Y-15628936D02*
X13939230Y-15638460D01*
X13939230Y-15638460D02*
X13920182Y-15647984D01*
X13920182Y-15647984D02*
X13891610Y-15647984D01*
X14072563Y-15647984D02*
X14053515Y-15638460D01*
X14053515Y-15638460D02*
X14043991Y-15619412D01*
X14043991Y-15619412D02*
X14043991Y-15447984D01*
X14224944Y-15638460D02*
X14205896Y-15647984D01*
X14205896Y-15647984D02*
X14167801Y-15647984D01*
X14167801Y-15647984D02*
X14148753Y-15638460D01*
X14148753Y-15638460D02*
X14139230Y-15619412D01*
X14139230Y-15619412D02*
X14139230Y-15543222D01*
X14139230Y-15543222D02*
X14148753Y-15524174D01*
X14148753Y-15524174D02*
X14167801Y-15514650D01*
X14167801Y-15514650D02*
X14205896Y-15514650D01*
X14205896Y-15514650D02*
X14224944Y-15524174D01*
X14224944Y-15524174D02*
X14234468Y-15543222D01*
X14234468Y-15543222D02*
X14234468Y-15562269D01*
X14234468Y-15562269D02*
X14139230Y-15581317D01*
X14310658Y-15638460D02*
X14329706Y-15647984D01*
X14329706Y-15647984D02*
X14367801Y-15647984D01*
X14367801Y-15647984D02*
X14386849Y-15638460D01*
X14386849Y-15638460D02*
X14396372Y-15619412D01*
X14396372Y-15619412D02*
X14396372Y-15609888D01*
X14396372Y-15609888D02*
X14386849Y-15590841D01*
X14386849Y-15590841D02*
X14367801Y-15581317D01*
X14367801Y-15581317D02*
X14339230Y-15581317D01*
X14339230Y-15581317D02*
X14320182Y-15571793D01*
X14320182Y-15571793D02*
X14310658Y-15552746D01*
X14310658Y-15552746D02*
X14310658Y-15543222D01*
X14310658Y-15543222D02*
X14320182Y-15524174D01*
X14320182Y-15524174D02*
X14339230Y-15514650D01*
X14339230Y-15514650D02*
X14367801Y-15514650D01*
X14367801Y-15514650D02*
X14386849Y-15524174D01*
X14463039Y-15724174D02*
X14472563Y-15714650D01*
X14472563Y-15714650D02*
X14491611Y-15686079D01*
X14491611Y-15686079D02*
X14501134Y-15667031D01*
X14501134Y-15667031D02*
X14510658Y-15638460D01*
X14510658Y-15638460D02*
X14520182Y-15590841D01*
X14520182Y-15590841D02*
X14520182Y-15552746D01*
X14520182Y-15552746D02*
X14510658Y-15505127D01*
X14510658Y-15505127D02*
X14501134Y-15476555D01*
X14501134Y-15476555D02*
X14491611Y-15457508D01*
X14491611Y-15457508D02*
X14472563Y-15428936D01*
X14472563Y-15428936D02*
X14463039Y-15419412D01*
D12*
X9447500Y-15770500D02*
X9447500Y-15870500D01*
X9397500Y-15820500D02*
X9497500Y-15820500D01*
D11*
X9863039Y-15911984D02*
X9748753Y-15911984D01*
X9805896Y-15911984D02*
X9805896Y-15711984D01*
X9805896Y-15711984D02*
X9786848Y-15740555D01*
X9786848Y-15740555D02*
X9767801Y-15759603D01*
X9767801Y-15759603D02*
X9748753Y-15769127D01*
X9948753Y-15892936D02*
X9958277Y-15902460D01*
X9958277Y-15902460D02*
X9948753Y-15911984D01*
X9948753Y-15911984D02*
X9939229Y-15902460D01*
X9939229Y-15902460D02*
X9948753Y-15892936D01*
X9948753Y-15892936D02*
X9948753Y-15911984D01*
X10082086Y-15711984D02*
X10101134Y-15711984D01*
X10101134Y-15711984D02*
X10120182Y-15721508D01*
X10120182Y-15721508D02*
X10129705Y-15731031D01*
X10129705Y-15731031D02*
X10139229Y-15750079D01*
X10139229Y-15750079D02*
X10148753Y-15788174D01*
X10148753Y-15788174D02*
X10148753Y-15835793D01*
X10148753Y-15835793D02*
X10139229Y-15873888D01*
X10139229Y-15873888D02*
X10129705Y-15892936D01*
X10129705Y-15892936D02*
X10120182Y-15902460D01*
X10120182Y-15902460D02*
X10101134Y-15911984D01*
X10101134Y-15911984D02*
X10082086Y-15911984D01*
X10082086Y-15911984D02*
X10063039Y-15902460D01*
X10063039Y-15902460D02*
X10053515Y-15892936D01*
X10053515Y-15892936D02*
X10043991Y-15873888D01*
X10043991Y-15873888D02*
X10034467Y-15835793D01*
X10034467Y-15835793D02*
X10034467Y-15788174D01*
X10034467Y-15788174D02*
X10043991Y-15750079D01*
X10043991Y-15750079D02*
X10053515Y-15731031D01*
X10053515Y-15731031D02*
X10063039Y-15721508D01*
X10063039Y-15721508D02*
X10082086Y-15711984D01*
X10272563Y-15711984D02*
X10291610Y-15711984D01*
X10291610Y-15711984D02*
X10310658Y-15721508D01*
X10310658Y-15721508D02*
X10320182Y-15731031D01*
X10320182Y-15731031D02*
X10329705Y-15750079D01*
X10329705Y-15750079D02*
X10339229Y-15788174D01*
X10339229Y-15788174D02*
X10339229Y-15835793D01*
X10339229Y-15835793D02*
X10329705Y-15873888D01*
X10329705Y-15873888D02*
X10320182Y-15892936D01*
X10320182Y-15892936D02*
X10310658Y-15902460D01*
X10310658Y-15902460D02*
X10291610Y-15911984D01*
X10291610Y-15911984D02*
X10272563Y-15911984D01*
X10272563Y-15911984D02*
X10253515Y-15902460D01*
X10253515Y-15902460D02*
X10243991Y-15892936D01*
X10243991Y-15892936D02*
X10234467Y-15873888D01*
X10234467Y-15873888D02*
X10224944Y-15835793D01*
X10224944Y-15835793D02*
X10224944Y-15788174D01*
X10224944Y-15788174D02*
X10234467Y-15750079D01*
X10234467Y-15750079D02*
X10243991Y-15731031D01*
X10243991Y-15731031D02*
X10253515Y-15721508D01*
X10253515Y-15721508D02*
X10272563Y-15711984D01*
X10463039Y-15711984D02*
X10482086Y-15711984D01*
X10482086Y-15711984D02*
X10501134Y-15721508D01*
X10501134Y-15721508D02*
X10510658Y-15731031D01*
X10510658Y-15731031D02*
X10520182Y-15750079D01*
X10520182Y-15750079D02*
X10529705Y-15788174D01*
X10529705Y-15788174D02*
X10529705Y-15835793D01*
X10529705Y-15835793D02*
X10520182Y-15873888D01*
X10520182Y-15873888D02*
X10510658Y-15892936D01*
X10510658Y-15892936D02*
X10501134Y-15902460D01*
X10501134Y-15902460D02*
X10482086Y-15911984D01*
X10482086Y-15911984D02*
X10463039Y-15911984D01*
X10463039Y-15911984D02*
X10443991Y-15902460D01*
X10443991Y-15902460D02*
X10434467Y-15892936D01*
X10434467Y-15892936D02*
X10424944Y-15873888D01*
X10424944Y-15873888D02*
X10415420Y-15835793D01*
X10415420Y-15835793D02*
X10415420Y-15788174D01*
X10415420Y-15788174D02*
X10424944Y-15750079D01*
X10424944Y-15750079D02*
X10434467Y-15731031D01*
X10434467Y-15731031D02*
X10443991Y-15721508D01*
X10443991Y-15721508D02*
X10463039Y-15711984D01*
X10615420Y-15911984D02*
X10615420Y-15778650D01*
X10615420Y-15797698D02*
X10624944Y-15788174D01*
X10624944Y-15788174D02*
X10643991Y-15778650D01*
X10643991Y-15778650D02*
X10672563Y-15778650D01*
X10672563Y-15778650D02*
X10691610Y-15788174D01*
X10691610Y-15788174D02*
X10701134Y-15807222D01*
X10701134Y-15807222D02*
X10701134Y-15911984D01*
X10701134Y-15807222D02*
X10710658Y-15788174D01*
X10710658Y-15788174D02*
X10729705Y-15778650D01*
X10729705Y-15778650D02*
X10758277Y-15778650D01*
X10758277Y-15778650D02*
X10777325Y-15788174D01*
X10777325Y-15788174D02*
X10786848Y-15807222D01*
X10786848Y-15807222D02*
X10786848Y-15911984D01*
X10882086Y-15911984D02*
X10882086Y-15778650D01*
X10882086Y-15797698D02*
X10891610Y-15788174D01*
X10891610Y-15788174D02*
X10910658Y-15778650D01*
X10910658Y-15778650D02*
X10939229Y-15778650D01*
X10939229Y-15778650D02*
X10958277Y-15788174D01*
X10958277Y-15788174D02*
X10967801Y-15807222D01*
X10967801Y-15807222D02*
X10967801Y-15911984D01*
X10967801Y-15807222D02*
X10977325Y-15788174D01*
X10977325Y-15788174D02*
X10996372Y-15778650D01*
X10996372Y-15778650D02*
X11024944Y-15778650D01*
X11024944Y-15778650D02*
X11043991Y-15788174D01*
X11043991Y-15788174D02*
X11053515Y-15807222D01*
X11053515Y-15807222D02*
X11053515Y-15911984D01*
X11443991Y-15702460D02*
X11272563Y-15959603D01*
X11701134Y-15711984D02*
X11720182Y-15711984D01*
X11720182Y-15711984D02*
X11739229Y-15721508D01*
X11739229Y-15721508D02*
X11748753Y-15731031D01*
X11748753Y-15731031D02*
X11758277Y-15750079D01*
X11758277Y-15750079D02*
X11767801Y-15788174D01*
X11767801Y-15788174D02*
X11767801Y-15835793D01*
X11767801Y-15835793D02*
X11758277Y-15873888D01*
X11758277Y-15873888D02*
X11748753Y-15892936D01*
X11748753Y-15892936D02*
X11739229Y-15902460D01*
X11739229Y-15902460D02*
X11720182Y-15911984D01*
X11720182Y-15911984D02*
X11701134Y-15911984D01*
X11701134Y-15911984D02*
X11682086Y-15902460D01*
X11682086Y-15902460D02*
X11672563Y-15892936D01*
X11672563Y-15892936D02*
X11663039Y-15873888D01*
X11663039Y-15873888D02*
X11653515Y-15835793D01*
X11653515Y-15835793D02*
X11653515Y-15788174D01*
X11653515Y-15788174D02*
X11663039Y-15750079D01*
X11663039Y-15750079D02*
X11672563Y-15731031D01*
X11672563Y-15731031D02*
X11682086Y-15721508D01*
X11682086Y-15721508D02*
X11701134Y-15711984D01*
X11853515Y-15892936D02*
X11863039Y-15902460D01*
X11863039Y-15902460D02*
X11853515Y-15911984D01*
X11853515Y-15911984D02*
X11843991Y-15902460D01*
X11843991Y-15902460D02*
X11853515Y-15892936D01*
X11853515Y-15892936D02*
X11853515Y-15911984D01*
X11986848Y-15711984D02*
X12005896Y-15711984D01*
X12005896Y-15711984D02*
X12024944Y-15721508D01*
X12024944Y-15721508D02*
X12034467Y-15731031D01*
X12034467Y-15731031D02*
X12043991Y-15750079D01*
X12043991Y-15750079D02*
X12053515Y-15788174D01*
X12053515Y-15788174D02*
X12053515Y-15835793D01*
X12053515Y-15835793D02*
X12043991Y-15873888D01*
X12043991Y-15873888D02*
X12034467Y-15892936D01*
X12034467Y-15892936D02*
X12024944Y-15902460D01*
X12024944Y-15902460D02*
X12005896Y-15911984D01*
X12005896Y-15911984D02*
X11986848Y-15911984D01*
X11986848Y-15911984D02*
X11967801Y-15902460D01*
X11967801Y-15902460D02*
X11958277Y-15892936D01*
X11958277Y-15892936D02*
X11948753Y-15873888D01*
X11948753Y-15873888D02*
X11939229Y-15835793D01*
X11939229Y-15835793D02*
X11939229Y-15788174D01*
X11939229Y-15788174D02*
X11948753Y-15750079D01*
X11948753Y-15750079D02*
X11958277Y-15731031D01*
X11958277Y-15731031D02*
X11967801Y-15721508D01*
X11967801Y-15721508D02*
X11986848Y-15711984D01*
X12120182Y-15711984D02*
X12243991Y-15711984D01*
X12243991Y-15711984D02*
X12177325Y-15788174D01*
X12177325Y-15788174D02*
X12205896Y-15788174D01*
X12205896Y-15788174D02*
X12224944Y-15797698D01*
X12224944Y-15797698D02*
X12234467Y-15807222D01*
X12234467Y-15807222D02*
X12243991Y-15826269D01*
X12243991Y-15826269D02*
X12243991Y-15873888D01*
X12243991Y-15873888D02*
X12234467Y-15892936D01*
X12234467Y-15892936D02*
X12224944Y-15902460D01*
X12224944Y-15902460D02*
X12205896Y-15911984D01*
X12205896Y-15911984D02*
X12148753Y-15911984D01*
X12148753Y-15911984D02*
X12129706Y-15902460D01*
X12129706Y-15902460D02*
X12120182Y-15892936D01*
X12339229Y-15911984D02*
X12377325Y-15911984D01*
X12377325Y-15911984D02*
X12396372Y-15902460D01*
X12396372Y-15902460D02*
X12405896Y-15892936D01*
X12405896Y-15892936D02*
X12424944Y-15864365D01*
X12424944Y-15864365D02*
X12434467Y-15826269D01*
X12434467Y-15826269D02*
X12434467Y-15750079D01*
X12434467Y-15750079D02*
X12424944Y-15731031D01*
X12424944Y-15731031D02*
X12415420Y-15721508D01*
X12415420Y-15721508D02*
X12396372Y-15711984D01*
X12396372Y-15711984D02*
X12358277Y-15711984D01*
X12358277Y-15711984D02*
X12339229Y-15721508D01*
X12339229Y-15721508D02*
X12329706Y-15731031D01*
X12329706Y-15731031D02*
X12320182Y-15750079D01*
X12320182Y-15750079D02*
X12320182Y-15797698D01*
X12320182Y-15797698D02*
X12329706Y-15816746D01*
X12329706Y-15816746D02*
X12339229Y-15826269D01*
X12339229Y-15826269D02*
X12358277Y-15835793D01*
X12358277Y-15835793D02*
X12396372Y-15835793D01*
X12396372Y-15835793D02*
X12415420Y-15826269D01*
X12415420Y-15826269D02*
X12424944Y-15816746D01*
X12424944Y-15816746D02*
X12434467Y-15797698D01*
X12605896Y-15778650D02*
X12605896Y-15911984D01*
X12558277Y-15702460D02*
X12510658Y-15845317D01*
X12510658Y-15845317D02*
X12634467Y-15845317D01*
X12701134Y-15711984D02*
X12701134Y-15750079D01*
X12777325Y-15711984D02*
X12777325Y-15750079D01*
X13072563Y-15988174D02*
X13063039Y-15978650D01*
X13063039Y-15978650D02*
X13043991Y-15950079D01*
X13043991Y-15950079D02*
X13034468Y-15931031D01*
X13034468Y-15931031D02*
X13024944Y-15902460D01*
X13024944Y-15902460D02*
X13015420Y-15854841D01*
X13015420Y-15854841D02*
X13015420Y-15816746D01*
X13015420Y-15816746D02*
X13024944Y-15769127D01*
X13024944Y-15769127D02*
X13034468Y-15740555D01*
X13034468Y-15740555D02*
X13043991Y-15721508D01*
X13043991Y-15721508D02*
X13063039Y-15692936D01*
X13063039Y-15692936D02*
X13072563Y-15683412D01*
X13234468Y-15778650D02*
X13234468Y-15911984D01*
X13186848Y-15702460D02*
X13139229Y-15845317D01*
X13139229Y-15845317D02*
X13263039Y-15845317D01*
X13329706Y-15731031D02*
X13339229Y-15721508D01*
X13339229Y-15721508D02*
X13358277Y-15711984D01*
X13358277Y-15711984D02*
X13405896Y-15711984D01*
X13405896Y-15711984D02*
X13424944Y-15721508D01*
X13424944Y-15721508D02*
X13434468Y-15731031D01*
X13434468Y-15731031D02*
X13443991Y-15750079D01*
X13443991Y-15750079D02*
X13443991Y-15769127D01*
X13443991Y-15769127D02*
X13434468Y-15797698D01*
X13434468Y-15797698D02*
X13320182Y-15911984D01*
X13320182Y-15911984D02*
X13443991Y-15911984D01*
X13682087Y-15911984D02*
X13682087Y-15711984D01*
X13767801Y-15911984D02*
X13767801Y-15807222D01*
X13767801Y-15807222D02*
X13758277Y-15788174D01*
X13758277Y-15788174D02*
X13739230Y-15778650D01*
X13739230Y-15778650D02*
X13710658Y-15778650D01*
X13710658Y-15778650D02*
X13691610Y-15788174D01*
X13691610Y-15788174D02*
X13682087Y-15797698D01*
X13891610Y-15911984D02*
X13872563Y-15902460D01*
X13872563Y-15902460D02*
X13863039Y-15892936D01*
X13863039Y-15892936D02*
X13853515Y-15873888D01*
X13853515Y-15873888D02*
X13853515Y-15816746D01*
X13853515Y-15816746D02*
X13863039Y-15797698D01*
X13863039Y-15797698D02*
X13872563Y-15788174D01*
X13872563Y-15788174D02*
X13891610Y-15778650D01*
X13891610Y-15778650D02*
X13920182Y-15778650D01*
X13920182Y-15778650D02*
X13939230Y-15788174D01*
X13939230Y-15788174D02*
X13948753Y-15797698D01*
X13948753Y-15797698D02*
X13958277Y-15816746D01*
X13958277Y-15816746D02*
X13958277Y-15873888D01*
X13958277Y-15873888D02*
X13948753Y-15892936D01*
X13948753Y-15892936D02*
X13939230Y-15902460D01*
X13939230Y-15902460D02*
X13920182Y-15911984D01*
X13920182Y-15911984D02*
X13891610Y-15911984D01*
X14072563Y-15911984D02*
X14053515Y-15902460D01*
X14053515Y-15902460D02*
X14043991Y-15883412D01*
X14043991Y-15883412D02*
X14043991Y-15711984D01*
X14224944Y-15902460D02*
X14205896Y-15911984D01*
X14205896Y-15911984D02*
X14167801Y-15911984D01*
X14167801Y-15911984D02*
X14148753Y-15902460D01*
X14148753Y-15902460D02*
X14139230Y-15883412D01*
X14139230Y-15883412D02*
X14139230Y-15807222D01*
X14139230Y-15807222D02*
X14148753Y-15788174D01*
X14148753Y-15788174D02*
X14167801Y-15778650D01*
X14167801Y-15778650D02*
X14205896Y-15778650D01*
X14205896Y-15778650D02*
X14224944Y-15788174D01*
X14224944Y-15788174D02*
X14234468Y-15807222D01*
X14234468Y-15807222D02*
X14234468Y-15826269D01*
X14234468Y-15826269D02*
X14139230Y-15845317D01*
X14310658Y-15902460D02*
X14329706Y-15911984D01*
X14329706Y-15911984D02*
X14367801Y-15911984D01*
X14367801Y-15911984D02*
X14386849Y-15902460D01*
X14386849Y-15902460D02*
X14396372Y-15883412D01*
X14396372Y-15883412D02*
X14396372Y-15873888D01*
X14396372Y-15873888D02*
X14386849Y-15854841D01*
X14386849Y-15854841D02*
X14367801Y-15845317D01*
X14367801Y-15845317D02*
X14339230Y-15845317D01*
X14339230Y-15845317D02*
X14320182Y-15835793D01*
X14320182Y-15835793D02*
X14310658Y-15816746D01*
X14310658Y-15816746D02*
X14310658Y-15807222D01*
X14310658Y-15807222D02*
X14320182Y-15788174D01*
X14320182Y-15788174D02*
X14339230Y-15778650D01*
X14339230Y-15778650D02*
X14367801Y-15778650D01*
X14367801Y-15778650D02*
X14386849Y-15788174D01*
X14634468Y-15835793D02*
X14786849Y-15835793D01*
X14710658Y-15911984D02*
X14710658Y-15759603D01*
X15139230Y-15911984D02*
X15024944Y-15911984D01*
X15082087Y-15911984D02*
X15082087Y-15711984D01*
X15082087Y-15711984D02*
X15063039Y-15740555D01*
X15063039Y-15740555D02*
X15043992Y-15759603D01*
X15043992Y-15759603D02*
X15024944Y-15769127D01*
X15215420Y-15731031D02*
X15224944Y-15721508D01*
X15224944Y-15721508D02*
X15243992Y-15711984D01*
X15243992Y-15711984D02*
X15291611Y-15711984D01*
X15291611Y-15711984D02*
X15310658Y-15721508D01*
X15310658Y-15721508D02*
X15320182Y-15731031D01*
X15320182Y-15731031D02*
X15329706Y-15750079D01*
X15329706Y-15750079D02*
X15329706Y-15769127D01*
X15329706Y-15769127D02*
X15320182Y-15797698D01*
X15320182Y-15797698D02*
X15205896Y-15911984D01*
X15205896Y-15911984D02*
X15329706Y-15911984D01*
X15558277Y-15902460D02*
X15577325Y-15911984D01*
X15577325Y-15911984D02*
X15615420Y-15911984D01*
X15615420Y-15911984D02*
X15634468Y-15902460D01*
X15634468Y-15902460D02*
X15643992Y-15883412D01*
X15643992Y-15883412D02*
X15643992Y-15873888D01*
X15643992Y-15873888D02*
X15634468Y-15854841D01*
X15634468Y-15854841D02*
X15615420Y-15845317D01*
X15615420Y-15845317D02*
X15586849Y-15845317D01*
X15586849Y-15845317D02*
X15567801Y-15835793D01*
X15567801Y-15835793D02*
X15558277Y-15816746D01*
X15558277Y-15816746D02*
X15558277Y-15807222D01*
X15558277Y-15807222D02*
X15567801Y-15788174D01*
X15567801Y-15788174D02*
X15586849Y-15778650D01*
X15586849Y-15778650D02*
X15615420Y-15778650D01*
X15615420Y-15778650D02*
X15634468Y-15788174D01*
X15758277Y-15911984D02*
X15739230Y-15902460D01*
X15739230Y-15902460D02*
X15729706Y-15883412D01*
X15729706Y-15883412D02*
X15729706Y-15711984D01*
X15863039Y-15911984D02*
X15843992Y-15902460D01*
X15843992Y-15902460D02*
X15834468Y-15892936D01*
X15834468Y-15892936D02*
X15824944Y-15873888D01*
X15824944Y-15873888D02*
X15824944Y-15816746D01*
X15824944Y-15816746D02*
X15834468Y-15797698D01*
X15834468Y-15797698D02*
X15843992Y-15788174D01*
X15843992Y-15788174D02*
X15863039Y-15778650D01*
X15863039Y-15778650D02*
X15891611Y-15778650D01*
X15891611Y-15778650D02*
X15910658Y-15788174D01*
X15910658Y-15788174D02*
X15920182Y-15797698D01*
X15920182Y-15797698D02*
X15929706Y-15816746D01*
X15929706Y-15816746D02*
X15929706Y-15873888D01*
X15929706Y-15873888D02*
X15920182Y-15892936D01*
X15920182Y-15892936D02*
X15910658Y-15902460D01*
X15910658Y-15902460D02*
X15891611Y-15911984D01*
X15891611Y-15911984D02*
X15863039Y-15911984D01*
X15986849Y-15778650D02*
X16063039Y-15778650D01*
X16015420Y-15711984D02*
X16015420Y-15883412D01*
X16015420Y-15883412D02*
X16024944Y-15902460D01*
X16024944Y-15902460D02*
X16043992Y-15911984D01*
X16043992Y-15911984D02*
X16063039Y-15911984D01*
X16120182Y-15902460D02*
X16139230Y-15911984D01*
X16139230Y-15911984D02*
X16177325Y-15911984D01*
X16177325Y-15911984D02*
X16196373Y-15902460D01*
X16196373Y-15902460D02*
X16205896Y-15883412D01*
X16205896Y-15883412D02*
X16205896Y-15873888D01*
X16205896Y-15873888D02*
X16196373Y-15854841D01*
X16196373Y-15854841D02*
X16177325Y-15845317D01*
X16177325Y-15845317D02*
X16148754Y-15845317D01*
X16148754Y-15845317D02*
X16129706Y-15835793D01*
X16129706Y-15835793D02*
X16120182Y-15816746D01*
X16120182Y-15816746D02*
X16120182Y-15807222D01*
X16120182Y-15807222D02*
X16129706Y-15788174D01*
X16129706Y-15788174D02*
X16148754Y-15778650D01*
X16148754Y-15778650D02*
X16177325Y-15778650D01*
X16177325Y-15778650D02*
X16196373Y-15788174D01*
X16272563Y-15988174D02*
X16282087Y-15978650D01*
X16282087Y-15978650D02*
X16301135Y-15950079D01*
X16301135Y-15950079D02*
X16310658Y-15931031D01*
X16310658Y-15931031D02*
X16320182Y-15902460D01*
X16320182Y-15902460D02*
X16329706Y-15854841D01*
X16329706Y-15854841D02*
X16329706Y-15816746D01*
X16329706Y-15816746D02*
X16320182Y-15769127D01*
X16320182Y-15769127D02*
X16310658Y-15740555D01*
X16310658Y-15740555D02*
X16301135Y-15721508D01*
X16301135Y-15721508D02*
X16282087Y-15692936D01*
X16282087Y-15692936D02*
X16272563Y-15683412D01*
D13*
X9479634Y-16127634D02*
X9479634Y-16041366D01*
X9393366Y-16041366D01*
X9393366Y-16127634D01*
X9479634Y-16127634D01*
D11*
X9863039Y-16175984D02*
X9748753Y-16175984D01*
X9805896Y-16175984D02*
X9805896Y-15975984D01*
X9805896Y-15975984D02*
X9786848Y-16004555D01*
X9786848Y-16004555D02*
X9767801Y-16023603D01*
X9767801Y-16023603D02*
X9748753Y-16033127D01*
X9948753Y-16156936D02*
X9958277Y-16166460D01*
X9958277Y-16166460D02*
X9948753Y-16175984D01*
X9948753Y-16175984D02*
X9939229Y-16166460D01*
X9939229Y-16166460D02*
X9948753Y-16156936D01*
X9948753Y-16156936D02*
X9948753Y-16175984D01*
X10034467Y-15995031D02*
X10043991Y-15985508D01*
X10043991Y-15985508D02*
X10063039Y-15975984D01*
X10063039Y-15975984D02*
X10110658Y-15975984D01*
X10110658Y-15975984D02*
X10129705Y-15985508D01*
X10129705Y-15985508D02*
X10139229Y-15995031D01*
X10139229Y-15995031D02*
X10148753Y-16014079D01*
X10148753Y-16014079D02*
X10148753Y-16033127D01*
X10148753Y-16033127D02*
X10139229Y-16061698D01*
X10139229Y-16061698D02*
X10024944Y-16175984D01*
X10024944Y-16175984D02*
X10148753Y-16175984D01*
X10224944Y-15995031D02*
X10234467Y-15985508D01*
X10234467Y-15985508D02*
X10253515Y-15975984D01*
X10253515Y-15975984D02*
X10301134Y-15975984D01*
X10301134Y-15975984D02*
X10320182Y-15985508D01*
X10320182Y-15985508D02*
X10329705Y-15995031D01*
X10329705Y-15995031D02*
X10339229Y-16014079D01*
X10339229Y-16014079D02*
X10339229Y-16033127D01*
X10339229Y-16033127D02*
X10329705Y-16061698D01*
X10329705Y-16061698D02*
X10215420Y-16175984D01*
X10215420Y-16175984D02*
X10339229Y-16175984D01*
X10463039Y-15975984D02*
X10482086Y-15975984D01*
X10482086Y-15975984D02*
X10501134Y-15985508D01*
X10501134Y-15985508D02*
X10510658Y-15995031D01*
X10510658Y-15995031D02*
X10520182Y-16014079D01*
X10520182Y-16014079D02*
X10529705Y-16052174D01*
X10529705Y-16052174D02*
X10529705Y-16099793D01*
X10529705Y-16099793D02*
X10520182Y-16137888D01*
X10520182Y-16137888D02*
X10510658Y-16156936D01*
X10510658Y-16156936D02*
X10501134Y-16166460D01*
X10501134Y-16166460D02*
X10482086Y-16175984D01*
X10482086Y-16175984D02*
X10463039Y-16175984D01*
X10463039Y-16175984D02*
X10443991Y-16166460D01*
X10443991Y-16166460D02*
X10434467Y-16156936D01*
X10434467Y-16156936D02*
X10424944Y-16137888D01*
X10424944Y-16137888D02*
X10415420Y-16099793D01*
X10415420Y-16099793D02*
X10415420Y-16052174D01*
X10415420Y-16052174D02*
X10424944Y-16014079D01*
X10424944Y-16014079D02*
X10434467Y-15995031D01*
X10434467Y-15995031D02*
X10443991Y-15985508D01*
X10443991Y-15985508D02*
X10463039Y-15975984D01*
X10615420Y-16175984D02*
X10615420Y-16042650D01*
X10615420Y-16061698D02*
X10624944Y-16052174D01*
X10624944Y-16052174D02*
X10643991Y-16042650D01*
X10643991Y-16042650D02*
X10672563Y-16042650D01*
X10672563Y-16042650D02*
X10691610Y-16052174D01*
X10691610Y-16052174D02*
X10701134Y-16071222D01*
X10701134Y-16071222D02*
X10701134Y-16175984D01*
X10701134Y-16071222D02*
X10710658Y-16052174D01*
X10710658Y-16052174D02*
X10729705Y-16042650D01*
X10729705Y-16042650D02*
X10758277Y-16042650D01*
X10758277Y-16042650D02*
X10777325Y-16052174D01*
X10777325Y-16052174D02*
X10786848Y-16071222D01*
X10786848Y-16071222D02*
X10786848Y-16175984D01*
X10882086Y-16175984D02*
X10882086Y-16042650D01*
X10882086Y-16061698D02*
X10891610Y-16052174D01*
X10891610Y-16052174D02*
X10910658Y-16042650D01*
X10910658Y-16042650D02*
X10939229Y-16042650D01*
X10939229Y-16042650D02*
X10958277Y-16052174D01*
X10958277Y-16052174D02*
X10967801Y-16071222D01*
X10967801Y-16071222D02*
X10967801Y-16175984D01*
X10967801Y-16071222D02*
X10977325Y-16052174D01*
X10977325Y-16052174D02*
X10996372Y-16042650D01*
X10996372Y-16042650D02*
X11024944Y-16042650D01*
X11024944Y-16042650D02*
X11043991Y-16052174D01*
X11043991Y-16052174D02*
X11053515Y-16071222D01*
X11053515Y-16071222D02*
X11053515Y-16175984D01*
X11443991Y-15966460D02*
X11272563Y-16223603D01*
X11701134Y-15975984D02*
X11720182Y-15975984D01*
X11720182Y-15975984D02*
X11739229Y-15985508D01*
X11739229Y-15985508D02*
X11748753Y-15995031D01*
X11748753Y-15995031D02*
X11758277Y-16014079D01*
X11758277Y-16014079D02*
X11767801Y-16052174D01*
X11767801Y-16052174D02*
X11767801Y-16099793D01*
X11767801Y-16099793D02*
X11758277Y-16137888D01*
X11758277Y-16137888D02*
X11748753Y-16156936D01*
X11748753Y-16156936D02*
X11739229Y-16166460D01*
X11739229Y-16166460D02*
X11720182Y-16175984D01*
X11720182Y-16175984D02*
X11701134Y-16175984D01*
X11701134Y-16175984D02*
X11682086Y-16166460D01*
X11682086Y-16166460D02*
X11672563Y-16156936D01*
X11672563Y-16156936D02*
X11663039Y-16137888D01*
X11663039Y-16137888D02*
X11653515Y-16099793D01*
X11653515Y-16099793D02*
X11653515Y-16052174D01*
X11653515Y-16052174D02*
X11663039Y-16014079D01*
X11663039Y-16014079D02*
X11672563Y-15995031D01*
X11672563Y-15995031D02*
X11682086Y-15985508D01*
X11682086Y-15985508D02*
X11701134Y-15975984D01*
X11853515Y-16156936D02*
X11863039Y-16166460D01*
X11863039Y-16166460D02*
X11853515Y-16175984D01*
X11853515Y-16175984D02*
X11843991Y-16166460D01*
X11843991Y-16166460D02*
X11853515Y-16156936D01*
X11853515Y-16156936D02*
X11853515Y-16175984D01*
X11986848Y-15975984D02*
X12005896Y-15975984D01*
X12005896Y-15975984D02*
X12024944Y-15985508D01*
X12024944Y-15985508D02*
X12034467Y-15995031D01*
X12034467Y-15995031D02*
X12043991Y-16014079D01*
X12043991Y-16014079D02*
X12053515Y-16052174D01*
X12053515Y-16052174D02*
X12053515Y-16099793D01*
X12053515Y-16099793D02*
X12043991Y-16137888D01*
X12043991Y-16137888D02*
X12034467Y-16156936D01*
X12034467Y-16156936D02*
X12024944Y-16166460D01*
X12024944Y-16166460D02*
X12005896Y-16175984D01*
X12005896Y-16175984D02*
X11986848Y-16175984D01*
X11986848Y-16175984D02*
X11967801Y-16166460D01*
X11967801Y-16166460D02*
X11958277Y-16156936D01*
X11958277Y-16156936D02*
X11948753Y-16137888D01*
X11948753Y-16137888D02*
X11939229Y-16099793D01*
X11939229Y-16099793D02*
X11939229Y-16052174D01*
X11939229Y-16052174D02*
X11948753Y-16014079D01*
X11948753Y-16014079D02*
X11958277Y-15995031D01*
X11958277Y-15995031D02*
X11967801Y-15985508D01*
X11967801Y-15985508D02*
X11986848Y-15975984D01*
X12224944Y-16042650D02*
X12224944Y-16175984D01*
X12177325Y-15966460D02*
X12129706Y-16109317D01*
X12129706Y-16109317D02*
X12253515Y-16109317D01*
X12358277Y-16061698D02*
X12339229Y-16052174D01*
X12339229Y-16052174D02*
X12329706Y-16042650D01*
X12329706Y-16042650D02*
X12320182Y-16023603D01*
X12320182Y-16023603D02*
X12320182Y-16014079D01*
X12320182Y-16014079D02*
X12329706Y-15995031D01*
X12329706Y-15995031D02*
X12339229Y-15985508D01*
X12339229Y-15985508D02*
X12358277Y-15975984D01*
X12358277Y-15975984D02*
X12396372Y-15975984D01*
X12396372Y-15975984D02*
X12415420Y-15985508D01*
X12415420Y-15985508D02*
X12424944Y-15995031D01*
X12424944Y-15995031D02*
X12434467Y-16014079D01*
X12434467Y-16014079D02*
X12434467Y-16023603D01*
X12434467Y-16023603D02*
X12424944Y-16042650D01*
X12424944Y-16042650D02*
X12415420Y-16052174D01*
X12415420Y-16052174D02*
X12396372Y-16061698D01*
X12396372Y-16061698D02*
X12358277Y-16061698D01*
X12358277Y-16061698D02*
X12339229Y-16071222D01*
X12339229Y-16071222D02*
X12329706Y-16080746D01*
X12329706Y-16080746D02*
X12320182Y-16099793D01*
X12320182Y-16099793D02*
X12320182Y-16137888D01*
X12320182Y-16137888D02*
X12329706Y-16156936D01*
X12329706Y-16156936D02*
X12339229Y-16166460D01*
X12339229Y-16166460D02*
X12358277Y-16175984D01*
X12358277Y-16175984D02*
X12396372Y-16175984D01*
X12396372Y-16175984D02*
X12415420Y-16166460D01*
X12415420Y-16166460D02*
X12424944Y-16156936D01*
X12424944Y-16156936D02*
X12434467Y-16137888D01*
X12434467Y-16137888D02*
X12434467Y-16099793D01*
X12434467Y-16099793D02*
X12424944Y-16080746D01*
X12424944Y-16080746D02*
X12415420Y-16071222D01*
X12415420Y-16071222D02*
X12396372Y-16061698D01*
X12558277Y-15975984D02*
X12577325Y-15975984D01*
X12577325Y-15975984D02*
X12596372Y-15985508D01*
X12596372Y-15985508D02*
X12605896Y-15995031D01*
X12605896Y-15995031D02*
X12615420Y-16014079D01*
X12615420Y-16014079D02*
X12624944Y-16052174D01*
X12624944Y-16052174D02*
X12624944Y-16099793D01*
X12624944Y-16099793D02*
X12615420Y-16137888D01*
X12615420Y-16137888D02*
X12605896Y-16156936D01*
X12605896Y-16156936D02*
X12596372Y-16166460D01*
X12596372Y-16166460D02*
X12577325Y-16175984D01*
X12577325Y-16175984D02*
X12558277Y-16175984D01*
X12558277Y-16175984D02*
X12539229Y-16166460D01*
X12539229Y-16166460D02*
X12529706Y-16156936D01*
X12529706Y-16156936D02*
X12520182Y-16137888D01*
X12520182Y-16137888D02*
X12510658Y-16099793D01*
X12510658Y-16099793D02*
X12510658Y-16052174D01*
X12510658Y-16052174D02*
X12520182Y-16014079D01*
X12520182Y-16014079D02*
X12529706Y-15995031D01*
X12529706Y-15995031D02*
X12539229Y-15985508D01*
X12539229Y-15985508D02*
X12558277Y-15975984D01*
X12701134Y-15975984D02*
X12701134Y-16014079D01*
X12777325Y-15975984D02*
X12777325Y-16014079D01*
X13072563Y-16252174D02*
X13063039Y-16242650D01*
X13063039Y-16242650D02*
X13043991Y-16214079D01*
X13043991Y-16214079D02*
X13034468Y-16195031D01*
X13034468Y-16195031D02*
X13024944Y-16166460D01*
X13024944Y-16166460D02*
X13015420Y-16118841D01*
X13015420Y-16118841D02*
X13015420Y-16080746D01*
X13015420Y-16080746D02*
X13024944Y-16033127D01*
X13024944Y-16033127D02*
X13034468Y-16004555D01*
X13034468Y-16004555D02*
X13043991Y-15985508D01*
X13043991Y-15985508D02*
X13063039Y-15956936D01*
X13063039Y-15956936D02*
X13072563Y-15947412D01*
X13234468Y-15975984D02*
X13196372Y-15975984D01*
X13196372Y-15975984D02*
X13177325Y-15985508D01*
X13177325Y-15985508D02*
X13167801Y-15995031D01*
X13167801Y-15995031D02*
X13148753Y-16023603D01*
X13148753Y-16023603D02*
X13139229Y-16061698D01*
X13139229Y-16061698D02*
X13139229Y-16137888D01*
X13139229Y-16137888D02*
X13148753Y-16156936D01*
X13148753Y-16156936D02*
X13158277Y-16166460D01*
X13158277Y-16166460D02*
X13177325Y-16175984D01*
X13177325Y-16175984D02*
X13215420Y-16175984D01*
X13215420Y-16175984D02*
X13234468Y-16166460D01*
X13234468Y-16166460D02*
X13243991Y-16156936D01*
X13243991Y-16156936D02*
X13253515Y-16137888D01*
X13253515Y-16137888D02*
X13253515Y-16090269D01*
X13253515Y-16090269D02*
X13243991Y-16071222D01*
X13243991Y-16071222D02*
X13234468Y-16061698D01*
X13234468Y-16061698D02*
X13215420Y-16052174D01*
X13215420Y-16052174D02*
X13177325Y-16052174D01*
X13177325Y-16052174D02*
X13158277Y-16061698D01*
X13158277Y-16061698D02*
X13148753Y-16071222D01*
X13148753Y-16071222D02*
X13139229Y-16090269D01*
X13491610Y-16175984D02*
X13491610Y-15975984D01*
X13577325Y-16175984D02*
X13577325Y-16071222D01*
X13577325Y-16071222D02*
X13567801Y-16052174D01*
X13567801Y-16052174D02*
X13548753Y-16042650D01*
X13548753Y-16042650D02*
X13520182Y-16042650D01*
X13520182Y-16042650D02*
X13501134Y-16052174D01*
X13501134Y-16052174D02*
X13491610Y-16061698D01*
X13701134Y-16175984D02*
X13682087Y-16166460D01*
X13682087Y-16166460D02*
X13672563Y-16156936D01*
X13672563Y-16156936D02*
X13663039Y-16137888D01*
X13663039Y-16137888D02*
X13663039Y-16080746D01*
X13663039Y-16080746D02*
X13672563Y-16061698D01*
X13672563Y-16061698D02*
X13682087Y-16052174D01*
X13682087Y-16052174D02*
X13701134Y-16042650D01*
X13701134Y-16042650D02*
X13729706Y-16042650D01*
X13729706Y-16042650D02*
X13748753Y-16052174D01*
X13748753Y-16052174D02*
X13758277Y-16061698D01*
X13758277Y-16061698D02*
X13767801Y-16080746D01*
X13767801Y-16080746D02*
X13767801Y-16137888D01*
X13767801Y-16137888D02*
X13758277Y-16156936D01*
X13758277Y-16156936D02*
X13748753Y-16166460D01*
X13748753Y-16166460D02*
X13729706Y-16175984D01*
X13729706Y-16175984D02*
X13701134Y-16175984D01*
X13882087Y-16175984D02*
X13863039Y-16166460D01*
X13863039Y-16166460D02*
X13853515Y-16147412D01*
X13853515Y-16147412D02*
X13853515Y-15975984D01*
X14034468Y-16166460D02*
X14015420Y-16175984D01*
X14015420Y-16175984D02*
X13977325Y-16175984D01*
X13977325Y-16175984D02*
X13958277Y-16166460D01*
X13958277Y-16166460D02*
X13948753Y-16147412D01*
X13948753Y-16147412D02*
X13948753Y-16071222D01*
X13948753Y-16071222D02*
X13958277Y-16052174D01*
X13958277Y-16052174D02*
X13977325Y-16042650D01*
X13977325Y-16042650D02*
X14015420Y-16042650D01*
X14015420Y-16042650D02*
X14034468Y-16052174D01*
X14034468Y-16052174D02*
X14043991Y-16071222D01*
X14043991Y-16071222D02*
X14043991Y-16090269D01*
X14043991Y-16090269D02*
X13948753Y-16109317D01*
X14120182Y-16166460D02*
X14139230Y-16175984D01*
X14139230Y-16175984D02*
X14177325Y-16175984D01*
X14177325Y-16175984D02*
X14196372Y-16166460D01*
X14196372Y-16166460D02*
X14205896Y-16147412D01*
X14205896Y-16147412D02*
X14205896Y-16137888D01*
X14205896Y-16137888D02*
X14196372Y-16118841D01*
X14196372Y-16118841D02*
X14177325Y-16109317D01*
X14177325Y-16109317D02*
X14148753Y-16109317D01*
X14148753Y-16109317D02*
X14129706Y-16099793D01*
X14129706Y-16099793D02*
X14120182Y-16080746D01*
X14120182Y-16080746D02*
X14120182Y-16071222D01*
X14120182Y-16071222D02*
X14129706Y-16052174D01*
X14129706Y-16052174D02*
X14148753Y-16042650D01*
X14148753Y-16042650D02*
X14177325Y-16042650D01*
X14177325Y-16042650D02*
X14196372Y-16052174D01*
X14272563Y-16252174D02*
X14282087Y-16242650D01*
X14282087Y-16242650D02*
X14301134Y-16214079D01*
X14301134Y-16214079D02*
X14310658Y-16195031D01*
X14310658Y-16195031D02*
X14320182Y-16166460D01*
X14320182Y-16166460D02*
X14329706Y-16118841D01*
X14329706Y-16118841D02*
X14329706Y-16080746D01*
X14329706Y-16080746D02*
X14320182Y-16033127D01*
X14320182Y-16033127D02*
X14310658Y-16004555D01*
X14310658Y-16004555D02*
X14301134Y-15985508D01*
X14301134Y-15985508D02*
X14282087Y-15956936D01*
X14282087Y-15956936D02*
X14272563Y-15947412D01*
D14*
X9426500Y-16419500D02*
X9497500Y-16348500D01*
X9426500Y-16277500D01*
X9355500Y-16348500D01*
X9426500Y-16419500D01*
D11*
X9863039Y-16439984D02*
X9748753Y-16439984D01*
X9805896Y-16439984D02*
X9805896Y-16239984D01*
X9805896Y-16239984D02*
X9786848Y-16268555D01*
X9786848Y-16268555D02*
X9767801Y-16287603D01*
X9767801Y-16287603D02*
X9748753Y-16297127D01*
X9948753Y-16420936D02*
X9958277Y-16430460D01*
X9958277Y-16430460D02*
X9948753Y-16439984D01*
X9948753Y-16439984D02*
X9939229Y-16430460D01*
X9939229Y-16430460D02*
X9948753Y-16420936D01*
X9948753Y-16420936D02*
X9948753Y-16439984D01*
X10129705Y-16306650D02*
X10129705Y-16439984D01*
X10082086Y-16230460D02*
X10034467Y-16373317D01*
X10034467Y-16373317D02*
X10158277Y-16373317D01*
X10224944Y-16259031D02*
X10234467Y-16249508D01*
X10234467Y-16249508D02*
X10253515Y-16239984D01*
X10253515Y-16239984D02*
X10301134Y-16239984D01*
X10301134Y-16239984D02*
X10320182Y-16249508D01*
X10320182Y-16249508D02*
X10329705Y-16259031D01*
X10329705Y-16259031D02*
X10339229Y-16278079D01*
X10339229Y-16278079D02*
X10339229Y-16297127D01*
X10339229Y-16297127D02*
X10329705Y-16325698D01*
X10329705Y-16325698D02*
X10215420Y-16439984D01*
X10215420Y-16439984D02*
X10339229Y-16439984D01*
X10463039Y-16239984D02*
X10482086Y-16239984D01*
X10482086Y-16239984D02*
X10501134Y-16249508D01*
X10501134Y-16249508D02*
X10510658Y-16259031D01*
X10510658Y-16259031D02*
X10520182Y-16278079D01*
X10520182Y-16278079D02*
X10529705Y-16316174D01*
X10529705Y-16316174D02*
X10529705Y-16363793D01*
X10529705Y-16363793D02*
X10520182Y-16401888D01*
X10520182Y-16401888D02*
X10510658Y-16420936D01*
X10510658Y-16420936D02*
X10501134Y-16430460D01*
X10501134Y-16430460D02*
X10482086Y-16439984D01*
X10482086Y-16439984D02*
X10463039Y-16439984D01*
X10463039Y-16439984D02*
X10443991Y-16430460D01*
X10443991Y-16430460D02*
X10434467Y-16420936D01*
X10434467Y-16420936D02*
X10424944Y-16401888D01*
X10424944Y-16401888D02*
X10415420Y-16363793D01*
X10415420Y-16363793D02*
X10415420Y-16316174D01*
X10415420Y-16316174D02*
X10424944Y-16278079D01*
X10424944Y-16278079D02*
X10434467Y-16259031D01*
X10434467Y-16259031D02*
X10443991Y-16249508D01*
X10443991Y-16249508D02*
X10463039Y-16239984D01*
X10615420Y-16439984D02*
X10615420Y-16306650D01*
X10615420Y-16325698D02*
X10624944Y-16316174D01*
X10624944Y-16316174D02*
X10643991Y-16306650D01*
X10643991Y-16306650D02*
X10672563Y-16306650D01*
X10672563Y-16306650D02*
X10691610Y-16316174D01*
X10691610Y-16316174D02*
X10701134Y-16335222D01*
X10701134Y-16335222D02*
X10701134Y-16439984D01*
X10701134Y-16335222D02*
X10710658Y-16316174D01*
X10710658Y-16316174D02*
X10729705Y-16306650D01*
X10729705Y-16306650D02*
X10758277Y-16306650D01*
X10758277Y-16306650D02*
X10777325Y-16316174D01*
X10777325Y-16316174D02*
X10786848Y-16335222D01*
X10786848Y-16335222D02*
X10786848Y-16439984D01*
X10882086Y-16439984D02*
X10882086Y-16306650D01*
X10882086Y-16325698D02*
X10891610Y-16316174D01*
X10891610Y-16316174D02*
X10910658Y-16306650D01*
X10910658Y-16306650D02*
X10939229Y-16306650D01*
X10939229Y-16306650D02*
X10958277Y-16316174D01*
X10958277Y-16316174D02*
X10967801Y-16335222D01*
X10967801Y-16335222D02*
X10967801Y-16439984D01*
X10967801Y-16335222D02*
X10977325Y-16316174D01*
X10977325Y-16316174D02*
X10996372Y-16306650D01*
X10996372Y-16306650D02*
X11024944Y-16306650D01*
X11024944Y-16306650D02*
X11043991Y-16316174D01*
X11043991Y-16316174D02*
X11053515Y-16335222D01*
X11053515Y-16335222D02*
X11053515Y-16439984D01*
X11443991Y-16230460D02*
X11272563Y-16487603D01*
X11701134Y-16239984D02*
X11720182Y-16239984D01*
X11720182Y-16239984D02*
X11739229Y-16249508D01*
X11739229Y-16249508D02*
X11748753Y-16259031D01*
X11748753Y-16259031D02*
X11758277Y-16278079D01*
X11758277Y-16278079D02*
X11767801Y-16316174D01*
X11767801Y-16316174D02*
X11767801Y-16363793D01*
X11767801Y-16363793D02*
X11758277Y-16401888D01*
X11758277Y-16401888D02*
X11748753Y-16420936D01*
X11748753Y-16420936D02*
X11739229Y-16430460D01*
X11739229Y-16430460D02*
X11720182Y-16439984D01*
X11720182Y-16439984D02*
X11701134Y-16439984D01*
X11701134Y-16439984D02*
X11682086Y-16430460D01*
X11682086Y-16430460D02*
X11672563Y-16420936D01*
X11672563Y-16420936D02*
X11663039Y-16401888D01*
X11663039Y-16401888D02*
X11653515Y-16363793D01*
X11653515Y-16363793D02*
X11653515Y-16316174D01*
X11653515Y-16316174D02*
X11663039Y-16278079D01*
X11663039Y-16278079D02*
X11672563Y-16259031D01*
X11672563Y-16259031D02*
X11682086Y-16249508D01*
X11682086Y-16249508D02*
X11701134Y-16239984D01*
X11853515Y-16420936D02*
X11863039Y-16430460D01*
X11863039Y-16430460D02*
X11853515Y-16439984D01*
X11853515Y-16439984D02*
X11843991Y-16430460D01*
X11843991Y-16430460D02*
X11853515Y-16420936D01*
X11853515Y-16420936D02*
X11853515Y-16439984D01*
X11986848Y-16239984D02*
X12005896Y-16239984D01*
X12005896Y-16239984D02*
X12024944Y-16249508D01*
X12024944Y-16249508D02*
X12034467Y-16259031D01*
X12034467Y-16259031D02*
X12043991Y-16278079D01*
X12043991Y-16278079D02*
X12053515Y-16316174D01*
X12053515Y-16316174D02*
X12053515Y-16363793D01*
X12053515Y-16363793D02*
X12043991Y-16401888D01*
X12043991Y-16401888D02*
X12034467Y-16420936D01*
X12034467Y-16420936D02*
X12024944Y-16430460D01*
X12024944Y-16430460D02*
X12005896Y-16439984D01*
X12005896Y-16439984D02*
X11986848Y-16439984D01*
X11986848Y-16439984D02*
X11967801Y-16430460D01*
X11967801Y-16430460D02*
X11958277Y-16420936D01*
X11958277Y-16420936D02*
X11948753Y-16401888D01*
X11948753Y-16401888D02*
X11939229Y-16363793D01*
X11939229Y-16363793D02*
X11939229Y-16316174D01*
X11939229Y-16316174D02*
X11948753Y-16278079D01*
X11948753Y-16278079D02*
X11958277Y-16259031D01*
X11958277Y-16259031D02*
X11967801Y-16249508D01*
X11967801Y-16249508D02*
X11986848Y-16239984D01*
X12234467Y-16239984D02*
X12139229Y-16239984D01*
X12139229Y-16239984D02*
X12129706Y-16335222D01*
X12129706Y-16335222D02*
X12139229Y-16325698D01*
X12139229Y-16325698D02*
X12158277Y-16316174D01*
X12158277Y-16316174D02*
X12205896Y-16316174D01*
X12205896Y-16316174D02*
X12224944Y-16325698D01*
X12224944Y-16325698D02*
X12234467Y-16335222D01*
X12234467Y-16335222D02*
X12243991Y-16354269D01*
X12243991Y-16354269D02*
X12243991Y-16401888D01*
X12243991Y-16401888D02*
X12234467Y-16420936D01*
X12234467Y-16420936D02*
X12224944Y-16430460D01*
X12224944Y-16430460D02*
X12205896Y-16439984D01*
X12205896Y-16439984D02*
X12158277Y-16439984D01*
X12158277Y-16439984D02*
X12139229Y-16430460D01*
X12139229Y-16430460D02*
X12129706Y-16420936D01*
X12424944Y-16239984D02*
X12329706Y-16239984D01*
X12329706Y-16239984D02*
X12320182Y-16335222D01*
X12320182Y-16335222D02*
X12329706Y-16325698D01*
X12329706Y-16325698D02*
X12348753Y-16316174D01*
X12348753Y-16316174D02*
X12396372Y-16316174D01*
X12396372Y-16316174D02*
X12415420Y-16325698D01*
X12415420Y-16325698D02*
X12424944Y-16335222D01*
X12424944Y-16335222D02*
X12434467Y-16354269D01*
X12434467Y-16354269D02*
X12434467Y-16401888D01*
X12434467Y-16401888D02*
X12424944Y-16420936D01*
X12424944Y-16420936D02*
X12415420Y-16430460D01*
X12415420Y-16430460D02*
X12396372Y-16439984D01*
X12396372Y-16439984D02*
X12348753Y-16439984D01*
X12348753Y-16439984D02*
X12329706Y-16430460D01*
X12329706Y-16430460D02*
X12320182Y-16420936D01*
X12529706Y-16439984D02*
X12567801Y-16439984D01*
X12567801Y-16439984D02*
X12586848Y-16430460D01*
X12586848Y-16430460D02*
X12596372Y-16420936D01*
X12596372Y-16420936D02*
X12615420Y-16392365D01*
X12615420Y-16392365D02*
X12624944Y-16354269D01*
X12624944Y-16354269D02*
X12624944Y-16278079D01*
X12624944Y-16278079D02*
X12615420Y-16259031D01*
X12615420Y-16259031D02*
X12605896Y-16249508D01*
X12605896Y-16249508D02*
X12586848Y-16239984D01*
X12586848Y-16239984D02*
X12548753Y-16239984D01*
X12548753Y-16239984D02*
X12529706Y-16249508D01*
X12529706Y-16249508D02*
X12520182Y-16259031D01*
X12520182Y-16259031D02*
X12510658Y-16278079D01*
X12510658Y-16278079D02*
X12510658Y-16325698D01*
X12510658Y-16325698D02*
X12520182Y-16344746D01*
X12520182Y-16344746D02*
X12529706Y-16354269D01*
X12529706Y-16354269D02*
X12548753Y-16363793D01*
X12548753Y-16363793D02*
X12586848Y-16363793D01*
X12586848Y-16363793D02*
X12605896Y-16354269D01*
X12605896Y-16354269D02*
X12615420Y-16344746D01*
X12615420Y-16344746D02*
X12624944Y-16325698D01*
X12701134Y-16239984D02*
X12701134Y-16278079D01*
X12777325Y-16239984D02*
X12777325Y-16278079D01*
X13072563Y-16516174D02*
X13063039Y-16506650D01*
X13063039Y-16506650D02*
X13043991Y-16478079D01*
X13043991Y-16478079D02*
X13034468Y-16459031D01*
X13034468Y-16459031D02*
X13024944Y-16430460D01*
X13024944Y-16430460D02*
X13015420Y-16382841D01*
X13015420Y-16382841D02*
X13015420Y-16344746D01*
X13015420Y-16344746D02*
X13024944Y-16297127D01*
X13024944Y-16297127D02*
X13034468Y-16268555D01*
X13034468Y-16268555D02*
X13043991Y-16249508D01*
X13043991Y-16249508D02*
X13063039Y-16220936D01*
X13063039Y-16220936D02*
X13072563Y-16211412D01*
X13234468Y-16239984D02*
X13196372Y-16239984D01*
X13196372Y-16239984D02*
X13177325Y-16249508D01*
X13177325Y-16249508D02*
X13167801Y-16259031D01*
X13167801Y-16259031D02*
X13148753Y-16287603D01*
X13148753Y-16287603D02*
X13139229Y-16325698D01*
X13139229Y-16325698D02*
X13139229Y-16401888D01*
X13139229Y-16401888D02*
X13148753Y-16420936D01*
X13148753Y-16420936D02*
X13158277Y-16430460D01*
X13158277Y-16430460D02*
X13177325Y-16439984D01*
X13177325Y-16439984D02*
X13215420Y-16439984D01*
X13215420Y-16439984D02*
X13234468Y-16430460D01*
X13234468Y-16430460D02*
X13243991Y-16420936D01*
X13243991Y-16420936D02*
X13253515Y-16401888D01*
X13253515Y-16401888D02*
X13253515Y-16354269D01*
X13253515Y-16354269D02*
X13243991Y-16335222D01*
X13243991Y-16335222D02*
X13234468Y-16325698D01*
X13234468Y-16325698D02*
X13215420Y-16316174D01*
X13215420Y-16316174D02*
X13177325Y-16316174D01*
X13177325Y-16316174D02*
X13158277Y-16325698D01*
X13158277Y-16325698D02*
X13148753Y-16335222D01*
X13148753Y-16335222D02*
X13139229Y-16354269D01*
X13491610Y-16439984D02*
X13491610Y-16239984D01*
X13577325Y-16439984D02*
X13577325Y-16335222D01*
X13577325Y-16335222D02*
X13567801Y-16316174D01*
X13567801Y-16316174D02*
X13548753Y-16306650D01*
X13548753Y-16306650D02*
X13520182Y-16306650D01*
X13520182Y-16306650D02*
X13501134Y-16316174D01*
X13501134Y-16316174D02*
X13491610Y-16325698D01*
X13701134Y-16439984D02*
X13682087Y-16430460D01*
X13682087Y-16430460D02*
X13672563Y-16420936D01*
X13672563Y-16420936D02*
X13663039Y-16401888D01*
X13663039Y-16401888D02*
X13663039Y-16344746D01*
X13663039Y-16344746D02*
X13672563Y-16325698D01*
X13672563Y-16325698D02*
X13682087Y-16316174D01*
X13682087Y-16316174D02*
X13701134Y-16306650D01*
X13701134Y-16306650D02*
X13729706Y-16306650D01*
X13729706Y-16306650D02*
X13748753Y-16316174D01*
X13748753Y-16316174D02*
X13758277Y-16325698D01*
X13758277Y-16325698D02*
X13767801Y-16344746D01*
X13767801Y-16344746D02*
X13767801Y-16401888D01*
X13767801Y-16401888D02*
X13758277Y-16420936D01*
X13758277Y-16420936D02*
X13748753Y-16430460D01*
X13748753Y-16430460D02*
X13729706Y-16439984D01*
X13729706Y-16439984D02*
X13701134Y-16439984D01*
X13882087Y-16439984D02*
X13863039Y-16430460D01*
X13863039Y-16430460D02*
X13853515Y-16411412D01*
X13853515Y-16411412D02*
X13853515Y-16239984D01*
X14034468Y-16430460D02*
X14015420Y-16439984D01*
X14015420Y-16439984D02*
X13977325Y-16439984D01*
X13977325Y-16439984D02*
X13958277Y-16430460D01*
X13958277Y-16430460D02*
X13948753Y-16411412D01*
X13948753Y-16411412D02*
X13948753Y-16335222D01*
X13948753Y-16335222D02*
X13958277Y-16316174D01*
X13958277Y-16316174D02*
X13977325Y-16306650D01*
X13977325Y-16306650D02*
X14015420Y-16306650D01*
X14015420Y-16306650D02*
X14034468Y-16316174D01*
X14034468Y-16316174D02*
X14043991Y-16335222D01*
X14043991Y-16335222D02*
X14043991Y-16354269D01*
X14043991Y-16354269D02*
X13948753Y-16373317D01*
X14120182Y-16430460D02*
X14139230Y-16439984D01*
X14139230Y-16439984D02*
X14177325Y-16439984D01*
X14177325Y-16439984D02*
X14196372Y-16430460D01*
X14196372Y-16430460D02*
X14205896Y-16411412D01*
X14205896Y-16411412D02*
X14205896Y-16401888D01*
X14205896Y-16401888D02*
X14196372Y-16382841D01*
X14196372Y-16382841D02*
X14177325Y-16373317D01*
X14177325Y-16373317D02*
X14148753Y-16373317D01*
X14148753Y-16373317D02*
X14129706Y-16363793D01*
X14129706Y-16363793D02*
X14120182Y-16344746D01*
X14120182Y-16344746D02*
X14120182Y-16335222D01*
X14120182Y-16335222D02*
X14129706Y-16316174D01*
X14129706Y-16316174D02*
X14148753Y-16306650D01*
X14148753Y-16306650D02*
X14177325Y-16306650D01*
X14177325Y-16306650D02*
X14196372Y-16316174D01*
X14272563Y-16516174D02*
X14282087Y-16506650D01*
X14282087Y-16506650D02*
X14301134Y-16478079D01*
X14301134Y-16478079D02*
X14310658Y-16459031D01*
X14310658Y-16459031D02*
X14320182Y-16430460D01*
X14320182Y-16430460D02*
X14329706Y-16382841D01*
X14329706Y-16382841D02*
X14329706Y-16344746D01*
X14329706Y-16344746D02*
X14320182Y-16297127D01*
X14320182Y-16297127D02*
X14310658Y-16268555D01*
X14310658Y-16268555D02*
X14301134Y-16249508D01*
X14301134Y-16249508D02*
X14282087Y-16220936D01*
X14282087Y-16220936D02*
X14272563Y-16211412D01*
D15*
X9354500Y-16541000D02*
X9497500Y-16684000D01*
X9497500Y-16541000D02*
X9354500Y-16684000D01*
X9497500Y-16612500D02*
G75*
G02*
X9354500Y-16612500I-71500J0D01*
G01*
X9354500Y-16612500D02*
G75*
G02*
X9497500Y-16612500I71500J0D01*
G01*
D11*
X9863039Y-16703984D02*
X9748753Y-16703984D01*
X9805896Y-16703984D02*
X9805896Y-16503984D01*
X9805896Y-16503984D02*
X9786848Y-16532555D01*
X9786848Y-16532555D02*
X9767801Y-16551603D01*
X9767801Y-16551603D02*
X9748753Y-16561127D01*
X9948753Y-16684936D02*
X9958277Y-16694460D01*
X9958277Y-16694460D02*
X9948753Y-16703984D01*
X9948753Y-16703984D02*
X9939229Y-16694460D01*
X9939229Y-16694460D02*
X9948753Y-16684936D01*
X9948753Y-16684936D02*
X9948753Y-16703984D01*
X10129705Y-16570650D02*
X10129705Y-16703984D01*
X10082086Y-16494460D02*
X10034467Y-16637317D01*
X10034467Y-16637317D02*
X10158277Y-16637317D01*
X10215420Y-16503984D02*
X10339229Y-16503984D01*
X10339229Y-16503984D02*
X10272563Y-16580174D01*
X10272563Y-16580174D02*
X10301134Y-16580174D01*
X10301134Y-16580174D02*
X10320182Y-16589698D01*
X10320182Y-16589698D02*
X10329705Y-16599222D01*
X10329705Y-16599222D02*
X10339229Y-16618269D01*
X10339229Y-16618269D02*
X10339229Y-16665888D01*
X10339229Y-16665888D02*
X10329705Y-16684936D01*
X10329705Y-16684936D02*
X10320182Y-16694460D01*
X10320182Y-16694460D02*
X10301134Y-16703984D01*
X10301134Y-16703984D02*
X10243991Y-16703984D01*
X10243991Y-16703984D02*
X10224944Y-16694460D01*
X10224944Y-16694460D02*
X10215420Y-16684936D01*
X10463039Y-16503984D02*
X10482086Y-16503984D01*
X10482086Y-16503984D02*
X10501134Y-16513508D01*
X10501134Y-16513508D02*
X10510658Y-16523031D01*
X10510658Y-16523031D02*
X10520182Y-16542079D01*
X10520182Y-16542079D02*
X10529705Y-16580174D01*
X10529705Y-16580174D02*
X10529705Y-16627793D01*
X10529705Y-16627793D02*
X10520182Y-16665888D01*
X10520182Y-16665888D02*
X10510658Y-16684936D01*
X10510658Y-16684936D02*
X10501134Y-16694460D01*
X10501134Y-16694460D02*
X10482086Y-16703984D01*
X10482086Y-16703984D02*
X10463039Y-16703984D01*
X10463039Y-16703984D02*
X10443991Y-16694460D01*
X10443991Y-16694460D02*
X10434467Y-16684936D01*
X10434467Y-16684936D02*
X10424944Y-16665888D01*
X10424944Y-16665888D02*
X10415420Y-16627793D01*
X10415420Y-16627793D02*
X10415420Y-16580174D01*
X10415420Y-16580174D02*
X10424944Y-16542079D01*
X10424944Y-16542079D02*
X10434467Y-16523031D01*
X10434467Y-16523031D02*
X10443991Y-16513508D01*
X10443991Y-16513508D02*
X10463039Y-16503984D01*
X10615420Y-16703984D02*
X10615420Y-16570650D01*
X10615420Y-16589698D02*
X10624944Y-16580174D01*
X10624944Y-16580174D02*
X10643991Y-16570650D01*
X10643991Y-16570650D02*
X10672563Y-16570650D01*
X10672563Y-16570650D02*
X10691610Y-16580174D01*
X10691610Y-16580174D02*
X10701134Y-16599222D01*
X10701134Y-16599222D02*
X10701134Y-16703984D01*
X10701134Y-16599222D02*
X10710658Y-16580174D01*
X10710658Y-16580174D02*
X10729705Y-16570650D01*
X10729705Y-16570650D02*
X10758277Y-16570650D01*
X10758277Y-16570650D02*
X10777325Y-16580174D01*
X10777325Y-16580174D02*
X10786848Y-16599222D01*
X10786848Y-16599222D02*
X10786848Y-16703984D01*
X10882086Y-16703984D02*
X10882086Y-16570650D01*
X10882086Y-16589698D02*
X10891610Y-16580174D01*
X10891610Y-16580174D02*
X10910658Y-16570650D01*
X10910658Y-16570650D02*
X10939229Y-16570650D01*
X10939229Y-16570650D02*
X10958277Y-16580174D01*
X10958277Y-16580174D02*
X10967801Y-16599222D01*
X10967801Y-16599222D02*
X10967801Y-16703984D01*
X10967801Y-16599222D02*
X10977325Y-16580174D01*
X10977325Y-16580174D02*
X10996372Y-16570650D01*
X10996372Y-16570650D02*
X11024944Y-16570650D01*
X11024944Y-16570650D02*
X11043991Y-16580174D01*
X11043991Y-16580174D02*
X11053515Y-16599222D01*
X11053515Y-16599222D02*
X11053515Y-16703984D01*
X11443991Y-16494460D02*
X11272563Y-16751603D01*
X11701134Y-16503984D02*
X11720182Y-16503984D01*
X11720182Y-16503984D02*
X11739229Y-16513508D01*
X11739229Y-16513508D02*
X11748753Y-16523031D01*
X11748753Y-16523031D02*
X11758277Y-16542079D01*
X11758277Y-16542079D02*
X11767801Y-16580174D01*
X11767801Y-16580174D02*
X11767801Y-16627793D01*
X11767801Y-16627793D02*
X11758277Y-16665888D01*
X11758277Y-16665888D02*
X11748753Y-16684936D01*
X11748753Y-16684936D02*
X11739229Y-16694460D01*
X11739229Y-16694460D02*
X11720182Y-16703984D01*
X11720182Y-16703984D02*
X11701134Y-16703984D01*
X11701134Y-16703984D02*
X11682086Y-16694460D01*
X11682086Y-16694460D02*
X11672563Y-16684936D01*
X11672563Y-16684936D02*
X11663039Y-16665888D01*
X11663039Y-16665888D02*
X11653515Y-16627793D01*
X11653515Y-16627793D02*
X11653515Y-16580174D01*
X11653515Y-16580174D02*
X11663039Y-16542079D01*
X11663039Y-16542079D02*
X11672563Y-16523031D01*
X11672563Y-16523031D02*
X11682086Y-16513508D01*
X11682086Y-16513508D02*
X11701134Y-16503984D01*
X11853515Y-16684936D02*
X11863039Y-16694460D01*
X11863039Y-16694460D02*
X11853515Y-16703984D01*
X11853515Y-16703984D02*
X11843991Y-16694460D01*
X11843991Y-16694460D02*
X11853515Y-16684936D01*
X11853515Y-16684936D02*
X11853515Y-16703984D01*
X11986848Y-16503984D02*
X12005896Y-16503984D01*
X12005896Y-16503984D02*
X12024944Y-16513508D01*
X12024944Y-16513508D02*
X12034467Y-16523031D01*
X12034467Y-16523031D02*
X12043991Y-16542079D01*
X12043991Y-16542079D02*
X12053515Y-16580174D01*
X12053515Y-16580174D02*
X12053515Y-16627793D01*
X12053515Y-16627793D02*
X12043991Y-16665888D01*
X12043991Y-16665888D02*
X12034467Y-16684936D01*
X12034467Y-16684936D02*
X12024944Y-16694460D01*
X12024944Y-16694460D02*
X12005896Y-16703984D01*
X12005896Y-16703984D02*
X11986848Y-16703984D01*
X11986848Y-16703984D02*
X11967801Y-16694460D01*
X11967801Y-16694460D02*
X11958277Y-16684936D01*
X11958277Y-16684936D02*
X11948753Y-16665888D01*
X11948753Y-16665888D02*
X11939229Y-16627793D01*
X11939229Y-16627793D02*
X11939229Y-16580174D01*
X11939229Y-16580174D02*
X11948753Y-16542079D01*
X11948753Y-16542079D02*
X11958277Y-16523031D01*
X11958277Y-16523031D02*
X11967801Y-16513508D01*
X11967801Y-16513508D02*
X11986848Y-16503984D01*
X12234467Y-16503984D02*
X12139229Y-16503984D01*
X12139229Y-16503984D02*
X12129706Y-16599222D01*
X12129706Y-16599222D02*
X12139229Y-16589698D01*
X12139229Y-16589698D02*
X12158277Y-16580174D01*
X12158277Y-16580174D02*
X12205896Y-16580174D01*
X12205896Y-16580174D02*
X12224944Y-16589698D01*
X12224944Y-16589698D02*
X12234467Y-16599222D01*
X12234467Y-16599222D02*
X12243991Y-16618269D01*
X12243991Y-16618269D02*
X12243991Y-16665888D01*
X12243991Y-16665888D02*
X12234467Y-16684936D01*
X12234467Y-16684936D02*
X12224944Y-16694460D01*
X12224944Y-16694460D02*
X12205896Y-16703984D01*
X12205896Y-16703984D02*
X12158277Y-16703984D01*
X12158277Y-16703984D02*
X12139229Y-16694460D01*
X12139229Y-16694460D02*
X12129706Y-16684936D01*
X12415420Y-16503984D02*
X12377325Y-16503984D01*
X12377325Y-16503984D02*
X12358277Y-16513508D01*
X12358277Y-16513508D02*
X12348753Y-16523031D01*
X12348753Y-16523031D02*
X12329706Y-16551603D01*
X12329706Y-16551603D02*
X12320182Y-16589698D01*
X12320182Y-16589698D02*
X12320182Y-16665888D01*
X12320182Y-16665888D02*
X12329706Y-16684936D01*
X12329706Y-16684936D02*
X12339229Y-16694460D01*
X12339229Y-16694460D02*
X12358277Y-16703984D01*
X12358277Y-16703984D02*
X12396372Y-16703984D01*
X12396372Y-16703984D02*
X12415420Y-16694460D01*
X12415420Y-16694460D02*
X12424944Y-16684936D01*
X12424944Y-16684936D02*
X12434467Y-16665888D01*
X12434467Y-16665888D02*
X12434467Y-16618269D01*
X12434467Y-16618269D02*
X12424944Y-16599222D01*
X12424944Y-16599222D02*
X12415420Y-16589698D01*
X12415420Y-16589698D02*
X12396372Y-16580174D01*
X12396372Y-16580174D02*
X12358277Y-16580174D01*
X12358277Y-16580174D02*
X12339229Y-16589698D01*
X12339229Y-16589698D02*
X12329706Y-16599222D01*
X12329706Y-16599222D02*
X12320182Y-16618269D01*
X12501134Y-16503984D02*
X12624944Y-16503984D01*
X12624944Y-16503984D02*
X12558277Y-16580174D01*
X12558277Y-16580174D02*
X12586848Y-16580174D01*
X12586848Y-16580174D02*
X12605896Y-16589698D01*
X12605896Y-16589698D02*
X12615420Y-16599222D01*
X12615420Y-16599222D02*
X12624944Y-16618269D01*
X12624944Y-16618269D02*
X12624944Y-16665888D01*
X12624944Y-16665888D02*
X12615420Y-16684936D01*
X12615420Y-16684936D02*
X12605896Y-16694460D01*
X12605896Y-16694460D02*
X12586848Y-16703984D01*
X12586848Y-16703984D02*
X12529706Y-16703984D01*
X12529706Y-16703984D02*
X12510658Y-16694460D01*
X12510658Y-16694460D02*
X12501134Y-16684936D01*
X12701134Y-16503984D02*
X12701134Y-16542079D01*
X12777325Y-16503984D02*
X12777325Y-16542079D01*
X13072563Y-16780174D02*
X13063039Y-16770650D01*
X13063039Y-16770650D02*
X13043991Y-16742079D01*
X13043991Y-16742079D02*
X13034468Y-16723031D01*
X13034468Y-16723031D02*
X13024944Y-16694460D01*
X13024944Y-16694460D02*
X13015420Y-16646841D01*
X13015420Y-16646841D02*
X13015420Y-16608746D01*
X13015420Y-16608746D02*
X13024944Y-16561127D01*
X13024944Y-16561127D02*
X13034468Y-16532555D01*
X13034468Y-16532555D02*
X13043991Y-16513508D01*
X13043991Y-16513508D02*
X13063039Y-16484936D01*
X13063039Y-16484936D02*
X13072563Y-16475412D01*
X13234468Y-16503984D02*
X13196372Y-16503984D01*
X13196372Y-16503984D02*
X13177325Y-16513508D01*
X13177325Y-16513508D02*
X13167801Y-16523031D01*
X13167801Y-16523031D02*
X13148753Y-16551603D01*
X13148753Y-16551603D02*
X13139229Y-16589698D01*
X13139229Y-16589698D02*
X13139229Y-16665888D01*
X13139229Y-16665888D02*
X13148753Y-16684936D01*
X13148753Y-16684936D02*
X13158277Y-16694460D01*
X13158277Y-16694460D02*
X13177325Y-16703984D01*
X13177325Y-16703984D02*
X13215420Y-16703984D01*
X13215420Y-16703984D02*
X13234468Y-16694460D01*
X13234468Y-16694460D02*
X13243991Y-16684936D01*
X13243991Y-16684936D02*
X13253515Y-16665888D01*
X13253515Y-16665888D02*
X13253515Y-16618269D01*
X13253515Y-16618269D02*
X13243991Y-16599222D01*
X13243991Y-16599222D02*
X13234468Y-16589698D01*
X13234468Y-16589698D02*
X13215420Y-16580174D01*
X13215420Y-16580174D02*
X13177325Y-16580174D01*
X13177325Y-16580174D02*
X13158277Y-16589698D01*
X13158277Y-16589698D02*
X13148753Y-16599222D01*
X13148753Y-16599222D02*
X13139229Y-16618269D01*
X13491610Y-16703984D02*
X13491610Y-16503984D01*
X13577325Y-16703984D02*
X13577325Y-16599222D01*
X13577325Y-16599222D02*
X13567801Y-16580174D01*
X13567801Y-16580174D02*
X13548753Y-16570650D01*
X13548753Y-16570650D02*
X13520182Y-16570650D01*
X13520182Y-16570650D02*
X13501134Y-16580174D01*
X13501134Y-16580174D02*
X13491610Y-16589698D01*
X13701134Y-16703984D02*
X13682087Y-16694460D01*
X13682087Y-16694460D02*
X13672563Y-16684936D01*
X13672563Y-16684936D02*
X13663039Y-16665888D01*
X13663039Y-16665888D02*
X13663039Y-16608746D01*
X13663039Y-16608746D02*
X13672563Y-16589698D01*
X13672563Y-16589698D02*
X13682087Y-16580174D01*
X13682087Y-16580174D02*
X13701134Y-16570650D01*
X13701134Y-16570650D02*
X13729706Y-16570650D01*
X13729706Y-16570650D02*
X13748753Y-16580174D01*
X13748753Y-16580174D02*
X13758277Y-16589698D01*
X13758277Y-16589698D02*
X13767801Y-16608746D01*
X13767801Y-16608746D02*
X13767801Y-16665888D01*
X13767801Y-16665888D02*
X13758277Y-16684936D01*
X13758277Y-16684936D02*
X13748753Y-16694460D01*
X13748753Y-16694460D02*
X13729706Y-16703984D01*
X13729706Y-16703984D02*
X13701134Y-16703984D01*
X13882087Y-16703984D02*
X13863039Y-16694460D01*
X13863039Y-16694460D02*
X13853515Y-16675412D01*
X13853515Y-16675412D02*
X13853515Y-16503984D01*
X14034468Y-16694460D02*
X14015420Y-16703984D01*
X14015420Y-16703984D02*
X13977325Y-16703984D01*
X13977325Y-16703984D02*
X13958277Y-16694460D01*
X13958277Y-16694460D02*
X13948753Y-16675412D01*
X13948753Y-16675412D02*
X13948753Y-16599222D01*
X13948753Y-16599222D02*
X13958277Y-16580174D01*
X13958277Y-16580174D02*
X13977325Y-16570650D01*
X13977325Y-16570650D02*
X14015420Y-16570650D01*
X14015420Y-16570650D02*
X14034468Y-16580174D01*
X14034468Y-16580174D02*
X14043991Y-16599222D01*
X14043991Y-16599222D02*
X14043991Y-16618269D01*
X14043991Y-16618269D02*
X13948753Y-16637317D01*
X14120182Y-16694460D02*
X14139230Y-16703984D01*
X14139230Y-16703984D02*
X14177325Y-16703984D01*
X14177325Y-16703984D02*
X14196372Y-16694460D01*
X14196372Y-16694460D02*
X14205896Y-16675412D01*
X14205896Y-16675412D02*
X14205896Y-16665888D01*
X14205896Y-16665888D02*
X14196372Y-16646841D01*
X14196372Y-16646841D02*
X14177325Y-16637317D01*
X14177325Y-16637317D02*
X14148753Y-16637317D01*
X14148753Y-16637317D02*
X14129706Y-16627793D01*
X14129706Y-16627793D02*
X14120182Y-16608746D01*
X14120182Y-16608746D02*
X14120182Y-16599222D01*
X14120182Y-16599222D02*
X14129706Y-16580174D01*
X14129706Y-16580174D02*
X14148753Y-16570650D01*
X14148753Y-16570650D02*
X14177325Y-16570650D01*
X14177325Y-16570650D02*
X14196372Y-16580174D01*
X14272563Y-16780174D02*
X14282087Y-16770650D01*
X14282087Y-16770650D02*
X14301134Y-16742079D01*
X14301134Y-16742079D02*
X14310658Y-16723031D01*
X14310658Y-16723031D02*
X14320182Y-16694460D01*
X14320182Y-16694460D02*
X14329706Y-16646841D01*
X14329706Y-16646841D02*
X14329706Y-16608746D01*
X14329706Y-16608746D02*
X14320182Y-16561127D01*
X14320182Y-16561127D02*
X14310658Y-16532555D01*
X14310658Y-16532555D02*
X14301134Y-16513508D01*
X14301134Y-16513508D02*
X14282087Y-16484936D01*
X14282087Y-16484936D02*
X14272563Y-16475412D01*
M02*
