M48
; DRILL file {KiCad 9.0.4-9.0.4-0~ubuntu22.04.1} date 2025-10-28T22:45:50+0000
; FORMAT={-:-/ absolute / metric / decimal}
; #@! TF.CreationDate,2025-10-28T22:45:50+00:00
; #@! TF.GenerationSoftware,Kicad,Pcbnew,9.0.4-9.0.4-0~ubuntu22.04.1
; #@! TF.FileFunction,Plated,1,2,PTH
FMAT,2
METRIC
; #@! TA.AperFunction,Plated,PTH,ViaDrill
T1C0.400
; #@! TA.AperFunction,Plated,PTH,ComponentDrill
T2C0.800
; #@! TA.AperFunction,Plated,PTH,ComponentDrill
T3C1.000
; #@! TA.AperFunction,Plated,PTH,ComponentDrill
T4C1.220
; #@! TA.AperFunction,Plated,PTH,ComponentDrill
T5C1.420
; #@! TA.AperFunction,Plated,PTH,ComponentDrill
T6C1.430
%
G90
G05
T1
X111.6Y-139.4
X117.6Y-127.1
X131.2Y-87.2
X132.9Y-130.7
T2
X99.92Y-55.0
X103.12Y-111.0
X103.12Y-114.1
X104.0Y-73.92
X104.0Y-84.08
X105.0Y-133.92
X105.0Y-144.08
X105.02Y-89.0
X107.5Y-73.92
X107.5Y-84.08
X108.0Y-133.92
X108.0Y-144.08
X110.08Y-55.0
X113.28Y-111.0
X113.28Y-114.1
X115.18Y-89.0
X136.92Y-107.7
X136.92Y-111.7
X142.52Y-50.8
X142.52Y-54.8
X147.08Y-107.7
X147.08Y-111.7
X152.68Y-50.8
X152.68Y-54.8
T3
X98.0Y-69.0
X98.0Y-71.54
X98.0Y-74.08
X98.0Y-76.62
X98.0Y-79.16
X98.0Y-81.7
X98.0Y-130.0
X98.0Y-132.54
X98.0Y-135.08
X98.0Y-137.62
X98.0Y-140.16
X98.0Y-142.7
X103.5Y-71.05
X103.5Y-130.05
X106.0Y-71.05
X106.0Y-130.05
X108.5Y-71.05
X108.5Y-130.05
X122.5Y-49.75
X122.5Y-110.05
X125.0Y-49.75
X125.0Y-110.05
X127.5Y-49.75
X127.5Y-110.05
X141.5Y-71.05
X141.5Y-130.05
X144.0Y-71.05
X144.0Y-130.05
X146.5Y-71.05
X146.5Y-130.05
X152.0Y-69.0
X152.0Y-71.54
X152.0Y-74.08
X152.0Y-76.62
X152.0Y-79.16
X152.0Y-81.7
X152.0Y-130.0
X152.0Y-132.54
X152.0Y-135.08
X152.0Y-137.62
X152.0Y-140.16
X152.0Y-142.7
T4
X115.0Y-74.0
X115.0Y-133.5
X125.0Y-74.0
X125.0Y-133.5
X135.0Y-74.0
X135.0Y-133.5
T5
X115.0Y-77.1
X115.0Y-136.6
X125.0Y-77.1
X125.0Y-136.6
X135.0Y-77.1
X135.0Y-136.6
T6
X115.0Y-85.4
X115.0Y-144.9
X125.0Y-85.4
X125.0Y-144.9
X135.0Y-85.4
X135.0Y-144.9
T3
X123.2Y-60.9G85X122.0Y-60.9
G05
X123.2Y-65.6G85X122.0Y-65.6
G05
X123.2Y-70.3G85X122.0Y-70.3
G05
X123.2Y-120.4G85X122.0Y-120.4
G05
X123.2Y-125.1G85X122.0Y-125.1
G05
X123.2Y-129.8G85X122.0Y-129.8
G05
X128.0Y-60.9G85X126.8Y-60.9
G05
X128.0Y-65.6G85X126.8Y-65.6
G05
X128.0Y-70.3G85X126.8Y-70.3
G05
X128.0Y-120.4G85X126.8Y-120.4
G05
X128.0Y-125.1G85X126.8Y-125.1
G05
X128.0Y-129.8G85X126.8Y-129.8
G05
M30
