%TF.GenerationSoftware,KiCad,Pcbnew,9.0.4-9.0.4-0~ubuntu22.04.1*%
%TF.CreationDate,2025-10-28T22:45:39+00:00*%
%TF.ProjectId,MS20-VCF,4d533230-2d56-4434-962e-6b696361645f,rev?*%
%TF.SameCoordinates,Original*%
%TF.FileFunction,Drillmap*%
%TF.FilePolarity,Positive*%
%FSLAX45Y45*%
G04 Gerber Fmt 4.5, Leading zero omitted, Abs format (unit mm)*
G04 Created by KiCad (PCBNEW 9.0.4-9.0.4-0~ubuntu22.04.1) date 2025-10-28 22:45:39*
%MOMM*%
%LPD*%
G01*
G04 APERTURE LIST*
%ADD10C,0.050000*%
%ADD11C,0.200000*%
G04 APERTURE END LIST*
D10*
X23700000Y-2700000D02*
X23700000Y-15550000D01*
X17700000Y-15550000D02*
X17700000Y-15100000D01*
X17700000Y-2700000D02*
X17700000Y-15100000D01*
X23700000Y-15550000D02*
X17700000Y-15550000D01*
X17700000Y-2700000D02*
X23700000Y-2700000D01*
D11*
X17958277Y-15863984D02*
X17958277Y-15663984D01*
X17958277Y-15663984D02*
X18005896Y-15663984D01*
X18005896Y-15663984D02*
X18034467Y-15673508D01*
X18034467Y-15673508D02*
X18053515Y-15692555D01*
X18053515Y-15692555D02*
X18063039Y-15711603D01*
X18063039Y-15711603D02*
X18072562Y-15749698D01*
X18072562Y-15749698D02*
X18072562Y-15778269D01*
X18072562Y-15778269D02*
X18063039Y-15816365D01*
X18063039Y-15816365D02*
X18053515Y-15835412D01*
X18053515Y-15835412D02*
X18034467Y-15854460D01*
X18034467Y-15854460D02*
X18005896Y-15863984D01*
X18005896Y-15863984D02*
X17958277Y-15863984D01*
X18158277Y-15863984D02*
X18158277Y-15730650D01*
X18158277Y-15768746D02*
X18167801Y-15749698D01*
X18167801Y-15749698D02*
X18177324Y-15740174D01*
X18177324Y-15740174D02*
X18196372Y-15730650D01*
X18196372Y-15730650D02*
X18215420Y-15730650D01*
X18282086Y-15863984D02*
X18282086Y-15730650D01*
X18282086Y-15663984D02*
X18272562Y-15673508D01*
X18272562Y-15673508D02*
X18282086Y-15683031D01*
X18282086Y-15683031D02*
X18291610Y-15673508D01*
X18291610Y-15673508D02*
X18282086Y-15663984D01*
X18282086Y-15663984D02*
X18282086Y-15683031D01*
X18405896Y-15863984D02*
X18386848Y-15854460D01*
X18386848Y-15854460D02*
X18377324Y-15835412D01*
X18377324Y-15835412D02*
X18377324Y-15663984D01*
X18510658Y-15863984D02*
X18491610Y-15854460D01*
X18491610Y-15854460D02*
X18482086Y-15835412D01*
X18482086Y-15835412D02*
X18482086Y-15663984D01*
X18739229Y-15863984D02*
X18739229Y-15663984D01*
X18739229Y-15663984D02*
X18805896Y-15806841D01*
X18805896Y-15806841D02*
X18872562Y-15663984D01*
X18872562Y-15663984D02*
X18872562Y-15863984D01*
X19053515Y-15863984D02*
X19053515Y-15759222D01*
X19053515Y-15759222D02*
X19043991Y-15740174D01*
X19043991Y-15740174D02*
X19024943Y-15730650D01*
X19024943Y-15730650D02*
X18986848Y-15730650D01*
X18986848Y-15730650D02*
X18967801Y-15740174D01*
X19053515Y-15854460D02*
X19034467Y-15863984D01*
X19034467Y-15863984D02*
X18986848Y-15863984D01*
X18986848Y-15863984D02*
X18967801Y-15854460D01*
X18967801Y-15854460D02*
X18958277Y-15835412D01*
X18958277Y-15835412D02*
X18958277Y-15816365D01*
X18958277Y-15816365D02*
X18967801Y-15797317D01*
X18967801Y-15797317D02*
X18986848Y-15787793D01*
X18986848Y-15787793D02*
X19034467Y-15787793D01*
X19034467Y-15787793D02*
X19053515Y-15778269D01*
X19148753Y-15730650D02*
X19148753Y-15930650D01*
X19148753Y-15740174D02*
X19167801Y-15730650D01*
X19167801Y-15730650D02*
X19205896Y-15730650D01*
X19205896Y-15730650D02*
X19224943Y-15740174D01*
X19224943Y-15740174D02*
X19234467Y-15749698D01*
X19234467Y-15749698D02*
X19243991Y-15768746D01*
X19243991Y-15768746D02*
X19243991Y-15825888D01*
X19243991Y-15825888D02*
X19234467Y-15844936D01*
X19234467Y-15844936D02*
X19224943Y-15854460D01*
X19224943Y-15854460D02*
X19205896Y-15863984D01*
X19205896Y-15863984D02*
X19167801Y-15863984D01*
X19167801Y-15863984D02*
X19148753Y-15854460D01*
X19329705Y-15844936D02*
X19339229Y-15854460D01*
X19339229Y-15854460D02*
X19329705Y-15863984D01*
X19329705Y-15863984D02*
X19320182Y-15854460D01*
X19320182Y-15854460D02*
X19329705Y-15844936D01*
X19329705Y-15844936D02*
X19329705Y-15863984D01*
X19329705Y-15740174D02*
X19339229Y-15749698D01*
X19339229Y-15749698D02*
X19329705Y-15759222D01*
X19329705Y-15759222D02*
X19320182Y-15749698D01*
X19320182Y-15749698D02*
X19329705Y-15740174D01*
X19329705Y-15740174D02*
X19329705Y-15759222D01*
M02*
