G04 #@! TF.GenerationSoftware,KiCad,Pcbnew,9.0.4-9.0.4-0~ubuntu22.04.1*
G04 #@! TF.CreationDate,2025-10-28T22:45:39+00:00*
G04 #@! TF.ProjectId,MS20-VCF,4d533230-2d56-4434-962e-6b696361645f,rev?*
G04 #@! TF.SameCoordinates,Original*
G04 #@! TF.FileFunction,Legend,Top*
G04 #@! TF.FilePolarity,Positive*
%FSLAX46Y46*%
G04 Gerber Fmt 4.6, Leading zero omitted, Abs format (unit mm)*
G04 Created by KiCad (PCBNEW 9.0.4-9.0.4-0~ubuntu22.04.1) date 2025-10-28 22:45:39*
%MOMM*%
%LPD*%
G01*
G04 APERTURE LIST*
%ADD10C,0.120000*%
%ADD11C,0.100000*%
%ADD12C,0.150000*%
%ADD13O,6.700000X4.200000*%
G04 APERTURE END LIST*
D10*
X183000000Y-86000000D02*
X193500000Y-86000000D01*
X182500000Y-87000000D02*
X197500000Y-87000000D01*
X179250000Y-86500000D02*
X184000000Y-86500000D01*
X219000000Y-87000000D02*
X212500000Y-87000000D01*
X213000000Y-86000000D02*
X205200000Y-86000000D01*
X210500000Y-87000000D02*
X203500000Y-87000000D01*
X216500000Y-86000000D02*
X228500000Y-86000000D01*
X201100000Y-151300000D02*
X200100000Y-150900000D01*
X205900000Y-152500000D02*
X206100000Y-152700000D01*
X210700000Y-151500000D02*
X209900000Y-151500000D01*
X213300000Y-151500000D02*
X213700000Y-152300000D01*
X208700000Y-61000000D02*
G75*
G02*
X211700000Y-64000000I0J-3000000D01*
G01*
X205200000Y-70000000D02*
G75*
G02*
X202200000Y-67000000I0J3000000D01*
G01*
X212200000Y-67500000D02*
G75*
G02*
X209200000Y-70500000I-3000000J0D01*
G01*
X204700000Y-70500000D02*
G75*
G02*
X201700000Y-67500000I0J3000000D01*
G01*
X202200000Y-63500000D02*
G75*
G02*
X205200000Y-60500000I3000000J0D01*
G01*
X209200000Y-60500000D02*
G75*
G02*
X212200000Y-63500000I0J-3000000D01*
G01*
X234100000Y-102500000D02*
G75*
G02*
X234600000Y-103000000I0J-500000D01*
G01*
X234100000Y-106700000D02*
X231253553Y-106700000D01*
X209200000Y-120000000D02*
G75*
G02*
X212200000Y-123000000I0J-3000000D01*
G01*
X202200000Y-123000000D02*
G75*
G02*
X205200000Y-120000000I3000000J0D01*
G01*
X204700000Y-130000000D02*
G75*
G02*
X201700000Y-127000000I0J3000000D01*
G01*
X212200000Y-127000000D02*
G75*
G02*
X209200000Y-130000000I-3000000J0D01*
G01*
X205200000Y-129500000D02*
G75*
G02*
X202200000Y-126500000I0J3000000D01*
G01*
X208700000Y-120500000D02*
G75*
G02*
X211700000Y-123500000I0J-3000000D01*
G01*
X226000000Y-108200000D02*
X226000000Y-114300000D01*
X226000000Y-108200000D02*
G75*
G02*
X226500000Y-107700000I500000J0D01*
G01*
X231700000Y-102500000D02*
X234113389Y-102500000D01*
X234600000Y-106200000D02*
G75*
G02*
X234100000Y-106700000I-500000J0D01*
G01*
D11*
X231700000Y-103000000D02*
X231200000Y-102500000D01*
X231700000Y-102000000D01*
X231700000Y-103000000D01*
G36*
X231700000Y-103000000D02*
G01*
X231200000Y-102500000D01*
X231700000Y-102000000D01*
X231700000Y-103000000D01*
G37*
D10*
X234600000Y-103000000D02*
X234600000Y-106200000D01*
X226700000Y-101650000D02*
X227500000Y-101650000D01*
X206700000Y-72800000D02*
X206500000Y-72900000D01*
X224070784Y-140900000D02*
X227870784Y-140900000D01*
X187050000Y-97650000D02*
X187150000Y-97500000D01*
X186450000Y-96000000D02*
X185650000Y-97600000D01*
X232700000Y-36250000D02*
X231900000Y-37850000D01*
D11*
X223300000Y-80500000D02*
X221900000Y-82000000D01*
X221900000Y-79000000D01*
X223300000Y-80500000D01*
G36*
X223300000Y-80500000D02*
G01*
X221900000Y-82000000D01*
X221900000Y-79000000D01*
X223300000Y-80500000D01*
G37*
D10*
X212450000Y-69900000D02*
X213300000Y-69900000D01*
X228550000Y-36950000D02*
X228550000Y-37450000D01*
X227200000Y-54800000D02*
X227200000Y-54600000D01*
X179800000Y-95900000D02*
X179800000Y-97600000D01*
X214600000Y-69000000D02*
X215500000Y-69400000D01*
X224150000Y-101650000D02*
X224250000Y-101750000D01*
X228100000Y-53100000D02*
X227100000Y-53700000D01*
X186200000Y-140000000D02*
X190100000Y-140000000D01*
D11*
X192100000Y-140000000D02*
X190700000Y-141500000D01*
X190700000Y-138500000D01*
X192100000Y-140000000D01*
G36*
X192100000Y-140000000D02*
G01*
X190700000Y-141500000D01*
X190700000Y-138500000D01*
X192100000Y-140000000D01*
G37*
D10*
X186700000Y-93550000D02*
X187100000Y-93550000D01*
X229662500Y-101650000D02*
X230712500Y-101650000D01*
X212100000Y-70600000D02*
X212000000Y-70600000D01*
X196800000Y-134000000D02*
X196700000Y-134000000D01*
X206100000Y-152700000D02*
X206100000Y-152500000D01*
X181700000Y-86000000D02*
X178800000Y-86000000D01*
X226400000Y-54700000D02*
X226200000Y-54900000D01*
X233300000Y-37900000D02*
X233400000Y-37750000D01*
X188500000Y-73600000D02*
G75*
G02*
X188000000Y-73100000I0J500000D01*
G01*
X207500000Y-151300000D02*
X206100000Y-151700000D01*
X200200000Y-119600000D02*
X200100000Y-119600000D01*
X236500000Y-87000000D02*
X233500000Y-87000000D01*
X186300000Y-94350000D02*
X186600000Y-94350000D01*
D12*
X195600000Y-122500000D02*
G75*
G02*
X180400000Y-122500000I-7600000J0D01*
G01*
X180400000Y-122500000D02*
G75*
G02*
X195600000Y-122500000I7600000J0D01*
G01*
D10*
X180050000Y-47300000D02*
G75*
G02*
X179550000Y-46800000I0J500000D01*
G01*
X217100000Y-72800000D02*
X216800000Y-74500000D01*
X187300000Y-41350000D02*
X188100000Y-41350000D01*
X227450000Y-36150000D02*
X227450000Y-36350000D01*
X225150000Y-36150000D02*
X225150000Y-37850000D01*
X183500000Y-95250000D02*
X184700000Y-94650000D01*
X184900000Y-95250000D02*
X185700000Y-95250000D01*
X187500000Y-49300000D02*
X184500000Y-49300000D01*
X182300000Y-96700000D02*
X182300000Y-97200000D01*
X232550000Y-34200000D02*
X232350000Y-35500000D01*
X226550000Y-37850000D02*
X226750000Y-37850000D01*
X185600000Y-93550000D02*
X184900000Y-95250000D01*
D11*
X226500000Y-131500000D02*
X225500000Y-131500000D01*
X226000000Y-131000000D01*
X226500000Y-131500000D01*
G36*
X226500000Y-131500000D02*
G01*
X225500000Y-131500000D01*
X226000000Y-131000000D01*
X226500000Y-131500000D01*
G37*
D10*
X182350000Y-42200000D02*
X180050000Y-42200000D01*
X227100000Y-53700000D02*
X228000000Y-54200000D01*
X184400000Y-43050000D02*
X184500000Y-42950000D01*
X229250000Y-101750000D02*
X229350000Y-101650000D01*
X227500000Y-101650000D02*
X226450000Y-103350000D01*
X215900000Y-72800000D02*
X216800000Y-72800000D01*
X228950000Y-35500000D02*
X228450000Y-33800000D01*
X186682843Y-112382843D02*
X185882843Y-114082843D01*
X190082843Y-112482843D02*
X189882843Y-112382843D01*
X225970784Y-138076462D02*
X224070784Y-140900000D01*
X212300000Y-151500000D02*
X211500000Y-152700000D01*
X203300000Y-150500000D02*
X204100000Y-150500000D01*
X208100000Y-132300000D02*
X208800000Y-132300000D01*
X183100000Y-96000000D02*
X183100000Y-96500000D01*
X181200000Y-95900000D02*
X181200000Y-96100000D01*
X182700000Y-95250000D02*
X182200000Y-93550000D01*
X183900000Y-42300000D02*
X184400000Y-43050000D01*
X212900000Y-151500000D02*
X212700000Y-151500000D01*
X228550000Y-37450000D02*
X229350000Y-37850000D01*
X229350000Y-33800000D02*
X228950000Y-35500000D01*
X228100000Y-132900000D02*
X228000000Y-134500000D01*
X226550000Y-37850000D02*
X226550000Y-37650000D01*
X199000000Y-86500000D02*
X194000000Y-86500000D01*
X185850000Y-73300000D02*
X185050000Y-74200000D01*
X183100000Y-96500000D02*
X182300000Y-96700000D01*
X201200000Y-121300000D02*
X201100000Y-121100000D01*
X224550000Y-103350000D02*
X225550000Y-101650000D01*
X186900000Y-95250000D02*
X186700000Y-95050000D01*
X212900000Y-69000000D02*
X212800000Y-69000000D01*
X227975000Y-102200000D02*
X228500000Y-102200000D01*
X225000000Y-54200000D02*
X224800000Y-54700000D01*
X189000000Y-42000000D02*
X189100000Y-41900000D01*
X228300000Y-101650000D02*
X229350000Y-101650000D01*
X212100000Y-152700000D02*
X212900000Y-151500000D01*
X213500000Y-129200000D02*
X213400000Y-129200000D01*
X201700000Y-152700000D02*
X202300000Y-152700000D01*
X188900000Y-41350000D02*
X187900000Y-43050000D01*
X221000000Y-42200000D02*
G75*
G02*
X193000000Y-42200000I-14000000J0D01*
G01*
X193000000Y-42200000D02*
G75*
G02*
X221000000Y-42200000I14000000J0D01*
G01*
X214300000Y-127600000D02*
X214200000Y-127600000D01*
X226400000Y-54700000D02*
X226200000Y-54500000D01*
X216400000Y-74500000D02*
X215900000Y-72800000D01*
X188382843Y-114082843D02*
X188182843Y-114282843D01*
X207200000Y-132300000D02*
X206900000Y-134000000D01*
X188450000Y-96000000D02*
X189500000Y-96000000D01*
X186550000Y-96900000D02*
X187050000Y-97650000D01*
X227300000Y-132900000D02*
X227400000Y-133000000D01*
X226050000Y-36150000D02*
X225850000Y-36050000D01*
X200550000Y-60000000D02*
X199850000Y-61700000D01*
X204700000Y-151500000D02*
X205500000Y-151500000D01*
X188450000Y-96000000D02*
X187450000Y-97650000D01*
D12*
X233700000Y-63510000D02*
G75*
G02*
X218500000Y-63510000I-7600000J0D01*
G01*
X218500000Y-63510000D02*
G75*
G02*
X233700000Y-63510000I7600000J0D01*
G01*
D10*
X228550000Y-36150000D02*
X229350000Y-36250000D01*
D12*
X195600000Y-63500000D02*
G75*
G02*
X180400000Y-63500000I-7600000J0D01*
G01*
X180400000Y-63500000D02*
G75*
G02*
X195600000Y-63500000I7600000J0D01*
G01*
D10*
X197600000Y-134000000D02*
X198400000Y-132300000D01*
X187350000Y-96000000D02*
X186550000Y-96900000D01*
X213300000Y-151500000D02*
X212700000Y-152700000D01*
X180300000Y-97600000D02*
X180500000Y-97600000D01*
X206600000Y-74500000D02*
X206500000Y-74500000D01*
X185450000Y-41350000D02*
X185150000Y-43050000D01*
X187050000Y-43050000D02*
X187300000Y-41350000D01*
X185750000Y-96000000D02*
X185650000Y-96000000D01*
X231850000Y-33800000D02*
X231750000Y-33800000D01*
X228000000Y-54200000D02*
X227200000Y-54800000D01*
X217000000Y-133500000D02*
G75*
G02*
X217500000Y-133000000I500000J0D01*
G01*
X216000000Y-128000000D02*
X214800000Y-128300000D01*
X225100000Y-53600000D02*
X224400000Y-53700000D01*
X185550000Y-74900000D02*
X185650000Y-74800000D01*
X186650000Y-73300000D02*
X186550000Y-74900000D01*
X217000000Y-136500000D02*
X217000000Y-133500000D01*
X181200000Y-95900000D02*
X180200000Y-96500000D01*
X228100000Y-53100000D02*
X228100000Y-53300000D01*
X201700000Y-151300000D02*
X201700000Y-152700000D01*
X187782843Y-112882843D02*
X187582843Y-114082843D01*
X224000000Y-80500000D02*
X227900000Y-80500000D01*
X218000000Y-72800000D02*
X218700000Y-72800000D01*
X208500000Y-132300000D02*
X207500000Y-134000000D01*
X230253553Y-107700000D02*
X226500000Y-107700000D01*
X226050000Y-36150000D02*
X225650000Y-36850000D01*
X206900000Y-134000000D02*
X207900000Y-132300000D01*
X223800000Y-103350000D02*
X223900000Y-103250000D01*
X178900000Y-95900000D02*
X178700000Y-95800000D01*
X190082843Y-112482843D02*
X189082843Y-113082843D01*
X226000000Y-132500000D02*
X226000000Y-131500000D01*
D11*
X186500000Y-140000000D02*
X186000000Y-140500000D01*
X186000000Y-139500000D01*
X186500000Y-140000000D01*
G36*
X186500000Y-140000000D02*
G01*
X186000000Y-140500000D01*
X186000000Y-139500000D01*
X186500000Y-140000000D01*
G37*
D10*
X202900000Y-150900000D02*
X202900000Y-152700000D01*
X224700000Y-53000000D02*
X225100000Y-53600000D01*
X222500000Y-86500000D02*
X233500000Y-86500000D01*
X188900000Y-41350000D02*
X189950000Y-41350000D01*
X210700000Y-152700000D02*
X211900000Y-151500000D01*
X208500000Y-151700000D02*
X209300000Y-152300000D01*
X225650000Y-36850000D02*
X225150000Y-36150000D01*
X188000000Y-73100000D02*
X188000000Y-72100000D01*
X179800000Y-95900000D02*
X179600000Y-95800000D01*
X180200000Y-96500000D02*
X181100000Y-97000000D01*
X223300000Y-102600000D02*
X223800000Y-103350000D01*
X189400000Y-96100000D02*
X189500000Y-96000000D01*
X230612500Y-101750000D02*
X230712500Y-101650000D01*
X211500000Y-152700000D02*
X211700000Y-152700000D01*
X186382843Y-113082843D02*
X186982843Y-113582843D01*
X208000000Y-86500000D02*
X211000000Y-86500000D01*
X201900000Y-119700000D02*
X201200000Y-121300000D01*
X187782843Y-112882843D02*
G75*
G02*
X188182843Y-112482843I399957J43D01*
G01*
X197000000Y-77100000D02*
X197000000Y-74100000D01*
X226050000Y-36150000D02*
X226050000Y-37850000D01*
X211900000Y-151500000D02*
X211700000Y-151500000D01*
X207400000Y-74500000D02*
X208200000Y-72800000D01*
X225500000Y-133000000D02*
X217500000Y-133000000D01*
X231850000Y-33800000D02*
X231150000Y-35500000D01*
X206100000Y-152700000D02*
X206300000Y-152500000D01*
X224700000Y-53000000D02*
X223900000Y-54700000D01*
X228300000Y-101650000D02*
X227300000Y-103350000D01*
X232550000Y-34600000D02*
X232850000Y-34600000D01*
X229750000Y-35500000D02*
X230950000Y-34900000D01*
X212900000Y-69000000D02*
X212100000Y-70600000D01*
X230350000Y-34500000D02*
X231350000Y-34100000D01*
X198400000Y-132300000D02*
X198300000Y-132300000D01*
X232550000Y-34200000D02*
G75*
G02*
X232950000Y-33800000I400000J0D01*
G01*
X213900000Y-70600000D02*
X213800000Y-70400000D01*
X184750000Y-41350000D02*
X184850000Y-41450000D01*
X206000000Y-132300000D02*
X206900000Y-132300000D01*
X234725000Y-36950000D02*
X234825000Y-36850000D01*
X186300000Y-93950000D02*
G75*
G02*
X186700000Y-93550000I400000J0D01*
G01*
X201200000Y-86500000D02*
X206200000Y-86500000D01*
X181100000Y-97000000D02*
X180300000Y-97600000D01*
X207400000Y-72800000D02*
X207400000Y-74500000D01*
X181200000Y-95900000D02*
X181000000Y-95800000D01*
X189182843Y-114182843D02*
X189182843Y-113982843D01*
X232000000Y-36250000D02*
X231900000Y-36250000D01*
X229823538Y-80500000D02*
G75*
G02*
X225976462Y-80500000I-1923538J0D01*
G01*
X225976462Y-80500000D02*
G75*
G02*
X229823538Y-80500000I1923538J0D01*
G01*
X201700000Y-151300000D02*
X201900000Y-151500000D01*
X200100000Y-150900000D02*
X200100000Y-152700000D01*
X182200000Y-94650000D02*
X181500000Y-93550000D01*
X200100000Y-152700000D02*
X201100000Y-152100000D01*
X232800000Y-37150000D02*
X233300000Y-37900000D01*
X184500000Y-49300000D02*
G75*
G02*
X184000000Y-48800000I0J500000D01*
G01*
X228450000Y-34900000D02*
X227750000Y-33800000D01*
X206700000Y-72800000D02*
X206800000Y-73000000D01*
X189982843Y-113582843D02*
X189182843Y-114182843D01*
X224850000Y-101650000D02*
X224550000Y-103350000D01*
X184200000Y-95900000D02*
X184100000Y-97600000D01*
X187500000Y-49300000D02*
G75*
G02*
X188000000Y-49800000I0J-500000D01*
G01*
X206500000Y-134000000D02*
X206000000Y-132300000D01*
X186300000Y-93950000D02*
X186100000Y-95250000D01*
X179550000Y-42700000D02*
G75*
G02*
X180050000Y-42200000I500000J0D01*
G01*
X186682843Y-112382843D02*
X187082843Y-112982843D01*
D11*
X226470784Y-140000000D02*
X225970784Y-140500000D01*
X225970784Y-139500000D01*
X226470784Y-140000000D01*
G36*
X226470784Y-140000000D02*
G01*
X225970784Y-140500000D01*
X225970784Y-139500000D01*
X226470784Y-140000000D01*
G37*
D10*
X234700000Y-36250000D02*
X235750000Y-36250000D01*
X215100000Y-127600000D02*
X214400000Y-129200000D01*
X216800000Y-74500000D02*
X217800000Y-72800000D01*
X190000000Y-81400000D02*
X188100000Y-78576462D01*
X196900000Y-132300000D02*
X197000000Y-132500000D01*
X232700000Y-36250000D02*
X232600000Y-36250000D01*
X228400000Y-102300000D02*
X228500000Y-102200000D01*
X232000000Y-36250000D02*
X231900000Y-37850000D01*
D11*
X192500000Y-80500000D02*
X192000000Y-81000000D01*
X192000000Y-80000000D01*
X192500000Y-80500000D01*
G36*
X192500000Y-80500000D02*
G01*
X192000000Y-81000000D01*
X192000000Y-80000000D01*
X192500000Y-80500000D01*
G37*
D10*
X206900000Y-132300000D02*
X206500000Y-134000000D01*
X213800000Y-69000000D02*
X213700000Y-69000000D01*
X226000000Y-132500000D02*
G75*
G02*
X225500000Y-133000000I-500000J0D01*
G01*
X202900000Y-150900000D02*
G75*
G02*
X203300000Y-150500000I400000J0D01*
G01*
X180300000Y-97600000D02*
X180300000Y-97400000D01*
X188382843Y-114082843D02*
X188182843Y-113882843D01*
X204700000Y-152700000D02*
X205500000Y-152700000D01*
X225600000Y-54700000D02*
X226300000Y-54700000D01*
X229650000Y-33800000D02*
X229350000Y-35500000D01*
X201550000Y-61700000D02*
X201450000Y-61500000D01*
X186900000Y-95250000D02*
X186700000Y-95450000D01*
X208500000Y-152700000D02*
X208500000Y-152500000D01*
X226450000Y-103350000D02*
X226700000Y-101650000D01*
X221000000Y-102500000D02*
G75*
G02*
X193000000Y-102500000I-14000000J0D01*
G01*
X193000000Y-102500000D02*
G75*
G02*
X221000000Y-102500000I14000000J0D01*
G01*
X189182843Y-114182843D02*
X189382843Y-114182843D01*
X189937500Y-41900000D02*
X190462500Y-41900000D01*
X211100000Y-151500000D02*
X210900000Y-151500000D01*
X190362500Y-42000000D02*
X190462500Y-41900000D01*
X235650000Y-36350000D02*
X235750000Y-36250000D01*
X204700000Y-151500000D02*
X204700000Y-152700000D01*
X234400000Y-36850000D02*
X234825000Y-36850000D01*
X202900000Y-152700000D02*
X204100000Y-152700000D01*
X213000000Y-70600000D02*
X212900000Y-70600000D01*
X186100000Y-95250000D02*
X186800000Y-95250000D01*
X215500000Y-69400000D02*
X214300000Y-69700000D01*
X209300000Y-152300000D02*
X208500000Y-152700000D01*
X185850000Y-73300000D02*
X185950000Y-73400000D01*
X183500000Y-47300000D02*
X180050000Y-47300000D01*
X203150000Y-60500000D02*
X201950000Y-60800000D01*
X201700000Y-151300000D02*
X201500000Y-151500000D01*
X185050000Y-74200000D02*
X185550000Y-74900000D01*
X235000000Y-86000000D02*
X231000000Y-86000000D01*
X200550000Y-60000000D02*
X200450000Y-60000000D01*
X182200000Y-93550000D02*
X183100000Y-93550000D01*
X186450000Y-96000000D02*
X186350000Y-96000000D01*
X206100000Y-150900000D02*
X206100000Y-152700000D01*
X227000000Y-134500000D02*
X227100000Y-134400000D01*
X184750000Y-41350000D02*
X183900000Y-42300000D01*
X187582843Y-114082843D02*
X188282843Y-114082843D01*
X185150000Y-43050000D02*
X186150000Y-41350000D01*
X228100000Y-132900000D02*
X228000000Y-132900000D01*
X222070784Y-140000000D02*
X225970784Y-140000000D01*
X231350000Y-34100000D02*
X230750000Y-33800000D01*
X179400000Y-96600000D02*
X178900000Y-95900000D01*
X233150000Y-35500000D02*
X232950000Y-35700000D01*
D11*
X188100000Y-81000000D02*
X187600000Y-80500000D01*
X188100000Y-80000000D01*
X188100000Y-81000000D01*
G36*
X188100000Y-81000000D02*
G01*
X187600000Y-80500000D01*
X188100000Y-80000000D01*
X188100000Y-81000000D01*
G37*
D10*
X186200000Y-81400000D02*
X190000000Y-81400000D01*
X226500000Y-133800000D02*
X227000000Y-134500000D01*
X187782843Y-113282843D02*
X188082843Y-113282843D01*
X181500000Y-93550000D02*
X181100000Y-95250000D01*
X230450000Y-36150000D02*
X230350000Y-37850000D01*
X204700000Y-152100000D02*
X204900000Y-152100000D01*
X209900000Y-151500000D02*
X209900000Y-152700000D01*
X227350000Y-37250000D02*
X226550000Y-37850000D01*
X228100000Y-53100000D02*
X227900000Y-53000000D01*
X187350000Y-73300000D02*
X187250000Y-73300000D01*
X186982843Y-113582843D02*
X186782843Y-114082843D01*
X184500000Y-93550000D02*
X183500000Y-95250000D01*
X229350000Y-36750000D02*
X228550000Y-36950000D01*
X179800000Y-95900000D02*
X179400000Y-96600000D01*
X199850000Y-61700000D02*
X200950000Y-61700000D01*
X212600000Y-129200000D02*
X212500000Y-129200000D01*
D11*
X182850000Y-42200000D02*
X182350000Y-42700000D01*
X182350000Y-41700000D01*
X182850000Y-42200000D01*
G36*
X182850000Y-42200000D02*
G01*
X182350000Y-42700000D01*
X182350000Y-41700000D01*
X182850000Y-42200000D01*
G37*
D10*
X188100000Y-78576462D02*
X186200000Y-81400000D01*
X206100000Y-150900000D02*
X207500000Y-151300000D01*
X225800000Y-53900000D02*
X226100000Y-53900000D01*
X187082843Y-112982843D02*
X186382843Y-113082843D01*
X227450000Y-36150000D02*
X226450000Y-36750000D01*
X182300000Y-95900000D02*
X183100000Y-96000000D01*
X186750000Y-41350000D02*
X185750000Y-43050000D01*
X184700000Y-94650000D02*
X184100000Y-94250000D01*
X213400000Y-127600000D02*
X212600000Y-129200000D01*
X216800000Y-72800000D02*
X216400000Y-74500000D01*
X229350000Y-36250000D02*
X229350000Y-36750000D01*
X187923538Y-140000000D02*
G75*
G02*
X184076462Y-140000000I-1923538J0D01*
G01*
X184076462Y-140000000D02*
G75*
G02*
X187923538Y-140000000I1923538J0D01*
G01*
X233150000Y-35500000D02*
X232950000Y-35300000D01*
X186350000Y-41350000D02*
X187050000Y-41350000D01*
X226200000Y-53100000D02*
X226600000Y-53100000D01*
X227850000Y-37150000D02*
X228250000Y-37150000D01*
X183100000Y-95250000D02*
X184100000Y-93550000D01*
X209500000Y-151500000D02*
X208500000Y-151700000D01*
X228450000Y-33800000D02*
X229350000Y-33800000D01*
X191212500Y-41450000D02*
X191312500Y-41350000D01*
X185750000Y-96000000D02*
X185650000Y-97600000D01*
X188575000Y-41900000D02*
X189100000Y-41900000D01*
X227200000Y-54800000D02*
X227400000Y-54800000D01*
X225800000Y-53500000D02*
X225600000Y-54700000D01*
X182300000Y-97200000D02*
X183100000Y-97600000D01*
X206600000Y-74500000D02*
X207400000Y-72800000D01*
X214600000Y-129100000D02*
X214400000Y-129200000D01*
X209500000Y-151500000D02*
X209500000Y-151700000D01*
X232350000Y-35500000D02*
X233050000Y-35500000D01*
X184100000Y-94250000D02*
X185100000Y-93850000D01*
D11*
X188500000Y-72100000D02*
X187500000Y-72100000D01*
X188000000Y-71600000D01*
X188500000Y-72100000D01*
G36*
X188500000Y-72100000D02*
G01*
X187500000Y-72100000D01*
X188000000Y-71600000D01*
X188500000Y-72100000D01*
G37*
D10*
X230750000Y-33800000D02*
X229750000Y-35500000D01*
X185100000Y-93850000D02*
X184500000Y-93550000D01*
X230950000Y-34900000D02*
X230350000Y-34500000D01*
X215100000Y-127600000D02*
X216000000Y-128000000D01*
X229850000Y-36150000D02*
X230450000Y-36150000D01*
X233600000Y-36250000D02*
X233700000Y-36350000D01*
X226450000Y-36750000D02*
X227350000Y-37250000D01*
X190082843Y-112482843D02*
X190082843Y-112682843D01*
X224150000Y-101650000D02*
X223300000Y-102600000D01*
X213400000Y-127600000D02*
X213300000Y-127600000D01*
X202800000Y-120100000D02*
X201600000Y-120400000D01*
X232950000Y-33800000D02*
X233350000Y-33800000D01*
D12*
X233600000Y-122500000D02*
G75*
G02*
X218400000Y-122500000I-7600000J0D01*
G01*
X218400000Y-122500000D02*
G75*
G02*
X233600000Y-122500000I7600000J0D01*
G01*
D10*
X200200000Y-119600000D02*
X199500000Y-121300000D01*
X229750000Y-37850000D02*
X229850000Y-36150000D01*
X179550000Y-42700000D02*
X179550000Y-46800000D01*
X234700000Y-36250000D02*
X233700000Y-37900000D01*
X218400000Y-72800000D02*
X217400000Y-74500000D01*
X181600000Y-96900000D02*
X182000000Y-96900000D01*
X196800000Y-134000000D02*
X197600000Y-132300000D01*
X183500000Y-97600000D02*
X183600000Y-95900000D01*
X227350000Y-35500000D02*
X228450000Y-34900000D01*
X187350000Y-96000000D02*
X187450000Y-96100000D01*
X225750000Y-101650000D02*
X226450000Y-101650000D01*
X233600000Y-36250000D02*
X232800000Y-37150000D01*
X231150000Y-35500000D02*
X231950000Y-35500000D01*
X201400000Y-121200000D02*
X201200000Y-121300000D01*
X227870784Y-140900000D02*
X225970784Y-138076462D01*
X227300000Y-132900000D02*
X226500000Y-133800000D01*
X211100000Y-151500000D02*
X210700000Y-152700000D01*
X188475000Y-96700000D02*
X188575000Y-96600000D01*
X192000000Y-80500000D02*
X188100000Y-80500000D01*
X214600000Y-69000000D02*
X213900000Y-70600000D01*
X183600000Y-95900000D02*
X184200000Y-95900000D01*
X226150000Y-101650000D02*
X225150000Y-103350000D01*
X229762500Y-102300000D02*
X229862500Y-102200000D01*
X201900000Y-119700000D02*
X202800000Y-120100000D01*
X204100000Y-152700000D02*
X203900000Y-152500000D01*
X228800000Y-132900000D02*
X228700000Y-132900000D01*
X229662500Y-101650000D02*
X228662500Y-103350000D01*
X227450000Y-36150000D02*
X227250000Y-36050000D01*
X199500000Y-121300000D02*
X200600000Y-121300000D01*
X197600000Y-132300000D02*
X197600000Y-134000000D01*
D11*
X228400000Y-80500000D02*
X227900000Y-81000000D01*
X227900000Y-80000000D01*
X228400000Y-80500000D01*
G36*
X228400000Y-80500000D02*
G01*
X227900000Y-81000000D01*
X227900000Y-80000000D01*
X228400000Y-80500000D01*
G37*
D10*
X184100000Y-97600000D02*
X183500000Y-97600000D01*
X230753553Y-107200000D02*
G75*
G02*
X231253553Y-106699953I500047J0D01*
G01*
X201100000Y-152100000D02*
X200100000Y-151700000D01*
X187350000Y-73300000D02*
X186550000Y-74900000D01*
X201750000Y-61600000D02*
X201550000Y-61700000D01*
X214100000Y-70500000D02*
X213900000Y-70600000D01*
X204100000Y-152700000D02*
X203900000Y-152900000D01*
X229350000Y-35500000D02*
X230350000Y-33800000D01*
X202250000Y-60100000D02*
X203150000Y-60500000D01*
X225150000Y-36150000D02*
X224950000Y-36050000D01*
X196900000Y-132300000D02*
X196700000Y-132400000D01*
X213800000Y-69000000D02*
X213000000Y-70600000D01*
X202900000Y-151500000D02*
X203300000Y-151500000D01*
X212700000Y-152700000D02*
X213700000Y-152300000D01*
X196100000Y-134000000D02*
X196900000Y-132300000D01*
X190262500Y-41350000D02*
X191312500Y-41350000D01*
X229337500Y-102200000D02*
X229862500Y-102200000D01*
X188000000Y-49800000D02*
X188000000Y-55300000D01*
X183100000Y-93550000D02*
X182700000Y-95250000D01*
X227750000Y-33800000D02*
X227350000Y-35500000D01*
X228800000Y-132900000D02*
X228000000Y-134500000D01*
X230350000Y-37850000D02*
X229750000Y-37850000D01*
X196500000Y-73600000D02*
G75*
G02*
X197000000Y-74100000I0J-500000D01*
G01*
X184000000Y-47800000D02*
X184000000Y-48800000D01*
X185600000Y-93550000D02*
X185500000Y-93550000D01*
X196500000Y-73600000D02*
X188500000Y-73600000D01*
X188150000Y-96600000D02*
X188575000Y-96600000D01*
X212000000Y-86500000D02*
X217000000Y-86500000D01*
X224400000Y-53700000D02*
X225000000Y-54200000D01*
X225800000Y-53500000D02*
G75*
G02*
X226200000Y-53100000I400000J0D01*
G01*
X212300000Y-151500000D02*
X212100000Y-152700000D01*
D11*
X222100000Y-140500000D02*
X221600000Y-140000000D01*
X222100000Y-139500000D01*
X222100000Y-140500000D01*
G36*
X222100000Y-140500000D02*
G01*
X221600000Y-140000000D01*
X222100000Y-139500000D01*
X222100000Y-140500000D01*
G37*
D10*
X178900000Y-95900000D02*
X178900000Y-97600000D01*
X189850000Y-41450000D02*
X189950000Y-41350000D01*
X212950000Y-128500000D02*
X213800000Y-128500000D01*
X214400000Y-129200000D02*
X214300000Y-129000000D01*
X228500000Y-87000000D02*
X224500000Y-87000000D01*
X189082843Y-113082843D02*
X189982843Y-113582843D01*
X183400000Y-93550000D02*
X183100000Y-95250000D01*
X200100000Y-151700000D02*
X201100000Y-151300000D01*
X202250000Y-60100000D02*
X201550000Y-61700000D01*
X205900000Y-74500000D02*
X206700000Y-72800000D01*
X208200000Y-72800000D02*
X208100000Y-72800000D01*
X188100000Y-41350000D02*
X187050000Y-43050000D01*
X181100000Y-95250000D02*
X182200000Y-94650000D01*
X209900000Y-152700000D02*
X210700000Y-151500000D01*
X186650000Y-73300000D02*
X186550000Y-73300000D01*
X183500000Y-47300000D02*
G75*
G02*
X184000000Y-47800000I0J-500000D01*
G01*
X230753553Y-107200000D02*
G75*
G02*
X230253553Y-107699953I-499953J0D01*
G01*
X190262500Y-41350000D02*
X189262500Y-43050000D01*
X188182843Y-112482843D02*
X188582843Y-112482843D01*
X214300000Y-127600000D02*
X213500000Y-129200000D01*
%LPC*%
D13*
X186000000Y-30000000D03*
X228000000Y-30000000D03*
X228000000Y-152500000D03*
X186000000Y-152500000D03*
%LPD*%
M02*
