G04 #@! TF.GenerationSoftware,KiCad,Pcbnew,7.0.7-7.0.7~ubuntu22.04.1*
G04 #@! TF.CreationDate,2023-09-23T22:53:49+02:00*
G04 #@! TF.ProjectId,MS20-VCF,4d533230-2d56-4434-962e-6b696361645f,rev?*
G04 #@! TF.SameCoordinates,Original*
G04 #@! TF.FileFunction,Copper,L2,Bot*
G04 #@! TF.FilePolarity,Positive*
%FSLAX46Y46*%
G04 Gerber Fmt 4.6, Leading zero omitted, Abs format (unit mm)*
G04 Created by KiCad (PCBNEW 7.0.7-7.0.7~ubuntu22.04.1) date 2023-09-23 22:53:49*
%MOMM*%
%LPD*%
G01*
G04 APERTURE LIST*
G04 #@! TA.AperFunction,ComponentPad*
%ADD10O,6.700000X4.200000*%
G04 #@! TD*
G04 #@! TA.AperFunction,ViaPad*
%ADD11C,8.500000*%
G04 #@! TD*
G04 #@! TA.AperFunction,ViaPad*
%ADD12C,7.800000*%
G04 #@! TD*
G04 APERTURE END LIST*
D10*
X186000000Y-30000000D03*
X228000000Y-30000000D03*
X228000000Y-152500000D03*
X186000000Y-152500000D03*
D11*
X200500000Y-91500000D03*
D12*
X197000000Y-80500000D03*
X207000000Y-80500000D03*
X217000000Y-80500000D03*
D11*
X225000000Y-44000000D03*
X189000000Y-103000000D03*
X220000000Y-122500000D03*
X194000000Y-122500000D03*
X222000000Y-102500000D03*
D12*
X207000000Y-139500000D03*
X197000000Y-139500000D03*
X217000000Y-139500000D03*
D11*
X220000000Y-63500000D03*
X194000000Y-63500000D03*
X192000000Y-43500000D03*
G04 #@! TA.AperFunction,Conductor*
G36*
X236912500Y-27042113D02*
G01*
X236957887Y-27087500D01*
X236974500Y-27149500D01*
X236974500Y-155350500D01*
X236957887Y-155412500D01*
X236912500Y-155457887D01*
X236850500Y-155474500D01*
X177149500Y-155474500D01*
X177087500Y-155457887D01*
X177042113Y-155412500D01*
X177025500Y-155350500D01*
X177025499Y-152750000D01*
X182162027Y-152750000D01*
X182175887Y-152899576D01*
X182244500Y-153212876D01*
X182351094Y-153515367D01*
X182494054Y-153802470D01*
X182671212Y-154069828D01*
X182879883Y-154313390D01*
X183116895Y-154529455D01*
X183378679Y-154714767D01*
X183661232Y-154866495D01*
X183960307Y-154982358D01*
X184271345Y-155060587D01*
X184589636Y-155100000D01*
X185750000Y-155100000D01*
X185750000Y-152750000D01*
X186250000Y-152750000D01*
X186250000Y-155100000D01*
X187330107Y-155100000D01*
X187570115Y-155085196D01*
X187885382Y-155026263D01*
X188191012Y-154929034D01*
X188482384Y-154794982D01*
X188755063Y-154626147D01*
X189004937Y-154425074D01*
X189228205Y-154194821D01*
X189421485Y-153938876D01*
X189581849Y-153661120D01*
X189706861Y-153365765D01*
X189794632Y-153057282D01*
X189842331Y-152750000D01*
X224162027Y-152750000D01*
X224175887Y-152899576D01*
X224244500Y-153212876D01*
X224351094Y-153515367D01*
X224494054Y-153802470D01*
X224671212Y-154069828D01*
X224879883Y-154313390D01*
X225116895Y-154529455D01*
X225378679Y-154714767D01*
X225661232Y-154866495D01*
X225960307Y-154982358D01*
X226271345Y-155060587D01*
X226589636Y-155100000D01*
X227750000Y-155100000D01*
X227750000Y-152750000D01*
X228250000Y-152750000D01*
X228250000Y-155100000D01*
X229330107Y-155100000D01*
X229570115Y-155085196D01*
X229885382Y-155026263D01*
X230191012Y-154929034D01*
X230482384Y-154794982D01*
X230755063Y-154626147D01*
X231004937Y-154425074D01*
X231228205Y-154194821D01*
X231421485Y-153938876D01*
X231581849Y-153661120D01*
X231706861Y-153365765D01*
X231794632Y-153057282D01*
X231842331Y-152750000D01*
X228250000Y-152750000D01*
X227750000Y-152750000D01*
X224162027Y-152750000D01*
X189842331Y-152750000D01*
X186250000Y-152750000D01*
X185750000Y-152750000D01*
X182162027Y-152750000D01*
X177025499Y-152750000D01*
X177025499Y-152249999D01*
X182157668Y-152249999D01*
X182157669Y-152250000D01*
X185750000Y-152250000D01*
X185750000Y-149900000D01*
X186250000Y-149900000D01*
X186250000Y-152250000D01*
X189837973Y-152250000D01*
X189837973Y-152249999D01*
X224157668Y-152249999D01*
X224157669Y-152250000D01*
X227750000Y-152250000D01*
X227750000Y-149900000D01*
X228250000Y-149900000D01*
X228250000Y-152250000D01*
X231837973Y-152250000D01*
X231837973Y-152249999D01*
X231824112Y-152100423D01*
X231755499Y-151787123D01*
X231648905Y-151484632D01*
X231505945Y-151197529D01*
X231328787Y-150930171D01*
X231120116Y-150686609D01*
X230883104Y-150470544D01*
X230621320Y-150285232D01*
X230338767Y-150133504D01*
X230039692Y-150017641D01*
X229728654Y-149939412D01*
X229410364Y-149900000D01*
X228250000Y-149900000D01*
X227750000Y-149900000D01*
X226669893Y-149900000D01*
X226429884Y-149914803D01*
X226114617Y-149973736D01*
X225808987Y-150070965D01*
X225517615Y-150205017D01*
X225244936Y-150373852D01*
X224995062Y-150574925D01*
X224771794Y-150805178D01*
X224578514Y-151061123D01*
X224418150Y-151338879D01*
X224293138Y-151634234D01*
X224205367Y-151942717D01*
X224157668Y-152249999D01*
X189837973Y-152249999D01*
X189824112Y-152100423D01*
X189755499Y-151787123D01*
X189648905Y-151484632D01*
X189505945Y-151197529D01*
X189328787Y-150930171D01*
X189120116Y-150686609D01*
X188883104Y-150470544D01*
X188621320Y-150285232D01*
X188338767Y-150133504D01*
X188039692Y-150017641D01*
X187728654Y-149939412D01*
X187410364Y-149900000D01*
X186250000Y-149900000D01*
X185750000Y-149900000D01*
X184669893Y-149900000D01*
X184429884Y-149914803D01*
X184114617Y-149973736D01*
X183808987Y-150070965D01*
X183517615Y-150205017D01*
X183244936Y-150373852D01*
X182995062Y-150574925D01*
X182771794Y-150805178D01*
X182578514Y-151061123D01*
X182418150Y-151338879D01*
X182293138Y-151634234D01*
X182205367Y-151942717D01*
X182157668Y-152249999D01*
X177025499Y-152249999D01*
X177025499Y-150994929D01*
X177025500Y-84500000D01*
X227000000Y-84500000D01*
X227000000Y-88500000D01*
X231000000Y-88500000D01*
X231000000Y-84500000D01*
X227000000Y-84500000D01*
X177025500Y-84500000D01*
X177025500Y-30250000D01*
X182162027Y-30250000D01*
X182175887Y-30399576D01*
X182244500Y-30712876D01*
X182351094Y-31015367D01*
X182494054Y-31302470D01*
X182671212Y-31569828D01*
X182879883Y-31813390D01*
X183116895Y-32029455D01*
X183378679Y-32214767D01*
X183661232Y-32366495D01*
X183960307Y-32482358D01*
X184271345Y-32560587D01*
X184589636Y-32600000D01*
X185750000Y-32600000D01*
X185750000Y-30250000D01*
X186250000Y-30250000D01*
X186250000Y-32600000D01*
X187330107Y-32600000D01*
X187570115Y-32585196D01*
X187885382Y-32526263D01*
X188191012Y-32429034D01*
X188482384Y-32294982D01*
X188755063Y-32126147D01*
X189004937Y-31925074D01*
X189228205Y-31694821D01*
X189421485Y-31438876D01*
X189581849Y-31161120D01*
X189706861Y-30865765D01*
X189794632Y-30557282D01*
X189842331Y-30250000D01*
X224162027Y-30250000D01*
X224175887Y-30399576D01*
X224244500Y-30712876D01*
X224351094Y-31015367D01*
X224494054Y-31302470D01*
X224671212Y-31569828D01*
X224879883Y-31813390D01*
X225116895Y-32029455D01*
X225378679Y-32214767D01*
X225661232Y-32366495D01*
X225960307Y-32482358D01*
X226271345Y-32560587D01*
X226589636Y-32600000D01*
X227750000Y-32600000D01*
X227750000Y-30250000D01*
X228250000Y-30250000D01*
X228250000Y-32600000D01*
X229330107Y-32600000D01*
X229570115Y-32585196D01*
X229885382Y-32526263D01*
X230191012Y-32429034D01*
X230482384Y-32294982D01*
X230755063Y-32126147D01*
X231004937Y-31925074D01*
X231228205Y-31694821D01*
X231421485Y-31438876D01*
X231581849Y-31161120D01*
X231706861Y-30865765D01*
X231794632Y-30557282D01*
X231842331Y-30250000D01*
X228250000Y-30250000D01*
X227750000Y-30250000D01*
X224162027Y-30250000D01*
X189842331Y-30250000D01*
X186250000Y-30250000D01*
X185750000Y-30250000D01*
X182162027Y-30250000D01*
X177025500Y-30250000D01*
X177025500Y-29749999D01*
X182157668Y-29749999D01*
X182157669Y-29750000D01*
X185750000Y-29750000D01*
X185750000Y-27400000D01*
X186250000Y-27400000D01*
X186250000Y-29750000D01*
X189837973Y-29750000D01*
X189837973Y-29749999D01*
X224157668Y-29749999D01*
X224157669Y-29750000D01*
X227750000Y-29750000D01*
X227750000Y-27400000D01*
X228250000Y-27400000D01*
X228250000Y-29750000D01*
X231837973Y-29750000D01*
X231837973Y-29749999D01*
X231824112Y-29600423D01*
X231755499Y-29287123D01*
X231648905Y-28984632D01*
X231505945Y-28697529D01*
X231328787Y-28430171D01*
X231120116Y-28186609D01*
X230883104Y-27970544D01*
X230621320Y-27785232D01*
X230338767Y-27633504D01*
X230039692Y-27517641D01*
X229728654Y-27439412D01*
X229410364Y-27400000D01*
X228250000Y-27400000D01*
X227750000Y-27400000D01*
X226669893Y-27400000D01*
X226429884Y-27414803D01*
X226114617Y-27473736D01*
X225808987Y-27570965D01*
X225517615Y-27705017D01*
X225244936Y-27873852D01*
X224995062Y-28074925D01*
X224771794Y-28305178D01*
X224578514Y-28561123D01*
X224418150Y-28838879D01*
X224293138Y-29134234D01*
X224205367Y-29442717D01*
X224157668Y-29749999D01*
X189837973Y-29749999D01*
X189824112Y-29600423D01*
X189755499Y-29287123D01*
X189648905Y-28984632D01*
X189505945Y-28697529D01*
X189328787Y-28430171D01*
X189120116Y-28186609D01*
X188883104Y-27970544D01*
X188621320Y-27785232D01*
X188338767Y-27633504D01*
X188039692Y-27517641D01*
X187728654Y-27439412D01*
X187410364Y-27400000D01*
X186250000Y-27400000D01*
X185750000Y-27400000D01*
X184669893Y-27400000D01*
X184429884Y-27414803D01*
X184114617Y-27473736D01*
X183808987Y-27570965D01*
X183517615Y-27705017D01*
X183244936Y-27873852D01*
X182995062Y-28074925D01*
X182771794Y-28305178D01*
X182578514Y-28561123D01*
X182418150Y-28838879D01*
X182293138Y-29134234D01*
X182205367Y-29442717D01*
X182157668Y-29749999D01*
X177025500Y-29749999D01*
X177025500Y-27149500D01*
X177042113Y-27087500D01*
X177087500Y-27042113D01*
X177149500Y-27025500D01*
X236850500Y-27025500D01*
X236912500Y-27042113D01*
G37*
G04 #@! TD.AperFunction*
M02*
