G04 #@! TF.GenerationSoftware,KiCad,Pcbnew,9.0.4-9.0.4-0~ubuntu22.04.1*
G04 #@! TF.CreationDate,2025-10-28T22:45:39+00:00*
G04 #@! TF.ProjectId,MS20-VCF,4d533230-2d56-4434-962e-6b696361645f,rev?*
G04 #@! TF.SameCoordinates,Original*
G04 #@! TF.FileFunction,Copper,L2,Bot*
G04 #@! TF.FilePolarity,Positive*
%FSLAX46Y46*%
G04 Gerber Fmt 4.6, Leading zero omitted, Abs format (unit mm)*
G04 Created by KiCad (PCBNEW 9.0.4-9.0.4-0~ubuntu22.04.1) date 2025-10-28 22:45:39*
%MOMM*%
%LPD*%
G01*
G04 APERTURE LIST*
G04 #@! TA.AperFunction,ComponentPad*
%ADD10O,6.700000X4.200000*%
G04 #@! TD*
G04 #@! TA.AperFunction,ViaPad*
%ADD11C,7.800000*%
G04 #@! TD*
G04 #@! TA.AperFunction,ViaPad*
%ADD12C,8.500000*%
G04 #@! TD*
G04 APERTURE END LIST*
D10*
X186000000Y-30000000D03*
X228000000Y-30000000D03*
X228000000Y-152500000D03*
X186000000Y-152500000D03*
D11*
X197000000Y-80500000D03*
X207000000Y-80500000D03*
X217000000Y-80500000D03*
D12*
X207000000Y-65600000D03*
X207000000Y-125100000D03*
X226000000Y-122500000D03*
X188000000Y-122500000D03*
X207000000Y-102500000D03*
D11*
X207000000Y-140000000D03*
X197000000Y-140000000D03*
X217000000Y-140000000D03*
D12*
X226000000Y-63510000D03*
X188000000Y-63500000D03*
X207000000Y-42200000D03*
G04 #@! TA.AperFunction,Conductor*
G36*
X236917539Y-27045185D02*
G01*
X236963294Y-27097989D01*
X236974500Y-27149500D01*
X236974500Y-155350500D01*
X236954815Y-155417539D01*
X236902011Y-155463294D01*
X236850500Y-155474500D01*
X177149500Y-155474500D01*
X177082461Y-155454815D01*
X177036706Y-155402011D01*
X177025500Y-155350500D01*
X177025500Y-154235230D01*
X177025499Y-152250000D01*
X182161716Y-152250000D01*
X183270898Y-152250000D01*
X183250000Y-152381947D01*
X183250000Y-152618053D01*
X183270898Y-152750000D01*
X182161716Y-152750000D01*
X182182694Y-152936189D01*
X182182696Y-152936201D01*
X182247678Y-153220910D01*
X182247681Y-153220918D01*
X182344129Y-153496548D01*
X182470831Y-153759648D01*
X182626199Y-154006914D01*
X182808274Y-154235230D01*
X183014769Y-154441725D01*
X183243085Y-154623800D01*
X183490351Y-154779168D01*
X183753451Y-154905870D01*
X184029081Y-155002318D01*
X184029089Y-155002321D01*
X184313798Y-155067303D01*
X184313812Y-155067306D01*
X184603980Y-155099999D01*
X184603984Y-155100000D01*
X185750000Y-155100000D01*
X185750000Y-154000000D01*
X186250000Y-154000000D01*
X186250000Y-155100000D01*
X187396016Y-155100000D01*
X187396019Y-155099999D01*
X187686187Y-155067306D01*
X187686201Y-155067303D01*
X187970910Y-155002321D01*
X187970918Y-155002318D01*
X188246548Y-154905870D01*
X188509648Y-154779168D01*
X188756914Y-154623800D01*
X188985230Y-154441725D01*
X189191725Y-154235230D01*
X189373800Y-154006914D01*
X189529168Y-153759648D01*
X189655870Y-153496548D01*
X189752318Y-153220918D01*
X189752321Y-153220910D01*
X189817303Y-152936201D01*
X189817305Y-152936189D01*
X189838284Y-152750000D01*
X188729102Y-152750000D01*
X188750000Y-152618053D01*
X188750000Y-152381947D01*
X188729102Y-152250000D01*
X189838284Y-152250000D01*
X224161716Y-152250000D01*
X225270898Y-152250000D01*
X225250000Y-152381947D01*
X225250000Y-152618053D01*
X225270898Y-152750000D01*
X224161716Y-152750000D01*
X224182694Y-152936189D01*
X224182696Y-152936201D01*
X224247678Y-153220910D01*
X224247681Y-153220918D01*
X224344129Y-153496548D01*
X224470831Y-153759648D01*
X224626199Y-154006914D01*
X224808274Y-154235230D01*
X225014769Y-154441725D01*
X225243085Y-154623800D01*
X225490351Y-154779168D01*
X225753451Y-154905870D01*
X226029081Y-155002318D01*
X226029089Y-155002321D01*
X226313798Y-155067303D01*
X226313812Y-155067306D01*
X226603980Y-155099999D01*
X226603984Y-155100000D01*
X227750000Y-155100000D01*
X227750000Y-154000000D01*
X228250000Y-154000000D01*
X228250000Y-155100000D01*
X229396016Y-155100000D01*
X229396019Y-155099999D01*
X229686187Y-155067306D01*
X229686201Y-155067303D01*
X229970910Y-155002321D01*
X229970918Y-155002318D01*
X230246548Y-154905870D01*
X230509648Y-154779168D01*
X230756914Y-154623800D01*
X230985230Y-154441725D01*
X231191725Y-154235230D01*
X231373800Y-154006914D01*
X231529168Y-153759648D01*
X231655870Y-153496548D01*
X231752318Y-153220918D01*
X231752321Y-153220910D01*
X231817303Y-152936201D01*
X231817305Y-152936189D01*
X231838284Y-152750000D01*
X230729102Y-152750000D01*
X230750000Y-152618053D01*
X230750000Y-152381947D01*
X230729102Y-152250000D01*
X231838284Y-152250000D01*
X231817305Y-152063810D01*
X231817303Y-152063798D01*
X231752321Y-151779089D01*
X231752318Y-151779081D01*
X231655870Y-151503451D01*
X231529168Y-151240351D01*
X231373800Y-150993085D01*
X231191725Y-150764769D01*
X230985230Y-150558274D01*
X230756914Y-150376199D01*
X230509648Y-150220831D01*
X230246548Y-150094129D01*
X229970918Y-149997681D01*
X229970910Y-149997678D01*
X229686201Y-149932696D01*
X229686187Y-149932693D01*
X229396019Y-149900000D01*
X228250000Y-149900000D01*
X228250000Y-151000000D01*
X227750000Y-151000000D01*
X227750000Y-149900000D01*
X226603980Y-149900000D01*
X226313812Y-149932693D01*
X226313798Y-149932696D01*
X226029089Y-149997678D01*
X226029081Y-149997681D01*
X225753451Y-150094129D01*
X225490351Y-150220831D01*
X225243085Y-150376199D01*
X225014769Y-150558274D01*
X224808274Y-150764769D01*
X224626199Y-150993085D01*
X224470831Y-151240351D01*
X224344129Y-151503451D01*
X224247681Y-151779081D01*
X224247678Y-151779089D01*
X224182696Y-152063798D01*
X224182694Y-152063810D01*
X224161716Y-152250000D01*
X189838284Y-152250000D01*
X189817305Y-152063810D01*
X189817303Y-152063798D01*
X189752321Y-151779089D01*
X189752318Y-151779081D01*
X189655870Y-151503451D01*
X189529168Y-151240351D01*
X189373800Y-150993085D01*
X189191725Y-150764769D01*
X188985230Y-150558274D01*
X188756914Y-150376199D01*
X188509648Y-150220831D01*
X188246548Y-150094129D01*
X187970918Y-149997681D01*
X187970910Y-149997678D01*
X187686201Y-149932696D01*
X187686187Y-149932693D01*
X187396019Y-149900000D01*
X186250000Y-149900000D01*
X186250000Y-151000000D01*
X185750000Y-151000000D01*
X185750000Y-149900000D01*
X184603980Y-149900000D01*
X184313812Y-149932693D01*
X184313798Y-149932696D01*
X184029089Y-149997678D01*
X184029081Y-149997681D01*
X183753451Y-150094129D01*
X183490351Y-150220831D01*
X183243085Y-150376199D01*
X183014769Y-150558274D01*
X182808274Y-150764769D01*
X182626199Y-150993085D01*
X182470831Y-151240351D01*
X182344129Y-151503451D01*
X182247681Y-151779081D01*
X182247678Y-151779089D01*
X182182696Y-152063798D01*
X182182694Y-152063810D01*
X182161716Y-152250000D01*
X177025499Y-152250000D01*
X177025499Y-150989439D01*
X177025500Y-29750000D01*
X182161716Y-29750000D01*
X183270898Y-29750000D01*
X183250000Y-29881947D01*
X183250000Y-30118053D01*
X183270898Y-30250000D01*
X182161716Y-30250000D01*
X182182694Y-30436189D01*
X182182696Y-30436201D01*
X182247678Y-30720910D01*
X182247681Y-30720918D01*
X182344129Y-30996548D01*
X182470831Y-31259648D01*
X182626199Y-31506914D01*
X182808274Y-31735230D01*
X183014769Y-31941725D01*
X183243085Y-32123800D01*
X183490351Y-32279168D01*
X183753451Y-32405870D01*
X184029081Y-32502318D01*
X184029089Y-32502321D01*
X184313798Y-32567303D01*
X184313812Y-32567306D01*
X184603980Y-32599999D01*
X184603984Y-32600000D01*
X185750000Y-32600000D01*
X185750000Y-31500000D01*
X186250000Y-31500000D01*
X186250000Y-32600000D01*
X187396016Y-32600000D01*
X187396019Y-32599999D01*
X187686187Y-32567306D01*
X187686201Y-32567303D01*
X187970910Y-32502321D01*
X187970918Y-32502318D01*
X188246548Y-32405870D01*
X188509648Y-32279168D01*
X188756914Y-32123800D01*
X188985230Y-31941725D01*
X189191725Y-31735230D01*
X189373800Y-31506914D01*
X189529168Y-31259648D01*
X189655870Y-30996548D01*
X189752318Y-30720918D01*
X189752321Y-30720910D01*
X189817303Y-30436201D01*
X189817305Y-30436189D01*
X189838284Y-30250000D01*
X188729102Y-30250000D01*
X188750000Y-30118053D01*
X188750000Y-29881947D01*
X188729102Y-29750000D01*
X189838284Y-29750000D01*
X224161716Y-29750000D01*
X225270898Y-29750000D01*
X225250000Y-29881947D01*
X225250000Y-30118053D01*
X225270898Y-30250000D01*
X224161716Y-30250000D01*
X224182694Y-30436189D01*
X224182696Y-30436201D01*
X224247678Y-30720910D01*
X224247681Y-30720918D01*
X224344129Y-30996548D01*
X224470831Y-31259648D01*
X224626199Y-31506914D01*
X224808274Y-31735230D01*
X225014769Y-31941725D01*
X225243085Y-32123800D01*
X225490351Y-32279168D01*
X225753451Y-32405870D01*
X226029081Y-32502318D01*
X226029089Y-32502321D01*
X226313798Y-32567303D01*
X226313812Y-32567306D01*
X226603980Y-32599999D01*
X226603984Y-32600000D01*
X227750000Y-32600000D01*
X227750000Y-31500000D01*
X228250000Y-31500000D01*
X228250000Y-32600000D01*
X229396016Y-32600000D01*
X229396019Y-32599999D01*
X229686187Y-32567306D01*
X229686201Y-32567303D01*
X229970910Y-32502321D01*
X229970918Y-32502318D01*
X230246548Y-32405870D01*
X230509648Y-32279168D01*
X230756914Y-32123800D01*
X230985230Y-31941725D01*
X231191725Y-31735230D01*
X231373800Y-31506914D01*
X231529168Y-31259648D01*
X231655870Y-30996548D01*
X231752318Y-30720918D01*
X231752321Y-30720910D01*
X231817303Y-30436201D01*
X231817305Y-30436189D01*
X231838284Y-30250000D01*
X230729102Y-30250000D01*
X230750000Y-30118053D01*
X230750000Y-29881947D01*
X230729102Y-29750000D01*
X231838284Y-29750000D01*
X231817305Y-29563810D01*
X231817303Y-29563798D01*
X231752321Y-29279089D01*
X231752318Y-29279081D01*
X231655870Y-29003451D01*
X231529168Y-28740351D01*
X231373800Y-28493085D01*
X231191725Y-28264769D01*
X230985230Y-28058274D01*
X230756914Y-27876199D01*
X230509648Y-27720831D01*
X230246548Y-27594129D01*
X229970918Y-27497681D01*
X229970910Y-27497678D01*
X229686201Y-27432696D01*
X229686187Y-27432693D01*
X229396019Y-27400000D01*
X228250000Y-27400000D01*
X228250000Y-28500000D01*
X227750000Y-28500000D01*
X227750000Y-27400000D01*
X226603980Y-27400000D01*
X226313812Y-27432693D01*
X226313798Y-27432696D01*
X226029089Y-27497678D01*
X226029081Y-27497681D01*
X225753451Y-27594129D01*
X225490351Y-27720831D01*
X225243085Y-27876199D01*
X225014769Y-28058274D01*
X224808274Y-28264769D01*
X224626199Y-28493085D01*
X224470831Y-28740351D01*
X224344129Y-29003451D01*
X224247681Y-29279081D01*
X224247678Y-29279089D01*
X224182696Y-29563798D01*
X224182694Y-29563810D01*
X224161716Y-29750000D01*
X189838284Y-29750000D01*
X189817305Y-29563810D01*
X189817303Y-29563798D01*
X189752321Y-29279089D01*
X189752318Y-29279081D01*
X189655870Y-29003451D01*
X189529168Y-28740351D01*
X189373800Y-28493085D01*
X189191725Y-28264769D01*
X188985230Y-28058274D01*
X188756914Y-27876199D01*
X188509648Y-27720831D01*
X188246548Y-27594129D01*
X187970918Y-27497681D01*
X187970910Y-27497678D01*
X187686201Y-27432696D01*
X187686187Y-27432693D01*
X187396019Y-27400000D01*
X186250000Y-27400000D01*
X186250000Y-28500000D01*
X185750000Y-28500000D01*
X185750000Y-27400000D01*
X184603980Y-27400000D01*
X184313812Y-27432693D01*
X184313798Y-27432696D01*
X184029089Y-27497678D01*
X184029081Y-27497681D01*
X183753451Y-27594129D01*
X183490351Y-27720831D01*
X183243085Y-27876199D01*
X183014769Y-28058274D01*
X182808274Y-28264769D01*
X182626199Y-28493085D01*
X182470831Y-28740351D01*
X182344129Y-29003451D01*
X182247681Y-29279081D01*
X182247678Y-29279089D01*
X182182696Y-29563798D01*
X182182694Y-29563810D01*
X182161716Y-29750000D01*
X177025500Y-29750000D01*
X177025500Y-27149500D01*
X177045185Y-27082461D01*
X177097989Y-27036706D01*
X177149500Y-27025500D01*
X236850500Y-27025500D01*
X236917539Y-27045185D01*
G37*
G04 #@! TD.AperFunction*
M02*
