G04 #@! TF.GenerationSoftware,KiCad,Pcbnew,7.0.7-7.0.7~ubuntu22.04.1*
G04 #@! TF.CreationDate,2023-10-11T22:59:52+02:00*
G04 #@! TF.ProjectId,MS20-VCF,4d533230-2d56-4434-962e-6b696361645f,rev?*
G04 #@! TF.SameCoordinates,Original*
G04 #@! TF.FileFunction,Legend,Bot*
G04 #@! TF.FilePolarity,Positive*
%FSLAX46Y46*%
G04 Gerber Fmt 4.6, Leading zero omitted, Abs format (unit mm)*
G04 Created by KiCad (PCBNEW 7.0.7-7.0.7~ubuntu22.04.1) date 2023-10-11 22:59:52*
%MOMM*%
%LPD*%
G01*
G04 APERTURE LIST*
%ADD10C,0.150000*%
%ADD11C,0.300000*%
%ADD12C,0.100000*%
%ADD13O,6.700000X4.200000*%
G04 APERTURE END LIST*
D10*
X215047619Y-31494819D02*
X215047619Y-30494819D01*
X215047619Y-30494819D02*
X214809524Y-30494819D01*
X214809524Y-30494819D02*
X214666667Y-30542438D01*
X214666667Y-30542438D02*
X214571429Y-30637676D01*
X214571429Y-30637676D02*
X214523810Y-30732914D01*
X214523810Y-30732914D02*
X214476191Y-30923390D01*
X214476191Y-30923390D02*
X214476191Y-31066247D01*
X214476191Y-31066247D02*
X214523810Y-31256723D01*
X214523810Y-31256723D02*
X214571429Y-31351961D01*
X214571429Y-31351961D02*
X214666667Y-31447200D01*
X214666667Y-31447200D02*
X214809524Y-31494819D01*
X214809524Y-31494819D02*
X215047619Y-31494819D01*
X213904762Y-31494819D02*
X214000000Y-31447200D01*
X214000000Y-31447200D02*
X214047619Y-31399580D01*
X214047619Y-31399580D02*
X214095238Y-31304342D01*
X214095238Y-31304342D02*
X214095238Y-31018628D01*
X214095238Y-31018628D02*
X214047619Y-30923390D01*
X214047619Y-30923390D02*
X214000000Y-30875771D01*
X214000000Y-30875771D02*
X213904762Y-30828152D01*
X213904762Y-30828152D02*
X213761905Y-30828152D01*
X213761905Y-30828152D02*
X213666667Y-30875771D01*
X213666667Y-30875771D02*
X213619048Y-30923390D01*
X213619048Y-30923390D02*
X213571429Y-31018628D01*
X213571429Y-31018628D02*
X213571429Y-31304342D01*
X213571429Y-31304342D02*
X213619048Y-31399580D01*
X213619048Y-31399580D02*
X213666667Y-31447200D01*
X213666667Y-31447200D02*
X213761905Y-31494819D01*
X213761905Y-31494819D02*
X213904762Y-31494819D01*
X212714286Y-30828152D02*
X212714286Y-31494819D01*
X213142857Y-30828152D02*
X213142857Y-31351961D01*
X213142857Y-31351961D02*
X213095238Y-31447200D01*
X213095238Y-31447200D02*
X213000000Y-31494819D01*
X213000000Y-31494819D02*
X212857143Y-31494819D01*
X212857143Y-31494819D02*
X212761905Y-31447200D01*
X212761905Y-31447200D02*
X212714286Y-31399580D01*
X212238095Y-31494819D02*
X212238095Y-30494819D01*
X212238095Y-30875771D02*
X212142857Y-30828152D01*
X212142857Y-30828152D02*
X211952381Y-30828152D01*
X211952381Y-30828152D02*
X211857143Y-30875771D01*
X211857143Y-30875771D02*
X211809524Y-30923390D01*
X211809524Y-30923390D02*
X211761905Y-31018628D01*
X211761905Y-31018628D02*
X211761905Y-31304342D01*
X211761905Y-31304342D02*
X211809524Y-31399580D01*
X211809524Y-31399580D02*
X211857143Y-31447200D01*
X211857143Y-31447200D02*
X211952381Y-31494819D01*
X211952381Y-31494819D02*
X212142857Y-31494819D01*
X212142857Y-31494819D02*
X212238095Y-31447200D01*
X211190476Y-31494819D02*
X211285714Y-31447200D01*
X211285714Y-31447200D02*
X211333333Y-31351961D01*
X211333333Y-31351961D02*
X211333333Y-30494819D01*
X210428571Y-31447200D02*
X210523809Y-31494819D01*
X210523809Y-31494819D02*
X210714285Y-31494819D01*
X210714285Y-31494819D02*
X210809523Y-31447200D01*
X210809523Y-31447200D02*
X210857142Y-31351961D01*
X210857142Y-31351961D02*
X210857142Y-30971009D01*
X210857142Y-30971009D02*
X210809523Y-30875771D01*
X210809523Y-30875771D02*
X210714285Y-30828152D01*
X210714285Y-30828152D02*
X210523809Y-30828152D01*
X210523809Y-30828152D02*
X210428571Y-30875771D01*
X210428571Y-30875771D02*
X210380952Y-30971009D01*
X210380952Y-30971009D02*
X210380952Y-31066247D01*
X210380952Y-31066247D02*
X210857142Y-31161485D01*
X209190475Y-31494819D02*
X209190475Y-30494819D01*
X209190475Y-30494819D02*
X208857142Y-31209104D01*
X208857142Y-31209104D02*
X208523809Y-30494819D01*
X208523809Y-30494819D02*
X208523809Y-31494819D01*
X208095237Y-31447200D02*
X207952380Y-31494819D01*
X207952380Y-31494819D02*
X207714285Y-31494819D01*
X207714285Y-31494819D02*
X207619047Y-31447200D01*
X207619047Y-31447200D02*
X207571428Y-31399580D01*
X207571428Y-31399580D02*
X207523809Y-31304342D01*
X207523809Y-31304342D02*
X207523809Y-31209104D01*
X207523809Y-31209104D02*
X207571428Y-31113866D01*
X207571428Y-31113866D02*
X207619047Y-31066247D01*
X207619047Y-31066247D02*
X207714285Y-31018628D01*
X207714285Y-31018628D02*
X207904761Y-30971009D01*
X207904761Y-30971009D02*
X207999999Y-30923390D01*
X207999999Y-30923390D02*
X208047618Y-30875771D01*
X208047618Y-30875771D02*
X208095237Y-30780533D01*
X208095237Y-30780533D02*
X208095237Y-30685295D01*
X208095237Y-30685295D02*
X208047618Y-30590057D01*
X208047618Y-30590057D02*
X207999999Y-30542438D01*
X207999999Y-30542438D02*
X207904761Y-30494819D01*
X207904761Y-30494819D02*
X207666666Y-30494819D01*
X207666666Y-30494819D02*
X207523809Y-30542438D01*
X207095237Y-31113866D02*
X206333333Y-31113866D01*
X205904761Y-30590057D02*
X205857142Y-30542438D01*
X205857142Y-30542438D02*
X205761904Y-30494819D01*
X205761904Y-30494819D02*
X205523809Y-30494819D01*
X205523809Y-30494819D02*
X205428571Y-30542438D01*
X205428571Y-30542438D02*
X205380952Y-30590057D01*
X205380952Y-30590057D02*
X205333333Y-30685295D01*
X205333333Y-30685295D02*
X205333333Y-30780533D01*
X205333333Y-30780533D02*
X205380952Y-30923390D01*
X205380952Y-30923390D02*
X205952380Y-31494819D01*
X205952380Y-31494819D02*
X205333333Y-31494819D01*
X204714285Y-30494819D02*
X204619047Y-30494819D01*
X204619047Y-30494819D02*
X204523809Y-30542438D01*
X204523809Y-30542438D02*
X204476190Y-30590057D01*
X204476190Y-30590057D02*
X204428571Y-30685295D01*
X204428571Y-30685295D02*
X204380952Y-30875771D01*
X204380952Y-30875771D02*
X204380952Y-31113866D01*
X204380952Y-31113866D02*
X204428571Y-31304342D01*
X204428571Y-31304342D02*
X204476190Y-31399580D01*
X204476190Y-31399580D02*
X204523809Y-31447200D01*
X204523809Y-31447200D02*
X204619047Y-31494819D01*
X204619047Y-31494819D02*
X204714285Y-31494819D01*
X204714285Y-31494819D02*
X204809523Y-31447200D01*
X204809523Y-31447200D02*
X204857142Y-31399580D01*
X204857142Y-31399580D02*
X204904761Y-31304342D01*
X204904761Y-31304342D02*
X204952380Y-31113866D01*
X204952380Y-31113866D02*
X204952380Y-30875771D01*
X204952380Y-30875771D02*
X204904761Y-30685295D01*
X204904761Y-30685295D02*
X204857142Y-30590057D01*
X204857142Y-30590057D02*
X204809523Y-30542438D01*
X204809523Y-30542438D02*
X204714285Y-30494819D01*
X203333332Y-30494819D02*
X202999999Y-31494819D01*
X202999999Y-31494819D02*
X202666666Y-30494819D01*
X201761904Y-31399580D02*
X201809523Y-31447200D01*
X201809523Y-31447200D02*
X201952380Y-31494819D01*
X201952380Y-31494819D02*
X202047618Y-31494819D01*
X202047618Y-31494819D02*
X202190475Y-31447200D01*
X202190475Y-31447200D02*
X202285713Y-31351961D01*
X202285713Y-31351961D02*
X202333332Y-31256723D01*
X202333332Y-31256723D02*
X202380951Y-31066247D01*
X202380951Y-31066247D02*
X202380951Y-30923390D01*
X202380951Y-30923390D02*
X202333332Y-30732914D01*
X202333332Y-30732914D02*
X202285713Y-30637676D01*
X202285713Y-30637676D02*
X202190475Y-30542438D01*
X202190475Y-30542438D02*
X202047618Y-30494819D01*
X202047618Y-30494819D02*
X201952380Y-30494819D01*
X201952380Y-30494819D02*
X201809523Y-30542438D01*
X201809523Y-30542438D02*
X201761904Y-30590057D01*
X200999999Y-30971009D02*
X201333332Y-30971009D01*
X201333332Y-31494819D02*
X201333332Y-30494819D01*
X201333332Y-30494819D02*
X200857142Y-30494819D01*
X214261904Y-32104819D02*
X213928571Y-33104819D01*
X213928571Y-33104819D02*
X213595238Y-32104819D01*
X212738095Y-33104819D02*
X213309523Y-33104819D01*
X213023809Y-33104819D02*
X213023809Y-32104819D01*
X213023809Y-32104819D02*
X213119047Y-32247676D01*
X213119047Y-32247676D02*
X213214285Y-32342914D01*
X213214285Y-32342914D02*
X213309523Y-32390533D01*
X212309523Y-33009580D02*
X212261904Y-33057200D01*
X212261904Y-33057200D02*
X212309523Y-33104819D01*
X212309523Y-33104819D02*
X212357142Y-33057200D01*
X212357142Y-33057200D02*
X212309523Y-33009580D01*
X212309523Y-33009580D02*
X212309523Y-33104819D01*
X211404762Y-32438152D02*
X211404762Y-33104819D01*
X211642857Y-32057200D02*
X211880952Y-32771485D01*
X211880952Y-32771485D02*
X211261905Y-32771485D01*
X209785714Y-32581009D02*
X209642857Y-32628628D01*
X209642857Y-32628628D02*
X209595238Y-32676247D01*
X209595238Y-32676247D02*
X209547619Y-32771485D01*
X209547619Y-32771485D02*
X209547619Y-32914342D01*
X209547619Y-32914342D02*
X209595238Y-33009580D01*
X209595238Y-33009580D02*
X209642857Y-33057200D01*
X209642857Y-33057200D02*
X209738095Y-33104819D01*
X209738095Y-33104819D02*
X210119047Y-33104819D01*
X210119047Y-33104819D02*
X210119047Y-32104819D01*
X210119047Y-32104819D02*
X209785714Y-32104819D01*
X209785714Y-32104819D02*
X209690476Y-32152438D01*
X209690476Y-32152438D02*
X209642857Y-32200057D01*
X209642857Y-32200057D02*
X209595238Y-32295295D01*
X209595238Y-32295295D02*
X209595238Y-32390533D01*
X209595238Y-32390533D02*
X209642857Y-32485771D01*
X209642857Y-32485771D02*
X209690476Y-32533390D01*
X209690476Y-32533390D02*
X209785714Y-32581009D01*
X209785714Y-32581009D02*
X210119047Y-32581009D01*
X208976190Y-33104819D02*
X209071428Y-33057200D01*
X209071428Y-33057200D02*
X209119047Y-32961961D01*
X209119047Y-32961961D02*
X209119047Y-32104819D01*
X208214285Y-33057200D02*
X208309523Y-33104819D01*
X208309523Y-33104819D02*
X208499999Y-33104819D01*
X208499999Y-33104819D02*
X208595237Y-33057200D01*
X208595237Y-33057200D02*
X208642856Y-32961961D01*
X208642856Y-32961961D02*
X208642856Y-32581009D01*
X208642856Y-32581009D02*
X208595237Y-32485771D01*
X208595237Y-32485771D02*
X208499999Y-32438152D01*
X208499999Y-32438152D02*
X208309523Y-32438152D01*
X208309523Y-32438152D02*
X208214285Y-32485771D01*
X208214285Y-32485771D02*
X208166666Y-32581009D01*
X208166666Y-32581009D02*
X208166666Y-32676247D01*
X208166666Y-32676247D02*
X208642856Y-32771485D01*
X207357142Y-33057200D02*
X207452380Y-33104819D01*
X207452380Y-33104819D02*
X207642856Y-33104819D01*
X207642856Y-33104819D02*
X207738094Y-33057200D01*
X207738094Y-33057200D02*
X207785713Y-32961961D01*
X207785713Y-32961961D02*
X207785713Y-32581009D01*
X207785713Y-32581009D02*
X207738094Y-32485771D01*
X207738094Y-32485771D02*
X207642856Y-32438152D01*
X207642856Y-32438152D02*
X207452380Y-32438152D01*
X207452380Y-32438152D02*
X207357142Y-32485771D01*
X207357142Y-32485771D02*
X207309523Y-32581009D01*
X207309523Y-32581009D02*
X207309523Y-32676247D01*
X207309523Y-32676247D02*
X207785713Y-32771485D01*
X206880951Y-32438152D02*
X206880951Y-33438152D01*
X206880951Y-32485771D02*
X206785713Y-32438152D01*
X206785713Y-32438152D02*
X206595237Y-32438152D01*
X206595237Y-32438152D02*
X206499999Y-32485771D01*
X206499999Y-32485771D02*
X206452380Y-32533390D01*
X206452380Y-32533390D02*
X206404761Y-32628628D01*
X206404761Y-32628628D02*
X206404761Y-32914342D01*
X206404761Y-32914342D02*
X206452380Y-33009580D01*
X206452380Y-33009580D02*
X206499999Y-33057200D01*
X206499999Y-33057200D02*
X206595237Y-33104819D01*
X206595237Y-33104819D02*
X206785713Y-33104819D01*
X206785713Y-33104819D02*
X206880951Y-33057200D01*
X206023808Y-33057200D02*
X205880951Y-33104819D01*
X205880951Y-33104819D02*
X205642856Y-33104819D01*
X205642856Y-33104819D02*
X205547618Y-33057200D01*
X205547618Y-33057200D02*
X205499999Y-33009580D01*
X205499999Y-33009580D02*
X205452380Y-32914342D01*
X205452380Y-32914342D02*
X205452380Y-32819104D01*
X205452380Y-32819104D02*
X205499999Y-32723866D01*
X205499999Y-32723866D02*
X205547618Y-32676247D01*
X205547618Y-32676247D02*
X205642856Y-32628628D01*
X205642856Y-32628628D02*
X205833332Y-32581009D01*
X205833332Y-32581009D02*
X205928570Y-32533390D01*
X205928570Y-32533390D02*
X205976189Y-32485771D01*
X205976189Y-32485771D02*
X206023808Y-32390533D01*
X206023808Y-32390533D02*
X206023808Y-32295295D01*
X206023808Y-32295295D02*
X205976189Y-32200057D01*
X205976189Y-32200057D02*
X205928570Y-32152438D01*
X205928570Y-32152438D02*
X205833332Y-32104819D01*
X205833332Y-32104819D02*
X205595237Y-32104819D01*
X205595237Y-32104819D02*
X205452380Y-32152438D01*
X204880951Y-33104819D02*
X204976189Y-33057200D01*
X204976189Y-33057200D02*
X205023808Y-33009580D01*
X205023808Y-33009580D02*
X205071427Y-32914342D01*
X205071427Y-32914342D02*
X205071427Y-32628628D01*
X205071427Y-32628628D02*
X205023808Y-32533390D01*
X205023808Y-32533390D02*
X204976189Y-32485771D01*
X204976189Y-32485771D02*
X204880951Y-32438152D01*
X204880951Y-32438152D02*
X204738094Y-32438152D01*
X204738094Y-32438152D02*
X204642856Y-32485771D01*
X204642856Y-32485771D02*
X204595237Y-32533390D01*
X204595237Y-32533390D02*
X204547618Y-32628628D01*
X204547618Y-32628628D02*
X204547618Y-32914342D01*
X204547618Y-32914342D02*
X204595237Y-33009580D01*
X204595237Y-33009580D02*
X204642856Y-33057200D01*
X204642856Y-33057200D02*
X204738094Y-33104819D01*
X204738094Y-33104819D02*
X204880951Y-33104819D01*
X203690475Y-32438152D02*
X203690475Y-33104819D01*
X204119046Y-32438152D02*
X204119046Y-32961961D01*
X204119046Y-32961961D02*
X204071427Y-33057200D01*
X204071427Y-33057200D02*
X203976189Y-33104819D01*
X203976189Y-33104819D02*
X203833332Y-33104819D01*
X203833332Y-33104819D02*
X203738094Y-33057200D01*
X203738094Y-33057200D02*
X203690475Y-33009580D01*
X203214284Y-32438152D02*
X203214284Y-33104819D01*
X203214284Y-32533390D02*
X203166665Y-32485771D01*
X203166665Y-32485771D02*
X203071427Y-32438152D01*
X203071427Y-32438152D02*
X202928570Y-32438152D01*
X202928570Y-32438152D02*
X202833332Y-32485771D01*
X202833332Y-32485771D02*
X202785713Y-32581009D01*
X202785713Y-32581009D02*
X202785713Y-33104819D01*
X201880951Y-33104819D02*
X201880951Y-32104819D01*
X201880951Y-33057200D02*
X201976189Y-33104819D01*
X201976189Y-33104819D02*
X202166665Y-33104819D01*
X202166665Y-33104819D02*
X202261903Y-33057200D01*
X202261903Y-33057200D02*
X202309522Y-33009580D01*
X202309522Y-33009580D02*
X202357141Y-32914342D01*
X202357141Y-32914342D02*
X202357141Y-32628628D01*
X202357141Y-32628628D02*
X202309522Y-32533390D01*
X202309522Y-32533390D02*
X202261903Y-32485771D01*
X202261903Y-32485771D02*
X202166665Y-32438152D01*
X202166665Y-32438152D02*
X201976189Y-32438152D01*
X201976189Y-32438152D02*
X201880951Y-32485771D01*
X209714285Y-33810057D02*
X209666666Y-33762438D01*
X209666666Y-33762438D02*
X209571428Y-33714819D01*
X209571428Y-33714819D02*
X209333333Y-33714819D01*
X209333333Y-33714819D02*
X209238095Y-33762438D01*
X209238095Y-33762438D02*
X209190476Y-33810057D01*
X209190476Y-33810057D02*
X209142857Y-33905295D01*
X209142857Y-33905295D02*
X209142857Y-34000533D01*
X209142857Y-34000533D02*
X209190476Y-34143390D01*
X209190476Y-34143390D02*
X209761904Y-34714819D01*
X209761904Y-34714819D02*
X209142857Y-34714819D01*
X208523809Y-33714819D02*
X208428571Y-33714819D01*
X208428571Y-33714819D02*
X208333333Y-33762438D01*
X208333333Y-33762438D02*
X208285714Y-33810057D01*
X208285714Y-33810057D02*
X208238095Y-33905295D01*
X208238095Y-33905295D02*
X208190476Y-34095771D01*
X208190476Y-34095771D02*
X208190476Y-34333866D01*
X208190476Y-34333866D02*
X208238095Y-34524342D01*
X208238095Y-34524342D02*
X208285714Y-34619580D01*
X208285714Y-34619580D02*
X208333333Y-34667200D01*
X208333333Y-34667200D02*
X208428571Y-34714819D01*
X208428571Y-34714819D02*
X208523809Y-34714819D01*
X208523809Y-34714819D02*
X208619047Y-34667200D01*
X208619047Y-34667200D02*
X208666666Y-34619580D01*
X208666666Y-34619580D02*
X208714285Y-34524342D01*
X208714285Y-34524342D02*
X208761904Y-34333866D01*
X208761904Y-34333866D02*
X208761904Y-34095771D01*
X208761904Y-34095771D02*
X208714285Y-33905295D01*
X208714285Y-33905295D02*
X208666666Y-33810057D01*
X208666666Y-33810057D02*
X208619047Y-33762438D01*
X208619047Y-33762438D02*
X208523809Y-33714819D01*
X207809523Y-33810057D02*
X207761904Y-33762438D01*
X207761904Y-33762438D02*
X207666666Y-33714819D01*
X207666666Y-33714819D02*
X207428571Y-33714819D01*
X207428571Y-33714819D02*
X207333333Y-33762438D01*
X207333333Y-33762438D02*
X207285714Y-33810057D01*
X207285714Y-33810057D02*
X207238095Y-33905295D01*
X207238095Y-33905295D02*
X207238095Y-34000533D01*
X207238095Y-34000533D02*
X207285714Y-34143390D01*
X207285714Y-34143390D02*
X207857142Y-34714819D01*
X207857142Y-34714819D02*
X207238095Y-34714819D01*
X206904761Y-33714819D02*
X206285714Y-33714819D01*
X206285714Y-33714819D02*
X206619047Y-34095771D01*
X206619047Y-34095771D02*
X206476190Y-34095771D01*
X206476190Y-34095771D02*
X206380952Y-34143390D01*
X206380952Y-34143390D02*
X206333333Y-34191009D01*
X206333333Y-34191009D02*
X206285714Y-34286247D01*
X206285714Y-34286247D02*
X206285714Y-34524342D01*
X206285714Y-34524342D02*
X206333333Y-34619580D01*
X206333333Y-34619580D02*
X206380952Y-34667200D01*
X206380952Y-34667200D02*
X206476190Y-34714819D01*
X206476190Y-34714819D02*
X206761904Y-34714819D01*
X206761904Y-34714819D02*
X206857142Y-34667200D01*
X206857142Y-34667200D02*
X206904761Y-34619580D01*
X209857143Y-36931009D02*
X210190476Y-36931009D01*
X210190476Y-37454819D02*
X210190476Y-36454819D01*
X210190476Y-36454819D02*
X209714286Y-36454819D01*
X209333333Y-37454819D02*
X209333333Y-36788152D01*
X209333333Y-36978628D02*
X209285714Y-36883390D01*
X209285714Y-36883390D02*
X209238095Y-36835771D01*
X209238095Y-36835771D02*
X209142857Y-36788152D01*
X209142857Y-36788152D02*
X209047619Y-36788152D01*
X208571428Y-37454819D02*
X208666666Y-37407200D01*
X208666666Y-37407200D02*
X208714285Y-37359580D01*
X208714285Y-37359580D02*
X208761904Y-37264342D01*
X208761904Y-37264342D02*
X208761904Y-36978628D01*
X208761904Y-36978628D02*
X208714285Y-36883390D01*
X208714285Y-36883390D02*
X208666666Y-36835771D01*
X208666666Y-36835771D02*
X208571428Y-36788152D01*
X208571428Y-36788152D02*
X208428571Y-36788152D01*
X208428571Y-36788152D02*
X208333333Y-36835771D01*
X208333333Y-36835771D02*
X208285714Y-36883390D01*
X208285714Y-36883390D02*
X208238095Y-36978628D01*
X208238095Y-36978628D02*
X208238095Y-37264342D01*
X208238095Y-37264342D02*
X208285714Y-37359580D01*
X208285714Y-37359580D02*
X208333333Y-37407200D01*
X208333333Y-37407200D02*
X208428571Y-37454819D01*
X208428571Y-37454819D02*
X208571428Y-37454819D01*
X207809523Y-36788152D02*
X207809523Y-37454819D01*
X207809523Y-36883390D02*
X207761904Y-36835771D01*
X207761904Y-36835771D02*
X207666666Y-36788152D01*
X207666666Y-36788152D02*
X207523809Y-36788152D01*
X207523809Y-36788152D02*
X207428571Y-36835771D01*
X207428571Y-36835771D02*
X207380952Y-36931009D01*
X207380952Y-36931009D02*
X207380952Y-37454819D01*
X207047618Y-36788152D02*
X206666666Y-36788152D01*
X206904761Y-36454819D02*
X206904761Y-37311961D01*
X206904761Y-37311961D02*
X206857142Y-37407200D01*
X206857142Y-37407200D02*
X206761904Y-37454819D01*
X206761904Y-37454819D02*
X206666666Y-37454819D01*
D11*
X178178328Y-66071428D02*
X179249757Y-66071428D01*
X179249757Y-66071428D02*
X179464042Y-65999999D01*
X179464042Y-65999999D02*
X179606900Y-65857142D01*
X179606900Y-65857142D02*
X179678328Y-65642856D01*
X179678328Y-65642856D02*
X179678328Y-65499999D01*
X179678328Y-67499999D02*
X179678328Y-66785713D01*
X179678328Y-66785713D02*
X178178328Y-66785713D01*
X179535471Y-68857142D02*
X179606900Y-68785714D01*
X179606900Y-68785714D02*
X179678328Y-68571428D01*
X179678328Y-68571428D02*
X179678328Y-68428571D01*
X179678328Y-68428571D02*
X179606900Y-68214285D01*
X179606900Y-68214285D02*
X179464042Y-68071428D01*
X179464042Y-68071428D02*
X179321185Y-67999999D01*
X179321185Y-67999999D02*
X179035471Y-67928571D01*
X179035471Y-67928571D02*
X178821185Y-67928571D01*
X178821185Y-67928571D02*
X178535471Y-67999999D01*
X178535471Y-67999999D02*
X178392614Y-68071428D01*
X178392614Y-68071428D02*
X178249757Y-68214285D01*
X178249757Y-68214285D02*
X178178328Y-68428571D01*
X178178328Y-68428571D02*
X178178328Y-68571428D01*
X178178328Y-68571428D02*
X178249757Y-68785714D01*
X178249757Y-68785714D02*
X178321185Y-68857142D01*
X178178328Y-69928571D02*
X179249757Y-69928571D01*
X179249757Y-69928571D02*
X179464042Y-69857142D01*
X179464042Y-69857142D02*
X179606900Y-69714285D01*
X179606900Y-69714285D02*
X179678328Y-69499999D01*
X179678328Y-69499999D02*
X179678328Y-69357142D01*
X179678328Y-71357142D02*
X179678328Y-70642856D01*
X179678328Y-70642856D02*
X178178328Y-70642856D01*
X179535471Y-72714285D02*
X179606900Y-72642857D01*
X179606900Y-72642857D02*
X179678328Y-72428571D01*
X179678328Y-72428571D02*
X179678328Y-72285714D01*
X179678328Y-72285714D02*
X179606900Y-72071428D01*
X179606900Y-72071428D02*
X179464042Y-71928571D01*
X179464042Y-71928571D02*
X179321185Y-71857142D01*
X179321185Y-71857142D02*
X179035471Y-71785714D01*
X179035471Y-71785714D02*
X178821185Y-71785714D01*
X178821185Y-71785714D02*
X178535471Y-71857142D01*
X178535471Y-71857142D02*
X178392614Y-71928571D01*
X178392614Y-71928571D02*
X178249757Y-72071428D01*
X178249757Y-72071428D02*
X178178328Y-72285714D01*
X178178328Y-72285714D02*
X178178328Y-72428571D01*
X178178328Y-72428571D02*
X178249757Y-72642857D01*
X178249757Y-72642857D02*
X178321185Y-72714285D01*
X178178328Y-73785714D02*
X179249757Y-73785714D01*
X179249757Y-73785714D02*
X179464042Y-73714285D01*
X179464042Y-73714285D02*
X179606900Y-73571428D01*
X179606900Y-73571428D02*
X179678328Y-73357142D01*
X179678328Y-73357142D02*
X179678328Y-73214285D01*
X179678328Y-75214285D02*
X179678328Y-74499999D01*
X179678328Y-74499999D02*
X178178328Y-74499999D01*
X179535471Y-76571428D02*
X179606900Y-76500000D01*
X179606900Y-76500000D02*
X179678328Y-76285714D01*
X179678328Y-76285714D02*
X179678328Y-76142857D01*
X179678328Y-76142857D02*
X179606900Y-75928571D01*
X179606900Y-75928571D02*
X179464042Y-75785714D01*
X179464042Y-75785714D02*
X179321185Y-75714285D01*
X179321185Y-75714285D02*
X179035471Y-75642857D01*
X179035471Y-75642857D02*
X178821185Y-75642857D01*
X178821185Y-75642857D02*
X178535471Y-75714285D01*
X178535471Y-75714285D02*
X178392614Y-75785714D01*
X178392614Y-75785714D02*
X178249757Y-75928571D01*
X178249757Y-75928571D02*
X178178328Y-76142857D01*
X178178328Y-76142857D02*
X178178328Y-76285714D01*
X178178328Y-76285714D02*
X178249757Y-76500000D01*
X178249757Y-76500000D02*
X178321185Y-76571428D01*
X178178328Y-77642857D02*
X179249757Y-77642857D01*
X179249757Y-77642857D02*
X179464042Y-77571428D01*
X179464042Y-77571428D02*
X179606900Y-77428571D01*
X179606900Y-77428571D02*
X179678328Y-77214285D01*
X179678328Y-77214285D02*
X179678328Y-77071428D01*
X179678328Y-79071428D02*
X179678328Y-78357142D01*
X179678328Y-78357142D02*
X178178328Y-78357142D01*
X179535471Y-80428571D02*
X179606900Y-80357143D01*
X179606900Y-80357143D02*
X179678328Y-80142857D01*
X179678328Y-80142857D02*
X179678328Y-80000000D01*
X179678328Y-80000000D02*
X179606900Y-79785714D01*
X179606900Y-79785714D02*
X179464042Y-79642857D01*
X179464042Y-79642857D02*
X179321185Y-79571428D01*
X179321185Y-79571428D02*
X179035471Y-79500000D01*
X179035471Y-79500000D02*
X178821185Y-79500000D01*
X178821185Y-79500000D02*
X178535471Y-79571428D01*
X178535471Y-79571428D02*
X178392614Y-79642857D01*
X178392614Y-79642857D02*
X178249757Y-79785714D01*
X178249757Y-79785714D02*
X178178328Y-80000000D01*
X178178328Y-80000000D02*
X178178328Y-80142857D01*
X178178328Y-80142857D02*
X178249757Y-80357143D01*
X178249757Y-80357143D02*
X178321185Y-80428571D01*
%LPC*%
D12*
X231500000Y-89000000D02*
X226500000Y-89000000D01*
X226500000Y-84000000D01*
X231500000Y-84000000D01*
X231500000Y-89000000D01*
G36*
X231500000Y-89000000D02*
G01*
X226500000Y-89000000D01*
X226500000Y-84000000D01*
X231500000Y-84000000D01*
X231500000Y-89000000D01*
G37*
D13*
X186000000Y-30000000D03*
X228000000Y-30000000D03*
X228000000Y-152500000D03*
X186000000Y-152500000D03*
%LPD*%
M02*
