%TF.GenerationSoftware,KiCad,Pcbnew,7.0.7-7.0.7~ubuntu22.04.1*%
%TF.CreationDate,2023-09-23T22:53:49+02:00*%
%TF.ProjectId,MS20-VCF,4d533230-2d56-4434-962e-6b696361645f,rev?*%
%TF.SameCoordinates,Original*%
%TF.FileFunction,Drillmap*%
%TF.FilePolarity,Positive*%
%FSLAX45Y45*%
G04 Gerber Fmt 4.5, Leading zero omitted, Abs format (unit mm)*
G04 Created by KiCad (PCBNEW 7.0.7-7.0.7~ubuntu22.04.1) date 2023-09-23 22:53:49*
%MOMM*%
%LPD*%
G01*
G04 APERTURE LIST*
%ADD10C,0.050000*%
%ADD11C,0.200000*%
%ADD12C,0.300000*%
%ADD13C,0.600000*%
%ADD14C,0.680000*%
G04 APERTURE END LIST*
D10*
X23700000Y-2700000D02*
X23700000Y-15550000D01*
X17700000Y-15550000D02*
X17700000Y-15100000D01*
X17700000Y-2700000D02*
X17700000Y-15100000D01*
X23700000Y-15550000D02*
X17700000Y-15550000D01*
X17700000Y-2700000D02*
X23700000Y-2700000D01*
D11*
D12*
X18450000Y-2850000D02*
X18750000Y-3150000D01*
X18750000Y-2850000D02*
X18450000Y-3150000D01*
D11*
X18475000Y-3150000D02*
X18725000Y-3150000D01*
X18725000Y-3150000D02*
G75*
G03*
X18725000Y-2850000I0J150000D01*
G01*
X18725000Y-2850000D02*
X18475000Y-2850000D01*
X18475000Y-2850000D02*
G75*
G03*
X18475000Y-3150000I0J-150000D01*
G01*
D12*
X18450000Y-15100000D02*
X18750000Y-15400000D01*
X18750000Y-15100000D02*
X18450000Y-15400000D01*
D11*
X18475000Y-15400000D02*
X18725000Y-15400000D01*
X18725000Y-15400000D02*
G75*
G03*
X18725000Y-15100000I0J150000D01*
G01*
X18725000Y-15100000D02*
X18475000Y-15100000D01*
X18475000Y-15100000D02*
G75*
G03*
X18475000Y-15400000I0J-150000D01*
G01*
D12*
X22650000Y-2850000D02*
X22950000Y-3150000D01*
X22950000Y-2850000D02*
X22650000Y-3150000D01*
D11*
X22675000Y-3150000D02*
X22925000Y-3150000D01*
X22925000Y-3150000D02*
G75*
G03*
X22925000Y-2850000I0J150000D01*
G01*
X22925000Y-2850000D02*
X22675000Y-2850000D01*
X22675000Y-2850000D02*
G75*
G03*
X22675000Y-3150000I0J-150000D01*
G01*
D12*
X22650000Y-15100000D02*
X22950000Y-15400000D01*
X22950000Y-15100000D02*
X22650000Y-15400000D01*
D11*
X22675000Y-15400000D02*
X22925000Y-15400000D01*
X22925000Y-15400000D02*
G75*
G03*
X22925000Y-15100000I0J150000D01*
G01*
X22925000Y-15100000D02*
X22675000Y-15100000D01*
X22675000Y-15100000D02*
G75*
G03*
X22675000Y-15400000I0J-150000D01*
G01*
D13*
X20000000Y-8050000D02*
G75*
G03*
X20000000Y-8050000I-300000J0D01*
G01*
X20000000Y-13950000D02*
G75*
G03*
X20000000Y-13950000I-300000J0D01*
G01*
X21000000Y-8050000D02*
G75*
G03*
X21000000Y-8050000I-300000J0D01*
G01*
X21000000Y-13950000D02*
G75*
G03*
X21000000Y-13950000I-300000J0D01*
G01*
X22000000Y-8050000D02*
G75*
G03*
X22000000Y-8050000I-300000J0D01*
G01*
X22000000Y-13950000D02*
G75*
G03*
X22000000Y-13950000I-300000J0D01*
G01*
D14*
X18900000Y-9960000D02*
X18900000Y-10640000D01*
X18560000Y-10300000D02*
X19240000Y-10300000D01*
X19200000Y-4010000D02*
X19200000Y-4690000D01*
X18860000Y-4350000D02*
X19540000Y-4350000D01*
X19400000Y-6010000D02*
X19400000Y-6690000D01*
X19060000Y-6350000D02*
X19740000Y-6350000D01*
X19400000Y-11910000D02*
X19400000Y-12590000D01*
X19060000Y-12250000D02*
X19740000Y-12250000D01*
X20050000Y-8810000D02*
X20050000Y-9490000D01*
X19710000Y-9150000D02*
X20390000Y-9150000D01*
X22000000Y-6010000D02*
X22000000Y-6690000D01*
X21660000Y-6350000D02*
X22340000Y-6350000D01*
X22000000Y-11910000D02*
X22000000Y-12590000D01*
X21660000Y-12250000D02*
X22340000Y-12250000D01*
X22200000Y-9910000D02*
X22200000Y-10590000D01*
X21860000Y-10250000D02*
X22540000Y-10250000D01*
X22500000Y-4060000D02*
X22500000Y-4740000D01*
X22160000Y-4400000D02*
X22840000Y-4400000D01*
D11*
X17958277Y-15863984D02*
X17958277Y-15663984D01*
X17958277Y-15663984D02*
X18005896Y-15663984D01*
X18005896Y-15663984D02*
X18034467Y-15673508D01*
X18034467Y-15673508D02*
X18053515Y-15692555D01*
X18053515Y-15692555D02*
X18063039Y-15711603D01*
X18063039Y-15711603D02*
X18072562Y-15749698D01*
X18072562Y-15749698D02*
X18072562Y-15778269D01*
X18072562Y-15778269D02*
X18063039Y-15816365D01*
X18063039Y-15816365D02*
X18053515Y-15835412D01*
X18053515Y-15835412D02*
X18034467Y-15854460D01*
X18034467Y-15854460D02*
X18005896Y-15863984D01*
X18005896Y-15863984D02*
X17958277Y-15863984D01*
X18158277Y-15863984D02*
X18158277Y-15730650D01*
X18158277Y-15768746D02*
X18167801Y-15749698D01*
X18167801Y-15749698D02*
X18177324Y-15740174D01*
X18177324Y-15740174D02*
X18196372Y-15730650D01*
X18196372Y-15730650D02*
X18215420Y-15730650D01*
X18282086Y-15863984D02*
X18282086Y-15730650D01*
X18282086Y-15663984D02*
X18272562Y-15673508D01*
X18272562Y-15673508D02*
X18282086Y-15683031D01*
X18282086Y-15683031D02*
X18291610Y-15673508D01*
X18291610Y-15673508D02*
X18282086Y-15663984D01*
X18282086Y-15663984D02*
X18282086Y-15683031D01*
X18405896Y-15863984D02*
X18386848Y-15854460D01*
X18386848Y-15854460D02*
X18377324Y-15835412D01*
X18377324Y-15835412D02*
X18377324Y-15663984D01*
X18510658Y-15863984D02*
X18491610Y-15854460D01*
X18491610Y-15854460D02*
X18482086Y-15835412D01*
X18482086Y-15835412D02*
X18482086Y-15663984D01*
X18739229Y-15863984D02*
X18739229Y-15663984D01*
X18739229Y-15663984D02*
X18805896Y-15806841D01*
X18805896Y-15806841D02*
X18872562Y-15663984D01*
X18872562Y-15663984D02*
X18872562Y-15863984D01*
X19053515Y-15863984D02*
X19053515Y-15759222D01*
X19053515Y-15759222D02*
X19043991Y-15740174D01*
X19043991Y-15740174D02*
X19024943Y-15730650D01*
X19024943Y-15730650D02*
X18986848Y-15730650D01*
X18986848Y-15730650D02*
X18967801Y-15740174D01*
X19053515Y-15854460D02*
X19034467Y-15863984D01*
X19034467Y-15863984D02*
X18986848Y-15863984D01*
X18986848Y-15863984D02*
X18967801Y-15854460D01*
X18967801Y-15854460D02*
X18958277Y-15835412D01*
X18958277Y-15835412D02*
X18958277Y-15816365D01*
X18958277Y-15816365D02*
X18967801Y-15797317D01*
X18967801Y-15797317D02*
X18986848Y-15787793D01*
X18986848Y-15787793D02*
X19034467Y-15787793D01*
X19034467Y-15787793D02*
X19053515Y-15778269D01*
X19148753Y-15730650D02*
X19148753Y-15930650D01*
X19148753Y-15740174D02*
X19167801Y-15730650D01*
X19167801Y-15730650D02*
X19205896Y-15730650D01*
X19205896Y-15730650D02*
X19224943Y-15740174D01*
X19224943Y-15740174D02*
X19234467Y-15749698D01*
X19234467Y-15749698D02*
X19243991Y-15768746D01*
X19243991Y-15768746D02*
X19243991Y-15825888D01*
X19243991Y-15825888D02*
X19234467Y-15844936D01*
X19234467Y-15844936D02*
X19224943Y-15854460D01*
X19224943Y-15854460D02*
X19205896Y-15863984D01*
X19205896Y-15863984D02*
X19167801Y-15863984D01*
X19167801Y-15863984D02*
X19148753Y-15854460D01*
X19329705Y-15844936D02*
X19339229Y-15854460D01*
X19339229Y-15854460D02*
X19329705Y-15863984D01*
X19329705Y-15863984D02*
X19320182Y-15854460D01*
X19320182Y-15854460D02*
X19329705Y-15844936D01*
X19329705Y-15844936D02*
X19329705Y-15863984D01*
X19329705Y-15740174D02*
X19339229Y-15749698D01*
X19339229Y-15749698D02*
X19329705Y-15759222D01*
X19329705Y-15759222D02*
X19320182Y-15749698D01*
X19320182Y-15749698D02*
X19329705Y-15740174D01*
X19329705Y-15740174D02*
X19329705Y-15759222D01*
X17497500Y-16092500D02*
X17697500Y-16292500D01*
X17697500Y-16092500D02*
X17497500Y-16292500D01*
X17939229Y-16083984D02*
X18063039Y-16083984D01*
X18063039Y-16083984D02*
X17996372Y-16160174D01*
X17996372Y-16160174D02*
X18024943Y-16160174D01*
X18024943Y-16160174D02*
X18043991Y-16169698D01*
X18043991Y-16169698D02*
X18053515Y-16179222D01*
X18053515Y-16179222D02*
X18063039Y-16198269D01*
X18063039Y-16198269D02*
X18063039Y-16245888D01*
X18063039Y-16245888D02*
X18053515Y-16264936D01*
X18053515Y-16264936D02*
X18043991Y-16274460D01*
X18043991Y-16274460D02*
X18024943Y-16283984D01*
X18024943Y-16283984D02*
X17967801Y-16283984D01*
X17967801Y-16283984D02*
X17948753Y-16274460D01*
X17948753Y-16274460D02*
X17939229Y-16264936D01*
X18148753Y-16264936D02*
X18158277Y-16274460D01*
X18158277Y-16274460D02*
X18148753Y-16283984D01*
X18148753Y-16283984D02*
X18139229Y-16274460D01*
X18139229Y-16274460D02*
X18148753Y-16264936D01*
X18148753Y-16264936D02*
X18148753Y-16283984D01*
X18282086Y-16083984D02*
X18301134Y-16083984D01*
X18301134Y-16083984D02*
X18320182Y-16093508D01*
X18320182Y-16093508D02*
X18329705Y-16103031D01*
X18329705Y-16103031D02*
X18339229Y-16122079D01*
X18339229Y-16122079D02*
X18348753Y-16160174D01*
X18348753Y-16160174D02*
X18348753Y-16207793D01*
X18348753Y-16207793D02*
X18339229Y-16245888D01*
X18339229Y-16245888D02*
X18329705Y-16264936D01*
X18329705Y-16264936D02*
X18320182Y-16274460D01*
X18320182Y-16274460D02*
X18301134Y-16283984D01*
X18301134Y-16283984D02*
X18282086Y-16283984D01*
X18282086Y-16283984D02*
X18263039Y-16274460D01*
X18263039Y-16274460D02*
X18253515Y-16264936D01*
X18253515Y-16264936D02*
X18243991Y-16245888D01*
X18243991Y-16245888D02*
X18234467Y-16207793D01*
X18234467Y-16207793D02*
X18234467Y-16160174D01*
X18234467Y-16160174D02*
X18243991Y-16122079D01*
X18243991Y-16122079D02*
X18253515Y-16103031D01*
X18253515Y-16103031D02*
X18263039Y-16093508D01*
X18263039Y-16093508D02*
X18282086Y-16083984D01*
X18472562Y-16083984D02*
X18491610Y-16083984D01*
X18491610Y-16083984D02*
X18510658Y-16093508D01*
X18510658Y-16093508D02*
X18520182Y-16103031D01*
X18520182Y-16103031D02*
X18529705Y-16122079D01*
X18529705Y-16122079D02*
X18539229Y-16160174D01*
X18539229Y-16160174D02*
X18539229Y-16207793D01*
X18539229Y-16207793D02*
X18529705Y-16245888D01*
X18529705Y-16245888D02*
X18520182Y-16264936D01*
X18520182Y-16264936D02*
X18510658Y-16274460D01*
X18510658Y-16274460D02*
X18491610Y-16283984D01*
X18491610Y-16283984D02*
X18472562Y-16283984D01*
X18472562Y-16283984D02*
X18453515Y-16274460D01*
X18453515Y-16274460D02*
X18443991Y-16264936D01*
X18443991Y-16264936D02*
X18434467Y-16245888D01*
X18434467Y-16245888D02*
X18424943Y-16207793D01*
X18424943Y-16207793D02*
X18424943Y-16160174D01*
X18424943Y-16160174D02*
X18434467Y-16122079D01*
X18434467Y-16122079D02*
X18443991Y-16103031D01*
X18443991Y-16103031D02*
X18453515Y-16093508D01*
X18453515Y-16093508D02*
X18472562Y-16083984D01*
X18663039Y-16083984D02*
X18682086Y-16083984D01*
X18682086Y-16083984D02*
X18701134Y-16093508D01*
X18701134Y-16093508D02*
X18710658Y-16103031D01*
X18710658Y-16103031D02*
X18720182Y-16122079D01*
X18720182Y-16122079D02*
X18729705Y-16160174D01*
X18729705Y-16160174D02*
X18729705Y-16207793D01*
X18729705Y-16207793D02*
X18720182Y-16245888D01*
X18720182Y-16245888D02*
X18710658Y-16264936D01*
X18710658Y-16264936D02*
X18701134Y-16274460D01*
X18701134Y-16274460D02*
X18682086Y-16283984D01*
X18682086Y-16283984D02*
X18663039Y-16283984D01*
X18663039Y-16283984D02*
X18643991Y-16274460D01*
X18643991Y-16274460D02*
X18634467Y-16264936D01*
X18634467Y-16264936D02*
X18624943Y-16245888D01*
X18624943Y-16245888D02*
X18615420Y-16207793D01*
X18615420Y-16207793D02*
X18615420Y-16160174D01*
X18615420Y-16160174D02*
X18624943Y-16122079D01*
X18624943Y-16122079D02*
X18634467Y-16103031D01*
X18634467Y-16103031D02*
X18643991Y-16093508D01*
X18643991Y-16093508D02*
X18663039Y-16083984D01*
X18815420Y-16283984D02*
X18815420Y-16150650D01*
X18815420Y-16169698D02*
X18824943Y-16160174D01*
X18824943Y-16160174D02*
X18843991Y-16150650D01*
X18843991Y-16150650D02*
X18872563Y-16150650D01*
X18872563Y-16150650D02*
X18891610Y-16160174D01*
X18891610Y-16160174D02*
X18901134Y-16179222D01*
X18901134Y-16179222D02*
X18901134Y-16283984D01*
X18901134Y-16179222D02*
X18910658Y-16160174D01*
X18910658Y-16160174D02*
X18929705Y-16150650D01*
X18929705Y-16150650D02*
X18958277Y-16150650D01*
X18958277Y-16150650D02*
X18977324Y-16160174D01*
X18977324Y-16160174D02*
X18986848Y-16179222D01*
X18986848Y-16179222D02*
X18986848Y-16283984D01*
X19082086Y-16283984D02*
X19082086Y-16150650D01*
X19082086Y-16169698D02*
X19091610Y-16160174D01*
X19091610Y-16160174D02*
X19110658Y-16150650D01*
X19110658Y-16150650D02*
X19139229Y-16150650D01*
X19139229Y-16150650D02*
X19158277Y-16160174D01*
X19158277Y-16160174D02*
X19167801Y-16179222D01*
X19167801Y-16179222D02*
X19167801Y-16283984D01*
X19167801Y-16179222D02*
X19177324Y-16160174D01*
X19177324Y-16160174D02*
X19196372Y-16150650D01*
X19196372Y-16150650D02*
X19224943Y-16150650D01*
X19224943Y-16150650D02*
X19243991Y-16160174D01*
X19243991Y-16160174D02*
X19253515Y-16179222D01*
X19253515Y-16179222D02*
X19253515Y-16283984D01*
X19643991Y-16074460D02*
X19472563Y-16331603D01*
X19901134Y-16083984D02*
X19920182Y-16083984D01*
X19920182Y-16083984D02*
X19939229Y-16093508D01*
X19939229Y-16093508D02*
X19948753Y-16103031D01*
X19948753Y-16103031D02*
X19958277Y-16122079D01*
X19958277Y-16122079D02*
X19967801Y-16160174D01*
X19967801Y-16160174D02*
X19967801Y-16207793D01*
X19967801Y-16207793D02*
X19958277Y-16245888D01*
X19958277Y-16245888D02*
X19948753Y-16264936D01*
X19948753Y-16264936D02*
X19939229Y-16274460D01*
X19939229Y-16274460D02*
X19920182Y-16283984D01*
X19920182Y-16283984D02*
X19901134Y-16283984D01*
X19901134Y-16283984D02*
X19882086Y-16274460D01*
X19882086Y-16274460D02*
X19872563Y-16264936D01*
X19872563Y-16264936D02*
X19863039Y-16245888D01*
X19863039Y-16245888D02*
X19853515Y-16207793D01*
X19853515Y-16207793D02*
X19853515Y-16160174D01*
X19853515Y-16160174D02*
X19863039Y-16122079D01*
X19863039Y-16122079D02*
X19872563Y-16103031D01*
X19872563Y-16103031D02*
X19882086Y-16093508D01*
X19882086Y-16093508D02*
X19901134Y-16083984D01*
X20053515Y-16264936D02*
X20063039Y-16274460D01*
X20063039Y-16274460D02*
X20053515Y-16283984D01*
X20053515Y-16283984D02*
X20043991Y-16274460D01*
X20043991Y-16274460D02*
X20053515Y-16264936D01*
X20053515Y-16264936D02*
X20053515Y-16283984D01*
X20253515Y-16283984D02*
X20139229Y-16283984D01*
X20196372Y-16283984D02*
X20196372Y-16083984D01*
X20196372Y-16083984D02*
X20177325Y-16112555D01*
X20177325Y-16112555D02*
X20158277Y-16131603D01*
X20158277Y-16131603D02*
X20139229Y-16141127D01*
X20443991Y-16283984D02*
X20329706Y-16283984D01*
X20386848Y-16283984D02*
X20386848Y-16083984D01*
X20386848Y-16083984D02*
X20367801Y-16112555D01*
X20367801Y-16112555D02*
X20348753Y-16131603D01*
X20348753Y-16131603D02*
X20329706Y-16141127D01*
X20558277Y-16169698D02*
X20539229Y-16160174D01*
X20539229Y-16160174D02*
X20529706Y-16150650D01*
X20529706Y-16150650D02*
X20520182Y-16131603D01*
X20520182Y-16131603D02*
X20520182Y-16122079D01*
X20520182Y-16122079D02*
X20529706Y-16103031D01*
X20529706Y-16103031D02*
X20539229Y-16093508D01*
X20539229Y-16093508D02*
X20558277Y-16083984D01*
X20558277Y-16083984D02*
X20596372Y-16083984D01*
X20596372Y-16083984D02*
X20615420Y-16093508D01*
X20615420Y-16093508D02*
X20624944Y-16103031D01*
X20624944Y-16103031D02*
X20634467Y-16122079D01*
X20634467Y-16122079D02*
X20634467Y-16131603D01*
X20634467Y-16131603D02*
X20624944Y-16150650D01*
X20624944Y-16150650D02*
X20615420Y-16160174D01*
X20615420Y-16160174D02*
X20596372Y-16169698D01*
X20596372Y-16169698D02*
X20558277Y-16169698D01*
X20558277Y-16169698D02*
X20539229Y-16179222D01*
X20539229Y-16179222D02*
X20529706Y-16188746D01*
X20529706Y-16188746D02*
X20520182Y-16207793D01*
X20520182Y-16207793D02*
X20520182Y-16245888D01*
X20520182Y-16245888D02*
X20529706Y-16264936D01*
X20529706Y-16264936D02*
X20539229Y-16274460D01*
X20539229Y-16274460D02*
X20558277Y-16283984D01*
X20558277Y-16283984D02*
X20596372Y-16283984D01*
X20596372Y-16283984D02*
X20615420Y-16274460D01*
X20615420Y-16274460D02*
X20624944Y-16264936D01*
X20624944Y-16264936D02*
X20634467Y-16245888D01*
X20634467Y-16245888D02*
X20634467Y-16207793D01*
X20634467Y-16207793D02*
X20624944Y-16188746D01*
X20624944Y-16188746D02*
X20615420Y-16179222D01*
X20615420Y-16179222D02*
X20596372Y-16169698D01*
X20824944Y-16283984D02*
X20710658Y-16283984D01*
X20767801Y-16283984D02*
X20767801Y-16083984D01*
X20767801Y-16083984D02*
X20748753Y-16112555D01*
X20748753Y-16112555D02*
X20729706Y-16131603D01*
X20729706Y-16131603D02*
X20710658Y-16141127D01*
X20901134Y-16083984D02*
X20901134Y-16122079D01*
X20977325Y-16083984D02*
X20977325Y-16122079D01*
X21272563Y-16360174D02*
X21263039Y-16350650D01*
X21263039Y-16350650D02*
X21243991Y-16322079D01*
X21243991Y-16322079D02*
X21234468Y-16303031D01*
X21234468Y-16303031D02*
X21224944Y-16274460D01*
X21224944Y-16274460D02*
X21215420Y-16226841D01*
X21215420Y-16226841D02*
X21215420Y-16188746D01*
X21215420Y-16188746D02*
X21224944Y-16141127D01*
X21224944Y-16141127D02*
X21234468Y-16112555D01*
X21234468Y-16112555D02*
X21243991Y-16093508D01*
X21243991Y-16093508D02*
X21263039Y-16064936D01*
X21263039Y-16064936D02*
X21272563Y-16055412D01*
X21386848Y-16083984D02*
X21405896Y-16083984D01*
X21405896Y-16083984D02*
X21424944Y-16093508D01*
X21424944Y-16093508D02*
X21434468Y-16103031D01*
X21434468Y-16103031D02*
X21443991Y-16122079D01*
X21443991Y-16122079D02*
X21453515Y-16160174D01*
X21453515Y-16160174D02*
X21453515Y-16207793D01*
X21453515Y-16207793D02*
X21443991Y-16245888D01*
X21443991Y-16245888D02*
X21434468Y-16264936D01*
X21434468Y-16264936D02*
X21424944Y-16274460D01*
X21424944Y-16274460D02*
X21405896Y-16283984D01*
X21405896Y-16283984D02*
X21386848Y-16283984D01*
X21386848Y-16283984D02*
X21367801Y-16274460D01*
X21367801Y-16274460D02*
X21358277Y-16264936D01*
X21358277Y-16264936D02*
X21348753Y-16245888D01*
X21348753Y-16245888D02*
X21339229Y-16207793D01*
X21339229Y-16207793D02*
X21339229Y-16160174D01*
X21339229Y-16160174D02*
X21348753Y-16122079D01*
X21348753Y-16122079D02*
X21358277Y-16103031D01*
X21358277Y-16103031D02*
X21367801Y-16093508D01*
X21367801Y-16093508D02*
X21386848Y-16083984D01*
X21691610Y-16283984D02*
X21691610Y-16083984D01*
X21777325Y-16283984D02*
X21777325Y-16179222D01*
X21777325Y-16179222D02*
X21767801Y-16160174D01*
X21767801Y-16160174D02*
X21748753Y-16150650D01*
X21748753Y-16150650D02*
X21720182Y-16150650D01*
X21720182Y-16150650D02*
X21701134Y-16160174D01*
X21701134Y-16160174D02*
X21691610Y-16169698D01*
X21901134Y-16283984D02*
X21882087Y-16274460D01*
X21882087Y-16274460D02*
X21872563Y-16264936D01*
X21872563Y-16264936D02*
X21863039Y-16245888D01*
X21863039Y-16245888D02*
X21863039Y-16188746D01*
X21863039Y-16188746D02*
X21872563Y-16169698D01*
X21872563Y-16169698D02*
X21882087Y-16160174D01*
X21882087Y-16160174D02*
X21901134Y-16150650D01*
X21901134Y-16150650D02*
X21929706Y-16150650D01*
X21929706Y-16150650D02*
X21948753Y-16160174D01*
X21948753Y-16160174D02*
X21958277Y-16169698D01*
X21958277Y-16169698D02*
X21967801Y-16188746D01*
X21967801Y-16188746D02*
X21967801Y-16245888D01*
X21967801Y-16245888D02*
X21958277Y-16264936D01*
X21958277Y-16264936D02*
X21948753Y-16274460D01*
X21948753Y-16274460D02*
X21929706Y-16283984D01*
X21929706Y-16283984D02*
X21901134Y-16283984D01*
X22082087Y-16283984D02*
X22063039Y-16274460D01*
X22063039Y-16274460D02*
X22053515Y-16255412D01*
X22053515Y-16255412D02*
X22053515Y-16083984D01*
X22234468Y-16274460D02*
X22215420Y-16283984D01*
X22215420Y-16283984D02*
X22177325Y-16283984D01*
X22177325Y-16283984D02*
X22158277Y-16274460D01*
X22158277Y-16274460D02*
X22148753Y-16255412D01*
X22148753Y-16255412D02*
X22148753Y-16179222D01*
X22148753Y-16179222D02*
X22158277Y-16160174D01*
X22158277Y-16160174D02*
X22177325Y-16150650D01*
X22177325Y-16150650D02*
X22215420Y-16150650D01*
X22215420Y-16150650D02*
X22234468Y-16160174D01*
X22234468Y-16160174D02*
X22243991Y-16179222D01*
X22243991Y-16179222D02*
X22243991Y-16198269D01*
X22243991Y-16198269D02*
X22148753Y-16217317D01*
X22320182Y-16274460D02*
X22339230Y-16283984D01*
X22339230Y-16283984D02*
X22377325Y-16283984D01*
X22377325Y-16283984D02*
X22396372Y-16274460D01*
X22396372Y-16274460D02*
X22405896Y-16255412D01*
X22405896Y-16255412D02*
X22405896Y-16245888D01*
X22405896Y-16245888D02*
X22396372Y-16226841D01*
X22396372Y-16226841D02*
X22377325Y-16217317D01*
X22377325Y-16217317D02*
X22348753Y-16217317D01*
X22348753Y-16217317D02*
X22329706Y-16207793D01*
X22329706Y-16207793D02*
X22320182Y-16188746D01*
X22320182Y-16188746D02*
X22320182Y-16179222D01*
X22320182Y-16179222D02*
X22329706Y-16160174D01*
X22329706Y-16160174D02*
X22348753Y-16150650D01*
X22348753Y-16150650D02*
X22377325Y-16150650D01*
X22377325Y-16150650D02*
X22396372Y-16160174D01*
X22643991Y-16207793D02*
X22796372Y-16207793D01*
X22720182Y-16283984D02*
X22720182Y-16131603D01*
X23129706Y-16150650D02*
X23129706Y-16283984D01*
X23082087Y-16074460D02*
X23034468Y-16217317D01*
X23034468Y-16217317D02*
X23158277Y-16217317D01*
X23377325Y-16274460D02*
X23396372Y-16283984D01*
X23396372Y-16283984D02*
X23434468Y-16283984D01*
X23434468Y-16283984D02*
X23453515Y-16274460D01*
X23453515Y-16274460D02*
X23463039Y-16255412D01*
X23463039Y-16255412D02*
X23463039Y-16245888D01*
X23463039Y-16245888D02*
X23453515Y-16226841D01*
X23453515Y-16226841D02*
X23434468Y-16217317D01*
X23434468Y-16217317D02*
X23405896Y-16217317D01*
X23405896Y-16217317D02*
X23386849Y-16207793D01*
X23386849Y-16207793D02*
X23377325Y-16188746D01*
X23377325Y-16188746D02*
X23377325Y-16179222D01*
X23377325Y-16179222D02*
X23386849Y-16160174D01*
X23386849Y-16160174D02*
X23405896Y-16150650D01*
X23405896Y-16150650D02*
X23434468Y-16150650D01*
X23434468Y-16150650D02*
X23453515Y-16160174D01*
X23577325Y-16283984D02*
X23558277Y-16274460D01*
X23558277Y-16274460D02*
X23548753Y-16255412D01*
X23548753Y-16255412D02*
X23548753Y-16083984D01*
X23682087Y-16283984D02*
X23663039Y-16274460D01*
X23663039Y-16274460D02*
X23653515Y-16264936D01*
X23653515Y-16264936D02*
X23643992Y-16245888D01*
X23643992Y-16245888D02*
X23643992Y-16188746D01*
X23643992Y-16188746D02*
X23653515Y-16169698D01*
X23653515Y-16169698D02*
X23663039Y-16160174D01*
X23663039Y-16160174D02*
X23682087Y-16150650D01*
X23682087Y-16150650D02*
X23710658Y-16150650D01*
X23710658Y-16150650D02*
X23729706Y-16160174D01*
X23729706Y-16160174D02*
X23739230Y-16169698D01*
X23739230Y-16169698D02*
X23748753Y-16188746D01*
X23748753Y-16188746D02*
X23748753Y-16245888D01*
X23748753Y-16245888D02*
X23739230Y-16264936D01*
X23739230Y-16264936D02*
X23729706Y-16274460D01*
X23729706Y-16274460D02*
X23710658Y-16283984D01*
X23710658Y-16283984D02*
X23682087Y-16283984D01*
X23805896Y-16150650D02*
X23882087Y-16150650D01*
X23834468Y-16083984D02*
X23834468Y-16255412D01*
X23834468Y-16255412D02*
X23843992Y-16274460D01*
X23843992Y-16274460D02*
X23863039Y-16283984D01*
X23863039Y-16283984D02*
X23882087Y-16283984D01*
X23939230Y-16274460D02*
X23958277Y-16283984D01*
X23958277Y-16283984D02*
X23996372Y-16283984D01*
X23996372Y-16283984D02*
X24015420Y-16274460D01*
X24015420Y-16274460D02*
X24024944Y-16255412D01*
X24024944Y-16255412D02*
X24024944Y-16245888D01*
X24024944Y-16245888D02*
X24015420Y-16226841D01*
X24015420Y-16226841D02*
X23996372Y-16217317D01*
X23996372Y-16217317D02*
X23967801Y-16217317D01*
X23967801Y-16217317D02*
X23948753Y-16207793D01*
X23948753Y-16207793D02*
X23939230Y-16188746D01*
X23939230Y-16188746D02*
X23939230Y-16179222D01*
X23939230Y-16179222D02*
X23948753Y-16160174D01*
X23948753Y-16160174D02*
X23967801Y-16150650D01*
X23967801Y-16150650D02*
X23996372Y-16150650D01*
X23996372Y-16150650D02*
X24015420Y-16160174D01*
X24091611Y-16360174D02*
X24101134Y-16350650D01*
X24101134Y-16350650D02*
X24120182Y-16322079D01*
X24120182Y-16322079D02*
X24129706Y-16303031D01*
X24129706Y-16303031D02*
X24139230Y-16274460D01*
X24139230Y-16274460D02*
X24148753Y-16226841D01*
X24148753Y-16226841D02*
X24148753Y-16188746D01*
X24148753Y-16188746D02*
X24139230Y-16141127D01*
X24139230Y-16141127D02*
X24129706Y-16112555D01*
X24129706Y-16112555D02*
X24120182Y-16093508D01*
X24120182Y-16093508D02*
X24101134Y-16064936D01*
X24101134Y-16064936D02*
X24091611Y-16055412D01*
X17697500Y-16512500D02*
G75*
G03*
X17697500Y-16512500I-100000J0D01*
G01*
X18043991Y-16403984D02*
X18005896Y-16403984D01*
X18005896Y-16403984D02*
X17986848Y-16413508D01*
X17986848Y-16413508D02*
X17977324Y-16423031D01*
X17977324Y-16423031D02*
X17958277Y-16451603D01*
X17958277Y-16451603D02*
X17948753Y-16489698D01*
X17948753Y-16489698D02*
X17948753Y-16565888D01*
X17948753Y-16565888D02*
X17958277Y-16584936D01*
X17958277Y-16584936D02*
X17967801Y-16594460D01*
X17967801Y-16594460D02*
X17986848Y-16603984D01*
X17986848Y-16603984D02*
X18024943Y-16603984D01*
X18024943Y-16603984D02*
X18043991Y-16594460D01*
X18043991Y-16594460D02*
X18053515Y-16584936D01*
X18053515Y-16584936D02*
X18063039Y-16565888D01*
X18063039Y-16565888D02*
X18063039Y-16518269D01*
X18063039Y-16518269D02*
X18053515Y-16499222D01*
X18053515Y-16499222D02*
X18043991Y-16489698D01*
X18043991Y-16489698D02*
X18024943Y-16480174D01*
X18024943Y-16480174D02*
X17986848Y-16480174D01*
X17986848Y-16480174D02*
X17967801Y-16489698D01*
X17967801Y-16489698D02*
X17958277Y-16499222D01*
X17958277Y-16499222D02*
X17948753Y-16518269D01*
X18148753Y-16584936D02*
X18158277Y-16594460D01*
X18158277Y-16594460D02*
X18148753Y-16603984D01*
X18148753Y-16603984D02*
X18139229Y-16594460D01*
X18139229Y-16594460D02*
X18148753Y-16584936D01*
X18148753Y-16584936D02*
X18148753Y-16603984D01*
X18282086Y-16403984D02*
X18301134Y-16403984D01*
X18301134Y-16403984D02*
X18320182Y-16413508D01*
X18320182Y-16413508D02*
X18329705Y-16423031D01*
X18329705Y-16423031D02*
X18339229Y-16442079D01*
X18339229Y-16442079D02*
X18348753Y-16480174D01*
X18348753Y-16480174D02*
X18348753Y-16527793D01*
X18348753Y-16527793D02*
X18339229Y-16565888D01*
X18339229Y-16565888D02*
X18329705Y-16584936D01*
X18329705Y-16584936D02*
X18320182Y-16594460D01*
X18320182Y-16594460D02*
X18301134Y-16603984D01*
X18301134Y-16603984D02*
X18282086Y-16603984D01*
X18282086Y-16603984D02*
X18263039Y-16594460D01*
X18263039Y-16594460D02*
X18253515Y-16584936D01*
X18253515Y-16584936D02*
X18243991Y-16565888D01*
X18243991Y-16565888D02*
X18234467Y-16527793D01*
X18234467Y-16527793D02*
X18234467Y-16480174D01*
X18234467Y-16480174D02*
X18243991Y-16442079D01*
X18243991Y-16442079D02*
X18253515Y-16423031D01*
X18253515Y-16423031D02*
X18263039Y-16413508D01*
X18263039Y-16413508D02*
X18282086Y-16403984D01*
X18472562Y-16403984D02*
X18491610Y-16403984D01*
X18491610Y-16403984D02*
X18510658Y-16413508D01*
X18510658Y-16413508D02*
X18520182Y-16423031D01*
X18520182Y-16423031D02*
X18529705Y-16442079D01*
X18529705Y-16442079D02*
X18539229Y-16480174D01*
X18539229Y-16480174D02*
X18539229Y-16527793D01*
X18539229Y-16527793D02*
X18529705Y-16565888D01*
X18529705Y-16565888D02*
X18520182Y-16584936D01*
X18520182Y-16584936D02*
X18510658Y-16594460D01*
X18510658Y-16594460D02*
X18491610Y-16603984D01*
X18491610Y-16603984D02*
X18472562Y-16603984D01*
X18472562Y-16603984D02*
X18453515Y-16594460D01*
X18453515Y-16594460D02*
X18443991Y-16584936D01*
X18443991Y-16584936D02*
X18434467Y-16565888D01*
X18434467Y-16565888D02*
X18424943Y-16527793D01*
X18424943Y-16527793D02*
X18424943Y-16480174D01*
X18424943Y-16480174D02*
X18434467Y-16442079D01*
X18434467Y-16442079D02*
X18443991Y-16423031D01*
X18443991Y-16423031D02*
X18453515Y-16413508D01*
X18453515Y-16413508D02*
X18472562Y-16403984D01*
X18663039Y-16403984D02*
X18682086Y-16403984D01*
X18682086Y-16403984D02*
X18701134Y-16413508D01*
X18701134Y-16413508D02*
X18710658Y-16423031D01*
X18710658Y-16423031D02*
X18720182Y-16442079D01*
X18720182Y-16442079D02*
X18729705Y-16480174D01*
X18729705Y-16480174D02*
X18729705Y-16527793D01*
X18729705Y-16527793D02*
X18720182Y-16565888D01*
X18720182Y-16565888D02*
X18710658Y-16584936D01*
X18710658Y-16584936D02*
X18701134Y-16594460D01*
X18701134Y-16594460D02*
X18682086Y-16603984D01*
X18682086Y-16603984D02*
X18663039Y-16603984D01*
X18663039Y-16603984D02*
X18643991Y-16594460D01*
X18643991Y-16594460D02*
X18634467Y-16584936D01*
X18634467Y-16584936D02*
X18624943Y-16565888D01*
X18624943Y-16565888D02*
X18615420Y-16527793D01*
X18615420Y-16527793D02*
X18615420Y-16480174D01*
X18615420Y-16480174D02*
X18624943Y-16442079D01*
X18624943Y-16442079D02*
X18634467Y-16423031D01*
X18634467Y-16423031D02*
X18643991Y-16413508D01*
X18643991Y-16413508D02*
X18663039Y-16403984D01*
X18815420Y-16603984D02*
X18815420Y-16470650D01*
X18815420Y-16489698D02*
X18824943Y-16480174D01*
X18824943Y-16480174D02*
X18843991Y-16470650D01*
X18843991Y-16470650D02*
X18872563Y-16470650D01*
X18872563Y-16470650D02*
X18891610Y-16480174D01*
X18891610Y-16480174D02*
X18901134Y-16499222D01*
X18901134Y-16499222D02*
X18901134Y-16603984D01*
X18901134Y-16499222D02*
X18910658Y-16480174D01*
X18910658Y-16480174D02*
X18929705Y-16470650D01*
X18929705Y-16470650D02*
X18958277Y-16470650D01*
X18958277Y-16470650D02*
X18977324Y-16480174D01*
X18977324Y-16480174D02*
X18986848Y-16499222D01*
X18986848Y-16499222D02*
X18986848Y-16603984D01*
X19082086Y-16603984D02*
X19082086Y-16470650D01*
X19082086Y-16489698D02*
X19091610Y-16480174D01*
X19091610Y-16480174D02*
X19110658Y-16470650D01*
X19110658Y-16470650D02*
X19139229Y-16470650D01*
X19139229Y-16470650D02*
X19158277Y-16480174D01*
X19158277Y-16480174D02*
X19167801Y-16499222D01*
X19167801Y-16499222D02*
X19167801Y-16603984D01*
X19167801Y-16499222D02*
X19177324Y-16480174D01*
X19177324Y-16480174D02*
X19196372Y-16470650D01*
X19196372Y-16470650D02*
X19224943Y-16470650D01*
X19224943Y-16470650D02*
X19243991Y-16480174D01*
X19243991Y-16480174D02*
X19253515Y-16499222D01*
X19253515Y-16499222D02*
X19253515Y-16603984D01*
X19643991Y-16394460D02*
X19472563Y-16651603D01*
X19901134Y-16403984D02*
X19920182Y-16403984D01*
X19920182Y-16403984D02*
X19939229Y-16413508D01*
X19939229Y-16413508D02*
X19948753Y-16423031D01*
X19948753Y-16423031D02*
X19958277Y-16442079D01*
X19958277Y-16442079D02*
X19967801Y-16480174D01*
X19967801Y-16480174D02*
X19967801Y-16527793D01*
X19967801Y-16527793D02*
X19958277Y-16565888D01*
X19958277Y-16565888D02*
X19948753Y-16584936D01*
X19948753Y-16584936D02*
X19939229Y-16594460D01*
X19939229Y-16594460D02*
X19920182Y-16603984D01*
X19920182Y-16603984D02*
X19901134Y-16603984D01*
X19901134Y-16603984D02*
X19882086Y-16594460D01*
X19882086Y-16594460D02*
X19872563Y-16584936D01*
X19872563Y-16584936D02*
X19863039Y-16565888D01*
X19863039Y-16565888D02*
X19853515Y-16527793D01*
X19853515Y-16527793D02*
X19853515Y-16480174D01*
X19853515Y-16480174D02*
X19863039Y-16442079D01*
X19863039Y-16442079D02*
X19872563Y-16423031D01*
X19872563Y-16423031D02*
X19882086Y-16413508D01*
X19882086Y-16413508D02*
X19901134Y-16403984D01*
X20053515Y-16584936D02*
X20063039Y-16594460D01*
X20063039Y-16594460D02*
X20053515Y-16603984D01*
X20053515Y-16603984D02*
X20043991Y-16594460D01*
X20043991Y-16594460D02*
X20053515Y-16584936D01*
X20053515Y-16584936D02*
X20053515Y-16603984D01*
X20139229Y-16423031D02*
X20148753Y-16413508D01*
X20148753Y-16413508D02*
X20167801Y-16403984D01*
X20167801Y-16403984D02*
X20215420Y-16403984D01*
X20215420Y-16403984D02*
X20234467Y-16413508D01*
X20234467Y-16413508D02*
X20243991Y-16423031D01*
X20243991Y-16423031D02*
X20253515Y-16442079D01*
X20253515Y-16442079D02*
X20253515Y-16461127D01*
X20253515Y-16461127D02*
X20243991Y-16489698D01*
X20243991Y-16489698D02*
X20129706Y-16603984D01*
X20129706Y-16603984D02*
X20253515Y-16603984D01*
X20320182Y-16403984D02*
X20443991Y-16403984D01*
X20443991Y-16403984D02*
X20377325Y-16480174D01*
X20377325Y-16480174D02*
X20405896Y-16480174D01*
X20405896Y-16480174D02*
X20424944Y-16489698D01*
X20424944Y-16489698D02*
X20434467Y-16499222D01*
X20434467Y-16499222D02*
X20443991Y-16518269D01*
X20443991Y-16518269D02*
X20443991Y-16565888D01*
X20443991Y-16565888D02*
X20434467Y-16584936D01*
X20434467Y-16584936D02*
X20424944Y-16594460D01*
X20424944Y-16594460D02*
X20405896Y-16603984D01*
X20405896Y-16603984D02*
X20348753Y-16603984D01*
X20348753Y-16603984D02*
X20329706Y-16594460D01*
X20329706Y-16594460D02*
X20320182Y-16584936D01*
X20615420Y-16403984D02*
X20577325Y-16403984D01*
X20577325Y-16403984D02*
X20558277Y-16413508D01*
X20558277Y-16413508D02*
X20548753Y-16423031D01*
X20548753Y-16423031D02*
X20529706Y-16451603D01*
X20529706Y-16451603D02*
X20520182Y-16489698D01*
X20520182Y-16489698D02*
X20520182Y-16565888D01*
X20520182Y-16565888D02*
X20529706Y-16584936D01*
X20529706Y-16584936D02*
X20539229Y-16594460D01*
X20539229Y-16594460D02*
X20558277Y-16603984D01*
X20558277Y-16603984D02*
X20596372Y-16603984D01*
X20596372Y-16603984D02*
X20615420Y-16594460D01*
X20615420Y-16594460D02*
X20624944Y-16584936D01*
X20624944Y-16584936D02*
X20634467Y-16565888D01*
X20634467Y-16565888D02*
X20634467Y-16518269D01*
X20634467Y-16518269D02*
X20624944Y-16499222D01*
X20624944Y-16499222D02*
X20615420Y-16489698D01*
X20615420Y-16489698D02*
X20596372Y-16480174D01*
X20596372Y-16480174D02*
X20558277Y-16480174D01*
X20558277Y-16480174D02*
X20539229Y-16489698D01*
X20539229Y-16489698D02*
X20529706Y-16499222D01*
X20529706Y-16499222D02*
X20520182Y-16518269D01*
X20710658Y-16423031D02*
X20720182Y-16413508D01*
X20720182Y-16413508D02*
X20739229Y-16403984D01*
X20739229Y-16403984D02*
X20786848Y-16403984D01*
X20786848Y-16403984D02*
X20805896Y-16413508D01*
X20805896Y-16413508D02*
X20815420Y-16423031D01*
X20815420Y-16423031D02*
X20824944Y-16442079D01*
X20824944Y-16442079D02*
X20824944Y-16461127D01*
X20824944Y-16461127D02*
X20815420Y-16489698D01*
X20815420Y-16489698D02*
X20701134Y-16603984D01*
X20701134Y-16603984D02*
X20824944Y-16603984D01*
X20901134Y-16403984D02*
X20901134Y-16442079D01*
X20977325Y-16403984D02*
X20977325Y-16442079D01*
X21272563Y-16680174D02*
X21263039Y-16670650D01*
X21263039Y-16670650D02*
X21243991Y-16642079D01*
X21243991Y-16642079D02*
X21234468Y-16623031D01*
X21234468Y-16623031D02*
X21224944Y-16594460D01*
X21224944Y-16594460D02*
X21215420Y-16546841D01*
X21215420Y-16546841D02*
X21215420Y-16508746D01*
X21215420Y-16508746D02*
X21224944Y-16461127D01*
X21224944Y-16461127D02*
X21234468Y-16432555D01*
X21234468Y-16432555D02*
X21243991Y-16413508D01*
X21243991Y-16413508D02*
X21263039Y-16384936D01*
X21263039Y-16384936D02*
X21272563Y-16375412D01*
X21434468Y-16403984D02*
X21396372Y-16403984D01*
X21396372Y-16403984D02*
X21377325Y-16413508D01*
X21377325Y-16413508D02*
X21367801Y-16423031D01*
X21367801Y-16423031D02*
X21348753Y-16451603D01*
X21348753Y-16451603D02*
X21339229Y-16489698D01*
X21339229Y-16489698D02*
X21339229Y-16565888D01*
X21339229Y-16565888D02*
X21348753Y-16584936D01*
X21348753Y-16584936D02*
X21358277Y-16594460D01*
X21358277Y-16594460D02*
X21377325Y-16603984D01*
X21377325Y-16603984D02*
X21415420Y-16603984D01*
X21415420Y-16603984D02*
X21434468Y-16594460D01*
X21434468Y-16594460D02*
X21443991Y-16584936D01*
X21443991Y-16584936D02*
X21453515Y-16565888D01*
X21453515Y-16565888D02*
X21453515Y-16518269D01*
X21453515Y-16518269D02*
X21443991Y-16499222D01*
X21443991Y-16499222D02*
X21434468Y-16489698D01*
X21434468Y-16489698D02*
X21415420Y-16480174D01*
X21415420Y-16480174D02*
X21377325Y-16480174D01*
X21377325Y-16480174D02*
X21358277Y-16489698D01*
X21358277Y-16489698D02*
X21348753Y-16499222D01*
X21348753Y-16499222D02*
X21339229Y-16518269D01*
X21691610Y-16603984D02*
X21691610Y-16403984D01*
X21777325Y-16603984D02*
X21777325Y-16499222D01*
X21777325Y-16499222D02*
X21767801Y-16480174D01*
X21767801Y-16480174D02*
X21748753Y-16470650D01*
X21748753Y-16470650D02*
X21720182Y-16470650D01*
X21720182Y-16470650D02*
X21701134Y-16480174D01*
X21701134Y-16480174D02*
X21691610Y-16489698D01*
X21901134Y-16603984D02*
X21882087Y-16594460D01*
X21882087Y-16594460D02*
X21872563Y-16584936D01*
X21872563Y-16584936D02*
X21863039Y-16565888D01*
X21863039Y-16565888D02*
X21863039Y-16508746D01*
X21863039Y-16508746D02*
X21872563Y-16489698D01*
X21872563Y-16489698D02*
X21882087Y-16480174D01*
X21882087Y-16480174D02*
X21901134Y-16470650D01*
X21901134Y-16470650D02*
X21929706Y-16470650D01*
X21929706Y-16470650D02*
X21948753Y-16480174D01*
X21948753Y-16480174D02*
X21958277Y-16489698D01*
X21958277Y-16489698D02*
X21967801Y-16508746D01*
X21967801Y-16508746D02*
X21967801Y-16565888D01*
X21967801Y-16565888D02*
X21958277Y-16584936D01*
X21958277Y-16584936D02*
X21948753Y-16594460D01*
X21948753Y-16594460D02*
X21929706Y-16603984D01*
X21929706Y-16603984D02*
X21901134Y-16603984D01*
X22082087Y-16603984D02*
X22063039Y-16594460D01*
X22063039Y-16594460D02*
X22053515Y-16575412D01*
X22053515Y-16575412D02*
X22053515Y-16403984D01*
X22234468Y-16594460D02*
X22215420Y-16603984D01*
X22215420Y-16603984D02*
X22177325Y-16603984D01*
X22177325Y-16603984D02*
X22158277Y-16594460D01*
X22158277Y-16594460D02*
X22148753Y-16575412D01*
X22148753Y-16575412D02*
X22148753Y-16499222D01*
X22148753Y-16499222D02*
X22158277Y-16480174D01*
X22158277Y-16480174D02*
X22177325Y-16470650D01*
X22177325Y-16470650D02*
X22215420Y-16470650D01*
X22215420Y-16470650D02*
X22234468Y-16480174D01*
X22234468Y-16480174D02*
X22243991Y-16499222D01*
X22243991Y-16499222D02*
X22243991Y-16518269D01*
X22243991Y-16518269D02*
X22148753Y-16537317D01*
X22320182Y-16594460D02*
X22339230Y-16603984D01*
X22339230Y-16603984D02*
X22377325Y-16603984D01*
X22377325Y-16603984D02*
X22396372Y-16594460D01*
X22396372Y-16594460D02*
X22405896Y-16575412D01*
X22405896Y-16575412D02*
X22405896Y-16565888D01*
X22405896Y-16565888D02*
X22396372Y-16546841D01*
X22396372Y-16546841D02*
X22377325Y-16537317D01*
X22377325Y-16537317D02*
X22348753Y-16537317D01*
X22348753Y-16537317D02*
X22329706Y-16527793D01*
X22329706Y-16527793D02*
X22320182Y-16508746D01*
X22320182Y-16508746D02*
X22320182Y-16499222D01*
X22320182Y-16499222D02*
X22329706Y-16480174D01*
X22329706Y-16480174D02*
X22348753Y-16470650D01*
X22348753Y-16470650D02*
X22377325Y-16470650D01*
X22377325Y-16470650D02*
X22396372Y-16480174D01*
X22472563Y-16680174D02*
X22482087Y-16670650D01*
X22482087Y-16670650D02*
X22501134Y-16642079D01*
X22501134Y-16642079D02*
X22510658Y-16623031D01*
X22510658Y-16623031D02*
X22520182Y-16594460D01*
X22520182Y-16594460D02*
X22529706Y-16546841D01*
X22529706Y-16546841D02*
X22529706Y-16508746D01*
X22529706Y-16508746D02*
X22520182Y-16461127D01*
X22520182Y-16461127D02*
X22510658Y-16432555D01*
X22510658Y-16432555D02*
X22501134Y-16413508D01*
X22501134Y-16413508D02*
X22482087Y-16384936D01*
X22482087Y-16384936D02*
X22472563Y-16375412D01*
X17597500Y-16732500D02*
X17597500Y-16932500D01*
X17497500Y-16832500D02*
X17697500Y-16832500D01*
X18043991Y-16723984D02*
X18005896Y-16723984D01*
X18005896Y-16723984D02*
X17986848Y-16733508D01*
X17986848Y-16733508D02*
X17977324Y-16743031D01*
X17977324Y-16743031D02*
X17958277Y-16771603D01*
X17958277Y-16771603D02*
X17948753Y-16809698D01*
X17948753Y-16809698D02*
X17948753Y-16885889D01*
X17948753Y-16885889D02*
X17958277Y-16904936D01*
X17958277Y-16904936D02*
X17967801Y-16914460D01*
X17967801Y-16914460D02*
X17986848Y-16923984D01*
X17986848Y-16923984D02*
X18024943Y-16923984D01*
X18024943Y-16923984D02*
X18043991Y-16914460D01*
X18043991Y-16914460D02*
X18053515Y-16904936D01*
X18053515Y-16904936D02*
X18063039Y-16885889D01*
X18063039Y-16885889D02*
X18063039Y-16838270D01*
X18063039Y-16838270D02*
X18053515Y-16819222D01*
X18053515Y-16819222D02*
X18043991Y-16809698D01*
X18043991Y-16809698D02*
X18024943Y-16800174D01*
X18024943Y-16800174D02*
X17986848Y-16800174D01*
X17986848Y-16800174D02*
X17967801Y-16809698D01*
X17967801Y-16809698D02*
X17958277Y-16819222D01*
X17958277Y-16819222D02*
X17948753Y-16838270D01*
X18148753Y-16904936D02*
X18158277Y-16914460D01*
X18158277Y-16914460D02*
X18148753Y-16923984D01*
X18148753Y-16923984D02*
X18139229Y-16914460D01*
X18139229Y-16914460D02*
X18148753Y-16904936D01*
X18148753Y-16904936D02*
X18148753Y-16923984D01*
X18272562Y-16809698D02*
X18253515Y-16800174D01*
X18253515Y-16800174D02*
X18243991Y-16790650D01*
X18243991Y-16790650D02*
X18234467Y-16771603D01*
X18234467Y-16771603D02*
X18234467Y-16762079D01*
X18234467Y-16762079D02*
X18243991Y-16743031D01*
X18243991Y-16743031D02*
X18253515Y-16733508D01*
X18253515Y-16733508D02*
X18272562Y-16723984D01*
X18272562Y-16723984D02*
X18310658Y-16723984D01*
X18310658Y-16723984D02*
X18329705Y-16733508D01*
X18329705Y-16733508D02*
X18339229Y-16743031D01*
X18339229Y-16743031D02*
X18348753Y-16762079D01*
X18348753Y-16762079D02*
X18348753Y-16771603D01*
X18348753Y-16771603D02*
X18339229Y-16790650D01*
X18339229Y-16790650D02*
X18329705Y-16800174D01*
X18329705Y-16800174D02*
X18310658Y-16809698D01*
X18310658Y-16809698D02*
X18272562Y-16809698D01*
X18272562Y-16809698D02*
X18253515Y-16819222D01*
X18253515Y-16819222D02*
X18243991Y-16828746D01*
X18243991Y-16828746D02*
X18234467Y-16847793D01*
X18234467Y-16847793D02*
X18234467Y-16885889D01*
X18234467Y-16885889D02*
X18243991Y-16904936D01*
X18243991Y-16904936D02*
X18253515Y-16914460D01*
X18253515Y-16914460D02*
X18272562Y-16923984D01*
X18272562Y-16923984D02*
X18310658Y-16923984D01*
X18310658Y-16923984D02*
X18329705Y-16914460D01*
X18329705Y-16914460D02*
X18339229Y-16904936D01*
X18339229Y-16904936D02*
X18348753Y-16885889D01*
X18348753Y-16885889D02*
X18348753Y-16847793D01*
X18348753Y-16847793D02*
X18339229Y-16828746D01*
X18339229Y-16828746D02*
X18329705Y-16819222D01*
X18329705Y-16819222D02*
X18310658Y-16809698D01*
X18472562Y-16723984D02*
X18491610Y-16723984D01*
X18491610Y-16723984D02*
X18510658Y-16733508D01*
X18510658Y-16733508D02*
X18520182Y-16743031D01*
X18520182Y-16743031D02*
X18529705Y-16762079D01*
X18529705Y-16762079D02*
X18539229Y-16800174D01*
X18539229Y-16800174D02*
X18539229Y-16847793D01*
X18539229Y-16847793D02*
X18529705Y-16885889D01*
X18529705Y-16885889D02*
X18520182Y-16904936D01*
X18520182Y-16904936D02*
X18510658Y-16914460D01*
X18510658Y-16914460D02*
X18491610Y-16923984D01*
X18491610Y-16923984D02*
X18472562Y-16923984D01*
X18472562Y-16923984D02*
X18453515Y-16914460D01*
X18453515Y-16914460D02*
X18443991Y-16904936D01*
X18443991Y-16904936D02*
X18434467Y-16885889D01*
X18434467Y-16885889D02*
X18424943Y-16847793D01*
X18424943Y-16847793D02*
X18424943Y-16800174D01*
X18424943Y-16800174D02*
X18434467Y-16762079D01*
X18434467Y-16762079D02*
X18443991Y-16743031D01*
X18443991Y-16743031D02*
X18453515Y-16733508D01*
X18453515Y-16733508D02*
X18472562Y-16723984D01*
X18663039Y-16723984D02*
X18682086Y-16723984D01*
X18682086Y-16723984D02*
X18701134Y-16733508D01*
X18701134Y-16733508D02*
X18710658Y-16743031D01*
X18710658Y-16743031D02*
X18720182Y-16762079D01*
X18720182Y-16762079D02*
X18729705Y-16800174D01*
X18729705Y-16800174D02*
X18729705Y-16847793D01*
X18729705Y-16847793D02*
X18720182Y-16885889D01*
X18720182Y-16885889D02*
X18710658Y-16904936D01*
X18710658Y-16904936D02*
X18701134Y-16914460D01*
X18701134Y-16914460D02*
X18682086Y-16923984D01*
X18682086Y-16923984D02*
X18663039Y-16923984D01*
X18663039Y-16923984D02*
X18643991Y-16914460D01*
X18643991Y-16914460D02*
X18634467Y-16904936D01*
X18634467Y-16904936D02*
X18624943Y-16885889D01*
X18624943Y-16885889D02*
X18615420Y-16847793D01*
X18615420Y-16847793D02*
X18615420Y-16800174D01*
X18615420Y-16800174D02*
X18624943Y-16762079D01*
X18624943Y-16762079D02*
X18634467Y-16743031D01*
X18634467Y-16743031D02*
X18643991Y-16733508D01*
X18643991Y-16733508D02*
X18663039Y-16723984D01*
X18815420Y-16923984D02*
X18815420Y-16790650D01*
X18815420Y-16809698D02*
X18824943Y-16800174D01*
X18824943Y-16800174D02*
X18843991Y-16790650D01*
X18843991Y-16790650D02*
X18872563Y-16790650D01*
X18872563Y-16790650D02*
X18891610Y-16800174D01*
X18891610Y-16800174D02*
X18901134Y-16819222D01*
X18901134Y-16819222D02*
X18901134Y-16923984D01*
X18901134Y-16819222D02*
X18910658Y-16800174D01*
X18910658Y-16800174D02*
X18929705Y-16790650D01*
X18929705Y-16790650D02*
X18958277Y-16790650D01*
X18958277Y-16790650D02*
X18977324Y-16800174D01*
X18977324Y-16800174D02*
X18986848Y-16819222D01*
X18986848Y-16819222D02*
X18986848Y-16923984D01*
X19082086Y-16923984D02*
X19082086Y-16790650D01*
X19082086Y-16809698D02*
X19091610Y-16800174D01*
X19091610Y-16800174D02*
X19110658Y-16790650D01*
X19110658Y-16790650D02*
X19139229Y-16790650D01*
X19139229Y-16790650D02*
X19158277Y-16800174D01*
X19158277Y-16800174D02*
X19167801Y-16819222D01*
X19167801Y-16819222D02*
X19167801Y-16923984D01*
X19167801Y-16819222D02*
X19177324Y-16800174D01*
X19177324Y-16800174D02*
X19196372Y-16790650D01*
X19196372Y-16790650D02*
X19224943Y-16790650D01*
X19224943Y-16790650D02*
X19243991Y-16800174D01*
X19243991Y-16800174D02*
X19253515Y-16819222D01*
X19253515Y-16819222D02*
X19253515Y-16923984D01*
X19643991Y-16714460D02*
X19472563Y-16971603D01*
X19901134Y-16723984D02*
X19920182Y-16723984D01*
X19920182Y-16723984D02*
X19939229Y-16733508D01*
X19939229Y-16733508D02*
X19948753Y-16743031D01*
X19948753Y-16743031D02*
X19958277Y-16762079D01*
X19958277Y-16762079D02*
X19967801Y-16800174D01*
X19967801Y-16800174D02*
X19967801Y-16847793D01*
X19967801Y-16847793D02*
X19958277Y-16885889D01*
X19958277Y-16885889D02*
X19948753Y-16904936D01*
X19948753Y-16904936D02*
X19939229Y-16914460D01*
X19939229Y-16914460D02*
X19920182Y-16923984D01*
X19920182Y-16923984D02*
X19901134Y-16923984D01*
X19901134Y-16923984D02*
X19882086Y-16914460D01*
X19882086Y-16914460D02*
X19872563Y-16904936D01*
X19872563Y-16904936D02*
X19863039Y-16885889D01*
X19863039Y-16885889D02*
X19853515Y-16847793D01*
X19853515Y-16847793D02*
X19853515Y-16800174D01*
X19853515Y-16800174D02*
X19863039Y-16762079D01*
X19863039Y-16762079D02*
X19872563Y-16743031D01*
X19872563Y-16743031D02*
X19882086Y-16733508D01*
X19882086Y-16733508D02*
X19901134Y-16723984D01*
X20053515Y-16904936D02*
X20063039Y-16914460D01*
X20063039Y-16914460D02*
X20053515Y-16923984D01*
X20053515Y-16923984D02*
X20043991Y-16914460D01*
X20043991Y-16914460D02*
X20053515Y-16904936D01*
X20053515Y-16904936D02*
X20053515Y-16923984D01*
X20139229Y-16743031D02*
X20148753Y-16733508D01*
X20148753Y-16733508D02*
X20167801Y-16723984D01*
X20167801Y-16723984D02*
X20215420Y-16723984D01*
X20215420Y-16723984D02*
X20234467Y-16733508D01*
X20234467Y-16733508D02*
X20243991Y-16743031D01*
X20243991Y-16743031D02*
X20253515Y-16762079D01*
X20253515Y-16762079D02*
X20253515Y-16781127D01*
X20253515Y-16781127D02*
X20243991Y-16809698D01*
X20243991Y-16809698D02*
X20129706Y-16923984D01*
X20129706Y-16923984D02*
X20253515Y-16923984D01*
X20424944Y-16723984D02*
X20386848Y-16723984D01*
X20386848Y-16723984D02*
X20367801Y-16733508D01*
X20367801Y-16733508D02*
X20358277Y-16743031D01*
X20358277Y-16743031D02*
X20339229Y-16771603D01*
X20339229Y-16771603D02*
X20329706Y-16809698D01*
X20329706Y-16809698D02*
X20329706Y-16885889D01*
X20329706Y-16885889D02*
X20339229Y-16904936D01*
X20339229Y-16904936D02*
X20348753Y-16914460D01*
X20348753Y-16914460D02*
X20367801Y-16923984D01*
X20367801Y-16923984D02*
X20405896Y-16923984D01*
X20405896Y-16923984D02*
X20424944Y-16914460D01*
X20424944Y-16914460D02*
X20434467Y-16904936D01*
X20434467Y-16904936D02*
X20443991Y-16885889D01*
X20443991Y-16885889D02*
X20443991Y-16838270D01*
X20443991Y-16838270D02*
X20434467Y-16819222D01*
X20434467Y-16819222D02*
X20424944Y-16809698D01*
X20424944Y-16809698D02*
X20405896Y-16800174D01*
X20405896Y-16800174D02*
X20367801Y-16800174D01*
X20367801Y-16800174D02*
X20348753Y-16809698D01*
X20348753Y-16809698D02*
X20339229Y-16819222D01*
X20339229Y-16819222D02*
X20329706Y-16838270D01*
X20510658Y-16723984D02*
X20643991Y-16723984D01*
X20643991Y-16723984D02*
X20558277Y-16923984D01*
X20701134Y-16723984D02*
X20834467Y-16723984D01*
X20834467Y-16723984D02*
X20748753Y-16923984D01*
X20901134Y-16723984D02*
X20901134Y-16762079D01*
X20977325Y-16723984D02*
X20977325Y-16762079D01*
X21272563Y-17000174D02*
X21263039Y-16990650D01*
X21263039Y-16990650D02*
X21243991Y-16962079D01*
X21243991Y-16962079D02*
X21234468Y-16943031D01*
X21234468Y-16943031D02*
X21224944Y-16914460D01*
X21224944Y-16914460D02*
X21215420Y-16866841D01*
X21215420Y-16866841D02*
X21215420Y-16828746D01*
X21215420Y-16828746D02*
X21224944Y-16781127D01*
X21224944Y-16781127D02*
X21234468Y-16752555D01*
X21234468Y-16752555D02*
X21243991Y-16733508D01*
X21243991Y-16733508D02*
X21263039Y-16704936D01*
X21263039Y-16704936D02*
X21272563Y-16695412D01*
X21358277Y-16923984D02*
X21396372Y-16923984D01*
X21396372Y-16923984D02*
X21415420Y-16914460D01*
X21415420Y-16914460D02*
X21424944Y-16904936D01*
X21424944Y-16904936D02*
X21443991Y-16876365D01*
X21443991Y-16876365D02*
X21453515Y-16838270D01*
X21453515Y-16838270D02*
X21453515Y-16762079D01*
X21453515Y-16762079D02*
X21443991Y-16743031D01*
X21443991Y-16743031D02*
X21434468Y-16733508D01*
X21434468Y-16733508D02*
X21415420Y-16723984D01*
X21415420Y-16723984D02*
X21377325Y-16723984D01*
X21377325Y-16723984D02*
X21358277Y-16733508D01*
X21358277Y-16733508D02*
X21348753Y-16743031D01*
X21348753Y-16743031D02*
X21339229Y-16762079D01*
X21339229Y-16762079D02*
X21339229Y-16809698D01*
X21339229Y-16809698D02*
X21348753Y-16828746D01*
X21348753Y-16828746D02*
X21358277Y-16838270D01*
X21358277Y-16838270D02*
X21377325Y-16847793D01*
X21377325Y-16847793D02*
X21415420Y-16847793D01*
X21415420Y-16847793D02*
X21434468Y-16838270D01*
X21434468Y-16838270D02*
X21443991Y-16828746D01*
X21443991Y-16828746D02*
X21453515Y-16809698D01*
X21691610Y-16923984D02*
X21691610Y-16723984D01*
X21777325Y-16923984D02*
X21777325Y-16819222D01*
X21777325Y-16819222D02*
X21767801Y-16800174D01*
X21767801Y-16800174D02*
X21748753Y-16790650D01*
X21748753Y-16790650D02*
X21720182Y-16790650D01*
X21720182Y-16790650D02*
X21701134Y-16800174D01*
X21701134Y-16800174D02*
X21691610Y-16809698D01*
X21901134Y-16923984D02*
X21882087Y-16914460D01*
X21882087Y-16914460D02*
X21872563Y-16904936D01*
X21872563Y-16904936D02*
X21863039Y-16885889D01*
X21863039Y-16885889D02*
X21863039Y-16828746D01*
X21863039Y-16828746D02*
X21872563Y-16809698D01*
X21872563Y-16809698D02*
X21882087Y-16800174D01*
X21882087Y-16800174D02*
X21901134Y-16790650D01*
X21901134Y-16790650D02*
X21929706Y-16790650D01*
X21929706Y-16790650D02*
X21948753Y-16800174D01*
X21948753Y-16800174D02*
X21958277Y-16809698D01*
X21958277Y-16809698D02*
X21967801Y-16828746D01*
X21967801Y-16828746D02*
X21967801Y-16885889D01*
X21967801Y-16885889D02*
X21958277Y-16904936D01*
X21958277Y-16904936D02*
X21948753Y-16914460D01*
X21948753Y-16914460D02*
X21929706Y-16923984D01*
X21929706Y-16923984D02*
X21901134Y-16923984D01*
X22082087Y-16923984D02*
X22063039Y-16914460D01*
X22063039Y-16914460D02*
X22053515Y-16895412D01*
X22053515Y-16895412D02*
X22053515Y-16723984D01*
X22234468Y-16914460D02*
X22215420Y-16923984D01*
X22215420Y-16923984D02*
X22177325Y-16923984D01*
X22177325Y-16923984D02*
X22158277Y-16914460D01*
X22158277Y-16914460D02*
X22148753Y-16895412D01*
X22148753Y-16895412D02*
X22148753Y-16819222D01*
X22148753Y-16819222D02*
X22158277Y-16800174D01*
X22158277Y-16800174D02*
X22177325Y-16790650D01*
X22177325Y-16790650D02*
X22215420Y-16790650D01*
X22215420Y-16790650D02*
X22234468Y-16800174D01*
X22234468Y-16800174D02*
X22243991Y-16819222D01*
X22243991Y-16819222D02*
X22243991Y-16838270D01*
X22243991Y-16838270D02*
X22148753Y-16857317D01*
X22320182Y-16914460D02*
X22339230Y-16923984D01*
X22339230Y-16923984D02*
X22377325Y-16923984D01*
X22377325Y-16923984D02*
X22396372Y-16914460D01*
X22396372Y-16914460D02*
X22405896Y-16895412D01*
X22405896Y-16895412D02*
X22405896Y-16885889D01*
X22405896Y-16885889D02*
X22396372Y-16866841D01*
X22396372Y-16866841D02*
X22377325Y-16857317D01*
X22377325Y-16857317D02*
X22348753Y-16857317D01*
X22348753Y-16857317D02*
X22329706Y-16847793D01*
X22329706Y-16847793D02*
X22320182Y-16828746D01*
X22320182Y-16828746D02*
X22320182Y-16819222D01*
X22320182Y-16819222D02*
X22329706Y-16800174D01*
X22329706Y-16800174D02*
X22348753Y-16790650D01*
X22348753Y-16790650D02*
X22377325Y-16790650D01*
X22377325Y-16790650D02*
X22396372Y-16800174D01*
X22472563Y-17000174D02*
X22482087Y-16990650D01*
X22482087Y-16990650D02*
X22501134Y-16962079D01*
X22501134Y-16962079D02*
X22510658Y-16943031D01*
X22510658Y-16943031D02*
X22520182Y-16914460D01*
X22520182Y-16914460D02*
X22529706Y-16866841D01*
X22529706Y-16866841D02*
X22529706Y-16828746D01*
X22529706Y-16828746D02*
X22520182Y-16781127D01*
X22520182Y-16781127D02*
X22510658Y-16752555D01*
X22510658Y-16752555D02*
X22501134Y-16733508D01*
X22501134Y-16733508D02*
X22482087Y-16704936D01*
X22482087Y-16704936D02*
X22472563Y-16695412D01*
M02*
