G04 #@! TF.GenerationSoftware,KiCad,Pcbnew,7.0.5.1-1-g8f565ef7f0-dirty-deb11*
G04 #@! TF.CreationDate,2023-06-10T14:16:33+00:00*
G04 #@! TF.ProjectId,MS20-VCF,4d533230-2d56-4434-962e-6b696361645f,rev?*
G04 #@! TF.SameCoordinates,Original*
G04 #@! TF.FileFunction,Copper,L1,Top*
G04 #@! TF.FilePolarity,Positive*
%FSLAX46Y46*%
G04 Gerber Fmt 4.6, Leading zero omitted, Abs format (unit mm)*
G04 Created by KiCad (PCBNEW 7.0.5.1-1-g8f565ef7f0-dirty-deb11) date 2023-06-10 14:16:33*
%MOMM*%
%LPD*%
G01*
G04 APERTURE LIST*
G04 #@! TA.AperFunction,WasherPad*
%ADD10C,4.000000*%
G04 #@! TD*
G04 #@! TA.AperFunction,ComponentPad*
%ADD11C,1.800000*%
G04 #@! TD*
G04 #@! TA.AperFunction,ComponentPad*
%ADD12R,1.800000X1.800000*%
G04 #@! TD*
G04 #@! TA.AperFunction,ComponentPad*
%ADD13R,1.930000X1.830000*%
G04 #@! TD*
G04 #@! TA.AperFunction,ComponentPad*
%ADD14C,2.130000*%
G04 #@! TD*
G04 #@! TA.AperFunction,ComponentPad*
%ADD15C,1.600000*%
G04 #@! TD*
G04 #@! TA.AperFunction,ComponentPad*
%ADD16O,1.600000X1.600000*%
G04 #@! TD*
G04 #@! TA.AperFunction,ComponentPad*
%ADD17O,3.700000X2.400000*%
G04 #@! TD*
G04 #@! TA.AperFunction,ComponentPad*
%ADD18O,3.200000X5.000000*%
G04 #@! TD*
G04 #@! TA.AperFunction,ComponentPad*
%ADD19R,1.700000X1.700000*%
G04 #@! TD*
G04 #@! TA.AperFunction,ComponentPad*
%ADD20O,1.700000X1.700000*%
G04 #@! TD*
G04 #@! TA.AperFunction,Conductor*
%ADD21C,0.300000*%
G04 #@! TD*
G04 APERTURE END LIST*
D10*
X107600000Y-64050000D03*
X116400000Y-64050000D03*
D11*
X114500000Y-71050000D03*
X112000000Y-71050000D03*
X109500000Y-71050000D03*
D10*
X105600000Y-44050000D03*
X114400000Y-44050000D03*
D11*
X112500000Y-51050000D03*
X110000000Y-51050000D03*
X107500000Y-51050000D03*
D12*
X148275000Y-86500000D03*
D11*
X145735000Y-86500000D03*
D13*
X115000000Y-74000000D03*
D14*
X115000000Y-85400000D03*
X115000000Y-77100000D03*
D13*
X125000000Y-74000000D03*
D14*
X125000000Y-85400000D03*
X125000000Y-77100000D03*
D13*
X135000000Y-74000000D03*
D14*
X135000000Y-85400000D03*
X135000000Y-77100000D03*
D15*
X104000000Y-84080000D03*
D16*
X104000000Y-73920000D03*
D15*
X99920000Y-55000000D03*
D16*
X110080000Y-55000000D03*
D15*
X120000000Y-45000000D03*
D16*
X130160000Y-45000000D03*
D15*
X130160000Y-41000000D03*
D16*
X120000000Y-41000000D03*
D15*
X107500000Y-73920000D03*
D16*
X107500000Y-84080000D03*
D15*
X130080000Y-69000000D03*
D16*
X119920000Y-69000000D03*
D15*
X130000000Y-130000000D03*
D16*
X119840000Y-130000000D03*
D15*
X108000000Y-144080000D03*
D16*
X108000000Y-133920000D03*
D10*
X133600000Y-64050000D03*
X142400000Y-64050000D03*
D11*
X140500000Y-71050000D03*
X138000000Y-71050000D03*
X135500000Y-71050000D03*
D17*
X140600000Y-39300000D03*
X140600000Y-44000000D03*
X140600000Y-48700000D03*
X145400000Y-39300000D03*
X145400000Y-44000000D03*
X145400000Y-48700000D03*
D18*
X113800000Y-91500000D03*
X118500000Y-91500000D03*
X123200000Y-91500000D03*
D13*
X135000000Y-133000000D03*
D14*
X135000000Y-144400000D03*
X135000000Y-136100000D03*
D13*
X115000000Y-133000000D03*
D14*
X115000000Y-144400000D03*
X115000000Y-136100000D03*
D13*
X125000000Y-133000000D03*
D14*
X125000000Y-144400000D03*
X125000000Y-136100000D03*
D15*
X147000000Y-71920000D03*
D16*
X147000000Y-82080000D03*
D15*
X97000000Y-109500000D03*
D16*
X97000000Y-99340000D03*
D15*
X148000000Y-124080000D03*
D16*
X148000000Y-113920000D03*
D15*
X152000000Y-113920000D03*
D16*
X152000000Y-124080000D03*
D15*
X102500000Y-118420000D03*
D16*
X102500000Y-128580000D03*
D17*
X104600000Y-98300000D03*
X104600000Y-103000000D03*
X104600000Y-107700000D03*
X109400000Y-98300000D03*
X109400000Y-103000000D03*
X109400000Y-107700000D03*
D10*
X133600000Y-123050000D03*
X142400000Y-123050000D03*
D11*
X140500000Y-130050000D03*
X138000000Y-130050000D03*
X135500000Y-130050000D03*
D10*
X107600000Y-123050000D03*
X116400000Y-123050000D03*
D11*
X114500000Y-130050000D03*
X112000000Y-130050000D03*
X109500000Y-130050000D03*
D10*
X135600000Y-103050000D03*
X144400000Y-103050000D03*
D11*
X142500000Y-110050000D03*
X140000000Y-110050000D03*
X137500000Y-110050000D03*
D19*
X98000000Y-69000000D03*
D20*
X98000000Y-71540000D03*
X98000000Y-74080000D03*
X98000000Y-76620000D03*
X98000000Y-79160000D03*
X98000000Y-81700000D03*
D19*
X152000000Y-69000000D03*
D20*
X152000000Y-71540000D03*
X152000000Y-74080000D03*
X152000000Y-76620000D03*
X152000000Y-79160000D03*
X152000000Y-81700000D03*
D19*
X98000000Y-130000000D03*
D20*
X98000000Y-132540000D03*
X98000000Y-135080000D03*
X98000000Y-137620000D03*
X98000000Y-140160000D03*
X98000000Y-142700000D03*
D19*
X152000000Y-130000000D03*
D20*
X152000000Y-132540000D03*
X152000000Y-135080000D03*
X152000000Y-137620000D03*
X152000000Y-140160000D03*
X152000000Y-142700000D03*
D21*
X150500000Y-65340000D02*
X150500000Y-80200000D01*
X152080000Y-81780000D02*
X152000000Y-81700000D01*
X150500000Y-80200000D02*
X152000000Y-81700000D01*
X152000000Y-124080000D02*
X153199511Y-125279511D01*
X130160000Y-45000000D02*
X150500000Y-65340000D01*
X153199511Y-125279511D02*
X153199511Y-141500489D01*
X147000000Y-71920000D02*
X147000000Y-76700000D01*
X147000000Y-76700000D02*
X150500000Y-80200000D01*
X153199511Y-141500489D02*
X152000000Y-142700000D01*
X152000000Y-74080000D02*
X153199511Y-72880489D01*
X153199511Y-72880489D02*
X153199511Y-64140863D01*
X148000000Y-124080000D02*
X148000000Y-131080000D01*
X130160000Y-41101352D02*
X130160000Y-41000000D01*
X153199511Y-64140863D02*
X130160000Y-41101352D01*
X148000000Y-131080000D02*
X152000000Y-135080000D01*
X104310489Y-82930489D02*
X98000000Y-76620000D01*
X106350489Y-82930489D02*
X104310489Y-82930489D01*
X119920000Y-69000000D02*
X119920000Y-79580000D01*
X108580000Y-83000000D02*
X107500000Y-84080000D01*
X116500000Y-83000000D02*
X108580000Y-83000000D01*
X107500000Y-84080000D02*
X106350489Y-82930489D01*
X119920000Y-79580000D02*
X116500000Y-83000000D01*
X108000000Y-133920000D02*
X101700000Y-133920000D01*
X101700000Y-133920000D02*
X98000000Y-137620000D01*
X110750489Y-72299511D02*
X105620489Y-72299511D01*
X104000000Y-73920000D02*
X105620489Y-72299511D01*
X110750489Y-72299511D02*
X112000000Y-71050000D01*
X138000000Y-132550000D02*
X140500000Y-130050000D01*
X135000000Y-144400000D02*
X138000000Y-141400000D01*
X138000000Y-141400000D02*
X138000000Y-132550000D01*
X120000000Y-45000000D02*
X118550000Y-45000000D01*
X118550000Y-45000000D02*
X112500000Y-51050000D01*
X110000000Y-54920000D02*
X110080000Y-55000000D01*
X120000000Y-41000000D02*
X113500000Y-41000000D01*
X107500000Y-47000000D02*
X107500000Y-51050000D01*
X113500000Y-41000000D02*
X107500000Y-47000000D01*
X142500000Y-110050000D02*
X148130000Y-110050000D01*
X148130000Y-110050000D02*
X152000000Y-113920000D01*
X148000000Y-113920000D02*
X141370000Y-113920000D01*
X141370000Y-113920000D02*
X137500000Y-110050000D01*
X104000000Y-84080000D02*
X100380000Y-84080000D01*
X95500000Y-79200000D02*
X98000000Y-81700000D01*
X95500000Y-59420000D02*
X95500000Y-79200000D01*
X100380000Y-84080000D02*
X98000000Y-81700000D01*
X99920000Y-55000000D02*
X95500000Y-59420000D01*
X145400000Y-39300000D02*
X142799520Y-41900480D01*
X142799520Y-41900480D02*
X142799520Y-46500480D01*
X142799520Y-46500480D02*
X140600000Y-48700000D01*
X135000000Y-85400000D02*
X132400000Y-88000000D01*
X117300000Y-88000000D02*
X113800000Y-91500000D01*
X132400000Y-88000000D02*
X117300000Y-88000000D01*
X109734511Y-145814511D02*
X108000000Y-144080000D01*
X125000000Y-144400000D02*
X123585489Y-145814511D01*
X123585489Y-145814511D02*
X109734511Y-145814511D01*
X96800489Y-124119511D02*
X102500000Y-118420000D01*
X98000000Y-142700000D02*
X96800489Y-141500489D01*
X97000000Y-112920000D02*
X102500000Y-118420000D01*
X96800489Y-141500489D02*
X96800489Y-124119511D01*
X97000000Y-109500000D02*
X97000000Y-112920000D01*
X116400000Y-98300000D02*
X109400000Y-98300000D01*
X104600000Y-107700000D02*
X104600000Y-127600000D01*
X109400000Y-98300000D02*
X106799520Y-100900480D01*
X110500000Y-133500000D02*
X110500000Y-139900000D01*
X104600000Y-127600000D02*
X110500000Y-133500000D01*
X106799520Y-105500480D02*
X104600000Y-107700000D01*
X123200000Y-91500000D02*
X116400000Y-98300000D01*
X110500000Y-139900000D02*
X115000000Y-144400000D01*
X106799520Y-100900480D02*
X106799520Y-105500480D01*
X147000000Y-82080000D02*
X147000000Y-85235000D01*
X147000000Y-85235000D02*
X145735000Y-86500000D01*
X111265000Y-72735000D02*
X110080000Y-73920000D01*
X119100688Y-67500000D02*
X116000000Y-70600688D01*
X116000000Y-71500000D02*
X114765000Y-72735000D01*
X116000000Y-70600688D02*
X116000000Y-71500000D01*
X110080000Y-73920000D02*
X107500000Y-73920000D01*
X140500000Y-71050000D02*
X136950000Y-67500000D01*
X136950000Y-67500000D02*
X119100688Y-67500000D01*
X114765000Y-72735000D02*
X111265000Y-72735000D01*
X128800489Y-128800489D02*
X115749511Y-128800489D01*
X115749511Y-128800489D02*
X114500000Y-130050000D01*
X130000000Y-130000000D02*
X128800489Y-128800489D01*
G04 #@! TA.AperFunction,Conductor*
G36*
X154436500Y-37017381D02*
G01*
X154482619Y-37063500D01*
X154499500Y-37126500D01*
X154499500Y-145873500D01*
X154482619Y-145936500D01*
X154436500Y-145982619D01*
X154373500Y-145999500D01*
X135848107Y-145999500D01*
X135785679Y-145982948D01*
X135739653Y-145937639D01*
X135722123Y-145875479D01*
X135737692Y-145812799D01*
X135782270Y-145766068D01*
X135927740Y-145676925D01*
X136116073Y-145516073D01*
X136276925Y-145327740D01*
X136406334Y-145116563D01*
X136501115Y-144887742D01*
X136558934Y-144646911D01*
X136578366Y-144400000D01*
X136558934Y-144153089D01*
X136541386Y-144079999D01*
X136531380Y-144038323D01*
X136501690Y-143914653D01*
X136502939Y-143851039D01*
X136535111Y-143796147D01*
X138404387Y-141926871D01*
X138421251Y-141913362D01*
X138423076Y-141911418D01*
X138423080Y-141911416D01*
X138471606Y-141859739D01*
X138474328Y-141856930D01*
X138494927Y-141836333D01*
X138497648Y-141832823D01*
X138505346Y-141823809D01*
X138536972Y-141790133D01*
X138547303Y-141771339D01*
X138558159Y-141754814D01*
X138565904Y-141744829D01*
X138571304Y-141737868D01*
X138589652Y-141695465D01*
X138594877Y-141684803D01*
X138617122Y-141644340D01*
X138617124Y-141644337D01*
X138622458Y-141623558D01*
X138628856Y-141604869D01*
X138637380Y-141585176D01*
X138644609Y-141539521D01*
X138647010Y-141527932D01*
X138658500Y-141483188D01*
X138658500Y-141461741D01*
X138660051Y-141442030D01*
X138661956Y-141430000D01*
X138663406Y-141420848D01*
X138659058Y-141374859D01*
X138658500Y-141363004D01*
X138658500Y-137874000D01*
X150663455Y-137874000D01*
X150711177Y-138062451D01*
X150801580Y-138268548D01*
X150924678Y-138456962D01*
X151077096Y-138622533D01*
X151254697Y-138760766D01*
X151288734Y-138779186D01*
X151337005Y-138825503D01*
X151354764Y-138890000D01*
X151337005Y-138954497D01*
X151288734Y-139000814D01*
X151254697Y-139019233D01*
X151077096Y-139157466D01*
X150924678Y-139323037D01*
X150801580Y-139511451D01*
X150711177Y-139717548D01*
X150663455Y-139905999D01*
X150663456Y-139906000D01*
X151746000Y-139906000D01*
X151746000Y-137874000D01*
X150663455Y-137874000D01*
X138658500Y-137874000D01*
X138658500Y-132874950D01*
X138668091Y-132826732D01*
X138695402Y-132785857D01*
X140029044Y-131452214D01*
X140089741Y-131418553D01*
X140142265Y-131421272D01*
X140142751Y-131418361D01*
X140153045Y-131420078D01*
X140153049Y-131420080D01*
X140383288Y-131458500D01*
X140616709Y-131458500D01*
X140616712Y-131458500D01*
X140846951Y-131420080D01*
X141067727Y-131344287D01*
X141273017Y-131233190D01*
X141457220Y-131089818D01*
X141615314Y-130918083D01*
X141742984Y-130722669D01*
X141836749Y-130508907D01*
X141894051Y-130282626D01*
X141913327Y-130050000D01*
X141894051Y-129817374D01*
X141836749Y-129591093D01*
X141742984Y-129377331D01*
X141615314Y-129181917D01*
X141457220Y-129010182D01*
X141273017Y-128866810D01*
X141164506Y-128808087D01*
X141067726Y-128755712D01*
X140902852Y-128699111D01*
X140846951Y-128679920D01*
X140616712Y-128641500D01*
X140383288Y-128641500D01*
X140153049Y-128679920D01*
X140153046Y-128679920D01*
X140153046Y-128679921D01*
X139932273Y-128755712D01*
X139726984Y-128866809D01*
X139542779Y-129010182D01*
X139384683Y-129181920D01*
X139355482Y-129226616D01*
X139309969Y-129268514D01*
X139250000Y-129283700D01*
X139190031Y-129268514D01*
X139144518Y-129226616D01*
X139115316Y-129181920D01*
X139115315Y-129181919D01*
X139115314Y-129181917D01*
X138957220Y-129010182D01*
X138773017Y-128866810D01*
X138664506Y-128808087D01*
X138567726Y-128755712D01*
X138402852Y-128699111D01*
X138346951Y-128679920D01*
X138116712Y-128641500D01*
X137883288Y-128641500D01*
X137653049Y-128679920D01*
X137653046Y-128679920D01*
X137653046Y-128679921D01*
X137432273Y-128755712D01*
X137226984Y-128866809D01*
X137042779Y-129010182D01*
X136884685Y-129181918D01*
X136855183Y-129227074D01*
X136809669Y-129268972D01*
X136749699Y-129284157D01*
X136689730Y-129268970D01*
X136670392Y-129251167D01*
X136659202Y-129250007D01*
X135859210Y-130049999D01*
X135859210Y-130050000D01*
X136659203Y-130849991D01*
X136670392Y-130848831D01*
X136689730Y-130831029D01*
X136749699Y-130815842D01*
X136809669Y-130831028D01*
X136855182Y-130872924D01*
X136884686Y-130918083D01*
X137042780Y-131089818D01*
X137226983Y-131233190D01*
X137432273Y-131344287D01*
X137653049Y-131420080D01*
X137879193Y-131457816D01*
X137940874Y-131486795D01*
X137978444Y-131543656D01*
X137980909Y-131611764D01*
X137947546Y-131671192D01*
X137595611Y-132023127D01*
X137578742Y-132036643D01*
X137528394Y-132090257D01*
X137525644Y-132093095D01*
X137505070Y-132113670D01*
X137502343Y-132117185D01*
X137494650Y-132126191D01*
X137463027Y-132159868D01*
X137452690Y-132178668D01*
X137441844Y-132195179D01*
X137428695Y-132212131D01*
X137410350Y-132254524D01*
X137405130Y-132265179D01*
X137382876Y-132305660D01*
X137377542Y-132326435D01*
X137371139Y-132345135D01*
X137362620Y-132364820D01*
X137355393Y-132410452D01*
X137352986Y-132422073D01*
X137341500Y-132466811D01*
X137341500Y-132488259D01*
X137339949Y-132507970D01*
X137336594Y-132529152D01*
X137340941Y-132575138D01*
X137341500Y-132586996D01*
X137341500Y-141075050D01*
X137331909Y-141123268D01*
X137304597Y-141164142D01*
X135993112Y-142475627D01*
X135603853Y-142864886D01*
X135548959Y-142897059D01*
X135485344Y-142898309D01*
X135246911Y-142841066D01*
X135000000Y-142821634D01*
X134753088Y-142841066D01*
X134512256Y-142898885D01*
X134283438Y-142993665D01*
X134072255Y-143123078D01*
X133883926Y-143283926D01*
X133723078Y-143472255D01*
X133593665Y-143683438D01*
X133498885Y-143912256D01*
X133441066Y-144153088D01*
X133428867Y-144308088D01*
X133421634Y-144400000D01*
X133441065Y-144646910D01*
X133441066Y-144646911D01*
X133498885Y-144887743D01*
X133514029Y-144924303D01*
X133593666Y-145116563D01*
X133723075Y-145327740D01*
X133723076Y-145327742D01*
X133723078Y-145327744D01*
X133883926Y-145516073D01*
X134072255Y-145676921D01*
X134072260Y-145676925D01*
X134217729Y-145766068D01*
X134262308Y-145812799D01*
X134277877Y-145875479D01*
X134260347Y-145937639D01*
X134214321Y-145982948D01*
X134151893Y-145999500D01*
X125848107Y-145999500D01*
X125785679Y-145982948D01*
X125739653Y-145937639D01*
X125722123Y-145875479D01*
X125737692Y-145812799D01*
X125782270Y-145766068D01*
X125927740Y-145676925D01*
X126116073Y-145516073D01*
X126276925Y-145327740D01*
X126406334Y-145116563D01*
X126501115Y-144887742D01*
X126558934Y-144646911D01*
X126578366Y-144400000D01*
X126558934Y-144153089D01*
X126501115Y-143912258D01*
X126406334Y-143683437D01*
X126276925Y-143472260D01*
X126276921Y-143472255D01*
X126116073Y-143283926D01*
X125927744Y-143123078D01*
X125927742Y-143123076D01*
X125927740Y-143123075D01*
X125716563Y-142993666D01*
X125716561Y-142993665D01*
X125487743Y-142898885D01*
X125246911Y-142841066D01*
X125000000Y-142821634D01*
X124753088Y-142841066D01*
X124512256Y-142898885D01*
X124283438Y-142993665D01*
X124072255Y-143123078D01*
X123883926Y-143283926D01*
X123723078Y-143472255D01*
X123593665Y-143683438D01*
X123498885Y-143912256D01*
X123441066Y-144153088D01*
X123428867Y-144308088D01*
X123421634Y-144400000D01*
X123441065Y-144646910D01*
X123441066Y-144646911D01*
X123498309Y-144885344D01*
X123497059Y-144948959D01*
X123464886Y-145003853D01*
X123349634Y-145119106D01*
X123308756Y-145146420D01*
X123260538Y-145156011D01*
X116578567Y-145156011D01*
X116519171Y-145141133D01*
X116473802Y-145100013D01*
X116453174Y-145042361D01*
X116462158Y-144981793D01*
X116485972Y-144924300D01*
X116501115Y-144887742D01*
X116558934Y-144646911D01*
X116578366Y-144400000D01*
X116558934Y-144153089D01*
X116501115Y-143912258D01*
X116406334Y-143683437D01*
X116276925Y-143472260D01*
X116276921Y-143472255D01*
X116116073Y-143283926D01*
X115927744Y-143123078D01*
X115927742Y-143123076D01*
X115927740Y-143123075D01*
X115716563Y-142993666D01*
X115716561Y-142993665D01*
X115487743Y-142898885D01*
X115246911Y-142841066D01*
X115000000Y-142821634D01*
X114753088Y-142841066D01*
X114514654Y-142898309D01*
X114451038Y-142897059D01*
X114396145Y-142864885D01*
X111195405Y-139664145D01*
X111168091Y-139623268D01*
X111158500Y-139575050D01*
X111158500Y-136100000D01*
X113421634Y-136100000D01*
X113441066Y-136346911D01*
X113498885Y-136587742D01*
X113593666Y-136816563D01*
X113723075Y-137027740D01*
X113723076Y-137027742D01*
X113723078Y-137027744D01*
X113883926Y-137216073D01*
X114072255Y-137376921D01*
X114072260Y-137376925D01*
X114283437Y-137506334D01*
X114512258Y-137601115D01*
X114753089Y-137658934D01*
X115000000Y-137678366D01*
X115246911Y-137658934D01*
X115487742Y-137601115D01*
X115716563Y-137506334D01*
X115927740Y-137376925D01*
X116116073Y-137216073D01*
X116276925Y-137027740D01*
X116406334Y-136816563D01*
X116501115Y-136587742D01*
X116558934Y-136346911D01*
X116578366Y-136100000D01*
X123421634Y-136100000D01*
X123441066Y-136346911D01*
X123498885Y-136587742D01*
X123593666Y-136816563D01*
X123723075Y-137027740D01*
X123723076Y-137027742D01*
X123723078Y-137027744D01*
X123883926Y-137216073D01*
X124072255Y-137376921D01*
X124072260Y-137376925D01*
X124283437Y-137506334D01*
X124512258Y-137601115D01*
X124753089Y-137658934D01*
X125000000Y-137678366D01*
X125246911Y-137658934D01*
X125487742Y-137601115D01*
X125716563Y-137506334D01*
X125927740Y-137376925D01*
X126116073Y-137216073D01*
X126276925Y-137027740D01*
X126406334Y-136816563D01*
X126501115Y-136587742D01*
X126558934Y-136346911D01*
X126578366Y-136100000D01*
X133421634Y-136100000D01*
X133441066Y-136346911D01*
X133498885Y-136587742D01*
X133593666Y-136816563D01*
X133723075Y-137027740D01*
X133723076Y-137027742D01*
X133723078Y-137027744D01*
X133883926Y-137216073D01*
X134072255Y-137376921D01*
X134072260Y-137376925D01*
X134283437Y-137506334D01*
X134512258Y-137601115D01*
X134753089Y-137658934D01*
X135000000Y-137678366D01*
X135246911Y-137658934D01*
X135487742Y-137601115D01*
X135716563Y-137506334D01*
X135927740Y-137376925D01*
X136116073Y-137216073D01*
X136276925Y-137027740D01*
X136406334Y-136816563D01*
X136501115Y-136587742D01*
X136558934Y-136346911D01*
X136578366Y-136100000D01*
X136558934Y-135853089D01*
X136501115Y-135612258D01*
X136406334Y-135383437D01*
X136276925Y-135172260D01*
X136261572Y-135154284D01*
X136116073Y-134983926D01*
X135927744Y-134823078D01*
X135927742Y-134823076D01*
X135927740Y-134823075D01*
X135716563Y-134693666D01*
X135648345Y-134665409D01*
X135594627Y-134623061D01*
X135570951Y-134558886D01*
X135584296Y-134491797D01*
X135630728Y-134441567D01*
X135696563Y-134423000D01*
X136013589Y-134423000D01*
X136074093Y-134416494D01*
X136210962Y-134365445D01*
X136327904Y-134277904D01*
X136415445Y-134160962D01*
X136466494Y-134024093D01*
X136473000Y-133963589D01*
X136473000Y-133254000D01*
X133527000Y-133254000D01*
X133527000Y-133963589D01*
X133533505Y-134024093D01*
X133584554Y-134160962D01*
X133672095Y-134277904D01*
X133789037Y-134365445D01*
X133925906Y-134416494D01*
X133986411Y-134423000D01*
X134303437Y-134423000D01*
X134369272Y-134441567D01*
X134415704Y-134491797D01*
X134429049Y-134558886D01*
X134405373Y-134623061D01*
X134351655Y-134665409D01*
X134283438Y-134693665D01*
X134072255Y-134823078D01*
X133883926Y-134983926D01*
X133723078Y-135172255D01*
X133593665Y-135383438D01*
X133498885Y-135612256D01*
X133441066Y-135853088D01*
X133441066Y-135853089D01*
X133421634Y-136100000D01*
X126578366Y-136100000D01*
X126558934Y-135853089D01*
X126501115Y-135612258D01*
X126406334Y-135383437D01*
X126276925Y-135172260D01*
X126261572Y-135154284D01*
X126116073Y-134983926D01*
X125927744Y-134823078D01*
X125927742Y-134823076D01*
X125927740Y-134823075D01*
X125716563Y-134693666D01*
X125648345Y-134665409D01*
X125594627Y-134623061D01*
X125570951Y-134558886D01*
X125584296Y-134491797D01*
X125630728Y-134441567D01*
X125696563Y-134423000D01*
X126013589Y-134423000D01*
X126074093Y-134416494D01*
X126210962Y-134365445D01*
X126327904Y-134277904D01*
X126415445Y-134160962D01*
X126466494Y-134024093D01*
X126473000Y-133963589D01*
X126473000Y-133254000D01*
X123527000Y-133254000D01*
X123527000Y-133963589D01*
X123533505Y-134024093D01*
X123584554Y-134160962D01*
X123672095Y-134277904D01*
X123789037Y-134365445D01*
X123925906Y-134416494D01*
X123986411Y-134423000D01*
X124303437Y-134423000D01*
X124369272Y-134441567D01*
X124415704Y-134491797D01*
X124429049Y-134558886D01*
X124405373Y-134623061D01*
X124351655Y-134665409D01*
X124283438Y-134693665D01*
X124072255Y-134823078D01*
X123883926Y-134983926D01*
X123723078Y-135172255D01*
X123593665Y-135383438D01*
X123498885Y-135612256D01*
X123441066Y-135853088D01*
X123441066Y-135853089D01*
X123421634Y-136100000D01*
X116578366Y-136100000D01*
X116558934Y-135853089D01*
X116501115Y-135612258D01*
X116406334Y-135383437D01*
X116276925Y-135172260D01*
X116261572Y-135154284D01*
X116116073Y-134983926D01*
X115927744Y-134823078D01*
X115927742Y-134823076D01*
X115927740Y-134823075D01*
X115716563Y-134693666D01*
X115648345Y-134665409D01*
X115594627Y-134623061D01*
X115570951Y-134558886D01*
X115584296Y-134491797D01*
X115630728Y-134441567D01*
X115696563Y-134423000D01*
X116013589Y-134423000D01*
X116074093Y-134416494D01*
X116210962Y-134365445D01*
X116327904Y-134277904D01*
X116415445Y-134160962D01*
X116466494Y-134024093D01*
X116473000Y-133963589D01*
X116473000Y-133254000D01*
X113527000Y-133254000D01*
X113527000Y-133963589D01*
X113533505Y-134024093D01*
X113584554Y-134160962D01*
X113672095Y-134277904D01*
X113789037Y-134365445D01*
X113925906Y-134416494D01*
X113986411Y-134423000D01*
X114303437Y-134423000D01*
X114369272Y-134441567D01*
X114415704Y-134491797D01*
X114429049Y-134558886D01*
X114405373Y-134623061D01*
X114351655Y-134665409D01*
X114283438Y-134693665D01*
X114072255Y-134823078D01*
X113883926Y-134983926D01*
X113723078Y-135172255D01*
X113593665Y-135383438D01*
X113498885Y-135612256D01*
X113441066Y-135853088D01*
X113441066Y-135853089D01*
X113421634Y-136100000D01*
X111158500Y-136100000D01*
X111158500Y-133586611D01*
X111160871Y-133565125D01*
X111160787Y-133562465D01*
X111160788Y-133562463D01*
X111158561Y-133491630D01*
X111158500Y-133487673D01*
X111158500Y-133458572D01*
X111158500Y-133458568D01*
X111157943Y-133454161D01*
X111157012Y-133442330D01*
X111156422Y-133423546D01*
X111155562Y-133396169D01*
X111149578Y-133375574D01*
X111145570Y-133356217D01*
X111145255Y-133353724D01*
X111142882Y-133334936D01*
X111125874Y-133291978D01*
X111122030Y-133280751D01*
X111109145Y-133236400D01*
X111098224Y-133217935D01*
X111089531Y-133200189D01*
X111081635Y-133180244D01*
X111054473Y-133142860D01*
X111047964Y-133132950D01*
X111024453Y-133093193D01*
X111009288Y-133078028D01*
X110996447Y-133062994D01*
X110983840Y-133045642D01*
X110948246Y-133016196D01*
X110939467Y-133008207D01*
X109594868Y-131663608D01*
X109561505Y-131604180D01*
X109563970Y-131536072D01*
X109601540Y-131479211D01*
X109663224Y-131450231D01*
X109846830Y-131419592D01*
X110067525Y-131343828D01*
X110272744Y-131232770D01*
X110301317Y-131210529D01*
X110301317Y-131210528D01*
X109500000Y-130409210D01*
X109140790Y-130050000D01*
X109859210Y-130050000D01*
X110659203Y-130849991D01*
X110670392Y-130848831D01*
X110689730Y-130831029D01*
X110749699Y-130815842D01*
X110809669Y-130831028D01*
X110855182Y-130872924D01*
X110884686Y-130918083D01*
X111042780Y-131089818D01*
X111226983Y-131233190D01*
X111432273Y-131344287D01*
X111653049Y-131420080D01*
X111883288Y-131458500D01*
X112116709Y-131458500D01*
X112116712Y-131458500D01*
X112346951Y-131420080D01*
X112567727Y-131344287D01*
X112773017Y-131233190D01*
X112957220Y-131089818D01*
X113115314Y-130918083D01*
X113144517Y-130873383D01*
X113190031Y-130831485D01*
X113250000Y-130816299D01*
X113309969Y-130831485D01*
X113355482Y-130873383D01*
X113384686Y-130918083D01*
X113542780Y-131089818D01*
X113726983Y-131233190D01*
X113875378Y-131313497D01*
X113941455Y-131349256D01*
X113940791Y-131350482D01*
X113981445Y-131376888D01*
X114011009Y-131430498D01*
X114011816Y-131491713D01*
X113983676Y-131546084D01*
X113933231Y-131580773D01*
X113789036Y-131634554D01*
X113672095Y-131722095D01*
X113584554Y-131839037D01*
X113533505Y-131975906D01*
X113527000Y-132036411D01*
X113527000Y-132746000D01*
X116473000Y-132746000D01*
X123527000Y-132746000D01*
X124746000Y-132746000D01*
X124746000Y-131577000D01*
X125254000Y-131577000D01*
X125254000Y-132746000D01*
X126473000Y-132746000D01*
X133527000Y-132746000D01*
X136473000Y-132746000D01*
X136473000Y-132036411D01*
X136466494Y-131975906D01*
X136415445Y-131839037D01*
X136327904Y-131722095D01*
X136210962Y-131634554D01*
X136066032Y-131580498D01*
X136015586Y-131545808D01*
X135987446Y-131491437D01*
X135988254Y-131430220D01*
X136017820Y-131376611D01*
X136058942Y-131349902D01*
X136058344Y-131348797D01*
X136272744Y-131232770D01*
X136301317Y-131210529D01*
X136301317Y-131210528D01*
X135500000Y-130409210D01*
X135499999Y-130409210D01*
X134698680Y-131210528D01*
X134698681Y-131210529D01*
X134727254Y-131232769D01*
X134925744Y-131340186D01*
X134973479Y-131385610D01*
X134991758Y-131448917D01*
X134975582Y-131512793D01*
X134929375Y-131559770D01*
X134865775Y-131577000D01*
X133986411Y-131577000D01*
X133925906Y-131583505D01*
X133789037Y-131634554D01*
X133672095Y-131722095D01*
X133584554Y-131839037D01*
X133533505Y-131975906D01*
X133527000Y-132036411D01*
X133527000Y-132746000D01*
X126473000Y-132746000D01*
X126473000Y-132036411D01*
X126466494Y-131975906D01*
X126415445Y-131839037D01*
X126327904Y-131722095D01*
X126210962Y-131634554D01*
X126074093Y-131583505D01*
X126013589Y-131577000D01*
X125254000Y-131577000D01*
X124746000Y-131577000D01*
X123986411Y-131577000D01*
X123925906Y-131583505D01*
X123789037Y-131634554D01*
X123672095Y-131722095D01*
X123584554Y-131839037D01*
X123533505Y-131975906D01*
X123527000Y-132036411D01*
X123527000Y-132746000D01*
X116473000Y-132746000D01*
X116473000Y-132036411D01*
X116466494Y-131975906D01*
X116415445Y-131839037D01*
X116327904Y-131722095D01*
X116210962Y-131634554D01*
X116074093Y-131583505D01*
X116013589Y-131577000D01*
X115135274Y-131577000D01*
X115071674Y-131559770D01*
X115025467Y-131512793D01*
X115009291Y-131448917D01*
X115027570Y-131385610D01*
X115075305Y-131340186D01*
X115124622Y-131313497D01*
X115273017Y-131233190D01*
X115457220Y-131089818D01*
X115615314Y-130918083D01*
X115742984Y-130722669D01*
X115836749Y-130508907D01*
X115894051Y-130282626D01*
X115913327Y-130050000D01*
X115894051Y-129817374D01*
X115865117Y-129703117D01*
X115865782Y-129638738D01*
X115898167Y-129583091D01*
X115985367Y-129495893D01*
X116026244Y-129468580D01*
X116074461Y-129458989D01*
X118466098Y-129458989D01*
X118521826Y-129471983D01*
X118566060Y-129508285D01*
X118589677Y-129560408D01*
X118587805Y-129617600D01*
X118546457Y-129771912D01*
X118526502Y-129999999D01*
X118546457Y-130228087D01*
X118605715Y-130449243D01*
X118702477Y-130656750D01*
X118833804Y-130844303D01*
X118995696Y-131006195D01*
X118995699Y-131006197D01*
X118995700Y-131006198D01*
X119008091Y-131014874D01*
X119183249Y-131137522D01*
X119390756Y-131234284D01*
X119430977Y-131245061D01*
X119611913Y-131293543D01*
X119840000Y-131313498D01*
X120068087Y-131293543D01*
X120289243Y-131234284D01*
X120496749Y-131137523D01*
X120684300Y-131006198D01*
X120846198Y-130844300D01*
X120977523Y-130656749D01*
X121074284Y-130449243D01*
X121133543Y-130228087D01*
X121153498Y-130000000D01*
X121133543Y-129771913D01*
X121092195Y-129617600D01*
X121090323Y-129560408D01*
X121113940Y-129508285D01*
X121158174Y-129471983D01*
X121213902Y-129458989D01*
X128475539Y-129458989D01*
X128523757Y-129468580D01*
X128564634Y-129495894D01*
X128683376Y-129614636D01*
X128715988Y-129671119D01*
X128715988Y-129736341D01*
X128706457Y-129771910D01*
X128686502Y-130000000D01*
X128706457Y-130228087D01*
X128765715Y-130449243D01*
X128862477Y-130656750D01*
X128993804Y-130844303D01*
X129155696Y-131006195D01*
X129155699Y-131006197D01*
X129155700Y-131006198D01*
X129168091Y-131014874D01*
X129343249Y-131137522D01*
X129550756Y-131234284D01*
X129590977Y-131245061D01*
X129771913Y-131293543D01*
X130000000Y-131313498D01*
X130228087Y-131293543D01*
X130449243Y-131234284D01*
X130656749Y-131137523D01*
X130844300Y-131006198D01*
X131006198Y-130844300D01*
X131137523Y-130656749D01*
X131234284Y-130449243D01*
X131293543Y-130228087D01*
X131309124Y-130049999D01*
X134087174Y-130049999D01*
X134106444Y-130282548D01*
X134163723Y-130508739D01*
X134257458Y-130722434D01*
X134340795Y-130849991D01*
X134340796Y-130849991D01*
X135140789Y-130050000D01*
X135140789Y-130049999D01*
X134340796Y-129250006D01*
X134257456Y-129377571D01*
X134163723Y-129591260D01*
X134106444Y-129817451D01*
X134087174Y-130049999D01*
X131309124Y-130049999D01*
X131313498Y-130000000D01*
X131293543Y-129771913D01*
X131245092Y-129591093D01*
X131234284Y-129550756D01*
X131137522Y-129343249D01*
X131006195Y-129155696D01*
X130844303Y-128993804D01*
X130695300Y-128889470D01*
X134698680Y-128889470D01*
X135499999Y-129690789D01*
X135500000Y-129690789D01*
X136301318Y-128889470D01*
X136301317Y-128889469D01*
X136272745Y-128867230D01*
X136067525Y-128756171D01*
X135846830Y-128680407D01*
X135616668Y-128642000D01*
X135383332Y-128642000D01*
X135153169Y-128680407D01*
X134932474Y-128756171D01*
X134727255Y-128867230D01*
X134698681Y-128889469D01*
X134698680Y-128889470D01*
X130695300Y-128889470D01*
X130656750Y-128862477D01*
X130449243Y-128765715D01*
X130228087Y-128706457D01*
X130000000Y-128686502D01*
X129771910Y-128706457D01*
X129736341Y-128715988D01*
X129671119Y-128715988D01*
X129614636Y-128683376D01*
X129327363Y-128396103D01*
X129313845Y-128379231D01*
X129260231Y-128328884D01*
X129257419Y-128326159D01*
X129236822Y-128305562D01*
X129233317Y-128302843D01*
X129224292Y-128295135D01*
X129190620Y-128263515D01*
X129171827Y-128253183D01*
X129155306Y-128242331D01*
X129138359Y-128229186D01*
X129096240Y-128210959D01*
X129095948Y-128210832D01*
X129085307Y-128205619D01*
X129044826Y-128183365D01*
X129044823Y-128183364D01*
X129024057Y-128178032D01*
X129005353Y-128171628D01*
X128985667Y-128163109D01*
X128940041Y-128155883D01*
X128928417Y-128153476D01*
X128911669Y-128149176D01*
X128883677Y-128141989D01*
X128883676Y-128141989D01*
X128862230Y-128141989D01*
X128842521Y-128140438D01*
X128821337Y-128137083D01*
X128821336Y-128137083D01*
X128801259Y-128138980D01*
X128775348Y-128141430D01*
X128763493Y-128141989D01*
X115836122Y-128141989D01*
X115814636Y-128139617D01*
X115741142Y-128141927D01*
X115737184Y-128141989D01*
X115708079Y-128141989D01*
X115703671Y-128142545D01*
X115691855Y-128143475D01*
X115645677Y-128144926D01*
X115625084Y-128150909D01*
X115605733Y-128154917D01*
X115584444Y-128157607D01*
X115541494Y-128174612D01*
X115530267Y-128178456D01*
X115485909Y-128191343D01*
X115467445Y-128202263D01*
X115449695Y-128210959D01*
X115429753Y-128218854D01*
X115392381Y-128246006D01*
X115382467Y-128252518D01*
X115342706Y-128276035D01*
X115327540Y-128291200D01*
X115312514Y-128304033D01*
X115295155Y-128316645D01*
X115265702Y-128352247D01*
X115257715Y-128361024D01*
X114970956Y-128647782D01*
X114910270Y-128681442D01*
X114857734Y-128678730D01*
X114857249Y-128681639D01*
X114846954Y-128679921D01*
X114846951Y-128679920D01*
X114616712Y-128641500D01*
X114383288Y-128641500D01*
X114153049Y-128679920D01*
X114153046Y-128679920D01*
X114153046Y-128679921D01*
X113932273Y-128755712D01*
X113726984Y-128866809D01*
X113542779Y-129010182D01*
X113384683Y-129181920D01*
X113355482Y-129226616D01*
X113309969Y-129268514D01*
X113250000Y-129283700D01*
X113190031Y-129268514D01*
X113144518Y-129226616D01*
X113115316Y-129181920D01*
X113115315Y-129181919D01*
X113115314Y-129181917D01*
X112957220Y-129010182D01*
X112773017Y-128866810D01*
X112664506Y-128808087D01*
X112567726Y-128755712D01*
X112402852Y-128699111D01*
X112346951Y-128679920D01*
X112116712Y-128641500D01*
X111883288Y-128641500D01*
X111653049Y-128679920D01*
X111653046Y-128679920D01*
X111653046Y-128679921D01*
X111432273Y-128755712D01*
X111226984Y-128866809D01*
X111042779Y-129010182D01*
X110884685Y-129181918D01*
X110855183Y-129227074D01*
X110809669Y-129268972D01*
X110749699Y-129284157D01*
X110689730Y-129268970D01*
X110670392Y-129251167D01*
X110659202Y-129250007D01*
X109859210Y-130049999D01*
X109859210Y-130050000D01*
X109140790Y-130050000D01*
X108340796Y-129250006D01*
X108257456Y-129377571D01*
X108163723Y-129591260D01*
X108106444Y-129817451D01*
X108101517Y-129876904D01*
X108076172Y-129942857D01*
X108019313Y-129984799D01*
X107948816Y-129989541D01*
X107886852Y-129955592D01*
X106820730Y-128889470D01*
X108698680Y-128889470D01*
X109499999Y-129690789D01*
X109500000Y-129690789D01*
X110301318Y-128889470D01*
X110301317Y-128889469D01*
X110272745Y-128867230D01*
X110067525Y-128756171D01*
X109846830Y-128680407D01*
X109616668Y-128642000D01*
X109383332Y-128642000D01*
X109153169Y-128680407D01*
X108932474Y-128756171D01*
X108727255Y-128867230D01*
X108698681Y-128889469D01*
X108698680Y-128889470D01*
X106820730Y-128889470D01*
X105295405Y-127364145D01*
X105268091Y-127323268D01*
X105258500Y-127275050D01*
X105258500Y-124475633D01*
X105274857Y-124413549D01*
X105319681Y-124367585D01*
X105381333Y-124349673D01*
X105443809Y-124364464D01*
X105490885Y-124408119D01*
X105566565Y-124527372D01*
X105767766Y-124770582D01*
X105997860Y-124986654D01*
X106173752Y-125114447D01*
X106253221Y-125172184D01*
X106529821Y-125324247D01*
X106823298Y-125440443D01*
X106983804Y-125481653D01*
X107129024Y-125518940D01*
X107442176Y-125558500D01*
X107442179Y-125558500D01*
X107757821Y-125558500D01*
X107757824Y-125558500D01*
X108070975Y-125518940D01*
X108084895Y-125515366D01*
X108376702Y-125440443D01*
X108670179Y-125324247D01*
X108946779Y-125172184D01*
X109202140Y-124986654D01*
X109432233Y-124770582D01*
X109633432Y-124527375D01*
X109802562Y-124260869D01*
X109936956Y-123975266D01*
X110034495Y-123675072D01*
X110093641Y-123365020D01*
X110113460Y-123050000D01*
X113886539Y-123050000D01*
X113906358Y-123365018D01*
X113965504Y-123675071D01*
X114063044Y-123975266D01*
X114197438Y-124260869D01*
X114366565Y-124527372D01*
X114567766Y-124770582D01*
X114797860Y-124986654D01*
X114973752Y-125114447D01*
X115053221Y-125172184D01*
X115329821Y-125324247D01*
X115623298Y-125440443D01*
X115783804Y-125481653D01*
X115929024Y-125518940D01*
X116242176Y-125558500D01*
X116242179Y-125558500D01*
X116557821Y-125558500D01*
X116557824Y-125558500D01*
X116870975Y-125518940D01*
X116884895Y-125515366D01*
X117176702Y-125440443D01*
X117470179Y-125324247D01*
X117746779Y-125172184D01*
X118002140Y-124986654D01*
X118232233Y-124770582D01*
X118433432Y-124527375D01*
X118602562Y-124260869D01*
X118736956Y-123975266D01*
X118834495Y-123675072D01*
X118893641Y-123365020D01*
X118913460Y-123050000D01*
X131086539Y-123050000D01*
X131106358Y-123365018D01*
X131165504Y-123675071D01*
X131263044Y-123975266D01*
X131397438Y-124260869D01*
X131566565Y-124527372D01*
X131767766Y-124770582D01*
X131997860Y-124986654D01*
X132173752Y-125114447D01*
X132253221Y-125172184D01*
X132529821Y-125324247D01*
X132823298Y-125440443D01*
X132983804Y-125481653D01*
X133129024Y-125518940D01*
X133442176Y-125558500D01*
X133442179Y-125558500D01*
X133757821Y-125558500D01*
X133757824Y-125558500D01*
X134070975Y-125518940D01*
X134084895Y-125515366D01*
X134376702Y-125440443D01*
X134670179Y-125324247D01*
X134946779Y-125172184D01*
X135202140Y-124986654D01*
X135432233Y-124770582D01*
X135633432Y-124527375D01*
X135802562Y-124260869D01*
X135936956Y-123975266D01*
X136034495Y-123675072D01*
X136093641Y-123365020D01*
X136113460Y-123050000D01*
X139886539Y-123050000D01*
X139906358Y-123365018D01*
X139965504Y-123675071D01*
X140063044Y-123975266D01*
X140197438Y-124260869D01*
X140366565Y-124527372D01*
X140567766Y-124770582D01*
X140797860Y-124986654D01*
X140973752Y-125114447D01*
X141053221Y-125172184D01*
X141329821Y-125324247D01*
X141623298Y-125440443D01*
X141783804Y-125481653D01*
X141929024Y-125518940D01*
X142242176Y-125558500D01*
X142242179Y-125558500D01*
X142557821Y-125558500D01*
X142557824Y-125558500D01*
X142870975Y-125518940D01*
X142884895Y-125515366D01*
X143176702Y-125440443D01*
X143470179Y-125324247D01*
X143746779Y-125172184D01*
X144002140Y-124986654D01*
X144232233Y-124770582D01*
X144433432Y-124527375D01*
X144602562Y-124260869D01*
X144687672Y-124080000D01*
X146686502Y-124080000D01*
X146702326Y-124260869D01*
X146706457Y-124308087D01*
X146765715Y-124529243D01*
X146862477Y-124736750D01*
X146993804Y-124924303D01*
X147155696Y-125086195D01*
X147155699Y-125086197D01*
X147155700Y-125086198D01*
X147287771Y-125178676D01*
X147327263Y-125223708D01*
X147341500Y-125281888D01*
X147341500Y-130993389D01*
X147339128Y-131014874D01*
X147341438Y-131088369D01*
X147341500Y-131092327D01*
X147341500Y-131121436D01*
X147342055Y-131125832D01*
X147342986Y-131137656D01*
X147344437Y-131183831D01*
X147350421Y-131204427D01*
X147354429Y-131223782D01*
X147357117Y-131245061D01*
X147374124Y-131288017D01*
X147377967Y-131299244D01*
X147390854Y-131343600D01*
X147401770Y-131362058D01*
X147410467Y-131379810D01*
X147418364Y-131399756D01*
X147445514Y-131437123D01*
X147452030Y-131447042D01*
X147458807Y-131458500D01*
X147475549Y-131486810D01*
X147490710Y-131501971D01*
X147503550Y-131517004D01*
X147516157Y-131534355D01*
X147516158Y-131534356D01*
X147516159Y-131534357D01*
X147527400Y-131543656D01*
X147551752Y-131563802D01*
X147560532Y-131571792D01*
X149121690Y-133132950D01*
X150642988Y-134654247D01*
X150675372Y-134709892D01*
X150676038Y-134774271D01*
X150659213Y-134840712D01*
X150655436Y-134855632D01*
X150636844Y-135080000D01*
X150655436Y-135304368D01*
X150655436Y-135304371D01*
X150655437Y-135304372D01*
X150710702Y-135522611D01*
X150801139Y-135728790D01*
X150924278Y-135917268D01*
X151076762Y-136082908D01*
X151254422Y-136221188D01*
X151254424Y-136221189D01*
X151288205Y-136239470D01*
X151336477Y-136285785D01*
X151354237Y-136350282D01*
X151336479Y-136414779D01*
X151288209Y-136461096D01*
X151254702Y-136479229D01*
X151077096Y-136617466D01*
X150924678Y-136783037D01*
X150801580Y-136971451D01*
X150711177Y-137177548D01*
X150663455Y-137365999D01*
X150663456Y-137366000D01*
X152128000Y-137366000D01*
X152191000Y-137382881D01*
X152237119Y-137429000D01*
X152254000Y-137492000D01*
X152254000Y-140288000D01*
X152237119Y-140351000D01*
X152191000Y-140397119D01*
X152128000Y-140414000D01*
X150663455Y-140414000D01*
X150711177Y-140602451D01*
X150801580Y-140808548D01*
X150924678Y-140996962D01*
X151077096Y-141162533D01*
X151254702Y-141300769D01*
X151288207Y-141318902D01*
X151336478Y-141365218D01*
X151354237Y-141429715D01*
X151336478Y-141494212D01*
X151288207Y-141540528D01*
X151254423Y-141558811D01*
X151076762Y-141697091D01*
X150924278Y-141862731D01*
X150801139Y-142051209D01*
X150710702Y-142257388D01*
X150676039Y-142394272D01*
X150655436Y-142475632D01*
X150636844Y-142700000D01*
X150655436Y-142924368D01*
X150655436Y-142924371D01*
X150655437Y-142924372D01*
X150710702Y-143142611D01*
X150801139Y-143348790D01*
X150924278Y-143537268D01*
X151076762Y-143702908D01*
X151196552Y-143796145D01*
X151254424Y-143841189D01*
X151452426Y-143948342D01*
X151665365Y-144021444D01*
X151887431Y-144058500D01*
X152112566Y-144058500D01*
X152112569Y-144058500D01*
X152334635Y-144021444D01*
X152547574Y-143948342D01*
X152745576Y-143841189D01*
X152923240Y-143702906D01*
X153075722Y-143537268D01*
X153198860Y-143348791D01*
X153289296Y-143142616D01*
X153344564Y-142924368D01*
X153363156Y-142700000D01*
X153344564Y-142475632D01*
X153323961Y-142394272D01*
X153324626Y-142329894D01*
X153357008Y-142274250D01*
X153603898Y-142027360D01*
X153620762Y-142013851D01*
X153622587Y-142011907D01*
X153622591Y-142011905D01*
X153671117Y-141960228D01*
X153673839Y-141957419D01*
X153694438Y-141936822D01*
X153697159Y-141933312D01*
X153704857Y-141924298D01*
X153736483Y-141890622D01*
X153746814Y-141871828D01*
X153757670Y-141855303D01*
X153770815Y-141838357D01*
X153789163Y-141795954D01*
X153794388Y-141785292D01*
X153816633Y-141744829D01*
X153816635Y-141744826D01*
X153821969Y-141724047D01*
X153828367Y-141705358D01*
X153836891Y-141685665D01*
X153844120Y-141640010D01*
X153846521Y-141628421D01*
X153858011Y-141583677D01*
X153858011Y-141562230D01*
X153859562Y-141542519D01*
X153859832Y-141540814D01*
X153862917Y-141521337D01*
X153858569Y-141475348D01*
X153858011Y-141463493D01*
X153858011Y-125366125D01*
X153860383Y-125344636D01*
X153860299Y-125341976D01*
X153860300Y-125341974D01*
X153858073Y-125271123D01*
X153858011Y-125267165D01*
X153858011Y-125238086D01*
X153858011Y-125238079D01*
X153857454Y-125233673D01*
X153856523Y-125221846D01*
X153855073Y-125175680D01*
X153849089Y-125155085D01*
X153845081Y-125135728D01*
X153842393Y-125114447D01*
X153825385Y-125071489D01*
X153821541Y-125060262D01*
X153808656Y-125015911D01*
X153797735Y-124997446D01*
X153789042Y-124979700D01*
X153781146Y-124959755D01*
X153753984Y-124922371D01*
X153747475Y-124912461D01*
X153723964Y-124872704D01*
X153708799Y-124857539D01*
X153695958Y-124842505D01*
X153683351Y-124825153D01*
X153647757Y-124795707D01*
X153638978Y-124787718D01*
X153316623Y-124465363D01*
X153284011Y-124408878D01*
X153284012Y-124343654D01*
X153293543Y-124308087D01*
X153313498Y-124080000D01*
X153293543Y-123851913D01*
X153234284Y-123630757D01*
X153137523Y-123423251D01*
X153006198Y-123235700D01*
X153006197Y-123235699D01*
X153006195Y-123235696D01*
X152844303Y-123073804D01*
X152656750Y-122942477D01*
X152449243Y-122845715D01*
X152228087Y-122786457D01*
X152000000Y-122766502D01*
X151771912Y-122786457D01*
X151550756Y-122845715D01*
X151343249Y-122942477D01*
X151155696Y-123073804D01*
X150993804Y-123235696D01*
X150862477Y-123423249D01*
X150765715Y-123630756D01*
X150706457Y-123851912D01*
X150696888Y-123961281D01*
X150686502Y-124080000D01*
X150702326Y-124260869D01*
X150706457Y-124308087D01*
X150765715Y-124529243D01*
X150862477Y-124736750D01*
X150993804Y-124924303D01*
X151155696Y-125086195D01*
X151343249Y-125217522D01*
X151550756Y-125314284D01*
X151587939Y-125324247D01*
X151771913Y-125373543D01*
X152000000Y-125393498D01*
X152228087Y-125373543D01*
X152263655Y-125364011D01*
X152328878Y-125364011D01*
X152385363Y-125396623D01*
X152504106Y-125515366D01*
X152531420Y-125556243D01*
X152541011Y-125604461D01*
X152541011Y-128515500D01*
X152524130Y-128578500D01*
X152478011Y-128624619D01*
X152415011Y-128641500D01*
X151101362Y-128641500D01*
X151040799Y-128648011D01*
X150903794Y-128699111D01*
X150786738Y-128786738D01*
X150699111Y-128903794D01*
X150665540Y-128993802D01*
X150648011Y-129040799D01*
X150641500Y-129101362D01*
X150641500Y-130898638D01*
X150643590Y-130918083D01*
X150648011Y-130959200D01*
X150699111Y-131096205D01*
X150786738Y-131213261D01*
X150903794Y-131300888D01*
X150903795Y-131300888D01*
X150903796Y-131300889D01*
X151018809Y-131343787D01*
X151069140Y-131378348D01*
X151097315Y-131432519D01*
X151096712Y-131493574D01*
X151067475Y-131547178D01*
X150924281Y-131702728D01*
X150801139Y-131891209D01*
X150710702Y-132097388D01*
X150668212Y-132265179D01*
X150655436Y-132315632D01*
X150651360Y-132364820D01*
X150640499Y-132495885D01*
X150615155Y-132561839D01*
X150558295Y-132603781D01*
X150487799Y-132608523D01*
X150425834Y-132574574D01*
X148695405Y-130844145D01*
X148668091Y-130803268D01*
X148658500Y-130755050D01*
X148658500Y-125281888D01*
X148672737Y-125223708D01*
X148712228Y-125178676D01*
X148844300Y-125086198D01*
X149006198Y-124924300D01*
X149137523Y-124736749D01*
X149234284Y-124529243D01*
X149293543Y-124308087D01*
X149313498Y-124080000D01*
X149293543Y-123851913D01*
X149234284Y-123630757D01*
X149137523Y-123423251D01*
X149006198Y-123235700D01*
X149006197Y-123235699D01*
X149006195Y-123235696D01*
X148844303Y-123073804D01*
X148656750Y-122942477D01*
X148449243Y-122845715D01*
X148228087Y-122786457D01*
X148000000Y-122766502D01*
X147771912Y-122786457D01*
X147550756Y-122845715D01*
X147343249Y-122942477D01*
X147155696Y-123073804D01*
X146993804Y-123235696D01*
X146862477Y-123423249D01*
X146765715Y-123630756D01*
X146706457Y-123851912D01*
X146696888Y-123961281D01*
X146686502Y-124080000D01*
X144687672Y-124080000D01*
X144736956Y-123975266D01*
X144834495Y-123675072D01*
X144893641Y-123365020D01*
X144913460Y-123050000D01*
X144893641Y-122734980D01*
X144834495Y-122424928D01*
X144736956Y-122124734D01*
X144602562Y-121839131D01*
X144509114Y-121691881D01*
X144433434Y-121572627D01*
X144232233Y-121329417D01*
X144002139Y-121113345D01*
X143746781Y-120927817D01*
X143470178Y-120775752D01*
X143289210Y-120704102D01*
X143176702Y-120659557D01*
X143176699Y-120659556D01*
X143176696Y-120659555D01*
X142870975Y-120581059D01*
X142557824Y-120541500D01*
X142557821Y-120541500D01*
X142242179Y-120541500D01*
X142242176Y-120541500D01*
X141929024Y-120581059D01*
X141623303Y-120659555D01*
X141329821Y-120775752D01*
X141053218Y-120927817D01*
X140797860Y-121113345D01*
X140567766Y-121329417D01*
X140366565Y-121572627D01*
X140197438Y-121839130D01*
X140063044Y-122124733D01*
X139965504Y-122424928D01*
X139906358Y-122734981D01*
X139886539Y-123050000D01*
X136113460Y-123050000D01*
X136093641Y-122734980D01*
X136034495Y-122424928D01*
X135936956Y-122124734D01*
X135802562Y-121839131D01*
X135709114Y-121691881D01*
X135633434Y-121572627D01*
X135432233Y-121329417D01*
X135202139Y-121113345D01*
X134946781Y-120927817D01*
X134670178Y-120775752D01*
X134489210Y-120704102D01*
X134376702Y-120659557D01*
X134376699Y-120659556D01*
X134376696Y-120659555D01*
X134070975Y-120581059D01*
X133757824Y-120541500D01*
X133757821Y-120541500D01*
X133442179Y-120541500D01*
X133442176Y-120541500D01*
X133129024Y-120581059D01*
X132823303Y-120659555D01*
X132529821Y-120775752D01*
X132253218Y-120927817D01*
X131997860Y-121113345D01*
X131767766Y-121329417D01*
X131566565Y-121572627D01*
X131397438Y-121839130D01*
X131263044Y-122124733D01*
X131165504Y-122424928D01*
X131106358Y-122734981D01*
X131086539Y-123050000D01*
X118913460Y-123050000D01*
X118893641Y-122734980D01*
X118834495Y-122424928D01*
X118736956Y-122124734D01*
X118602562Y-121839131D01*
X118509114Y-121691881D01*
X118433434Y-121572627D01*
X118232233Y-121329417D01*
X118002139Y-121113345D01*
X117746781Y-120927817D01*
X117470178Y-120775752D01*
X117289210Y-120704102D01*
X117176702Y-120659557D01*
X117176699Y-120659556D01*
X117176696Y-120659555D01*
X116870975Y-120581059D01*
X116557824Y-120541500D01*
X116557821Y-120541500D01*
X116242179Y-120541500D01*
X116242176Y-120541500D01*
X115929024Y-120581059D01*
X115623303Y-120659555D01*
X115329821Y-120775752D01*
X115053218Y-120927817D01*
X114797860Y-121113345D01*
X114567766Y-121329417D01*
X114366565Y-121572627D01*
X114197438Y-121839130D01*
X114063044Y-122124733D01*
X113965504Y-122424928D01*
X113906358Y-122734981D01*
X113886539Y-123050000D01*
X110113460Y-123050000D01*
X110093641Y-122734980D01*
X110034495Y-122424928D01*
X109936956Y-122124734D01*
X109802562Y-121839131D01*
X109709114Y-121691881D01*
X109633434Y-121572627D01*
X109432233Y-121329417D01*
X109202139Y-121113345D01*
X108946781Y-120927817D01*
X108670178Y-120775752D01*
X108489210Y-120704102D01*
X108376702Y-120659557D01*
X108376699Y-120659556D01*
X108376696Y-120659555D01*
X108070975Y-120581059D01*
X107757824Y-120541500D01*
X107757821Y-120541500D01*
X107442179Y-120541500D01*
X107442176Y-120541500D01*
X107129024Y-120581059D01*
X106823303Y-120659555D01*
X106529821Y-120775752D01*
X106253218Y-120927817D01*
X105997860Y-121113345D01*
X105767766Y-121329417D01*
X105566565Y-121572627D01*
X105490885Y-121691881D01*
X105443809Y-121735536D01*
X105381333Y-121750327D01*
X105319681Y-121732415D01*
X105274857Y-121686451D01*
X105258500Y-121624367D01*
X105258500Y-110050000D01*
X136086673Y-110050000D01*
X136105949Y-110282626D01*
X136163251Y-110508907D01*
X136257016Y-110722669D01*
X136384686Y-110918083D01*
X136542780Y-111089818D01*
X136726983Y-111233190D01*
X136932273Y-111344287D01*
X137153049Y-111420080D01*
X137383288Y-111458500D01*
X137616709Y-111458500D01*
X137616712Y-111458500D01*
X137846951Y-111420080D01*
X137846953Y-111420079D01*
X137857250Y-111418361D01*
X137857735Y-111421272D01*
X137910262Y-111418555D01*
X137970958Y-111452218D01*
X140843123Y-114324382D01*
X140856645Y-114341259D01*
X140910272Y-114391618D01*
X140913083Y-114394342D01*
X140933667Y-114414926D01*
X140937170Y-114417643D01*
X140946186Y-114425343D01*
X140979867Y-114456972D01*
X140998660Y-114467303D01*
X141015176Y-114478152D01*
X141032131Y-114491304D01*
X141074531Y-114509652D01*
X141085180Y-114514868D01*
X141125663Y-114537124D01*
X141146440Y-114542458D01*
X141165135Y-114548859D01*
X141184823Y-114557379D01*
X141230454Y-114564606D01*
X141242054Y-114567008D01*
X141286812Y-114578500D01*
X141308258Y-114578500D01*
X141327968Y-114580050D01*
X141349151Y-114583406D01*
X141395135Y-114579059D01*
X141406994Y-114578500D01*
X146798112Y-114578500D01*
X146856292Y-114592737D01*
X146901325Y-114632229D01*
X146993804Y-114764303D01*
X147155696Y-114926195D01*
X147343249Y-115057522D01*
X147550756Y-115154284D01*
X147610015Y-115170162D01*
X147771913Y-115213543D01*
X148000000Y-115233498D01*
X148228087Y-115213543D01*
X148449243Y-115154284D01*
X148656749Y-115057523D01*
X148844300Y-114926198D01*
X149006198Y-114764300D01*
X149137523Y-114576749D01*
X149234284Y-114369243D01*
X149293543Y-114148087D01*
X149313498Y-113920000D01*
X149293543Y-113691913D01*
X149234284Y-113470757D01*
X149189331Y-113374355D01*
X149148619Y-113287046D01*
X149137523Y-113263251D01*
X149129581Y-113251909D01*
X149012755Y-113085064D01*
X149006198Y-113075700D01*
X149006197Y-113075699D01*
X149006195Y-113075696D01*
X148844303Y-112913804D01*
X148656750Y-112782477D01*
X148449243Y-112685715D01*
X148228087Y-112626457D01*
X148000000Y-112606502D01*
X147771912Y-112626457D01*
X147550756Y-112685715D01*
X147343249Y-112782477D01*
X147155696Y-112913804D01*
X146993804Y-113075696D01*
X146987247Y-113085061D01*
X146918250Y-113183600D01*
X146901325Y-113207771D01*
X146856292Y-113247263D01*
X146798112Y-113261500D01*
X141694949Y-113261500D01*
X141646731Y-113251909D01*
X141605854Y-113224595D01*
X140052452Y-111671192D01*
X140019089Y-111611764D01*
X140021554Y-111543656D01*
X140059124Y-111486795D01*
X140120804Y-111457817D01*
X140346951Y-111420080D01*
X140567727Y-111344287D01*
X140773017Y-111233190D01*
X140957220Y-111089818D01*
X141115314Y-110918083D01*
X141144517Y-110873383D01*
X141190031Y-110831485D01*
X141250000Y-110816299D01*
X141309969Y-110831485D01*
X141355482Y-110873383D01*
X141384686Y-110918083D01*
X141542780Y-111089818D01*
X141726983Y-111233190D01*
X141932273Y-111344287D01*
X142153049Y-111420080D01*
X142383288Y-111458500D01*
X142616709Y-111458500D01*
X142616712Y-111458500D01*
X142846951Y-111420080D01*
X143067727Y-111344287D01*
X143273017Y-111233190D01*
X143457220Y-111089818D01*
X143615314Y-110918083D01*
X143714946Y-110765583D01*
X143760460Y-110723686D01*
X143820429Y-110708500D01*
X147805050Y-110708500D01*
X147853268Y-110718091D01*
X147894145Y-110745405D01*
X150683376Y-113534635D01*
X150715987Y-113591118D01*
X150715988Y-113656340D01*
X150706457Y-113691910D01*
X150686502Y-113919999D01*
X150706457Y-114148087D01*
X150765715Y-114369243D01*
X150862477Y-114576750D01*
X150993804Y-114764303D01*
X151155696Y-114926195D01*
X151343249Y-115057522D01*
X151550756Y-115154284D01*
X151610015Y-115170162D01*
X151771913Y-115213543D01*
X152000000Y-115233498D01*
X152228087Y-115213543D01*
X152449243Y-115154284D01*
X152656749Y-115057523D01*
X152844300Y-114926198D01*
X153006198Y-114764300D01*
X153137523Y-114576749D01*
X153234284Y-114369243D01*
X153293543Y-114148087D01*
X153313498Y-113920000D01*
X153293543Y-113691913D01*
X153234284Y-113470757D01*
X153189331Y-113374355D01*
X153148619Y-113287046D01*
X153137523Y-113263251D01*
X153129581Y-113251909D01*
X153012755Y-113085064D01*
X153006198Y-113075700D01*
X153006197Y-113075699D01*
X153006195Y-113075696D01*
X152844303Y-112913804D01*
X152656750Y-112782477D01*
X152449243Y-112685715D01*
X152228087Y-112626457D01*
X152000000Y-112606502D01*
X151771910Y-112626457D01*
X151736340Y-112635988D01*
X151671118Y-112635987D01*
X151614635Y-112603376D01*
X148656874Y-109645614D01*
X148643356Y-109628742D01*
X148589742Y-109578395D01*
X148586930Y-109575670D01*
X148566333Y-109555073D01*
X148562828Y-109552354D01*
X148553803Y-109544646D01*
X148520131Y-109513026D01*
X148501338Y-109502694D01*
X148484817Y-109491842D01*
X148467870Y-109478697D01*
X148446340Y-109469380D01*
X148425459Y-109460343D01*
X148414818Y-109455130D01*
X148374337Y-109432876D01*
X148374334Y-109432875D01*
X148353568Y-109427543D01*
X148334864Y-109421139D01*
X148315178Y-109412620D01*
X148269552Y-109405394D01*
X148257928Y-109402987D01*
X148220767Y-109393446D01*
X148213188Y-109391500D01*
X148213187Y-109391500D01*
X148191741Y-109391500D01*
X148172032Y-109389949D01*
X148150848Y-109386594D01*
X148150847Y-109386594D01*
X148130770Y-109388491D01*
X148104859Y-109390941D01*
X148093004Y-109391500D01*
X143820429Y-109391500D01*
X143760460Y-109376314D01*
X143714946Y-109334416D01*
X143615314Y-109181917D01*
X143457220Y-109010182D01*
X143273017Y-108866810D01*
X143222959Y-108839720D01*
X143067726Y-108755712D01*
X142918275Y-108704405D01*
X142846951Y-108679920D01*
X142616712Y-108641500D01*
X142383288Y-108641500D01*
X142153049Y-108679920D01*
X142153046Y-108679920D01*
X142153046Y-108679921D01*
X141932273Y-108755712D01*
X141726984Y-108866809D01*
X141542779Y-109010182D01*
X141384683Y-109181920D01*
X141355482Y-109226616D01*
X141309969Y-109268514D01*
X141250000Y-109283700D01*
X141190031Y-109268514D01*
X141144518Y-109226616D01*
X141115316Y-109181920D01*
X141115315Y-109181919D01*
X141115314Y-109181917D01*
X140957220Y-109010182D01*
X140773017Y-108866810D01*
X140722959Y-108839720D01*
X140567726Y-108755712D01*
X140418275Y-108704405D01*
X140346951Y-108679920D01*
X140116712Y-108641500D01*
X139883288Y-108641500D01*
X139653049Y-108679920D01*
X139653046Y-108679920D01*
X139653046Y-108679921D01*
X139432273Y-108755712D01*
X139226984Y-108866809D01*
X139042779Y-109010182D01*
X138884683Y-109181920D01*
X138855482Y-109226616D01*
X138809969Y-109268514D01*
X138750000Y-109283700D01*
X138690031Y-109268514D01*
X138644518Y-109226616D01*
X138615316Y-109181920D01*
X138615315Y-109181919D01*
X138615314Y-109181917D01*
X138457220Y-109010182D01*
X138273017Y-108866810D01*
X138222959Y-108839720D01*
X138067726Y-108755712D01*
X137918275Y-108704405D01*
X137846951Y-108679920D01*
X137616712Y-108641500D01*
X137383288Y-108641500D01*
X137153049Y-108679920D01*
X137153046Y-108679920D01*
X137153046Y-108679921D01*
X136932273Y-108755712D01*
X136726984Y-108866809D01*
X136542779Y-109010182D01*
X136384684Y-109181919D01*
X136257016Y-109377330D01*
X136163250Y-109591094D01*
X136106981Y-109813297D01*
X136105949Y-109817374D01*
X136086673Y-110050000D01*
X105258500Y-110050000D01*
X105258500Y-109529573D01*
X105273807Y-109469380D01*
X105316010Y-109423813D01*
X105374854Y-109403943D01*
X105456431Y-109397679D01*
X105511569Y-109393446D01*
X105767007Y-109333671D01*
X106010326Y-109235605D01*
X106235825Y-109101545D01*
X106438216Y-108934634D01*
X106612757Y-108738784D01*
X106755355Y-108518586D01*
X106862670Y-108279201D01*
X106878773Y-108220602D01*
X106910154Y-108165924D01*
X106964097Y-108133293D01*
X107027094Y-108130878D01*
X107083376Y-108159283D01*
X107118853Y-108211399D01*
X107186857Y-108400742D01*
X107312148Y-108631148D01*
X107471134Y-108839720D01*
X107660100Y-109021581D01*
X107874609Y-109172463D01*
X108109642Y-109288836D01*
X108359683Y-109367967D01*
X108618867Y-109408000D01*
X109146000Y-109408000D01*
X109146000Y-107954000D01*
X109654000Y-107954000D01*
X109654000Y-109408000D01*
X110115468Y-109408000D01*
X110311486Y-109392950D01*
X110566859Y-109333190D01*
X110810102Y-109235155D01*
X111035537Y-109101133D01*
X111237867Y-108934273D01*
X111412359Y-108738477D01*
X111554913Y-108518346D01*
X111662196Y-108279034D01*
X111731691Y-108026146D01*
X111740021Y-107954000D01*
X109654000Y-107954000D01*
X109146000Y-107954000D01*
X109146000Y-105992000D01*
X109654000Y-105992000D01*
X109654000Y-107446000D01*
X111740563Y-107446000D01*
X111701791Y-107246082D01*
X111613142Y-106999256D01*
X111487851Y-106768851D01*
X111328865Y-106560279D01*
X111139899Y-106378418D01*
X110925390Y-106227536D01*
X110690357Y-106111163D01*
X110440316Y-106032032D01*
X110181133Y-105992000D01*
X109654000Y-105992000D01*
X109146000Y-105992000D01*
X108684532Y-105992000D01*
X108488513Y-106007049D01*
X108233140Y-106066809D01*
X107989897Y-106164844D01*
X107764462Y-106298866D01*
X107562132Y-106465726D01*
X107387640Y-106661522D01*
X107245086Y-106881653D01*
X107137803Y-107120965D01*
X107121751Y-107179379D01*
X107090369Y-107234057D01*
X107036426Y-107266687D01*
X106973429Y-107269102D01*
X106917147Y-107240696D01*
X106881672Y-107188582D01*
X106813600Y-106999049D01*
X106688276Y-106768582D01*
X106657462Y-106728159D01*
X106633539Y-106673393D01*
X106637543Y-106613760D01*
X106668574Y-106562684D01*
X107203907Y-106027351D01*
X107220771Y-106013842D01*
X107222596Y-106011898D01*
X107222600Y-106011896D01*
X107271126Y-105960219D01*
X107273848Y-105957410D01*
X107294447Y-105936813D01*
X107297168Y-105933303D01*
X107304866Y-105924289D01*
X107336492Y-105890613D01*
X107346823Y-105871819D01*
X107357679Y-105855294D01*
X107370824Y-105838348D01*
X107389172Y-105795945D01*
X107394397Y-105785283D01*
X107416642Y-105744820D01*
X107416644Y-105744817D01*
X107421978Y-105724038D01*
X107428376Y-105705349D01*
X107436900Y-105685656D01*
X107444129Y-105640001D01*
X107446530Y-105628412D01*
X107458020Y-105583668D01*
X107458020Y-105562221D01*
X107459571Y-105542510D01*
X107462926Y-105521328D01*
X107458578Y-105475339D01*
X107458020Y-105463484D01*
X107458020Y-104422727D01*
X107476336Y-104357304D01*
X107525959Y-104310902D01*
X107592462Y-104297010D01*
X107656510Y-104319668D01*
X107874354Y-104472897D01*
X108060642Y-104565133D01*
X108109454Y-104589301D01*
X108234510Y-104628877D01*
X108359569Y-104668455D01*
X108618829Y-104708500D01*
X108618831Y-104708500D01*
X110115490Y-104708500D01*
X110115494Y-104708500D01*
X110193921Y-104702478D01*
X110311569Y-104693446D01*
X110567007Y-104633671D01*
X110810326Y-104535605D01*
X111035825Y-104401545D01*
X111238216Y-104234634D01*
X111412757Y-104038784D01*
X111555355Y-103818586D01*
X111662670Y-103579201D01*
X111732185Y-103326240D01*
X111762271Y-103065633D01*
X111761672Y-103049999D01*
X133086539Y-103049999D01*
X133106358Y-103365018D01*
X133165504Y-103675071D01*
X133263044Y-103975266D01*
X133397438Y-104260869D01*
X133566565Y-104527372D01*
X133767766Y-104770582D01*
X133997860Y-104986654D01*
X134253221Y-105172184D01*
X134529821Y-105324247D01*
X134823298Y-105440443D01*
X134936184Y-105469427D01*
X135129024Y-105518940D01*
X135442176Y-105558500D01*
X135442179Y-105558500D01*
X135757821Y-105558500D01*
X135757824Y-105558500D01*
X136070975Y-105518940D01*
X136070975Y-105518939D01*
X136376702Y-105440443D01*
X136670179Y-105324247D01*
X136946779Y-105172184D01*
X137202140Y-104986654D01*
X137432233Y-104770582D01*
X137633432Y-104527375D01*
X137802562Y-104260869D01*
X137936956Y-103975266D01*
X138034495Y-103675072D01*
X138093641Y-103365020D01*
X138113460Y-103050000D01*
X141886539Y-103050000D01*
X141906358Y-103365018D01*
X141965504Y-103675071D01*
X142063044Y-103975266D01*
X142197438Y-104260869D01*
X142366565Y-104527372D01*
X142567766Y-104770582D01*
X142797860Y-104986654D01*
X143053221Y-105172184D01*
X143329821Y-105324247D01*
X143623298Y-105440443D01*
X143736184Y-105469427D01*
X143929024Y-105518940D01*
X144242176Y-105558500D01*
X144242179Y-105558500D01*
X144557821Y-105558500D01*
X144557824Y-105558500D01*
X144870975Y-105518940D01*
X144870975Y-105518939D01*
X145176702Y-105440443D01*
X145470179Y-105324247D01*
X145746779Y-105172184D01*
X146002140Y-104986654D01*
X146232233Y-104770582D01*
X146433432Y-104527375D01*
X146602562Y-104260869D01*
X146736956Y-103975266D01*
X146834495Y-103675072D01*
X146893641Y-103365020D01*
X146913460Y-103050000D01*
X146893641Y-102734980D01*
X146834495Y-102424928D01*
X146736956Y-102124734D01*
X146602562Y-101839131D01*
X146502156Y-101680916D01*
X146433434Y-101572627D01*
X146232233Y-101329417D01*
X146002139Y-101113345D01*
X145746781Y-100927817D01*
X145470178Y-100775752D01*
X145220543Y-100676915D01*
X145176702Y-100659557D01*
X145176699Y-100659556D01*
X145176696Y-100659555D01*
X144870975Y-100581059D01*
X144557824Y-100541500D01*
X144557821Y-100541500D01*
X144242179Y-100541500D01*
X144242176Y-100541500D01*
X143929024Y-100581059D01*
X143623303Y-100659555D01*
X143329821Y-100775752D01*
X143053218Y-100927817D01*
X142797860Y-101113345D01*
X142567766Y-101329417D01*
X142366565Y-101572627D01*
X142197438Y-101839130D01*
X142063044Y-102124733D01*
X141965504Y-102424928D01*
X141906358Y-102734981D01*
X141886539Y-103050000D01*
X138113460Y-103050000D01*
X138093641Y-102734980D01*
X138034495Y-102424928D01*
X137936956Y-102124734D01*
X137802562Y-101839131D01*
X137702156Y-101680916D01*
X137633434Y-101572627D01*
X137432233Y-101329417D01*
X137202139Y-101113345D01*
X136946781Y-100927817D01*
X136670178Y-100775752D01*
X136420543Y-100676915D01*
X136376702Y-100659557D01*
X136376699Y-100659556D01*
X136376696Y-100659555D01*
X136070975Y-100581059D01*
X135757824Y-100541500D01*
X135757821Y-100541500D01*
X135442179Y-100541500D01*
X135442176Y-100541500D01*
X135129024Y-100581059D01*
X134823303Y-100659555D01*
X134529821Y-100775752D01*
X134253218Y-100927817D01*
X133997860Y-101113345D01*
X133767766Y-101329417D01*
X133566565Y-101572627D01*
X133397438Y-101839130D01*
X133263044Y-102124733D01*
X133165504Y-102424928D01*
X133106358Y-102734981D01*
X133086539Y-103049999D01*
X111761672Y-103049999D01*
X111752222Y-102803487D01*
X111702275Y-102545947D01*
X111613600Y-102299049D01*
X111518810Y-102124734D01*
X111488276Y-102068582D01*
X111329240Y-101859945D01*
X111140219Y-101678031D01*
X110925645Y-101527102D01*
X110690547Y-101410699D01*
X110440430Y-101331544D01*
X110181171Y-101291500D01*
X110181169Y-101291500D01*
X108684510Y-101291500D01*
X108684506Y-101291500D01*
X108488436Y-101306553D01*
X108488432Y-101306553D01*
X108488431Y-101306554D01*
X108360711Y-101336441D01*
X108232988Y-101366330D01*
X107989675Y-101464394D01*
X107764178Y-101598453D01*
X107764175Y-101598455D01*
X107664183Y-101680917D01*
X107599668Y-101708733D01*
X107530284Y-101697675D01*
X107477609Y-101651181D01*
X107458020Y-101583708D01*
X107458020Y-101225430D01*
X107467611Y-101177212D01*
X107494925Y-101136335D01*
X108585855Y-100045405D01*
X108626732Y-100018091D01*
X108674950Y-100008500D01*
X110115494Y-100008500D01*
X110193921Y-100002478D01*
X110311569Y-99993446D01*
X110567007Y-99933671D01*
X110810326Y-99835605D01*
X111035825Y-99701545D01*
X111238216Y-99534634D01*
X111412757Y-99338784D01*
X111555355Y-99118586D01*
X111593742Y-99032956D01*
X111621345Y-98993714D01*
X111661616Y-98967635D01*
X111708717Y-98958500D01*
X116313389Y-98958500D01*
X116334874Y-98960871D01*
X116337534Y-98960787D01*
X116337537Y-98960788D01*
X116408369Y-98958561D01*
X116412327Y-98958500D01*
X116441434Y-98958500D01*
X116445825Y-98957945D01*
X116457662Y-98957012D01*
X116503831Y-98955562D01*
X116515412Y-98952196D01*
X116524418Y-98949581D01*
X116543780Y-98945570D01*
X116565064Y-98942882D01*
X116608032Y-98925869D01*
X116619231Y-98922035D01*
X116663600Y-98909145D01*
X116682064Y-98898224D01*
X116699807Y-98889532D01*
X116719756Y-98881635D01*
X116757148Y-98854466D01*
X116767025Y-98847978D01*
X116806807Y-98824453D01*
X116821974Y-98809285D01*
X116837006Y-98796447D01*
X116854354Y-98783843D01*
X116854353Y-98783843D01*
X116854357Y-98783841D01*
X116883812Y-98748233D01*
X116891781Y-98739477D01*
X121638040Y-93993218D01*
X121690386Y-93961793D01*
X121751363Y-93958667D01*
X121806649Y-93984575D01*
X121891499Y-94053606D01*
X121981226Y-94126605D01*
X121981229Y-94126606D01*
X121981228Y-94126606D01*
X122227686Y-94276481D01*
X122492256Y-94391400D01*
X122770011Y-94469223D01*
X122770013Y-94469223D01*
X122770016Y-94469224D01*
X123055771Y-94508500D01*
X123055775Y-94508500D01*
X123344225Y-94508500D01*
X123344229Y-94508500D01*
X123629983Y-94469224D01*
X123629984Y-94469223D01*
X123629989Y-94469223D01*
X123907744Y-94391400D01*
X124172314Y-94276481D01*
X124418772Y-94126606D01*
X124642526Y-93944568D01*
X124839409Y-93733758D01*
X125005753Y-93498103D01*
X125043515Y-93425225D01*
X125138457Y-93241997D01*
X125138459Y-93241992D01*
X125235055Y-92970196D01*
X125293742Y-92687778D01*
X125308500Y-92472029D01*
X125308500Y-90527971D01*
X125293742Y-90312222D01*
X125235055Y-90029804D01*
X125138459Y-89758008D01*
X125138457Y-89758002D01*
X125005755Y-89501900D01*
X124839408Y-89266241D01*
X124642523Y-89055429D01*
X124429645Y-88882239D01*
X124392918Y-88833115D01*
X124383738Y-88772471D01*
X124404278Y-88714677D01*
X124449671Y-88673429D01*
X124509162Y-88658500D01*
X132313389Y-88658500D01*
X132334874Y-88660871D01*
X132337534Y-88660787D01*
X132337537Y-88660788D01*
X132408369Y-88658561D01*
X132412327Y-88658500D01*
X132441434Y-88658500D01*
X132445825Y-88657945D01*
X132457662Y-88657012D01*
X132503831Y-88655562D01*
X132515412Y-88652197D01*
X132524418Y-88649581D01*
X132543780Y-88645570D01*
X132565064Y-88642882D01*
X132608032Y-88625869D01*
X132619231Y-88622035D01*
X132663600Y-88609145D01*
X132682064Y-88598224D01*
X132699807Y-88589532D01*
X132719756Y-88581635D01*
X132757148Y-88554466D01*
X132767025Y-88547978D01*
X132806807Y-88524453D01*
X132821974Y-88509285D01*
X132837006Y-88496447D01*
X132840825Y-88493671D01*
X132854357Y-88483841D01*
X132883813Y-88448233D01*
X132891782Y-88439476D01*
X134396145Y-86935112D01*
X134451037Y-86902940D01*
X134514652Y-86901690D01*
X134572883Y-86915670D01*
X134753089Y-86958934D01*
X135000000Y-86978366D01*
X135246911Y-86958934D01*
X135487742Y-86901115D01*
X135716563Y-86806334D01*
X135927740Y-86676925D01*
X136116073Y-86516073D01*
X136129801Y-86500000D01*
X144321673Y-86500000D01*
X144340949Y-86732626D01*
X144340949Y-86732629D01*
X144340950Y-86732630D01*
X144398250Y-86958905D01*
X144492016Y-87172669D01*
X144602318Y-87341500D01*
X144619686Y-87368083D01*
X144777780Y-87539818D01*
X144961983Y-87683190D01*
X145167273Y-87794287D01*
X145388049Y-87870080D01*
X145618288Y-87908500D01*
X145851709Y-87908500D01*
X145851712Y-87908500D01*
X146081951Y-87870080D01*
X146302727Y-87794287D01*
X146508017Y-87683190D01*
X146692220Y-87539818D01*
X146692221Y-87539816D01*
X146700459Y-87533405D01*
X146701462Y-87534694D01*
X146743830Y-87507435D01*
X146807294Y-87503521D01*
X146864588Y-87531096D01*
X146901122Y-87583138D01*
X146924554Y-87645962D01*
X147012095Y-87762904D01*
X147129037Y-87850445D01*
X147265906Y-87901494D01*
X147326411Y-87908000D01*
X148021000Y-87908000D01*
X148021000Y-86754000D01*
X148529000Y-86754000D01*
X148529000Y-87908000D01*
X149223589Y-87908000D01*
X149284093Y-87901494D01*
X149420962Y-87850445D01*
X149537904Y-87762904D01*
X149625445Y-87645962D01*
X149676494Y-87509093D01*
X149683000Y-87448589D01*
X149683000Y-86754000D01*
X148529000Y-86754000D01*
X148021000Y-86754000D01*
X148021000Y-85092000D01*
X148529000Y-85092000D01*
X148529000Y-86246000D01*
X149683000Y-86246000D01*
X149683000Y-85551411D01*
X149676494Y-85490906D01*
X149625445Y-85354037D01*
X149537904Y-85237095D01*
X149420962Y-85149554D01*
X149284093Y-85098505D01*
X149223589Y-85092000D01*
X148529000Y-85092000D01*
X148021000Y-85092000D01*
X147784500Y-85092000D01*
X147721500Y-85075119D01*
X147675381Y-85029000D01*
X147658500Y-84966000D01*
X147658500Y-83281888D01*
X147672737Y-83223708D01*
X147712228Y-83178676D01*
X147844300Y-83086198D01*
X148006198Y-82924300D01*
X148137523Y-82736749D01*
X148234284Y-82529243D01*
X148293543Y-82308087D01*
X148313498Y-82080000D01*
X148293543Y-81851913D01*
X148234284Y-81630757D01*
X148137523Y-81423251D01*
X148006198Y-81235700D01*
X148006197Y-81235699D01*
X148006195Y-81235696D01*
X147844303Y-81073804D01*
X147656750Y-80942477D01*
X147449243Y-80845715D01*
X147228087Y-80786457D01*
X147000000Y-80766502D01*
X146771912Y-80786457D01*
X146550756Y-80845715D01*
X146343249Y-80942477D01*
X146155696Y-81073804D01*
X145993804Y-81235696D01*
X145862477Y-81423249D01*
X145765715Y-81630756D01*
X145706457Y-81851912D01*
X145686502Y-82079999D01*
X145706457Y-82308087D01*
X145765715Y-82529243D01*
X145862477Y-82736750D01*
X145993804Y-82924303D01*
X146155696Y-83086195D01*
X146155699Y-83086197D01*
X146155700Y-83086198D01*
X146287771Y-83178676D01*
X146327263Y-83223708D01*
X146341500Y-83281888D01*
X146341500Y-84910049D01*
X146331909Y-84958268D01*
X146304595Y-84999145D01*
X146205956Y-85097782D01*
X146145269Y-85131442D01*
X146092734Y-85128730D01*
X146092249Y-85131639D01*
X146081954Y-85129921D01*
X146081951Y-85129920D01*
X145851712Y-85091500D01*
X145618288Y-85091500D01*
X145388049Y-85129920D01*
X145388046Y-85129920D01*
X145388046Y-85129921D01*
X145167273Y-85205712D01*
X144961984Y-85316809D01*
X144777779Y-85460182D01*
X144619684Y-85631919D01*
X144492016Y-85827330D01*
X144398250Y-86041094D01*
X144340950Y-86267369D01*
X144340949Y-86267374D01*
X144321673Y-86500000D01*
X136129801Y-86500000D01*
X136276925Y-86327740D01*
X136406334Y-86116563D01*
X136501115Y-85887742D01*
X136558934Y-85646911D01*
X136578366Y-85400000D01*
X136558934Y-85153089D01*
X136501115Y-84912258D01*
X136406334Y-84683437D01*
X136276925Y-84472260D01*
X136136708Y-84308087D01*
X136116073Y-84283926D01*
X135927744Y-84123078D01*
X135927742Y-84123076D01*
X135927740Y-84123075D01*
X135716563Y-83993666D01*
X135716561Y-83993665D01*
X135487743Y-83898885D01*
X135246911Y-83841066D01*
X135000000Y-83821634D01*
X134753088Y-83841066D01*
X134512256Y-83898885D01*
X134283438Y-83993665D01*
X134072255Y-84123078D01*
X133883926Y-84283926D01*
X133723078Y-84472255D01*
X133593665Y-84683438D01*
X133498885Y-84912256D01*
X133441066Y-85153088D01*
X133436924Y-85205712D01*
X133421634Y-85400000D01*
X133426370Y-85460182D01*
X133441066Y-85646911D01*
X133498309Y-85885345D01*
X133497059Y-85948960D01*
X133464885Y-86003854D01*
X132164145Y-87304595D01*
X132123268Y-87331909D01*
X132075050Y-87341500D01*
X117386611Y-87341500D01*
X117365125Y-87339128D01*
X117291631Y-87341438D01*
X117287673Y-87341500D01*
X117258568Y-87341500D01*
X117254160Y-87342056D01*
X117242344Y-87342986D01*
X117196166Y-87344437D01*
X117175573Y-87350420D01*
X117156222Y-87354428D01*
X117134933Y-87357118D01*
X117091983Y-87374123D01*
X117080756Y-87377967D01*
X117036398Y-87390854D01*
X117017934Y-87401774D01*
X117000184Y-87410470D01*
X116980242Y-87418365D01*
X116942870Y-87445517D01*
X116932956Y-87452029D01*
X116893195Y-87475546D01*
X116878029Y-87490711D01*
X116863003Y-87503544D01*
X116845644Y-87516156D01*
X116816186Y-87551764D01*
X116808199Y-87560540D01*
X115361961Y-89006778D01*
X115309613Y-89038205D01*
X115248636Y-89041331D01*
X115193349Y-89015423D01*
X115018772Y-88873394D01*
X114852812Y-88772471D01*
X114772314Y-88723519D01*
X114592857Y-88645570D01*
X114507744Y-88608600D01*
X114229983Y-88530775D01*
X113944229Y-88491500D01*
X113944225Y-88491500D01*
X113655775Y-88491500D01*
X113655771Y-88491500D01*
X113370016Y-88530775D01*
X113092255Y-88608600D01*
X112827687Y-88723518D01*
X112581222Y-88873397D01*
X112357476Y-89055429D01*
X112160591Y-89266241D01*
X111994244Y-89501900D01*
X111861542Y-89758002D01*
X111764945Y-90029802D01*
X111706257Y-90312226D01*
X111691500Y-90527968D01*
X111691500Y-92472032D01*
X111706257Y-92687773D01*
X111764945Y-92970197D01*
X111861542Y-93241997D01*
X111994244Y-93498099D01*
X112160591Y-93733758D01*
X112357476Y-93944570D01*
X112581222Y-94126602D01*
X112581226Y-94126604D01*
X112581228Y-94126606D01*
X112827686Y-94276481D01*
X113092256Y-94391400D01*
X113370011Y-94469223D01*
X113370013Y-94469223D01*
X113370016Y-94469224D01*
X113655771Y-94508500D01*
X113655775Y-94508500D01*
X113944225Y-94508500D01*
X113944229Y-94508500D01*
X114229983Y-94469224D01*
X114229984Y-94469223D01*
X114229989Y-94469223D01*
X114507744Y-94391400D01*
X114772314Y-94276481D01*
X115018772Y-94126606D01*
X115242526Y-93944568D01*
X115439409Y-93733758D01*
X115605753Y-93498103D01*
X115643515Y-93425225D01*
X115738457Y-93241997D01*
X115738459Y-93241992D01*
X115835055Y-92970196D01*
X115893742Y-92687778D01*
X115908500Y-92472029D01*
X115908500Y-90527971D01*
X115899271Y-90393069D01*
X115906991Y-90340255D01*
X115935881Y-90295377D01*
X116235778Y-89995480D01*
X116290877Y-89963249D01*
X116354703Y-89962160D01*
X116410873Y-89992492D01*
X116444967Y-90046460D01*
X116448236Y-90110212D01*
X116406257Y-90312225D01*
X116391500Y-90527968D01*
X116391500Y-92472032D01*
X116406257Y-92687773D01*
X116464945Y-92970197D01*
X116561542Y-93241997D01*
X116694244Y-93498099D01*
X116860591Y-93733758D01*
X117057476Y-93944570D01*
X117281222Y-94126602D01*
X117281226Y-94126604D01*
X117281228Y-94126606D01*
X117527686Y-94276481D01*
X117792256Y-94391400D01*
X118070011Y-94469223D01*
X118070013Y-94469223D01*
X118070016Y-94469224D01*
X118355771Y-94508500D01*
X118355775Y-94508500D01*
X118644225Y-94508500D01*
X118644229Y-94508500D01*
X118807518Y-94486056D01*
X118929989Y-94469223D01*
X118980023Y-94455203D01*
X119045519Y-94454532D01*
X119102502Y-94486829D01*
X119135575Y-94543366D01*
X119135799Y-94608865D01*
X119103113Y-94665626D01*
X116164145Y-97604595D01*
X116123268Y-97631909D01*
X116075050Y-97641500D01*
X111711592Y-97641500D01*
X111647204Y-97623806D01*
X111600900Y-97575693D01*
X111488276Y-97368582D01*
X111329240Y-97159945D01*
X111140219Y-96978031D01*
X110925645Y-96827102D01*
X110690547Y-96710699D01*
X110440430Y-96631544D01*
X110181171Y-96591500D01*
X110181169Y-96591500D01*
X108684510Y-96591500D01*
X108684506Y-96591500D01*
X108488436Y-96606553D01*
X108488432Y-96606553D01*
X108488431Y-96606554D01*
X108381641Y-96631544D01*
X108232988Y-96666330D01*
X107989675Y-96764394D01*
X107764174Y-96898455D01*
X107561784Y-97065364D01*
X107387240Y-97261218D01*
X107244645Y-97481413D01*
X107137330Y-97720795D01*
X107121456Y-97778560D01*
X107090073Y-97833238D01*
X107036130Y-97865868D01*
X106973133Y-97868282D01*
X106916852Y-97839876D01*
X106881378Y-97787764D01*
X106813600Y-97599049D01*
X106800899Y-97575693D01*
X106688276Y-97368582D01*
X106529240Y-97159945D01*
X106340219Y-96978031D01*
X106125645Y-96827102D01*
X105890547Y-96710699D01*
X105640430Y-96631544D01*
X105381171Y-96591500D01*
X105381169Y-96591500D01*
X103884510Y-96591500D01*
X103884506Y-96591500D01*
X103688436Y-96606553D01*
X103688432Y-96606553D01*
X103688431Y-96606554D01*
X103581641Y-96631544D01*
X103432988Y-96666330D01*
X103189675Y-96764394D01*
X102964174Y-96898455D01*
X102761784Y-97065364D01*
X102587240Y-97261218D01*
X102444645Y-97481413D01*
X102337329Y-97720797D01*
X102267815Y-97973756D01*
X102237729Y-98234366D01*
X102247778Y-98496516D01*
X102297724Y-98754050D01*
X102386401Y-99000954D01*
X102511723Y-99231417D01*
X102670759Y-99440054D01*
X102859780Y-99621968D01*
X103074354Y-99772897D01*
X103201005Y-99835605D01*
X103309454Y-99889301D01*
X103434510Y-99928877D01*
X103559569Y-99968455D01*
X103818829Y-100008500D01*
X103818831Y-100008500D01*
X105315490Y-100008500D01*
X105315494Y-100008500D01*
X105393921Y-100002478D01*
X105511569Y-99993446D01*
X105767007Y-99933671D01*
X106010326Y-99835605D01*
X106235825Y-99701545D01*
X106438216Y-99534634D01*
X106612757Y-99338784D01*
X106755355Y-99118586D01*
X106842727Y-98923688D01*
X106862670Y-98879202D01*
X106878543Y-98821441D01*
X106909925Y-98766763D01*
X106963867Y-98734132D01*
X107026865Y-98731717D01*
X107083147Y-98760123D01*
X107118621Y-98812236D01*
X107159436Y-98925874D01*
X107186401Y-99000954D01*
X107311723Y-99231417D01*
X107342534Y-99271837D01*
X107366459Y-99326606D01*
X107362455Y-99386238D01*
X107331422Y-99437316D01*
X106395131Y-100373607D01*
X106378262Y-100387123D01*
X106327914Y-100440737D01*
X106325164Y-100443575D01*
X106304590Y-100464150D01*
X106301863Y-100467665D01*
X106294170Y-100476671D01*
X106262547Y-100510348D01*
X106252210Y-100529148D01*
X106241364Y-100545659D01*
X106228215Y-100562611D01*
X106209870Y-100605004D01*
X106204650Y-100615659D01*
X106182396Y-100656140D01*
X106177062Y-100676915D01*
X106170659Y-100695615D01*
X106162140Y-100715300D01*
X106154913Y-100760932D01*
X106152506Y-100772553D01*
X106141020Y-100817291D01*
X106141020Y-100838739D01*
X106139469Y-100858450D01*
X106136114Y-100879632D01*
X106140461Y-100925618D01*
X106141020Y-100937476D01*
X106141020Y-101331731D01*
X106125131Y-101392981D01*
X106081471Y-101438783D01*
X106021052Y-101457587D01*
X105959112Y-101444648D01*
X105890547Y-101410699D01*
X105640430Y-101331544D01*
X105381171Y-101291500D01*
X105381169Y-101291500D01*
X103884510Y-101291500D01*
X103884506Y-101291500D01*
X103688436Y-101306553D01*
X103688432Y-101306553D01*
X103688431Y-101306554D01*
X103560711Y-101336441D01*
X103432988Y-101366330D01*
X103189675Y-101464394D01*
X102964174Y-101598455D01*
X102761784Y-101765364D01*
X102587240Y-101961218D01*
X102444645Y-102181413D01*
X102337329Y-102420797D01*
X102267815Y-102673756D01*
X102237729Y-102934366D01*
X102247778Y-103196516D01*
X102297724Y-103454050D01*
X102386401Y-103700954D01*
X102511723Y-103931417D01*
X102670759Y-104140054D01*
X102859780Y-104321968D01*
X103074354Y-104472897D01*
X103260642Y-104565133D01*
X103309454Y-104589301D01*
X103434510Y-104628877D01*
X103559569Y-104668455D01*
X103818829Y-104708500D01*
X103818831Y-104708500D01*
X105315490Y-104708500D01*
X105315494Y-104708500D01*
X105393921Y-104702478D01*
X105511569Y-104693446D01*
X105767007Y-104633671D01*
X105937062Y-104565133D01*
X105967919Y-104552697D01*
X106028271Y-104544261D01*
X106085523Y-104565133D01*
X106126284Y-104610432D01*
X106141020Y-104669562D01*
X106141020Y-105175530D01*
X106131429Y-105223748D01*
X106104115Y-105264625D01*
X105414145Y-105954595D01*
X105373268Y-105981909D01*
X105325050Y-105991500D01*
X103884506Y-105991500D01*
X103688436Y-106006553D01*
X103688432Y-106006553D01*
X103688431Y-106006554D01*
X103579555Y-106032032D01*
X103432988Y-106066330D01*
X103189675Y-106164394D01*
X102964174Y-106298455D01*
X102761784Y-106465364D01*
X102587240Y-106661218D01*
X102444645Y-106881413D01*
X102337329Y-107120797D01*
X102267815Y-107373756D01*
X102237729Y-107634366D01*
X102247778Y-107896516D01*
X102297724Y-108154050D01*
X102386401Y-108400954D01*
X102511723Y-108631417D01*
X102670759Y-108840054D01*
X102859780Y-109021968D01*
X103074354Y-109172897D01*
X103182850Y-109226616D01*
X103309454Y-109289301D01*
X103434510Y-109328877D01*
X103559569Y-109368455D01*
X103828391Y-109409977D01*
X103828097Y-109411875D01*
X103878500Y-109425381D01*
X103924619Y-109471500D01*
X103941500Y-109534500D01*
X103941500Y-117846783D01*
X103923503Y-117911678D01*
X103874653Y-117958034D01*
X103808906Y-117972610D01*
X103745042Y-117951242D01*
X103701305Y-117900033D01*
X103637522Y-117763249D01*
X103506195Y-117575696D01*
X103344303Y-117413804D01*
X103156750Y-117282477D01*
X102949243Y-117185715D01*
X102728087Y-117126457D01*
X102500000Y-117106502D01*
X102271910Y-117126457D01*
X102236341Y-117135988D01*
X102171119Y-117135988D01*
X102114636Y-117103376D01*
X97695405Y-112684145D01*
X97668091Y-112643268D01*
X97658500Y-112595050D01*
X97658500Y-110701888D01*
X97672737Y-110643708D01*
X97712228Y-110598676D01*
X97844300Y-110506198D01*
X98006198Y-110344300D01*
X98137523Y-110156749D01*
X98234284Y-109949243D01*
X98293543Y-109728087D01*
X98313498Y-109500000D01*
X98293543Y-109271913D01*
X98234284Y-109050757D01*
X98137523Y-108843251D01*
X98135284Y-108840054D01*
X98006195Y-108655696D01*
X97844303Y-108493804D01*
X97656750Y-108362477D01*
X97449243Y-108265715D01*
X97228087Y-108206457D01*
X97000000Y-108186502D01*
X96771912Y-108206457D01*
X96550756Y-108265715D01*
X96343249Y-108362477D01*
X96155696Y-108493804D01*
X95993804Y-108655696D01*
X95862477Y-108843249D01*
X95765715Y-109050756D01*
X95748207Y-109116101D01*
X95719397Y-109168614D01*
X95669595Y-109201891D01*
X95610054Y-109208412D01*
X95554229Y-109186703D01*
X95514737Y-109141670D01*
X95500500Y-109083490D01*
X95500500Y-99756510D01*
X95514737Y-99698330D01*
X95554229Y-99653297D01*
X95610054Y-99631588D01*
X95669595Y-99638109D01*
X95719397Y-99671386D01*
X95748207Y-99723899D01*
X95765715Y-99789243D01*
X95862477Y-99996750D01*
X95993804Y-100184303D01*
X96155696Y-100346195D01*
X96343249Y-100477522D01*
X96550756Y-100574284D01*
X96576041Y-100581059D01*
X96771913Y-100633543D01*
X97000000Y-100653498D01*
X97228087Y-100633543D01*
X97449243Y-100574284D01*
X97656749Y-100477523D01*
X97844300Y-100346198D01*
X98006198Y-100184300D01*
X98137523Y-99996749D01*
X98234284Y-99789243D01*
X98293543Y-99568087D01*
X98313498Y-99340000D01*
X98293543Y-99111913D01*
X98234284Y-98890757D01*
X98233710Y-98889527D01*
X98137522Y-98683249D01*
X98006195Y-98495696D01*
X97844303Y-98333804D01*
X97656750Y-98202477D01*
X97449243Y-98105715D01*
X97228087Y-98046457D01*
X97000000Y-98026502D01*
X96771912Y-98046457D01*
X96550756Y-98105715D01*
X96343249Y-98202477D01*
X96155696Y-98333804D01*
X95993804Y-98495696D01*
X95862477Y-98683249D01*
X95765715Y-98890756D01*
X95748207Y-98956101D01*
X95719397Y-99008614D01*
X95669595Y-99041891D01*
X95610054Y-99048412D01*
X95554229Y-99026703D01*
X95514737Y-98981670D01*
X95500500Y-98923490D01*
X95500500Y-80435950D01*
X95514233Y-80378747D01*
X95552439Y-80334014D01*
X95606789Y-80311501D01*
X95665436Y-80316117D01*
X95715595Y-80346855D01*
X96642988Y-81274248D01*
X96675372Y-81329893D01*
X96676038Y-81394272D01*
X96659582Y-81459257D01*
X96655436Y-81475632D01*
X96636844Y-81700000D01*
X96655436Y-81924368D01*
X96655437Y-81924370D01*
X96655437Y-81924372D01*
X96710702Y-82142611D01*
X96801139Y-82348790D01*
X96924278Y-82537268D01*
X97076762Y-82702908D01*
X97158467Y-82766502D01*
X97254424Y-82841189D01*
X97452426Y-82948342D01*
X97665365Y-83021444D01*
X97887431Y-83058500D01*
X98112569Y-83058500D01*
X98112572Y-83058500D01*
X98238538Y-83037479D01*
X98318268Y-83024175D01*
X98377446Y-83028463D01*
X98428101Y-83059361D01*
X99853123Y-84484382D01*
X99866645Y-84501259D01*
X99920272Y-84551618D01*
X99923083Y-84554342D01*
X99943667Y-84574926D01*
X99947170Y-84577643D01*
X99956186Y-84585343D01*
X99989867Y-84616972D01*
X100008660Y-84627303D01*
X100025176Y-84638152D01*
X100042131Y-84651304D01*
X100084531Y-84669652D01*
X100095180Y-84674868D01*
X100135663Y-84697124D01*
X100156440Y-84702458D01*
X100175135Y-84708859D01*
X100194823Y-84717379D01*
X100240454Y-84724606D01*
X100252054Y-84727008D01*
X100296812Y-84738500D01*
X100318258Y-84738500D01*
X100337968Y-84740050D01*
X100359151Y-84743406D01*
X100405139Y-84739058D01*
X100416995Y-84738500D01*
X102798112Y-84738500D01*
X102856292Y-84752737D01*
X102901325Y-84792229D01*
X102993804Y-84924303D01*
X103155696Y-85086195D01*
X103343249Y-85217522D01*
X103550756Y-85314284D01*
X103610014Y-85330162D01*
X103771913Y-85373543D01*
X104000000Y-85393498D01*
X104228087Y-85373543D01*
X104449243Y-85314284D01*
X104656749Y-85217523D01*
X104844300Y-85086198D01*
X105006198Y-84924300D01*
X105137523Y-84736749D01*
X105234284Y-84529243D01*
X105293543Y-84308087D01*
X105313498Y-84080000D01*
X105293543Y-83851913D01*
X105265591Y-83747599D01*
X105263720Y-83690408D01*
X105287336Y-83638285D01*
X105331571Y-83601983D01*
X105387299Y-83588989D01*
X106025539Y-83588989D01*
X106073757Y-83598580D01*
X106114634Y-83625894D01*
X106183376Y-83694636D01*
X106215988Y-83751119D01*
X106215988Y-83816341D01*
X106206457Y-83851910D01*
X106186502Y-84079999D01*
X106206457Y-84308087D01*
X106265715Y-84529243D01*
X106362477Y-84736750D01*
X106493804Y-84924303D01*
X106655696Y-85086195D01*
X106843249Y-85217522D01*
X107050756Y-85314284D01*
X107110014Y-85330162D01*
X107271913Y-85373543D01*
X107500000Y-85393498D01*
X107728087Y-85373543D01*
X107949243Y-85314284D01*
X108156749Y-85217523D01*
X108344300Y-85086198D01*
X108506198Y-84924300D01*
X108637523Y-84736749D01*
X108734284Y-84529243D01*
X108793543Y-84308087D01*
X108813498Y-84080000D01*
X108793543Y-83851913D01*
X108784217Y-83817112D01*
X108782345Y-83759920D01*
X108805961Y-83707797D01*
X108850195Y-83671494D01*
X108905924Y-83658500D01*
X114459153Y-83658500D01*
X114524988Y-83677067D01*
X114571420Y-83727297D01*
X114584765Y-83794386D01*
X114561089Y-83858561D01*
X114507371Y-83900909D01*
X114283438Y-83993665D01*
X114072255Y-84123078D01*
X113883926Y-84283926D01*
X113723078Y-84472255D01*
X113593665Y-84683438D01*
X113498885Y-84912256D01*
X113441066Y-85153088D01*
X113436924Y-85205712D01*
X113421634Y-85400000D01*
X113426370Y-85460182D01*
X113441066Y-85646911D01*
X113498885Y-85887743D01*
X113580061Y-86083717D01*
X113593666Y-86116563D01*
X113723075Y-86327740D01*
X113723076Y-86327742D01*
X113723078Y-86327744D01*
X113883926Y-86516073D01*
X114072255Y-86676921D01*
X114072260Y-86676925D01*
X114283437Y-86806334D01*
X114512258Y-86901115D01*
X114753089Y-86958934D01*
X115000000Y-86978366D01*
X115246911Y-86958934D01*
X115487742Y-86901115D01*
X115716563Y-86806334D01*
X115927740Y-86676925D01*
X116116073Y-86516073D01*
X116276925Y-86327740D01*
X116406334Y-86116563D01*
X116501115Y-85887742D01*
X116558934Y-85646911D01*
X116578366Y-85400000D01*
X123421634Y-85400000D01*
X123426370Y-85460182D01*
X123441066Y-85646911D01*
X123498885Y-85887743D01*
X123580061Y-86083717D01*
X123593666Y-86116563D01*
X123723075Y-86327740D01*
X123723076Y-86327742D01*
X123723078Y-86327744D01*
X123883926Y-86516073D01*
X124072255Y-86676921D01*
X124072260Y-86676925D01*
X124283437Y-86806334D01*
X124512258Y-86901115D01*
X124753089Y-86958934D01*
X125000000Y-86978366D01*
X125246911Y-86958934D01*
X125487742Y-86901115D01*
X125716563Y-86806334D01*
X125927740Y-86676925D01*
X126116073Y-86516073D01*
X126276925Y-86327740D01*
X126406334Y-86116563D01*
X126501115Y-85887742D01*
X126558934Y-85646911D01*
X126578366Y-85400000D01*
X126558934Y-85153089D01*
X126501115Y-84912258D01*
X126406334Y-84683437D01*
X126276925Y-84472260D01*
X126136708Y-84308087D01*
X126116073Y-84283926D01*
X125927744Y-84123078D01*
X125927742Y-84123076D01*
X125927740Y-84123075D01*
X125716563Y-83993666D01*
X125716561Y-83993665D01*
X125487743Y-83898885D01*
X125246911Y-83841066D01*
X125000000Y-83821634D01*
X124753088Y-83841066D01*
X124512256Y-83898885D01*
X124283438Y-83993665D01*
X124072255Y-84123078D01*
X123883926Y-84283926D01*
X123723078Y-84472255D01*
X123593665Y-84683438D01*
X123498885Y-84912256D01*
X123441066Y-85153088D01*
X123436924Y-85205712D01*
X123421634Y-85400000D01*
X116578366Y-85400000D01*
X116558934Y-85153089D01*
X116501115Y-84912258D01*
X116406334Y-84683437D01*
X116276925Y-84472260D01*
X116136708Y-84308087D01*
X116116073Y-84283926D01*
X115927744Y-84123078D01*
X115927742Y-84123076D01*
X115927740Y-84123075D01*
X115716563Y-83993666D01*
X115716561Y-83993665D01*
X115492629Y-83900909D01*
X115438911Y-83858561D01*
X115415235Y-83794386D01*
X115428580Y-83727297D01*
X115475012Y-83677067D01*
X115540847Y-83658500D01*
X116413389Y-83658500D01*
X116434874Y-83660871D01*
X116437534Y-83660787D01*
X116437537Y-83660788D01*
X116508369Y-83658561D01*
X116512327Y-83658500D01*
X116541434Y-83658500D01*
X116545825Y-83657945D01*
X116557662Y-83657012D01*
X116603831Y-83655562D01*
X116615412Y-83652197D01*
X116624418Y-83649581D01*
X116643780Y-83645570D01*
X116665064Y-83642882D01*
X116708032Y-83625869D01*
X116719231Y-83622035D01*
X116763600Y-83609145D01*
X116782064Y-83598224D01*
X116799807Y-83589532D01*
X116819756Y-83581635D01*
X116857148Y-83554466D01*
X116867025Y-83547978D01*
X116906807Y-83524453D01*
X116921974Y-83509285D01*
X116937006Y-83496447D01*
X116940825Y-83493671D01*
X116954357Y-83483841D01*
X116983813Y-83448233D01*
X116991782Y-83439476D01*
X120324383Y-80106874D01*
X120341255Y-80093358D01*
X120343076Y-80091418D01*
X120343080Y-80091416D01*
X120391652Y-80039690D01*
X120394314Y-80036943D01*
X120414926Y-80016333D01*
X120417641Y-80012831D01*
X120425343Y-80003813D01*
X120456972Y-79970133D01*
X120467300Y-79951345D01*
X120478158Y-79934815D01*
X120491304Y-79917869D01*
X120509653Y-79875464D01*
X120514868Y-79864819D01*
X120537124Y-79824337D01*
X120542460Y-79803549D01*
X120548860Y-79784861D01*
X120557379Y-79765177D01*
X120564606Y-79719543D01*
X120567006Y-79707948D01*
X120578500Y-79663188D01*
X120578500Y-79641742D01*
X120580051Y-79622031D01*
X120583406Y-79600849D01*
X120579059Y-79554864D01*
X120578500Y-79543006D01*
X120578500Y-77100000D01*
X123421634Y-77100000D01*
X123441066Y-77346911D01*
X123498885Y-77587742D01*
X123593666Y-77816563D01*
X123723075Y-78027740D01*
X123723076Y-78027742D01*
X123723078Y-78027744D01*
X123883926Y-78216073D01*
X123989277Y-78306051D01*
X124072260Y-78376925D01*
X124283437Y-78506334D01*
X124512258Y-78601115D01*
X124753089Y-78658934D01*
X125000000Y-78678366D01*
X125246911Y-78658934D01*
X125487742Y-78601115D01*
X125716563Y-78506334D01*
X125927740Y-78376925D01*
X126116073Y-78216073D01*
X126276925Y-78027740D01*
X126406334Y-77816563D01*
X126501115Y-77587742D01*
X126558934Y-77346911D01*
X126578366Y-77100000D01*
X133421634Y-77100000D01*
X133441066Y-77346911D01*
X133498885Y-77587742D01*
X133593666Y-77816563D01*
X133723075Y-78027740D01*
X133723076Y-78027742D01*
X133723078Y-78027744D01*
X133883926Y-78216073D01*
X133989277Y-78306051D01*
X134072260Y-78376925D01*
X134283437Y-78506334D01*
X134512258Y-78601115D01*
X134753089Y-78658934D01*
X135000000Y-78678366D01*
X135246911Y-78658934D01*
X135487742Y-78601115D01*
X135716563Y-78506334D01*
X135927740Y-78376925D01*
X136116073Y-78216073D01*
X136276925Y-78027740D01*
X136406334Y-77816563D01*
X136501115Y-77587742D01*
X136558934Y-77346911D01*
X136578366Y-77100000D01*
X136558934Y-76853089D01*
X136501115Y-76612258D01*
X136406334Y-76383437D01*
X136276925Y-76172260D01*
X136276921Y-76172255D01*
X136116073Y-75983926D01*
X135927744Y-75823078D01*
X135927742Y-75823076D01*
X135927740Y-75823075D01*
X135716563Y-75693666D01*
X135648345Y-75665409D01*
X135594627Y-75623061D01*
X135570951Y-75558886D01*
X135584296Y-75491797D01*
X135630728Y-75441567D01*
X135696563Y-75423000D01*
X136013589Y-75423000D01*
X136074093Y-75416494D01*
X136210962Y-75365445D01*
X136327904Y-75277904D01*
X136415445Y-75160962D01*
X136466494Y-75024093D01*
X136473000Y-74963589D01*
X136473000Y-74254000D01*
X133527000Y-74254000D01*
X133527000Y-74963589D01*
X133533505Y-75024093D01*
X133584554Y-75160962D01*
X133672095Y-75277904D01*
X133789037Y-75365445D01*
X133925906Y-75416494D01*
X133986411Y-75423000D01*
X134303437Y-75423000D01*
X134369272Y-75441567D01*
X134415704Y-75491797D01*
X134429049Y-75558886D01*
X134405373Y-75623061D01*
X134351655Y-75665409D01*
X134283438Y-75693665D01*
X134072255Y-75823078D01*
X133883926Y-75983926D01*
X133723078Y-76172255D01*
X133593665Y-76383438D01*
X133498885Y-76612256D01*
X133441066Y-76853088D01*
X133439420Y-76874000D01*
X133421634Y-77100000D01*
X126578366Y-77100000D01*
X126558934Y-76853089D01*
X126501115Y-76612258D01*
X126406334Y-76383437D01*
X126276925Y-76172260D01*
X126276921Y-76172255D01*
X126116073Y-75983926D01*
X125927744Y-75823078D01*
X125927742Y-75823076D01*
X125927740Y-75823075D01*
X125716563Y-75693666D01*
X125648345Y-75665409D01*
X125594627Y-75623061D01*
X125570951Y-75558886D01*
X125584296Y-75491797D01*
X125630728Y-75441567D01*
X125696563Y-75423000D01*
X126013589Y-75423000D01*
X126074093Y-75416494D01*
X126210962Y-75365445D01*
X126327904Y-75277904D01*
X126415445Y-75160962D01*
X126466494Y-75024093D01*
X126473000Y-74963589D01*
X126473000Y-74254000D01*
X123527000Y-74254000D01*
X123527000Y-74963589D01*
X123533505Y-75024093D01*
X123584554Y-75160962D01*
X123672095Y-75277904D01*
X123789037Y-75365445D01*
X123925906Y-75416494D01*
X123986411Y-75423000D01*
X124303437Y-75423000D01*
X124369272Y-75441567D01*
X124415704Y-75491797D01*
X124429049Y-75558886D01*
X124405373Y-75623061D01*
X124351655Y-75665409D01*
X124283438Y-75693665D01*
X124072255Y-75823078D01*
X123883926Y-75983926D01*
X123723078Y-76172255D01*
X123593665Y-76383438D01*
X123498885Y-76612256D01*
X123441066Y-76853088D01*
X123439420Y-76874000D01*
X123421634Y-77100000D01*
X120578500Y-77100000D01*
X120578500Y-73746000D01*
X123527000Y-73746000D01*
X124746000Y-73746000D01*
X124746000Y-72577000D01*
X125254000Y-72577000D01*
X125254000Y-73746000D01*
X126473000Y-73746000D01*
X133527000Y-73746000D01*
X136473000Y-73746000D01*
X136473000Y-73036411D01*
X136466494Y-72975906D01*
X136415445Y-72839037D01*
X136327904Y-72722095D01*
X136210962Y-72634554D01*
X136066032Y-72580498D01*
X136015586Y-72545808D01*
X135987446Y-72491437D01*
X135988254Y-72430220D01*
X136017820Y-72376611D01*
X136058942Y-72349902D01*
X136058344Y-72348797D01*
X136272744Y-72232770D01*
X136301317Y-72210529D01*
X136301317Y-72210528D01*
X135500000Y-71409210D01*
X135499999Y-71409210D01*
X134698680Y-72210528D01*
X134698681Y-72210529D01*
X134727254Y-72232769D01*
X134925744Y-72340186D01*
X134973479Y-72385610D01*
X134991758Y-72448917D01*
X134975582Y-72512793D01*
X134929375Y-72559770D01*
X134865775Y-72577000D01*
X133986411Y-72577000D01*
X133925906Y-72583505D01*
X133789037Y-72634554D01*
X133672095Y-72722095D01*
X133584554Y-72839037D01*
X133533505Y-72975906D01*
X133527000Y-73036411D01*
X133527000Y-73746000D01*
X126473000Y-73746000D01*
X126473000Y-73036411D01*
X126466494Y-72975906D01*
X126415445Y-72839037D01*
X126327904Y-72722095D01*
X126210962Y-72634554D01*
X126074093Y-72583505D01*
X126013589Y-72577000D01*
X125254000Y-72577000D01*
X124746000Y-72577000D01*
X123986411Y-72577000D01*
X123925906Y-72583505D01*
X123789037Y-72634554D01*
X123672095Y-72722095D01*
X123584554Y-72839037D01*
X123533505Y-72975906D01*
X123527000Y-73036411D01*
X123527000Y-73746000D01*
X120578500Y-73746000D01*
X120578500Y-71049999D01*
X134087174Y-71049999D01*
X134106444Y-71282548D01*
X134163723Y-71508739D01*
X134257458Y-71722434D01*
X134340795Y-71849991D01*
X134340796Y-71849991D01*
X135140789Y-71050000D01*
X135140789Y-71049999D01*
X134340796Y-70250006D01*
X134257456Y-70377571D01*
X134163723Y-70591260D01*
X134106444Y-70817451D01*
X134087174Y-71049999D01*
X120578500Y-71049999D01*
X120578500Y-70201888D01*
X120592737Y-70143708D01*
X120632228Y-70098676D01*
X120764300Y-70006198D01*
X120926198Y-69844300D01*
X121057523Y-69656749D01*
X121154284Y-69449243D01*
X121213543Y-69228087D01*
X121233498Y-69000000D01*
X121213543Y-68771913D01*
X121154284Y-68550757D01*
X121057523Y-68343251D01*
X121054958Y-68337750D01*
X121043423Y-68276259D01*
X121062886Y-68216800D01*
X121108548Y-68174032D01*
X121169153Y-68158500D01*
X128830847Y-68158500D01*
X128891452Y-68174032D01*
X128937114Y-68216800D01*
X128956577Y-68276259D01*
X128945042Y-68337750D01*
X128845715Y-68550756D01*
X128786457Y-68771912D01*
X128766502Y-69000000D01*
X128786457Y-69228087D01*
X128845715Y-69449243D01*
X128942477Y-69656750D01*
X129073804Y-69844303D01*
X129235696Y-70006195D01*
X129423249Y-70137522D01*
X129630756Y-70234284D01*
X129689432Y-70250006D01*
X129851913Y-70293543D01*
X130080000Y-70313498D01*
X130308087Y-70293543D01*
X130529243Y-70234284D01*
X130736749Y-70137523D01*
X130924300Y-70006198D01*
X131041028Y-69889470D01*
X134698680Y-69889470D01*
X135499999Y-70690789D01*
X135500000Y-70690789D01*
X136301318Y-69889470D01*
X136301317Y-69889469D01*
X136272745Y-69867230D01*
X136067525Y-69756171D01*
X135846830Y-69680407D01*
X135616668Y-69642000D01*
X135383332Y-69642000D01*
X135153169Y-69680407D01*
X134932474Y-69756171D01*
X134727255Y-69867230D01*
X134698681Y-69889469D01*
X134698680Y-69889470D01*
X131041028Y-69889470D01*
X131086198Y-69844300D01*
X131217523Y-69656749D01*
X131314284Y-69449243D01*
X131373543Y-69228087D01*
X131393498Y-69000000D01*
X131373543Y-68771913D01*
X131314284Y-68550757D01*
X131217523Y-68343251D01*
X131214958Y-68337750D01*
X131203423Y-68276259D01*
X131222886Y-68216800D01*
X131268548Y-68174032D01*
X131329153Y-68158500D01*
X136625050Y-68158500D01*
X136673268Y-68168091D01*
X136714145Y-68195405D01*
X137947547Y-69428807D01*
X137980910Y-69488235D01*
X137978445Y-69556342D01*
X137940875Y-69613204D01*
X137879192Y-69642183D01*
X137791906Y-69656749D01*
X137653046Y-69679920D01*
X137432273Y-69755712D01*
X137226984Y-69866809D01*
X137042779Y-70010182D01*
X136884685Y-70181918D01*
X136855183Y-70227074D01*
X136809669Y-70268972D01*
X136749699Y-70284157D01*
X136689730Y-70268970D01*
X136670392Y-70251167D01*
X136659202Y-70250007D01*
X135859210Y-71049999D01*
X135859210Y-71050000D01*
X136659203Y-71849991D01*
X136670392Y-71848831D01*
X136689730Y-71831029D01*
X136749699Y-71815842D01*
X136809669Y-71831028D01*
X136855182Y-71872924D01*
X136884684Y-71918080D01*
X136884686Y-71918083D01*
X136984837Y-72026876D01*
X137042780Y-72089818D01*
X137226983Y-72233190D01*
X137432273Y-72344287D01*
X137653049Y-72420080D01*
X137883288Y-72458500D01*
X138116709Y-72458500D01*
X138116712Y-72458500D01*
X138346951Y-72420080D01*
X138567727Y-72344287D01*
X138773017Y-72233190D01*
X138957220Y-72089818D01*
X139115314Y-71918083D01*
X139144517Y-71873383D01*
X139190031Y-71831485D01*
X139250000Y-71816299D01*
X139309969Y-71831485D01*
X139355482Y-71873383D01*
X139384686Y-71918083D01*
X139542780Y-72089818D01*
X139726983Y-72233190D01*
X139932273Y-72344287D01*
X140153049Y-72420080D01*
X140383288Y-72458500D01*
X140616709Y-72458500D01*
X140616712Y-72458500D01*
X140846951Y-72420080D01*
X141067727Y-72344287D01*
X141273017Y-72233190D01*
X141457220Y-72089818D01*
X141615314Y-71918083D01*
X141742984Y-71722669D01*
X141836749Y-71508907D01*
X141894051Y-71282626D01*
X141913327Y-71050000D01*
X141894051Y-70817374D01*
X141836749Y-70591093D01*
X141742984Y-70377331D01*
X141615314Y-70181917D01*
X141457220Y-70010182D01*
X141273017Y-69866810D01*
X141231422Y-69844300D01*
X141067726Y-69755712D01*
X140915340Y-69703398D01*
X140846951Y-69679920D01*
X140616712Y-69641500D01*
X140383288Y-69641500D01*
X140153049Y-69679920D01*
X140153045Y-69679921D01*
X140142751Y-69681639D01*
X140142265Y-69678729D01*
X140089733Y-69681444D01*
X140029042Y-69647782D01*
X137476874Y-67095614D01*
X137463356Y-67078742D01*
X137443966Y-67060534D01*
X137409741Y-67028394D01*
X137406930Y-67025670D01*
X137386333Y-67005073D01*
X137382828Y-67002354D01*
X137373803Y-66994646D01*
X137340131Y-66963026D01*
X137321338Y-66952694D01*
X137304817Y-66941842D01*
X137287870Y-66928697D01*
X137263990Y-66918363D01*
X137245459Y-66910343D01*
X137234818Y-66905130D01*
X137194337Y-66882876D01*
X137194334Y-66882875D01*
X137173568Y-66877543D01*
X137154864Y-66871139D01*
X137135178Y-66862620D01*
X137089552Y-66855394D01*
X137077928Y-66852987D01*
X137061180Y-66848687D01*
X137033188Y-66841500D01*
X137033187Y-66841500D01*
X137011741Y-66841500D01*
X136992032Y-66839949D01*
X136970848Y-66836594D01*
X136970847Y-66836594D01*
X136950770Y-66838491D01*
X136924859Y-66840941D01*
X136913004Y-66841500D01*
X119187299Y-66841500D01*
X119165813Y-66839128D01*
X119092319Y-66841438D01*
X119088361Y-66841500D01*
X119059256Y-66841500D01*
X119054848Y-66842056D01*
X119043032Y-66842986D01*
X118996854Y-66844437D01*
X118976261Y-66850420D01*
X118956910Y-66854428D01*
X118935622Y-66857118D01*
X118892662Y-66874126D01*
X118881437Y-66877969D01*
X118837088Y-66890854D01*
X118818626Y-66901772D01*
X118800878Y-66910466D01*
X118780934Y-66918363D01*
X118743561Y-66945516D01*
X118733641Y-66952033D01*
X118693879Y-66975548D01*
X118678711Y-66990716D01*
X118663684Y-67003550D01*
X118646331Y-67016158D01*
X118616879Y-67051758D01*
X118608892Y-67060534D01*
X115646911Y-70022515D01*
X115588748Y-70055564D01*
X115521865Y-70054182D01*
X115465116Y-70018759D01*
X115457221Y-70010183D01*
X115452101Y-70006198D01*
X115273017Y-69866810D01*
X115231422Y-69844300D01*
X115067726Y-69755712D01*
X114915340Y-69703398D01*
X114846951Y-69679920D01*
X114616712Y-69641500D01*
X114383288Y-69641500D01*
X114153049Y-69679920D01*
X114153046Y-69679920D01*
X114153046Y-69679921D01*
X113932273Y-69755712D01*
X113726984Y-69866809D01*
X113542779Y-70010182D01*
X113384683Y-70181920D01*
X113355482Y-70226616D01*
X113309969Y-70268514D01*
X113250000Y-70283700D01*
X113190031Y-70268514D01*
X113144518Y-70226616D01*
X113115316Y-70181920D01*
X113115315Y-70181919D01*
X113115314Y-70181917D01*
X112957220Y-70010182D01*
X112773017Y-69866810D01*
X112731422Y-69844300D01*
X112567726Y-69755712D01*
X112415340Y-69703398D01*
X112346951Y-69679920D01*
X112116712Y-69641500D01*
X111883288Y-69641500D01*
X111653049Y-69679920D01*
X111653046Y-69679920D01*
X111653046Y-69679921D01*
X111432273Y-69755712D01*
X111226984Y-69866809D01*
X111042779Y-70010182D01*
X110884685Y-70181918D01*
X110855183Y-70227074D01*
X110809669Y-70268972D01*
X110749699Y-70284157D01*
X110689730Y-70268970D01*
X110670392Y-70251167D01*
X110659201Y-70250006D01*
X109589094Y-71320114D01*
X109532610Y-71352726D01*
X109467388Y-71352726D01*
X109410904Y-71320114D01*
X108340796Y-70250006D01*
X108257456Y-70377571D01*
X108163723Y-70591260D01*
X108106444Y-70817451D01*
X108087174Y-71049999D01*
X108106444Y-71282548D01*
X108157479Y-71484080D01*
X108158653Y-71540868D01*
X108134767Y-71592402D01*
X108090674Y-71628208D01*
X108035335Y-71641011D01*
X105707103Y-71641011D01*
X105685613Y-71638638D01*
X105612088Y-71640949D01*
X105608130Y-71641011D01*
X105579056Y-71641011D01*
X105574660Y-71641566D01*
X105562837Y-71642496D01*
X105516659Y-71643947D01*
X105496060Y-71649932D01*
X105476705Y-71653940D01*
X105455423Y-71656629D01*
X105412465Y-71673636D01*
X105401241Y-71677479D01*
X105356887Y-71690365D01*
X105338426Y-71701283D01*
X105320680Y-71709977D01*
X105300733Y-71717875D01*
X105263362Y-71745027D01*
X105253442Y-71751544D01*
X105213680Y-71775059D01*
X105198512Y-71790227D01*
X105183485Y-71803061D01*
X105166132Y-71815669D01*
X105136680Y-71851269D01*
X105128693Y-71860045D01*
X104385362Y-72603376D01*
X104328878Y-72635988D01*
X104263657Y-72635988D01*
X104228087Y-72626457D01*
X104000000Y-72606502D01*
X103771912Y-72626457D01*
X103550756Y-72685715D01*
X103343249Y-72782477D01*
X103155696Y-72913804D01*
X102993804Y-73075696D01*
X102862477Y-73263249D01*
X102765715Y-73470756D01*
X102706457Y-73691912D01*
X102686502Y-73919999D01*
X102706457Y-74148087D01*
X102765715Y-74369243D01*
X102862477Y-74576750D01*
X102993804Y-74764303D01*
X103155696Y-74926195D01*
X103343249Y-75057522D01*
X103550756Y-75154284D01*
X103575679Y-75160962D01*
X103771913Y-75213543D01*
X104000000Y-75233498D01*
X104228087Y-75213543D01*
X104449243Y-75154284D01*
X104656749Y-75057523D01*
X104844300Y-74926198D01*
X105006198Y-74764300D01*
X105137523Y-74576749D01*
X105234284Y-74369243D01*
X105293543Y-74148087D01*
X105313498Y-73920000D01*
X105293543Y-73691913D01*
X105284012Y-73656344D01*
X105284011Y-73591121D01*
X105316621Y-73534637D01*
X105856344Y-72994915D01*
X105897222Y-72967602D01*
X105945440Y-72958011D01*
X106334165Y-72958011D01*
X106399531Y-72976292D01*
X106445928Y-73025831D01*
X106459895Y-73092252D01*
X106437378Y-73156281D01*
X106423602Y-73175956D01*
X106362477Y-73263250D01*
X106265715Y-73470756D01*
X106206457Y-73691912D01*
X106186502Y-73919999D01*
X106206457Y-74148087D01*
X106265715Y-74369243D01*
X106362477Y-74576750D01*
X106493804Y-74764303D01*
X106655696Y-74926195D01*
X106843249Y-75057522D01*
X107050756Y-75154284D01*
X107075679Y-75160962D01*
X107271913Y-75213543D01*
X107500000Y-75233498D01*
X107728087Y-75213543D01*
X107949243Y-75154284D01*
X108156749Y-75057523D01*
X108344300Y-74926198D01*
X108506198Y-74764300D01*
X108598676Y-74632228D01*
X108643708Y-74592737D01*
X108701888Y-74578500D01*
X109993389Y-74578500D01*
X110014874Y-74580871D01*
X110017534Y-74580787D01*
X110017537Y-74580788D01*
X110088369Y-74578561D01*
X110092327Y-74578500D01*
X110121434Y-74578500D01*
X110125825Y-74577945D01*
X110137662Y-74577012D01*
X110183831Y-74575562D01*
X110195412Y-74572197D01*
X110204418Y-74569581D01*
X110223780Y-74565570D01*
X110245064Y-74562882D01*
X110288032Y-74545869D01*
X110299231Y-74542035D01*
X110343600Y-74529145D01*
X110362064Y-74518224D01*
X110379807Y-74509532D01*
X110399756Y-74501635D01*
X110437148Y-74474466D01*
X110447025Y-74467978D01*
X110486807Y-74444453D01*
X110501974Y-74429285D01*
X110517006Y-74416447D01*
X110520825Y-74413671D01*
X110534357Y-74403841D01*
X110563807Y-74368240D01*
X110571777Y-74359481D01*
X111500855Y-73430404D01*
X111541733Y-73403091D01*
X111589951Y-73393500D01*
X113401000Y-73393500D01*
X113464000Y-73410381D01*
X113510119Y-73456500D01*
X113527000Y-73519500D01*
X113527000Y-73746000D01*
X116473000Y-73746000D01*
X116473000Y-73036411D01*
X116466494Y-72975906D01*
X116415445Y-72839037D01*
X116327904Y-72722095D01*
X116210962Y-72634554D01*
X116092938Y-72590534D01*
X116041746Y-72554991D01*
X116013850Y-72499261D01*
X116016074Y-72436980D01*
X116047873Y-72383385D01*
X116404387Y-72026871D01*
X116421251Y-72013362D01*
X116423076Y-72011418D01*
X116423080Y-72011416D01*
X116471606Y-71959739D01*
X116474328Y-71956930D01*
X116494927Y-71936333D01*
X116497648Y-71932823D01*
X116505346Y-71923809D01*
X116536972Y-71890133D01*
X116547303Y-71871339D01*
X116558159Y-71854814D01*
X116562800Y-71848831D01*
X116571304Y-71837868D01*
X116589652Y-71795465D01*
X116594877Y-71784803D01*
X116600234Y-71775059D01*
X116617124Y-71744337D01*
X116622458Y-71723558D01*
X116628856Y-71704869D01*
X116637380Y-71685176D01*
X116644609Y-71639521D01*
X116647010Y-71627932D01*
X116658500Y-71583188D01*
X116658500Y-71561741D01*
X116660051Y-71542030D01*
X116660235Y-71540868D01*
X116663406Y-71520848D01*
X116659058Y-71474859D01*
X116658500Y-71463004D01*
X116658500Y-70925638D01*
X116668091Y-70877420D01*
X116695402Y-70836545D01*
X118409441Y-69122505D01*
X118471261Y-69088590D01*
X118541627Y-69093202D01*
X118598495Y-69134898D01*
X118624053Y-69200620D01*
X118626455Y-69228082D01*
X118685715Y-69449243D01*
X118782477Y-69656750D01*
X118913804Y-69844303D01*
X119075696Y-70006195D01*
X119075699Y-70006197D01*
X119075700Y-70006198D01*
X119207771Y-70098676D01*
X119247263Y-70143708D01*
X119261500Y-70201888D01*
X119261500Y-79255051D01*
X119251909Y-79303269D01*
X119224595Y-79344146D01*
X116264145Y-82304595D01*
X116223268Y-82331909D01*
X116175050Y-82341500D01*
X108666614Y-82341500D01*
X108645125Y-82339127D01*
X108571612Y-82341438D01*
X108567654Y-82341500D01*
X108538566Y-82341500D01*
X108534162Y-82342056D01*
X108522341Y-82342986D01*
X108476166Y-82344437D01*
X108455573Y-82350420D01*
X108436222Y-82354428D01*
X108414934Y-82357118D01*
X108371974Y-82374126D01*
X108360749Y-82377969D01*
X108316400Y-82390854D01*
X108297938Y-82401772D01*
X108280190Y-82410466D01*
X108260246Y-82418363D01*
X108222873Y-82445516D01*
X108212955Y-82452031D01*
X108194424Y-82462990D01*
X108173191Y-82475548D01*
X108158023Y-82490716D01*
X108142996Y-82503550D01*
X108125643Y-82516158D01*
X108096191Y-82551758D01*
X108088204Y-82560534D01*
X107885362Y-82763376D01*
X107828878Y-82795988D01*
X107763657Y-82795988D01*
X107728087Y-82786457D01*
X107500000Y-82766502D01*
X107271910Y-82786457D01*
X107236341Y-82795988D01*
X107171119Y-82795988D01*
X107114636Y-82763376D01*
X106877363Y-82526103D01*
X106863845Y-82509231D01*
X106857795Y-82503550D01*
X106810230Y-82458883D01*
X106807419Y-82456159D01*
X106786822Y-82435562D01*
X106783317Y-82432843D01*
X106774292Y-82425135D01*
X106740620Y-82393515D01*
X106721827Y-82383183D01*
X106705306Y-82372331D01*
X106688359Y-82359186D01*
X106688357Y-82359185D01*
X106645948Y-82340832D01*
X106635307Y-82335619D01*
X106594826Y-82313365D01*
X106594823Y-82313364D01*
X106574057Y-82308032D01*
X106555353Y-82301628D01*
X106535667Y-82293109D01*
X106490041Y-82285883D01*
X106478417Y-82283476D01*
X106461669Y-82279176D01*
X106433677Y-82271989D01*
X106433676Y-82271989D01*
X106412230Y-82271989D01*
X106392521Y-82270438D01*
X106371337Y-82267083D01*
X106371336Y-82267083D01*
X106351259Y-82268980D01*
X106325348Y-82271430D01*
X106313493Y-82271989D01*
X104635439Y-82271989D01*
X104587221Y-82262398D01*
X104546344Y-82235084D01*
X99411260Y-77100000D01*
X113421634Y-77100000D01*
X113441066Y-77346911D01*
X113498885Y-77587742D01*
X113593666Y-77816563D01*
X113723075Y-78027740D01*
X113723076Y-78027742D01*
X113723078Y-78027744D01*
X113883926Y-78216073D01*
X113989277Y-78306051D01*
X114072260Y-78376925D01*
X114283437Y-78506334D01*
X114512258Y-78601115D01*
X114753089Y-78658934D01*
X115000000Y-78678366D01*
X115246911Y-78658934D01*
X115487742Y-78601115D01*
X115716563Y-78506334D01*
X115927740Y-78376925D01*
X116116073Y-78216073D01*
X116276925Y-78027740D01*
X116406334Y-77816563D01*
X116501115Y-77587742D01*
X116558934Y-77346911D01*
X116578366Y-77100000D01*
X116558934Y-76853089D01*
X116501115Y-76612258D01*
X116406334Y-76383437D01*
X116276925Y-76172260D01*
X116276921Y-76172255D01*
X116116073Y-75983926D01*
X115927744Y-75823078D01*
X115927742Y-75823076D01*
X115927740Y-75823075D01*
X115716563Y-75693666D01*
X115648345Y-75665409D01*
X115594627Y-75623061D01*
X115570951Y-75558886D01*
X115584296Y-75491797D01*
X115630728Y-75441567D01*
X115696563Y-75423000D01*
X116013589Y-75423000D01*
X116074093Y-75416494D01*
X116210962Y-75365445D01*
X116327904Y-75277904D01*
X116415445Y-75160962D01*
X116466494Y-75024093D01*
X116473000Y-74963589D01*
X116473000Y-74254000D01*
X113527000Y-74254000D01*
X113527000Y-74963589D01*
X113533505Y-75024093D01*
X113584554Y-75160962D01*
X113672095Y-75277904D01*
X113789037Y-75365445D01*
X113925906Y-75416494D01*
X113986411Y-75423000D01*
X114303437Y-75423000D01*
X114369272Y-75441567D01*
X114415704Y-75491797D01*
X114429049Y-75558886D01*
X114405373Y-75623061D01*
X114351655Y-75665409D01*
X114283438Y-75693665D01*
X114072255Y-75823078D01*
X113883926Y-75983926D01*
X113723078Y-76172255D01*
X113593665Y-76383438D01*
X113498885Y-76612256D01*
X113441066Y-76853088D01*
X113439420Y-76874000D01*
X113421634Y-77100000D01*
X99411260Y-77100000D01*
X99357010Y-77045750D01*
X99324626Y-76990103D01*
X99323961Y-76925725D01*
X99344564Y-76844368D01*
X99363156Y-76620000D01*
X99344564Y-76395632D01*
X99289296Y-76177384D01*
X99198860Y-75971209D01*
X99075722Y-75782732D01*
X98923240Y-75617094D01*
X98923239Y-75617093D01*
X98923237Y-75617091D01*
X98745579Y-75478813D01*
X98745577Y-75478812D01*
X98745576Y-75478811D01*
X98712317Y-75460812D01*
X98664047Y-75414498D01*
X98646288Y-75350000D01*
X98664047Y-75285502D01*
X98712317Y-75239187D01*
X98745576Y-75221189D01*
X98923240Y-75082906D01*
X99075722Y-74917268D01*
X99198860Y-74728791D01*
X99289296Y-74522616D01*
X99344564Y-74304368D01*
X99363156Y-74080000D01*
X99344564Y-73855632D01*
X99289296Y-73637384D01*
X99198860Y-73431209D01*
X99075722Y-73242732D01*
X98923240Y-73077094D01*
X98923239Y-73077093D01*
X98923237Y-73077091D01*
X98745578Y-72938812D01*
X98712317Y-72920812D01*
X98664046Y-72874495D01*
X98646288Y-72809997D01*
X98664049Y-72745499D01*
X98712317Y-72699187D01*
X98745576Y-72681189D01*
X98923240Y-72542906D01*
X99075722Y-72377268D01*
X99198860Y-72188791D01*
X99289296Y-71982616D01*
X99344564Y-71764368D01*
X99363156Y-71540000D01*
X99344564Y-71315632D01*
X99289296Y-71097384D01*
X99198860Y-70891209D01*
X99075722Y-70702732D01*
X98932523Y-70547178D01*
X98903287Y-70493575D01*
X98902684Y-70432519D01*
X98930859Y-70378348D01*
X98981188Y-70343787D01*
X99096204Y-70300889D01*
X99213261Y-70213261D01*
X99300889Y-70096204D01*
X99351989Y-69959201D01*
X99358500Y-69898638D01*
X99358500Y-69889470D01*
X108698680Y-69889470D01*
X109499999Y-70690789D01*
X109500000Y-70690789D01*
X110301318Y-69889470D01*
X110301317Y-69889469D01*
X110272745Y-69867230D01*
X110067525Y-69756171D01*
X109846830Y-69680407D01*
X109616668Y-69642000D01*
X109383332Y-69642000D01*
X109153169Y-69680407D01*
X108932474Y-69756171D01*
X108727255Y-69867230D01*
X108698681Y-69889469D01*
X108698680Y-69889470D01*
X99358500Y-69889470D01*
X99358500Y-68101362D01*
X99351989Y-68040799D01*
X99300889Y-67903796D01*
X99300888Y-67903794D01*
X99213261Y-67786738D01*
X99096205Y-67699111D01*
X99027702Y-67673560D01*
X98959201Y-67648011D01*
X98898638Y-67641500D01*
X97101362Y-67641500D01*
X97040799Y-67648011D01*
X96903794Y-67699111D01*
X96786738Y-67786738D01*
X96699111Y-67903794D01*
X96648010Y-68040799D01*
X96648011Y-68040799D01*
X96641500Y-68101362D01*
X96641500Y-69898638D01*
X96648011Y-69959201D01*
X96670225Y-70018759D01*
X96699111Y-70096205D01*
X96786738Y-70213261D01*
X96903794Y-70300888D01*
X96903795Y-70300888D01*
X96903796Y-70300889D01*
X97018809Y-70343787D01*
X97069140Y-70378348D01*
X97097315Y-70432519D01*
X97096712Y-70493574D01*
X97067475Y-70547178D01*
X96924281Y-70702728D01*
X96801139Y-70891209D01*
X96710702Y-71097388D01*
X96663814Y-71282548D01*
X96655436Y-71315632D01*
X96636844Y-71540000D01*
X96655436Y-71764368D01*
X96655436Y-71764371D01*
X96655437Y-71764372D01*
X96710702Y-71982611D01*
X96801139Y-72188790D01*
X96924278Y-72377268D01*
X97076762Y-72542908D01*
X97254418Y-72681185D01*
X97254420Y-72681186D01*
X97254424Y-72681189D01*
X97287682Y-72699187D01*
X97335952Y-72745503D01*
X97353711Y-72810000D01*
X97335952Y-72874497D01*
X97287682Y-72920812D01*
X97266431Y-72932313D01*
X97254418Y-72938814D01*
X97076762Y-73077091D01*
X96924278Y-73242731D01*
X96801139Y-73431209D01*
X96710702Y-73637388D01*
X96676038Y-73774275D01*
X96655436Y-73855632D01*
X96636844Y-74080000D01*
X96655436Y-74304368D01*
X96655436Y-74304371D01*
X96655437Y-74304372D01*
X96710702Y-74522611D01*
X96710703Y-74522614D01*
X96710704Y-74522616D01*
X96719947Y-74543688D01*
X96801139Y-74728790D01*
X96924278Y-74917268D01*
X97076762Y-75082908D01*
X97254418Y-75221185D01*
X97254420Y-75221186D01*
X97254424Y-75221189D01*
X97287682Y-75239187D01*
X97335952Y-75285503D01*
X97353711Y-75350000D01*
X97335952Y-75414497D01*
X97287682Y-75460812D01*
X97262794Y-75474281D01*
X97254418Y-75478814D01*
X97076762Y-75617091D01*
X96924278Y-75782731D01*
X96801139Y-75971209D01*
X96710702Y-76177388D01*
X96660648Y-76375050D01*
X96655436Y-76395632D01*
X96636844Y-76620000D01*
X96655436Y-76844368D01*
X96655437Y-76844370D01*
X96655437Y-76844372D01*
X96710702Y-77062611D01*
X96801139Y-77268790D01*
X96924278Y-77457268D01*
X97076762Y-77622908D01*
X97178611Y-77702181D01*
X97254424Y-77761189D01*
X97287682Y-77779187D01*
X97335951Y-77825500D01*
X97353711Y-77889997D01*
X97335953Y-77954494D01*
X97287683Y-78000811D01*
X97254423Y-78018810D01*
X97076762Y-78157091D01*
X96924278Y-78322731D01*
X96801139Y-78511209D01*
X96710702Y-78717388D01*
X96658567Y-78923268D01*
X96655436Y-78935632D01*
X96647661Y-79029457D01*
X96640499Y-79115885D01*
X96615155Y-79181839D01*
X96558295Y-79223781D01*
X96487799Y-79228523D01*
X96425834Y-79194574D01*
X96195405Y-78964145D01*
X96168091Y-78923268D01*
X96158500Y-78875050D01*
X96158500Y-64049999D01*
X105086539Y-64049999D01*
X105106358Y-64365018D01*
X105165504Y-64675071D01*
X105263044Y-64975266D01*
X105397438Y-65260869D01*
X105566565Y-65527372D01*
X105767766Y-65770582D01*
X105997860Y-65986654D01*
X106253221Y-66172184D01*
X106529821Y-66324247D01*
X106823298Y-66440443D01*
X106983804Y-66481653D01*
X107129024Y-66518940D01*
X107442176Y-66558500D01*
X107442179Y-66558500D01*
X107757821Y-66558500D01*
X107757824Y-66558500D01*
X108070975Y-66518940D01*
X108070975Y-66518939D01*
X108376702Y-66440443D01*
X108670179Y-66324247D01*
X108946779Y-66172184D01*
X109202140Y-65986654D01*
X109432233Y-65770582D01*
X109633432Y-65527375D01*
X109802562Y-65260869D01*
X109936956Y-64975266D01*
X110034495Y-64675072D01*
X110093641Y-64365020D01*
X110113460Y-64050000D01*
X110113460Y-64049999D01*
X113886539Y-64049999D01*
X113906358Y-64365018D01*
X113965504Y-64675071D01*
X114063044Y-64975266D01*
X114197438Y-65260869D01*
X114366565Y-65527372D01*
X114567766Y-65770582D01*
X114797860Y-65986654D01*
X115053221Y-66172184D01*
X115329821Y-66324247D01*
X115623298Y-66440443D01*
X115783804Y-66481653D01*
X115929024Y-66518940D01*
X116242176Y-66558500D01*
X116242179Y-66558500D01*
X116557821Y-66558500D01*
X116557824Y-66558500D01*
X116870975Y-66518940D01*
X116870975Y-66518939D01*
X117176702Y-66440443D01*
X117470179Y-66324247D01*
X117746779Y-66172184D01*
X118002140Y-65986654D01*
X118232233Y-65770582D01*
X118433432Y-65527375D01*
X118602562Y-65260869D01*
X118736956Y-64975266D01*
X118834495Y-64675072D01*
X118893641Y-64365020D01*
X118913460Y-64050000D01*
X131086539Y-64050000D01*
X131106358Y-64365018D01*
X131165504Y-64675071D01*
X131263044Y-64975266D01*
X131397438Y-65260869D01*
X131566565Y-65527372D01*
X131767766Y-65770582D01*
X131997860Y-65986654D01*
X132253221Y-66172184D01*
X132529821Y-66324247D01*
X132823298Y-66440443D01*
X132983804Y-66481653D01*
X133129024Y-66518940D01*
X133442176Y-66558500D01*
X133442179Y-66558500D01*
X133757821Y-66558500D01*
X133757824Y-66558500D01*
X134070975Y-66518940D01*
X134070975Y-66518939D01*
X134376702Y-66440443D01*
X134670179Y-66324247D01*
X134946779Y-66172184D01*
X135202140Y-65986654D01*
X135432233Y-65770582D01*
X135633432Y-65527375D01*
X135802562Y-65260869D01*
X135936956Y-64975266D01*
X136034495Y-64675072D01*
X136093641Y-64365020D01*
X136113460Y-64050000D01*
X139886539Y-64050000D01*
X139906358Y-64365018D01*
X139965504Y-64675071D01*
X140063044Y-64975266D01*
X140197438Y-65260869D01*
X140366565Y-65527372D01*
X140567766Y-65770582D01*
X140797860Y-65986654D01*
X141053221Y-66172184D01*
X141329821Y-66324247D01*
X141623298Y-66440443D01*
X141783804Y-66481653D01*
X141929024Y-66518940D01*
X142242176Y-66558500D01*
X142242179Y-66558500D01*
X142557821Y-66558500D01*
X142557824Y-66558500D01*
X142870975Y-66518940D01*
X142870975Y-66518939D01*
X143176702Y-66440443D01*
X143470179Y-66324247D01*
X143746779Y-66172184D01*
X144002140Y-65986654D01*
X144232233Y-65770582D01*
X144433432Y-65527375D01*
X144602562Y-65260869D01*
X144736956Y-64975266D01*
X144834495Y-64675072D01*
X144893641Y-64365020D01*
X144913460Y-64050000D01*
X144893641Y-63734980D01*
X144834495Y-63424928D01*
X144736956Y-63124734D01*
X144602562Y-62839131D01*
X144546185Y-62750295D01*
X144433434Y-62572627D01*
X144232233Y-62329417D01*
X144002139Y-62113345D01*
X143746781Y-61927817D01*
X143470178Y-61775752D01*
X143289210Y-61704102D01*
X143176702Y-61659557D01*
X143176699Y-61659556D01*
X143176696Y-61659555D01*
X142870975Y-61581059D01*
X142557824Y-61541500D01*
X142557821Y-61541500D01*
X142242179Y-61541500D01*
X142242176Y-61541500D01*
X141929024Y-61581059D01*
X141623303Y-61659555D01*
X141329821Y-61775752D01*
X141053218Y-61927817D01*
X140797860Y-62113345D01*
X140567766Y-62329417D01*
X140366565Y-62572627D01*
X140197438Y-62839130D01*
X140063044Y-63124733D01*
X139965504Y-63424928D01*
X139906358Y-63734981D01*
X139886539Y-64050000D01*
X136113460Y-64050000D01*
X136106089Y-63932847D01*
X136099060Y-63821107D01*
X136093641Y-63734980D01*
X136034495Y-63424928D01*
X135936956Y-63124734D01*
X135802562Y-62839131D01*
X135746185Y-62750295D01*
X135633434Y-62572627D01*
X135432233Y-62329417D01*
X135202139Y-62113345D01*
X134946781Y-61927817D01*
X134670178Y-61775752D01*
X134489210Y-61704102D01*
X134376702Y-61659557D01*
X134376699Y-61659556D01*
X134376696Y-61659555D01*
X134070975Y-61581059D01*
X133757824Y-61541500D01*
X133757821Y-61541500D01*
X133442179Y-61541500D01*
X133442176Y-61541500D01*
X133129024Y-61581059D01*
X132823303Y-61659555D01*
X132529821Y-61775752D01*
X132253218Y-61927817D01*
X131997860Y-62113345D01*
X131767766Y-62329417D01*
X131566565Y-62572627D01*
X131397438Y-62839130D01*
X131263044Y-63124733D01*
X131165504Y-63424928D01*
X131106358Y-63734981D01*
X131086539Y-64050000D01*
X118913460Y-64050000D01*
X118906089Y-63932847D01*
X118899060Y-63821107D01*
X118893641Y-63734980D01*
X118834495Y-63424928D01*
X118736956Y-63124734D01*
X118602562Y-62839131D01*
X118546185Y-62750295D01*
X118433434Y-62572627D01*
X118232233Y-62329417D01*
X118002139Y-62113345D01*
X117746781Y-61927817D01*
X117470178Y-61775752D01*
X117289210Y-61704102D01*
X117176702Y-61659557D01*
X117176699Y-61659556D01*
X117176696Y-61659555D01*
X116870975Y-61581059D01*
X116557824Y-61541500D01*
X116557821Y-61541500D01*
X116242179Y-61541500D01*
X116242176Y-61541500D01*
X115929024Y-61581059D01*
X115623303Y-61659555D01*
X115329821Y-61775752D01*
X115053218Y-61927817D01*
X114797860Y-62113345D01*
X114567766Y-62329417D01*
X114366565Y-62572627D01*
X114197438Y-62839130D01*
X114063044Y-63124733D01*
X113965504Y-63424928D01*
X113906358Y-63734981D01*
X113886539Y-64049999D01*
X110113460Y-64049999D01*
X110106089Y-63932847D01*
X110099060Y-63821107D01*
X110093641Y-63734980D01*
X110034495Y-63424928D01*
X109936956Y-63124734D01*
X109802562Y-62839131D01*
X109746185Y-62750295D01*
X109633434Y-62572627D01*
X109432233Y-62329417D01*
X109202139Y-62113345D01*
X108946781Y-61927817D01*
X108670178Y-61775752D01*
X108489210Y-61704102D01*
X108376702Y-61659557D01*
X108376699Y-61659556D01*
X108376696Y-61659555D01*
X108070975Y-61581059D01*
X107757824Y-61541500D01*
X107757821Y-61541500D01*
X107442179Y-61541500D01*
X107442176Y-61541500D01*
X107129024Y-61581059D01*
X106823303Y-61659555D01*
X106529821Y-61775752D01*
X106253218Y-61927817D01*
X105997860Y-62113345D01*
X105767766Y-62329417D01*
X105566565Y-62572627D01*
X105397438Y-62839130D01*
X105263044Y-63124733D01*
X105165504Y-63424928D01*
X105106358Y-63734981D01*
X105086539Y-64049999D01*
X96158500Y-64049999D01*
X96158500Y-59744950D01*
X96168091Y-59696732D01*
X96195405Y-59655855D01*
X96230455Y-59620804D01*
X99534637Y-56316621D01*
X99591120Y-56284011D01*
X99656343Y-56284012D01*
X99691909Y-56293542D01*
X99691913Y-56293543D01*
X99920000Y-56313498D01*
X100148087Y-56293543D01*
X100369243Y-56234284D01*
X100576749Y-56137523D01*
X100764300Y-56006198D01*
X100926198Y-55844300D01*
X101057523Y-55656749D01*
X101154284Y-55449243D01*
X101213543Y-55228087D01*
X101233498Y-55000000D01*
X108766502Y-55000000D01*
X108786457Y-55228087D01*
X108845715Y-55449243D01*
X108942477Y-55656750D01*
X109073804Y-55844303D01*
X109235696Y-56006195D01*
X109423249Y-56137522D01*
X109630756Y-56234284D01*
X109690014Y-56250162D01*
X109851913Y-56293543D01*
X110080000Y-56313498D01*
X110308087Y-56293543D01*
X110529243Y-56234284D01*
X110736749Y-56137523D01*
X110924300Y-56006198D01*
X111086198Y-55844300D01*
X111217523Y-55656749D01*
X111314284Y-55449243D01*
X111373543Y-55228087D01*
X111393498Y-55000000D01*
X111373543Y-54771913D01*
X111314284Y-54550757D01*
X111217523Y-54343251D01*
X111086198Y-54155700D01*
X111086197Y-54155699D01*
X111086195Y-54155696D01*
X110924303Y-53993804D01*
X110736750Y-53862477D01*
X110529243Y-53765715D01*
X110308087Y-53706457D01*
X110080000Y-53686502D01*
X109851912Y-53706457D01*
X109630756Y-53765715D01*
X109423249Y-53862477D01*
X109235696Y-53993804D01*
X109073804Y-54155696D01*
X108942477Y-54343249D01*
X108845715Y-54550756D01*
X108786457Y-54771912D01*
X108766502Y-55000000D01*
X101233498Y-55000000D01*
X101213543Y-54771913D01*
X101154284Y-54550757D01*
X101057523Y-54343251D01*
X100926198Y-54155700D01*
X100926197Y-54155699D01*
X100926195Y-54155696D01*
X100764303Y-53993804D01*
X100576750Y-53862477D01*
X100369243Y-53765715D01*
X100148087Y-53706457D01*
X99920000Y-53686502D01*
X99691912Y-53706457D01*
X99470756Y-53765715D01*
X99263249Y-53862477D01*
X99075696Y-53993804D01*
X98913804Y-54155696D01*
X98782477Y-54343249D01*
X98685715Y-54550756D01*
X98626457Y-54771912D01*
X98626457Y-54771913D01*
X98606502Y-55000000D01*
X98626457Y-55228087D01*
X98635988Y-55263655D01*
X98635988Y-55328878D01*
X98603376Y-55385362D01*
X95715595Y-58273143D01*
X95665436Y-58303881D01*
X95606789Y-58308497D01*
X95552439Y-58285984D01*
X95514233Y-58241251D01*
X95500500Y-58184048D01*
X95500501Y-51050000D01*
X106086673Y-51050000D01*
X106105949Y-51282626D01*
X106163251Y-51508907D01*
X106257016Y-51722669D01*
X106384686Y-51918083D01*
X106542780Y-52089818D01*
X106726983Y-52233190D01*
X106932273Y-52344287D01*
X107153049Y-52420080D01*
X107383288Y-52458500D01*
X107616709Y-52458500D01*
X107616712Y-52458500D01*
X107846951Y-52420080D01*
X108067727Y-52344287D01*
X108273017Y-52233190D01*
X108457220Y-52089818D01*
X108615314Y-51918083D01*
X108644517Y-51873383D01*
X108690031Y-51831485D01*
X108750000Y-51816299D01*
X108809969Y-51831485D01*
X108855482Y-51873383D01*
X108884686Y-51918083D01*
X109042780Y-52089818D01*
X109226983Y-52233190D01*
X109432273Y-52344287D01*
X109653049Y-52420080D01*
X109883288Y-52458500D01*
X110116709Y-52458500D01*
X110116712Y-52458500D01*
X110346951Y-52420080D01*
X110567727Y-52344287D01*
X110773017Y-52233190D01*
X110957220Y-52089818D01*
X111115314Y-51918083D01*
X111144517Y-51873383D01*
X111190031Y-51831485D01*
X111250000Y-51816299D01*
X111309969Y-51831485D01*
X111355482Y-51873383D01*
X111384686Y-51918083D01*
X111542780Y-52089818D01*
X111726983Y-52233190D01*
X111932273Y-52344287D01*
X112153049Y-52420080D01*
X112383288Y-52458500D01*
X112616709Y-52458500D01*
X112616712Y-52458500D01*
X112846951Y-52420080D01*
X113067727Y-52344287D01*
X113273017Y-52233190D01*
X113457220Y-52089818D01*
X113615314Y-51918083D01*
X113742984Y-51722669D01*
X113836749Y-51508907D01*
X113894051Y-51282626D01*
X113913327Y-51050000D01*
X113894051Y-50817374D01*
X113865117Y-50703118D01*
X113865782Y-50638738D01*
X113898164Y-50583094D01*
X118740663Y-45740596D01*
X118786661Y-45711292D01*
X118840737Y-45704172D01*
X118892756Y-45720574D01*
X118932969Y-45757422D01*
X118993804Y-45844303D01*
X119155696Y-46006195D01*
X119343249Y-46137522D01*
X119550756Y-46234284D01*
X119610014Y-46250162D01*
X119771913Y-46293543D01*
X120000000Y-46313498D01*
X120228087Y-46293543D01*
X120449243Y-46234284D01*
X120656749Y-46137523D01*
X120844300Y-46006198D01*
X121006198Y-45844300D01*
X121137523Y-45656749D01*
X121234284Y-45449243D01*
X121293543Y-45228087D01*
X121313498Y-45000000D01*
X128846502Y-45000000D01*
X128866457Y-45228087D01*
X128925715Y-45449243D01*
X129022477Y-45656750D01*
X129153804Y-45844303D01*
X129315696Y-46006195D01*
X129503249Y-46137522D01*
X129710756Y-46234284D01*
X129770014Y-46250162D01*
X129931913Y-46293543D01*
X130160000Y-46313498D01*
X130388087Y-46293543D01*
X130423655Y-46284011D01*
X130488878Y-46284011D01*
X130545363Y-46316623D01*
X149804595Y-65575855D01*
X149831909Y-65616732D01*
X149841500Y-65664950D01*
X149841500Y-78306051D01*
X149827767Y-78363254D01*
X149789561Y-78407987D01*
X149735211Y-78430500D01*
X149676564Y-78425884D01*
X149626405Y-78395146D01*
X148688527Y-77457268D01*
X147695405Y-76464145D01*
X147668091Y-76423268D01*
X147658500Y-76375050D01*
X147658500Y-73121888D01*
X147672737Y-73063708D01*
X147712228Y-73018676D01*
X147844300Y-72926198D01*
X148006198Y-72764300D01*
X148137523Y-72576749D01*
X148234284Y-72369243D01*
X148293543Y-72148087D01*
X148313498Y-71920000D01*
X148293543Y-71691913D01*
X148234284Y-71470757D01*
X148205584Y-71409210D01*
X148149740Y-71289451D01*
X148137523Y-71263251D01*
X148006198Y-71075700D01*
X148006197Y-71075699D01*
X148006195Y-71075696D01*
X147844303Y-70913804D01*
X147656750Y-70782477D01*
X147449243Y-70685715D01*
X147228087Y-70626457D01*
X147000000Y-70606502D01*
X146771912Y-70626457D01*
X146550756Y-70685715D01*
X146343249Y-70782477D01*
X146155696Y-70913804D01*
X145993804Y-71075696D01*
X145862477Y-71263249D01*
X145765715Y-71470756D01*
X145706457Y-71691912D01*
X145701504Y-71748520D01*
X145686502Y-71920000D01*
X145687931Y-71936333D01*
X145706457Y-72148087D01*
X145765715Y-72369243D01*
X145862477Y-72576750D01*
X145993804Y-72764303D01*
X146155696Y-72926195D01*
X146155699Y-72926197D01*
X146155700Y-72926198D01*
X146287771Y-73018676D01*
X146327263Y-73063708D01*
X146341500Y-73121888D01*
X146341500Y-76613389D01*
X146339128Y-76634874D01*
X146341438Y-76708369D01*
X146341500Y-76712327D01*
X146341500Y-76741436D01*
X146342055Y-76745832D01*
X146342986Y-76757656D01*
X146344437Y-76803831D01*
X146350421Y-76824427D01*
X146354429Y-76843782D01*
X146357117Y-76865061D01*
X146374124Y-76908017D01*
X146377967Y-76919244D01*
X146390854Y-76963600D01*
X146401770Y-76982058D01*
X146410467Y-76999810D01*
X146418364Y-77019756D01*
X146445514Y-77057123D01*
X146452030Y-77067042D01*
X146475547Y-77106807D01*
X146475549Y-77106810D01*
X146490710Y-77121971D01*
X146503550Y-77137004D01*
X146516157Y-77154355D01*
X146551752Y-77183802D01*
X146560532Y-77191792D01*
X149966720Y-80597979D01*
X149966729Y-80597990D01*
X149990710Y-80621971D01*
X150003550Y-80637004D01*
X150016157Y-80654355D01*
X150051746Y-80683797D01*
X150060526Y-80691786D01*
X150642988Y-81274247D01*
X150675372Y-81329893D01*
X150676038Y-81394272D01*
X150668701Y-81423249D01*
X150655436Y-81475632D01*
X150636844Y-81700000D01*
X150655436Y-81924368D01*
X150655437Y-81924370D01*
X150655437Y-81924372D01*
X150710702Y-82142611D01*
X150801139Y-82348790D01*
X150924278Y-82537268D01*
X151076762Y-82702908D01*
X151158467Y-82766502D01*
X151254424Y-82841189D01*
X151452426Y-82948342D01*
X151665365Y-83021444D01*
X151887431Y-83058500D01*
X152112566Y-83058500D01*
X152112569Y-83058500D01*
X152334635Y-83021444D01*
X152547574Y-82948342D01*
X152745576Y-82841189D01*
X152923240Y-82702906D01*
X153075722Y-82537268D01*
X153198860Y-82348791D01*
X153289296Y-82142616D01*
X153344564Y-81924368D01*
X153363156Y-81700000D01*
X153344564Y-81475632D01*
X153289296Y-81257384D01*
X153198860Y-81051209D01*
X153075722Y-80862732D01*
X152923240Y-80697094D01*
X152923239Y-80697093D01*
X152923237Y-80697091D01*
X152816641Y-80614124D01*
X152745576Y-80558811D01*
X152711792Y-80540528D01*
X152663521Y-80494212D01*
X152645762Y-80429715D01*
X152663521Y-80365217D01*
X152711793Y-80318901D01*
X152745300Y-80300768D01*
X152922903Y-80162533D01*
X153075321Y-79996962D01*
X153198419Y-79808548D01*
X153288822Y-79602451D01*
X153336544Y-79414000D01*
X151872000Y-79414000D01*
X151809000Y-79397119D01*
X151762881Y-79351000D01*
X151746000Y-79288000D01*
X151746000Y-76874000D01*
X152254000Y-76874000D01*
X152254000Y-78906000D01*
X153336544Y-78906000D01*
X153336544Y-78905999D01*
X153288822Y-78717548D01*
X153198419Y-78511451D01*
X153075321Y-78323037D01*
X152922903Y-78157466D01*
X152745300Y-78019232D01*
X152711266Y-78000814D01*
X152662994Y-77954498D01*
X152645235Y-77890000D01*
X152662994Y-77825502D01*
X152711266Y-77779186D01*
X152745300Y-77760767D01*
X152922903Y-77622533D01*
X153075321Y-77456962D01*
X153198419Y-77268548D01*
X153288822Y-77062451D01*
X153336544Y-76874000D01*
X152254000Y-76874000D01*
X151746000Y-76874000D01*
X151746000Y-76492000D01*
X151762881Y-76429000D01*
X151809000Y-76382881D01*
X151872000Y-76366000D01*
X153336544Y-76366000D01*
X153336544Y-76365999D01*
X153288822Y-76177548D01*
X153198419Y-75971451D01*
X153075321Y-75783037D01*
X152922903Y-75617466D01*
X152745299Y-75479231D01*
X152711791Y-75461097D01*
X152663520Y-75414780D01*
X152645762Y-75350282D01*
X152663522Y-75285785D01*
X152711791Y-75239471D01*
X152745576Y-75221189D01*
X152923240Y-75082906D01*
X153075722Y-74917268D01*
X153198860Y-74728791D01*
X153289296Y-74522616D01*
X153344564Y-74304368D01*
X153363156Y-74080000D01*
X153344564Y-73855632D01*
X153323961Y-73774273D01*
X153324626Y-73709894D01*
X153357008Y-73654250D01*
X153603898Y-73407360D01*
X153620762Y-73393851D01*
X153622587Y-73391907D01*
X153622591Y-73391905D01*
X153671117Y-73340228D01*
X153673839Y-73337419D01*
X153694438Y-73316822D01*
X153697159Y-73313312D01*
X153704857Y-73304298D01*
X153736483Y-73270622D01*
X153746814Y-73251828D01*
X153757670Y-73235303D01*
X153765976Y-73224595D01*
X153770815Y-73218357D01*
X153789163Y-73175954D01*
X153794388Y-73165292D01*
X153816633Y-73124829D01*
X153816635Y-73124826D01*
X153821969Y-73104047D01*
X153828367Y-73085358D01*
X153836891Y-73065665D01*
X153844120Y-73020010D01*
X153846521Y-73008421D01*
X153858011Y-72963677D01*
X153858011Y-72942230D01*
X153859562Y-72922519D01*
X153859832Y-72920814D01*
X153862917Y-72901337D01*
X153858569Y-72855348D01*
X153858011Y-72843493D01*
X153858011Y-64227477D01*
X153860383Y-64205988D01*
X153860299Y-64203328D01*
X153860300Y-64203326D01*
X153858073Y-64132475D01*
X153858011Y-64128517D01*
X153858011Y-64099438D01*
X153858011Y-64099431D01*
X153857454Y-64095025D01*
X153856523Y-64083198D01*
X153855480Y-64049999D01*
X153855073Y-64037032D01*
X153849089Y-64016437D01*
X153845081Y-63997080D01*
X153842393Y-63975799D01*
X153825385Y-63932841D01*
X153821541Y-63921614D01*
X153808656Y-63877263D01*
X153797735Y-63858798D01*
X153789042Y-63841052D01*
X153781146Y-63821107D01*
X153753984Y-63783723D01*
X153747475Y-63773813D01*
X153723964Y-63734056D01*
X153708799Y-63718891D01*
X153695958Y-63703857D01*
X153683351Y-63686505D01*
X153647757Y-63657059D01*
X153638978Y-63649070D01*
X140613503Y-50623595D01*
X140582765Y-50573436D01*
X140578149Y-50514789D01*
X140600662Y-50460439D01*
X140645395Y-50422233D01*
X140702598Y-50408500D01*
X141315494Y-50408500D01*
X141393921Y-50402478D01*
X141511569Y-50393446D01*
X141767007Y-50333671D01*
X142010326Y-50235605D01*
X142235825Y-50101545D01*
X142438216Y-49934634D01*
X142612757Y-49738784D01*
X142755355Y-49518586D01*
X142862670Y-49279201D01*
X142878773Y-49220602D01*
X142910154Y-49165924D01*
X142964097Y-49133293D01*
X143027094Y-49130878D01*
X143083376Y-49159283D01*
X143118853Y-49211399D01*
X143186857Y-49400742D01*
X143312148Y-49631148D01*
X143471134Y-49839720D01*
X143660100Y-50021581D01*
X143874609Y-50172463D01*
X144109642Y-50288836D01*
X144359683Y-50367967D01*
X144618867Y-50408000D01*
X145146000Y-50408000D01*
X145146000Y-48954000D01*
X145654000Y-48954000D01*
X145654000Y-50408000D01*
X146115468Y-50408000D01*
X146311486Y-50392950D01*
X146566859Y-50333190D01*
X146810102Y-50235155D01*
X147035537Y-50101133D01*
X147237867Y-49934273D01*
X147412359Y-49738477D01*
X147554913Y-49518346D01*
X147662196Y-49279034D01*
X147731691Y-49026146D01*
X147740021Y-48954000D01*
X145654000Y-48954000D01*
X145146000Y-48954000D01*
X145146000Y-46992000D01*
X145654000Y-46992000D01*
X145654000Y-48446000D01*
X147740563Y-48446000D01*
X147701791Y-48246082D01*
X147613142Y-47999256D01*
X147487851Y-47768851D01*
X147328865Y-47560279D01*
X147139899Y-47378418D01*
X146925390Y-47227536D01*
X146690357Y-47111163D01*
X146440316Y-47032032D01*
X146181133Y-46992000D01*
X145654000Y-46992000D01*
X145146000Y-46992000D01*
X144684532Y-46992000D01*
X144488513Y-47007049D01*
X144233140Y-47066809D01*
X143989897Y-47164844D01*
X143764462Y-47298866D01*
X143562132Y-47465726D01*
X143387640Y-47661522D01*
X143245086Y-47881653D01*
X143137803Y-48120965D01*
X143121751Y-48179379D01*
X143090369Y-48234057D01*
X143036426Y-48266687D01*
X142973429Y-48269102D01*
X142917147Y-48240696D01*
X142881672Y-48188582D01*
X142813600Y-47999049D01*
X142688276Y-47768582D01*
X142657462Y-47728159D01*
X142633539Y-47673393D01*
X142637543Y-47613760D01*
X142668574Y-47562684D01*
X143203907Y-47027351D01*
X143220771Y-47013842D01*
X143222596Y-47011898D01*
X143222600Y-47011896D01*
X143271126Y-46960219D01*
X143273848Y-46957410D01*
X143294447Y-46936813D01*
X143297168Y-46933303D01*
X143304866Y-46924289D01*
X143336492Y-46890613D01*
X143346823Y-46871819D01*
X143357679Y-46855294D01*
X143370824Y-46838348D01*
X143389172Y-46795945D01*
X143394397Y-46785283D01*
X143416642Y-46744820D01*
X143416644Y-46744817D01*
X143421978Y-46724038D01*
X143428376Y-46705349D01*
X143436900Y-46685656D01*
X143444129Y-46640001D01*
X143446530Y-46628412D01*
X143458020Y-46583668D01*
X143458020Y-46562221D01*
X143459571Y-46542510D01*
X143459928Y-46540257D01*
X143462926Y-46521328D01*
X143458578Y-46475339D01*
X143458020Y-46463484D01*
X143458020Y-45422727D01*
X143476336Y-45357304D01*
X143525959Y-45310902D01*
X143592462Y-45297010D01*
X143656510Y-45319668D01*
X143874354Y-45472897D01*
X144060642Y-45565133D01*
X144109454Y-45589301D01*
X144234510Y-45628877D01*
X144359569Y-45668455D01*
X144618829Y-45708500D01*
X144618831Y-45708500D01*
X146115490Y-45708500D01*
X146115494Y-45708500D01*
X146193921Y-45702478D01*
X146311569Y-45693446D01*
X146567007Y-45633671D01*
X146810326Y-45535605D01*
X147035825Y-45401545D01*
X147238216Y-45234634D01*
X147412757Y-45038784D01*
X147555355Y-44818586D01*
X147662670Y-44579201D01*
X147668957Y-44556325D01*
X147721528Y-44365020D01*
X147732185Y-44326240D01*
X147762271Y-44065633D01*
X147752222Y-43803487D01*
X147702275Y-43545947D01*
X147613600Y-43299049D01*
X147518810Y-43124734D01*
X147488276Y-43068582D01*
X147329240Y-42859945D01*
X147140219Y-42678031D01*
X146925645Y-42527102D01*
X146690547Y-42410699D01*
X146440430Y-42331544D01*
X146181171Y-42291500D01*
X146181169Y-42291500D01*
X144684510Y-42291500D01*
X144684506Y-42291500D01*
X144488436Y-42306553D01*
X144488432Y-42306553D01*
X144488431Y-42306554D01*
X144377782Y-42332447D01*
X144232988Y-42366330D01*
X143989675Y-42464394D01*
X143764178Y-42598453D01*
X143764175Y-42598455D01*
X143664183Y-42680917D01*
X143599668Y-42708733D01*
X143530284Y-42697675D01*
X143477609Y-42651181D01*
X143458020Y-42583708D01*
X143458020Y-42225430D01*
X143467611Y-42177212D01*
X143494925Y-42136335D01*
X144585855Y-41045405D01*
X144626732Y-41018091D01*
X144674950Y-41008500D01*
X146115494Y-41008500D01*
X146193921Y-41002478D01*
X146311569Y-40993446D01*
X146567007Y-40933671D01*
X146810326Y-40835605D01*
X147035825Y-40701545D01*
X147238216Y-40534634D01*
X147412757Y-40338784D01*
X147555355Y-40118586D01*
X147662670Y-39879201D01*
X147732185Y-39626240D01*
X147762271Y-39365633D01*
X147752222Y-39103487D01*
X147702275Y-38845947D01*
X147613600Y-38599049D01*
X147488276Y-38368582D01*
X147329240Y-38159945D01*
X147140219Y-37978031D01*
X146925645Y-37827102D01*
X146690547Y-37710699D01*
X146440430Y-37631544D01*
X146181171Y-37591500D01*
X146181169Y-37591500D01*
X144684510Y-37591500D01*
X144684506Y-37591500D01*
X144488436Y-37606553D01*
X144488432Y-37606553D01*
X144488431Y-37606554D01*
X144381641Y-37631544D01*
X144232988Y-37666330D01*
X143989675Y-37764394D01*
X143764174Y-37898455D01*
X143561784Y-38065364D01*
X143387240Y-38261218D01*
X143244645Y-38481413D01*
X143137330Y-38720795D01*
X143121456Y-38778560D01*
X143090073Y-38833238D01*
X143036130Y-38865868D01*
X142973133Y-38868282D01*
X142916852Y-38839876D01*
X142881378Y-38787764D01*
X142813600Y-38599049D01*
X142688276Y-38368582D01*
X142529240Y-38159945D01*
X142340219Y-37978031D01*
X142125645Y-37827102D01*
X141890547Y-37710699D01*
X141640430Y-37631544D01*
X141381171Y-37591500D01*
X141381169Y-37591500D01*
X139884510Y-37591500D01*
X139884506Y-37591500D01*
X139688436Y-37606553D01*
X139688432Y-37606553D01*
X139688431Y-37606554D01*
X139581641Y-37631544D01*
X139432988Y-37666330D01*
X139189675Y-37764394D01*
X138964174Y-37898455D01*
X138761784Y-38065364D01*
X138587240Y-38261218D01*
X138444645Y-38481413D01*
X138337329Y-38720797D01*
X138267815Y-38973756D01*
X138237729Y-39234366D01*
X138247778Y-39496516D01*
X138297724Y-39754050D01*
X138297725Y-39754053D01*
X138301914Y-39765716D01*
X138386401Y-40000954D01*
X138511723Y-40231417D01*
X138670759Y-40440054D01*
X138859780Y-40621968D01*
X139074354Y-40772897D01*
X139201005Y-40835605D01*
X139309454Y-40889301D01*
X139434510Y-40928877D01*
X139559569Y-40968455D01*
X139818829Y-41008500D01*
X139818831Y-41008500D01*
X141315490Y-41008500D01*
X141315494Y-41008500D01*
X141393921Y-41002478D01*
X141511569Y-40993446D01*
X141767007Y-40933671D01*
X142010326Y-40835605D01*
X142235825Y-40701545D01*
X142438216Y-40534634D01*
X142612757Y-40338784D01*
X142755355Y-40118586D01*
X142862670Y-39879201D01*
X142878542Y-39821441D01*
X142909925Y-39766763D01*
X142963867Y-39734132D01*
X143026865Y-39731717D01*
X143083147Y-39760123D01*
X143118621Y-39812236D01*
X143142673Y-39879201D01*
X143186401Y-40000954D01*
X143311723Y-40231417D01*
X143342534Y-40271837D01*
X143366459Y-40326606D01*
X143362455Y-40386238D01*
X143331422Y-40437316D01*
X142395131Y-41373607D01*
X142378262Y-41387123D01*
X142327914Y-41440737D01*
X142325164Y-41443575D01*
X142304590Y-41464150D01*
X142301863Y-41467665D01*
X142294170Y-41476671D01*
X142262547Y-41510348D01*
X142252210Y-41529148D01*
X142241364Y-41545659D01*
X142228215Y-41562611D01*
X142209870Y-41605004D01*
X142204650Y-41615659D01*
X142182396Y-41656140D01*
X142177062Y-41676915D01*
X142170659Y-41695615D01*
X142162140Y-41715300D01*
X142154913Y-41760932D01*
X142152506Y-41772553D01*
X142141020Y-41817291D01*
X142141020Y-41838739D01*
X142139469Y-41858450D01*
X142136114Y-41879632D01*
X142140461Y-41925618D01*
X142141020Y-41937476D01*
X142141020Y-42331731D01*
X142125131Y-42392981D01*
X142081471Y-42438783D01*
X142021052Y-42457587D01*
X141959112Y-42444648D01*
X141890547Y-42410699D01*
X141640430Y-42331544D01*
X141381171Y-42291500D01*
X141381169Y-42291500D01*
X139884510Y-42291500D01*
X139884506Y-42291500D01*
X139688436Y-42306553D01*
X139688432Y-42306553D01*
X139688431Y-42306554D01*
X139577782Y-42332447D01*
X139432988Y-42366330D01*
X139189675Y-42464394D01*
X138964174Y-42598455D01*
X138761784Y-42765364D01*
X138587240Y-42961218D01*
X138444645Y-43181413D01*
X138337329Y-43420797D01*
X138267815Y-43673756D01*
X138237729Y-43934366D01*
X138247778Y-44196516D01*
X138297724Y-44454050D01*
X138386401Y-44700954D01*
X138511723Y-44931417D01*
X138670759Y-45140054D01*
X138859780Y-45321968D01*
X139074354Y-45472897D01*
X139260642Y-45565133D01*
X139309454Y-45589301D01*
X139434510Y-45628877D01*
X139559569Y-45668455D01*
X139818829Y-45708500D01*
X139818831Y-45708500D01*
X141315490Y-45708500D01*
X141315494Y-45708500D01*
X141393921Y-45702478D01*
X141511569Y-45693446D01*
X141767007Y-45633671D01*
X141937062Y-45565133D01*
X141967919Y-45552697D01*
X142028271Y-45544261D01*
X142085523Y-45565133D01*
X142126284Y-45610432D01*
X142141020Y-45669562D01*
X142141020Y-46175530D01*
X142131429Y-46223748D01*
X142104115Y-46264625D01*
X141414145Y-46954595D01*
X141373268Y-46981909D01*
X141325050Y-46991500D01*
X139884506Y-46991500D01*
X139688436Y-47006553D01*
X139688432Y-47006553D01*
X139688431Y-47006554D01*
X139583739Y-47031053D01*
X139432988Y-47066330D01*
X139189675Y-47164394D01*
X138964174Y-47298455D01*
X138761784Y-47465364D01*
X138587240Y-47661218D01*
X138444645Y-47881413D01*
X138341972Y-48110442D01*
X138304813Y-48157998D01*
X138249800Y-48182818D01*
X138189556Y-48179208D01*
X138137902Y-48147994D01*
X131455204Y-41465296D01*
X131422592Y-41408811D01*
X131422592Y-41343591D01*
X131453543Y-41228087D01*
X131473498Y-41000000D01*
X131453543Y-40771913D01*
X131410162Y-40610015D01*
X131394284Y-40550756D01*
X131300866Y-40350420D01*
X131297523Y-40343251D01*
X131297337Y-40342986D01*
X131166195Y-40155696D01*
X131004303Y-39993804D01*
X130816750Y-39862477D01*
X130609243Y-39765715D01*
X130388087Y-39706457D01*
X130160000Y-39686502D01*
X130159999Y-39686502D01*
X129931912Y-39706457D01*
X129710756Y-39765715D01*
X129503249Y-39862477D01*
X129315696Y-39993804D01*
X129153804Y-40155696D01*
X129022477Y-40343249D01*
X128925715Y-40550756D01*
X128866457Y-40771912D01*
X128846502Y-41000000D01*
X128866457Y-41228087D01*
X128925715Y-41449243D01*
X129022477Y-41656750D01*
X129153804Y-41844303D01*
X129315696Y-42006195D01*
X129503249Y-42137522D01*
X129710756Y-42234284D01*
X129770015Y-42250162D01*
X129931913Y-42293543D01*
X130160000Y-42313498D01*
X130359760Y-42296021D01*
X130413835Y-42303141D01*
X130459835Y-42332447D01*
X152504106Y-64376718D01*
X152531420Y-64417595D01*
X152541011Y-64465813D01*
X152541011Y-67515500D01*
X152524130Y-67578500D01*
X152478011Y-67624619D01*
X152415011Y-67641500D01*
X151284500Y-67641500D01*
X151221500Y-67624619D01*
X151175381Y-67578500D01*
X151158500Y-67515500D01*
X151158500Y-65426614D01*
X151160872Y-65405125D01*
X151160788Y-65402465D01*
X151160789Y-65402463D01*
X151158562Y-65331612D01*
X151158500Y-65327654D01*
X151158500Y-65298575D01*
X151158500Y-65298568D01*
X151157943Y-65294162D01*
X151157012Y-65282335D01*
X151155562Y-65236169D01*
X151149578Y-65215574D01*
X151145570Y-65196217D01*
X151142882Y-65174936D01*
X151125874Y-65131978D01*
X151122030Y-65120751D01*
X151109145Y-65076400D01*
X151098224Y-65057935D01*
X151089531Y-65040189D01*
X151081635Y-65020244D01*
X151054473Y-64982860D01*
X151047964Y-64972950D01*
X151024453Y-64933193D01*
X151009288Y-64918028D01*
X150996447Y-64902994D01*
X150983840Y-64885642D01*
X150948246Y-64856196D01*
X150939467Y-64848207D01*
X131476623Y-45385363D01*
X131444011Y-45328878D01*
X131444012Y-45263654D01*
X131453543Y-45228087D01*
X131473498Y-45000000D01*
X131453543Y-44771913D01*
X131394284Y-44550757D01*
X131378150Y-44516158D01*
X131300866Y-44350420D01*
X131297523Y-44343251D01*
X131297337Y-44342986D01*
X131166195Y-44155696D01*
X131004303Y-43993804D01*
X130816750Y-43862477D01*
X130609243Y-43765715D01*
X130388087Y-43706457D01*
X130160000Y-43686502D01*
X129931912Y-43706457D01*
X129710756Y-43765715D01*
X129503249Y-43862477D01*
X129315696Y-43993804D01*
X129153804Y-44155696D01*
X129022477Y-44343249D01*
X128925715Y-44550756D01*
X128866457Y-44771912D01*
X128846502Y-45000000D01*
X121313498Y-45000000D01*
X121293543Y-44771913D01*
X121234284Y-44550757D01*
X121218150Y-44516158D01*
X121140866Y-44350420D01*
X121137523Y-44343251D01*
X121137337Y-44342986D01*
X121006195Y-44155696D01*
X120844303Y-43993804D01*
X120656750Y-43862477D01*
X120449243Y-43765715D01*
X120228087Y-43706457D01*
X120000000Y-43686502D01*
X119771912Y-43706457D01*
X119550756Y-43765715D01*
X119343249Y-43862477D01*
X119155696Y-43993804D01*
X118993804Y-44155696D01*
X118901325Y-44287771D01*
X118856292Y-44327263D01*
X118798112Y-44341500D01*
X118636611Y-44341500D01*
X118615125Y-44339128D01*
X118541631Y-44341438D01*
X118537673Y-44341500D01*
X118508568Y-44341500D01*
X118504160Y-44342056D01*
X118492344Y-44342986D01*
X118446166Y-44344437D01*
X118425573Y-44350420D01*
X118406222Y-44354428D01*
X118384934Y-44357118D01*
X118341974Y-44374126D01*
X118330749Y-44377969D01*
X118286400Y-44390854D01*
X118267938Y-44401772D01*
X118250190Y-44410466D01*
X118230246Y-44418363D01*
X118192873Y-44445516D01*
X118182953Y-44452033D01*
X118143191Y-44475548D01*
X118128023Y-44490716D01*
X118112996Y-44503550D01*
X118095643Y-44516158D01*
X118066191Y-44551758D01*
X118058204Y-44560534D01*
X112970957Y-49647781D01*
X112910276Y-49681440D01*
X112857734Y-49678731D01*
X112857249Y-49681639D01*
X112846954Y-49679921D01*
X112846951Y-49679920D01*
X112616712Y-49641500D01*
X112383288Y-49641500D01*
X112153049Y-49679920D01*
X112153046Y-49679920D01*
X112153046Y-49679921D01*
X111932273Y-49755712D01*
X111726984Y-49866809D01*
X111542779Y-50010182D01*
X111384683Y-50181920D01*
X111355482Y-50226616D01*
X111309969Y-50268514D01*
X111250000Y-50283700D01*
X111190031Y-50268514D01*
X111144518Y-50226616D01*
X111115316Y-50181920D01*
X111115315Y-50181919D01*
X111115314Y-50181917D01*
X110957220Y-50010182D01*
X110773017Y-49866810D01*
X110638947Y-49794255D01*
X110567726Y-49755712D01*
X110415340Y-49703398D01*
X110346951Y-49679920D01*
X110116712Y-49641500D01*
X109883288Y-49641500D01*
X109653049Y-49679920D01*
X109653046Y-49679920D01*
X109653046Y-49679921D01*
X109432273Y-49755712D01*
X109226984Y-49866809D01*
X109042779Y-50010182D01*
X108884683Y-50181920D01*
X108855482Y-50226616D01*
X108809969Y-50268514D01*
X108750000Y-50283700D01*
X108690031Y-50268514D01*
X108644518Y-50226616D01*
X108615316Y-50181920D01*
X108615315Y-50181919D01*
X108615314Y-50181917D01*
X108457220Y-50010182D01*
X108457219Y-50010181D01*
X108457217Y-50010179D01*
X108273018Y-49866809D01*
X108224532Y-49840571D01*
X108176260Y-49794255D01*
X108158500Y-49729757D01*
X108158500Y-47324950D01*
X108168091Y-47276732D01*
X108195405Y-47235855D01*
X108990817Y-46440443D01*
X111684681Y-43746577D01*
X111736347Y-43715361D01*
X111796606Y-43711760D01*
X111851624Y-43736601D01*
X111888773Y-43784184D01*
X111899525Y-43843585D01*
X111886539Y-44049999D01*
X111906358Y-44365018D01*
X111965504Y-44675071D01*
X112063044Y-44975266D01*
X112197438Y-45260869D01*
X112366565Y-45527372D01*
X112567766Y-45770582D01*
X112797860Y-45986654D01*
X113005512Y-46137522D01*
X113053221Y-46172184D01*
X113329821Y-46324247D01*
X113623298Y-46440443D01*
X113759221Y-46475342D01*
X113929024Y-46518940D01*
X114242176Y-46558500D01*
X114242179Y-46558500D01*
X114557821Y-46558500D01*
X114557824Y-46558500D01*
X114870975Y-46518940D01*
X114989204Y-46488584D01*
X115176702Y-46440443D01*
X115470179Y-46324247D01*
X115746779Y-46172184D01*
X116002140Y-45986654D01*
X116232233Y-45770582D01*
X116433432Y-45527375D01*
X116602562Y-45260869D01*
X116736956Y-44975266D01*
X116834495Y-44675072D01*
X116893641Y-44365020D01*
X116913460Y-44050000D01*
X116893641Y-43734980D01*
X116834495Y-43424928D01*
X116736956Y-43124734D01*
X116602562Y-42839131D01*
X116502156Y-42680916D01*
X116433434Y-42572627D01*
X116232233Y-42329417D01*
X116002139Y-42113345D01*
X115746776Y-41927813D01*
X115686933Y-41894914D01*
X115639585Y-41849319D01*
X115621644Y-41786083D01*
X115637991Y-41722416D01*
X115684178Y-41675646D01*
X115747634Y-41658500D01*
X118798112Y-41658500D01*
X118856292Y-41672737D01*
X118901325Y-41712229D01*
X118993804Y-41844303D01*
X119155696Y-42006195D01*
X119343249Y-42137522D01*
X119550756Y-42234284D01*
X119610015Y-42250162D01*
X119771913Y-42293543D01*
X120000000Y-42313498D01*
X120228087Y-42293543D01*
X120449243Y-42234284D01*
X120656749Y-42137523D01*
X120844300Y-42006198D01*
X121006198Y-41844300D01*
X121137523Y-41656749D01*
X121234284Y-41449243D01*
X121293543Y-41228087D01*
X121313498Y-41000000D01*
X121293543Y-40771913D01*
X121250162Y-40610015D01*
X121234284Y-40550756D01*
X121140866Y-40350420D01*
X121137523Y-40343251D01*
X121137337Y-40342986D01*
X121006195Y-40155696D01*
X120844303Y-39993804D01*
X120656750Y-39862477D01*
X120449243Y-39765715D01*
X120228087Y-39706457D01*
X120000000Y-39686502D01*
X119999999Y-39686502D01*
X119771912Y-39706457D01*
X119550756Y-39765715D01*
X119343249Y-39862477D01*
X119155696Y-39993804D01*
X118993804Y-40155696D01*
X118901325Y-40287771D01*
X118856292Y-40327263D01*
X118798112Y-40341500D01*
X113586611Y-40341500D01*
X113565125Y-40339128D01*
X113491631Y-40341438D01*
X113487673Y-40341500D01*
X113458568Y-40341500D01*
X113454160Y-40342056D01*
X113442344Y-40342986D01*
X113396166Y-40344437D01*
X113375573Y-40350420D01*
X113356222Y-40354428D01*
X113334934Y-40357118D01*
X113291974Y-40374126D01*
X113280749Y-40377969D01*
X113236398Y-40390854D01*
X113217939Y-40401771D01*
X113200192Y-40410466D01*
X113180245Y-40418364D01*
X113142862Y-40445524D01*
X113132943Y-40452039D01*
X113093192Y-40475547D01*
X113078030Y-40490710D01*
X113063002Y-40503546D01*
X113045642Y-40516159D01*
X113016186Y-40551764D01*
X113008199Y-40560540D01*
X107095611Y-46473127D01*
X107078742Y-46486643D01*
X107028394Y-46540257D01*
X107025644Y-46543095D01*
X107005070Y-46563670D01*
X107002343Y-46567185D01*
X106994650Y-46576191D01*
X106963027Y-46609868D01*
X106952690Y-46628668D01*
X106941844Y-46645179D01*
X106928695Y-46662131D01*
X106910350Y-46704524D01*
X106905130Y-46715179D01*
X106882876Y-46755660D01*
X106877542Y-46776435D01*
X106871139Y-46795135D01*
X106862620Y-46814820D01*
X106855393Y-46860452D01*
X106852986Y-46872073D01*
X106841500Y-46916811D01*
X106841500Y-46938259D01*
X106839949Y-46957967D01*
X106836594Y-46979152D01*
X106840220Y-47017516D01*
X106840941Y-47025138D01*
X106841500Y-47036996D01*
X106841500Y-49729757D01*
X106823740Y-49794255D01*
X106775468Y-49840571D01*
X106726981Y-49866809D01*
X106542782Y-50010179D01*
X106384684Y-50181919D01*
X106257016Y-50377330D01*
X106163250Y-50591094D01*
X106134882Y-50703119D01*
X106105949Y-50817374D01*
X106086673Y-51050000D01*
X95500501Y-51050000D01*
X95500501Y-47728162D01*
X95500501Y-44049999D01*
X103086539Y-44049999D01*
X103106358Y-44365018D01*
X103165504Y-44675071D01*
X103263044Y-44975266D01*
X103397438Y-45260869D01*
X103566565Y-45527372D01*
X103767766Y-45770582D01*
X103997860Y-45986654D01*
X104205512Y-46137522D01*
X104253221Y-46172184D01*
X104529821Y-46324247D01*
X104823298Y-46440443D01*
X104959221Y-46475342D01*
X105129024Y-46518940D01*
X105442176Y-46558500D01*
X105442179Y-46558500D01*
X105757821Y-46558500D01*
X105757824Y-46558500D01*
X106070975Y-46518940D01*
X106189204Y-46488584D01*
X106376702Y-46440443D01*
X106670179Y-46324247D01*
X106946779Y-46172184D01*
X107202140Y-45986654D01*
X107432233Y-45770582D01*
X107633432Y-45527375D01*
X107802562Y-45260869D01*
X107936956Y-44975266D01*
X108034495Y-44675072D01*
X108093641Y-44365020D01*
X108113460Y-44050000D01*
X108093641Y-43734980D01*
X108034495Y-43424928D01*
X107936956Y-43124734D01*
X107802562Y-42839131D01*
X107702156Y-42680916D01*
X107633434Y-42572627D01*
X107432233Y-42329417D01*
X107202139Y-42113345D01*
X106946781Y-41927817D01*
X106670178Y-41775752D01*
X106420543Y-41676915D01*
X106376702Y-41659557D01*
X106376699Y-41659556D01*
X106376696Y-41659555D01*
X106070975Y-41581059D01*
X105757824Y-41541500D01*
X105757821Y-41541500D01*
X105442179Y-41541500D01*
X105442176Y-41541500D01*
X105129024Y-41581059D01*
X104823303Y-41659555D01*
X104529821Y-41775752D01*
X104253218Y-41927817D01*
X103997860Y-42113345D01*
X103767766Y-42329417D01*
X103566565Y-42572627D01*
X103397438Y-42839130D01*
X103263044Y-43124733D01*
X103165504Y-43424928D01*
X103106358Y-43734981D01*
X103086539Y-44049999D01*
X95500501Y-44049999D01*
X95500500Y-37126500D01*
X95517382Y-37063500D01*
X95563501Y-37017381D01*
X95626501Y-37000500D01*
X154373500Y-37000500D01*
X154436500Y-37017381D01*
G37*
G04 #@! TD.AperFunction*
M02*
