G04 #@! TF.GenerationSoftware,KiCad,Pcbnew,6.0.10+dfsg-1~bpo11+1*
G04 #@! TF.CreationDate,2023-01-12T20:06:14+00:00*
G04 #@! TF.ProjectId,MS20-VCF,4d533230-2d56-4434-962e-6b696361645f,rev?*
G04 #@! TF.SameCoordinates,Original*
G04 #@! TF.FileFunction,Legend,Top*
G04 #@! TF.FilePolarity,Positive*
%FSLAX46Y46*%
G04 Gerber Fmt 4.6, Leading zero omitted, Abs format (unit mm)*
G04 Created by KiCad (PCBNEW 6.0.10+dfsg-1~bpo11+1) date 2023-01-12 20:06:14*
%MOMM*%
%LPD*%
G01*
G04 APERTURE LIST*
%ADD10C,0.120000*%
%ADD11C,0.100000*%
%ADD12O,6.700000X4.200000*%
G04 APERTURE END LIST*
D10*
X75900000Y-101100000D02*
X86400000Y-101100000D01*
X81900000Y-102600000D02*
X75900000Y-102600000D01*
X75400000Y-102100000D02*
X87900000Y-102100000D01*
X72150000Y-101600000D02*
X76900000Y-101600000D01*
X111900000Y-102100000D02*
X105400000Y-102100000D01*
X105900000Y-101100000D02*
X98900000Y-101100000D01*
X103400000Y-102100000D02*
X97400000Y-102100000D01*
X109400000Y-101100000D02*
X121400000Y-101100000D01*
X94000000Y-159400000D02*
X93000000Y-159000000D01*
X98800000Y-160600000D02*
X99000000Y-160800000D01*
X103600000Y-159600000D02*
X102800000Y-159600000D01*
X106200000Y-159600000D02*
X106600000Y-160400000D01*
X122600000Y-52500000D02*
G75*
G03*
X119600000Y-49500000I-3000000J0D01*
G01*
X113100000Y-55500000D02*
G75*
G03*
X116100000Y-58500000I3000000J0D01*
G01*
X120100000Y-59000000D02*
G75*
G03*
X123100000Y-56000000I0J3000000D01*
G01*
X112600000Y-56000000D02*
G75*
G03*
X115600000Y-59000000I3000000J0D01*
G01*
X116100000Y-49000000D02*
G75*
G03*
X113100000Y-52000000I0J-3000000D01*
G01*
X123100000Y-52000000D02*
G75*
G03*
X120100000Y-49000000I-3000000J0D01*
G01*
X127500000Y-113100000D02*
G75*
G03*
X127000000Y-112600000I-500000J0D01*
G01*
X122900000Y-132600000D02*
X120053553Y-132600000D01*
X87100000Y-111000000D02*
G75*
G03*
X84100000Y-108000000I-3000000J0D01*
G01*
X80100000Y-108000000D02*
G75*
G03*
X77100000Y-111000000I0J-3000000D01*
G01*
X76600000Y-115000000D02*
G75*
G03*
X79600000Y-118000000I3000000J0D01*
G01*
X84100000Y-118000000D02*
G75*
G03*
X87100000Y-115000000I0J3000000D01*
G01*
X77100000Y-114500000D02*
G75*
G03*
X80100000Y-117500000I3000000J0D01*
G01*
X86600000Y-111500000D02*
G75*
G03*
X83600000Y-108500000I-3000000J0D01*
G01*
X123400000Y-123600000D02*
X123400000Y-132100000D01*
X123900000Y-123100000D02*
G75*
G03*
X123400000Y-123600000I0J-500000D01*
G01*
X124600000Y-112600000D02*
X127013389Y-112600000D01*
X122900000Y-132600000D02*
G75*
G03*
X123400000Y-132100000I0J500000D01*
G01*
D11*
G36*
X124600000Y-113100000D02*
G01*
X124100000Y-112600000D01*
X124600000Y-112100000D01*
X124600000Y-113100000D01*
G37*
X124600000Y-113100000D02*
X124100000Y-112600000D01*
X124600000Y-112100000D01*
X124600000Y-113100000D01*
D10*
X127500000Y-113100000D02*
X127500000Y-122600000D01*
X114525000Y-120750000D02*
X115325000Y-120750000D01*
X83700000Y-99300000D02*
X83400000Y-99300000D01*
X99600000Y-82900000D02*
X99400000Y-83000000D01*
X80900000Y-99600000D02*
X80200000Y-98500000D01*
X103750000Y-42850000D02*
X102950000Y-44450000D01*
X123350000Y-58400000D02*
X124200000Y-58400000D01*
X99600000Y-43550000D02*
X99600000Y-44050000D01*
X79400000Y-98500000D02*
X78900000Y-100100000D01*
X126150000Y-74500000D02*
X126150000Y-74300000D01*
X125500000Y-57500000D02*
X126400000Y-57900000D01*
X111975000Y-120750000D02*
X112075000Y-120850000D01*
X127050000Y-72800000D02*
X126050000Y-73400000D01*
X117487500Y-120750000D02*
X118537500Y-120750000D01*
X123000000Y-59100000D02*
X122900000Y-59100000D01*
X89700000Y-143600000D02*
X89600000Y-143600000D01*
X99000000Y-160800000D02*
X99000000Y-160600000D01*
X119290000Y-68072083D02*
X118940000Y-68392083D01*
X78900000Y-100100000D02*
X78800000Y-100100000D01*
X125350000Y-74400000D02*
X125150000Y-74600000D01*
X104350000Y-44500000D02*
X104450000Y-44350000D01*
X86900000Y-83200000D02*
G75*
G03*
X87400000Y-83700000I500000J0D01*
G01*
X100400000Y-159400000D02*
X99000000Y-159800000D01*
X75100000Y-107600000D02*
X75000000Y-107600000D01*
X129400000Y-102100000D02*
X126400000Y-102100000D01*
X110000000Y-82900000D02*
X109700000Y-84600000D01*
X95000000Y-130172083D02*
X94540000Y-130312083D01*
X84525000Y-61750000D02*
X85325000Y-61750000D01*
X98500000Y-42750000D02*
X98500000Y-42950000D01*
X96200000Y-42750000D02*
X96200000Y-44450000D01*
X77800000Y-99600000D02*
X77000000Y-99300000D01*
X75900000Y-64100000D02*
X72900000Y-64100000D01*
X89400000Y-60100000D02*
G75*
G03*
X80400000Y-60100000I-4500000J6572083D01*
G01*
X103600000Y-40800000D02*
X103400000Y-42100000D01*
X97600000Y-44450000D02*
X97800000Y-44450000D01*
D11*
G36*
X113400000Y-141100000D02*
G01*
X112400000Y-141100000D01*
X112900000Y-140600000D01*
X113400000Y-141100000D01*
G37*
X113400000Y-141100000D02*
X112400000Y-141100000D01*
X112900000Y-140600000D01*
X113400000Y-141100000D01*
D10*
X122700000Y-115400000D02*
X122390000Y-115290000D01*
X75200000Y-53600000D02*
X72900000Y-53600000D01*
X92700000Y-56400000D02*
X92390000Y-56290000D01*
X126050000Y-73400000D02*
X126950000Y-73900000D01*
X81625000Y-63450000D02*
X81725000Y-63350000D01*
X117075000Y-120850000D02*
X117175000Y-120750000D01*
X115325000Y-120750000D02*
X114275000Y-122450000D01*
X108800000Y-82900000D02*
X109700000Y-82900000D01*
X111400000Y-100600000D02*
X105400000Y-100600000D01*
X100000000Y-42100000D02*
X99500000Y-40400000D01*
X73650000Y-131700000D02*
X72850000Y-133400000D01*
X77050000Y-131800000D02*
X76850000Y-131700000D01*
X116200000Y-65872083D02*
X116040000Y-66252083D01*
X105200000Y-159600000D02*
X104400000Y-160800000D01*
X119400000Y-102600000D02*
X113400000Y-102600000D01*
X96200000Y-158600000D02*
X97000000Y-158600000D01*
X101000000Y-141900000D02*
X101700000Y-141900000D01*
X76900000Y-73600000D02*
X79746447Y-73600000D01*
X81125000Y-62700000D02*
X81625000Y-63450000D01*
X105800000Y-159600000D02*
X105600000Y-159600000D01*
X99600000Y-44050000D02*
X100400000Y-44450000D01*
X100400000Y-40400000D02*
X100000000Y-42100000D01*
X115000000Y-142500000D02*
X114900000Y-144100000D01*
X97600000Y-44450000D02*
X97600000Y-44250000D01*
X88900000Y-101600000D02*
X86900000Y-101600000D01*
X119330000Y-78812083D02*
X119090000Y-78612083D01*
X84750000Y-83400000D02*
X83950000Y-84300000D01*
X119400000Y-119100000D02*
G75*
G03*
X110400000Y-119100000I-4500000J6572083D01*
G01*
X76100000Y-109300000D02*
X76000000Y-109100000D01*
X112375000Y-122450000D02*
X113375000Y-120750000D01*
X123800000Y-57500000D02*
X123700000Y-57500000D01*
X115800000Y-121300000D02*
X116325000Y-121300000D01*
X123950000Y-73900000D02*
X123750000Y-74400000D01*
X86225000Y-62400000D02*
X86325000Y-62300000D01*
X116125000Y-120750000D02*
X117175000Y-120750000D01*
X105000000Y-160800000D02*
X105800000Y-159600000D01*
X88400000Y-117200000D02*
X88300000Y-117200000D01*
X94600000Y-160800000D02*
X95200000Y-160800000D01*
X86125000Y-61750000D02*
X85125000Y-63450000D01*
X89200000Y-115600000D02*
X89100000Y-115600000D01*
X118200000Y-104800000D02*
X118040000Y-105180000D01*
X125350000Y-74400000D02*
X125150000Y-74200000D01*
X109300000Y-84600000D02*
X108800000Y-82900000D01*
X83300000Y-98900000D02*
X82100000Y-99200000D01*
X82400000Y-98500000D02*
X81700000Y-100100000D01*
X75350000Y-133400000D02*
X75150000Y-133600000D01*
X100100000Y-141900000D02*
X99800000Y-143600000D01*
X86100000Y-98500000D02*
X85100000Y-99000000D01*
X82400000Y-139172083D02*
X81940000Y-139762083D01*
X114200000Y-142500000D02*
X114300000Y-142600000D01*
X97100000Y-42750000D02*
X96900000Y-42650000D01*
X111450000Y-48500000D02*
X110750000Y-50200000D01*
X97600000Y-159600000D02*
X98400000Y-159600000D01*
X99600000Y-42750000D02*
X100400000Y-42850000D01*
X90500000Y-143600000D02*
X91300000Y-141900000D01*
X106400000Y-68072083D02*
X106810000Y-68422083D01*
X106200000Y-159600000D02*
X105600000Y-160800000D01*
X91400000Y-139172083D02*
G75*
G03*
X82400000Y-139172083I-4500000J6572083D01*
G01*
X99500000Y-84600000D02*
X99400000Y-84600000D01*
X85200000Y-100100000D02*
X85400000Y-100100000D01*
X82675000Y-61750000D02*
X82375000Y-63450000D01*
X84275000Y-63450000D02*
X84525000Y-61750000D01*
X121000000Y-71172083D02*
X120540000Y-71312083D01*
X106190000Y-112600000D02*
X106961612Y-112600000D01*
X80400000Y-137972083D02*
X80750000Y-137682083D01*
X102900000Y-40400000D02*
X102800000Y-40400000D01*
X126950000Y-73900000D02*
X126150000Y-74500000D01*
X110400000Y-142600000D02*
G75*
G03*
X109900000Y-143100000I0J-500000D01*
G01*
X90900000Y-116000000D02*
X89700000Y-116300000D01*
X93290000Y-127072083D02*
X92940000Y-127392083D01*
X124050000Y-73300000D02*
X123350000Y-73400000D01*
X86100000Y-98500000D02*
X85900000Y-98400000D01*
X84450000Y-85000000D02*
X84550000Y-84900000D01*
X85550000Y-83400000D02*
X85450000Y-85000000D01*
X109900000Y-146100000D02*
X109900000Y-143100000D01*
X127050000Y-72800000D02*
X127050000Y-73000000D01*
X94600000Y-159400000D02*
X94600000Y-160800000D01*
X74750000Y-132200000D02*
X74550000Y-133400000D01*
X108400000Y-117900000D02*
X108750000Y-117610000D01*
X110900000Y-82900000D02*
X111600000Y-82900000D01*
X104900000Y-73600000D02*
X104128388Y-73600000D01*
X101400000Y-141900000D02*
X100400000Y-143600000D01*
X127000000Y-123100000D02*
X124000000Y-123100000D01*
X97100000Y-42750000D02*
X96700000Y-43450000D01*
X99800000Y-143600000D02*
X100800000Y-141900000D01*
X111625000Y-122450000D02*
X111725000Y-122350000D01*
X77800000Y-98900000D02*
X77000000Y-98500000D01*
X86100000Y-98500000D02*
X86100000Y-98700000D01*
X77050000Y-131800000D02*
X76050000Y-132400000D01*
X112900000Y-142100000D02*
X112900000Y-141100000D01*
X121330000Y-117740000D02*
X121090000Y-117540000D01*
X77000000Y-56500000D02*
X77440000Y-56340000D01*
X95800000Y-159000000D02*
X95800000Y-160800000D01*
X79400000Y-98500000D02*
X79400000Y-100100000D01*
X91290000Y-48000000D02*
X90940000Y-48320000D01*
X123650000Y-72700000D02*
X124050000Y-73300000D01*
X115400000Y-101600000D02*
X126400000Y-101600000D01*
X86125000Y-61750000D02*
X87175000Y-61750000D01*
X103600000Y-160800000D02*
X104800000Y-159600000D01*
X101400000Y-159800000D02*
X102200000Y-160400000D01*
X96700000Y-43450000D02*
X96200000Y-42750000D01*
X86900000Y-83200000D02*
X86900000Y-82200000D01*
X111125000Y-121700000D02*
X111625000Y-122450000D01*
X118437500Y-120850000D02*
X118537500Y-120750000D01*
X109700000Y-65772083D02*
X109890000Y-66222083D01*
X104400000Y-160800000D02*
X104600000Y-160800000D01*
X73350000Y-132400000D02*
X73950000Y-132900000D01*
X100900000Y-101600000D02*
X103900000Y-101600000D01*
X76800000Y-107700000D02*
X76100000Y-109300000D01*
X75150000Y-131800000D02*
G75*
G03*
X74750000Y-132200000I0J-400000D01*
G01*
X89900000Y-87200000D02*
X89900000Y-84200000D01*
X97100000Y-42750000D02*
X97100000Y-44450000D01*
X104800000Y-159600000D02*
X104600000Y-159600000D01*
X100300000Y-84600000D02*
X101100000Y-82900000D01*
X112400000Y-142600000D02*
X110400000Y-142600000D01*
X102900000Y-40400000D02*
X102200000Y-42100000D01*
X99000000Y-160800000D02*
X99200000Y-160600000D01*
X123650000Y-72700000D02*
X122850000Y-74400000D01*
X116125000Y-120750000D02*
X115125000Y-122450000D01*
X103600000Y-41200000D02*
X103900000Y-41200000D01*
X117400000Y-80172083D02*
G75*
G03*
X108400000Y-80172083I-4500000J6572083D01*
G01*
X100800000Y-42100000D02*
X102000000Y-41500000D01*
X123800000Y-57500000D02*
X123000000Y-59100000D01*
X80400000Y-60100000D02*
X79940000Y-60690000D01*
X83800000Y-98500000D02*
X83700000Y-100100000D01*
X101400000Y-41100000D02*
X102400000Y-40700000D01*
X91300000Y-141900000D02*
X91200000Y-141900000D01*
X104000000Y-40400000D02*
G75*
G03*
X103600000Y-40800000I0J-400000D01*
G01*
X91330000Y-58740000D02*
X91090000Y-58540000D01*
X124800000Y-59100000D02*
X124700000Y-58900000D01*
X81975000Y-61750000D02*
X82075000Y-61850000D01*
X98900000Y-141900000D02*
X99800000Y-141900000D01*
X105775000Y-43550000D02*
X105875000Y-43450000D01*
X76190000Y-53600000D02*
X76961612Y-53600000D01*
X88200000Y-45800000D02*
X88040000Y-46180000D01*
X100300000Y-82900000D02*
X100300000Y-84600000D01*
X85100000Y-98500000D02*
X84100000Y-99000000D01*
X76800000Y-51100000D02*
X77260000Y-51240000D01*
X76150000Y-133500000D02*
X76150000Y-133300000D01*
X77000000Y-100100000D02*
X77800000Y-99600000D01*
X93000000Y-51100000D02*
X92540000Y-51240000D01*
X94700000Y-135472083D02*
X94390000Y-135362083D01*
X103050000Y-42850000D02*
X102950000Y-42850000D01*
X94600000Y-159400000D02*
X94800000Y-159600000D01*
X93000000Y-159000000D02*
X93000000Y-160800000D01*
X93000000Y-160800000D02*
X94000000Y-160200000D01*
X103850000Y-43750000D02*
X104350000Y-44500000D01*
X72400000Y-63600000D02*
G75*
G03*
X72900000Y-64100000I500000J0D01*
G01*
X85200000Y-100100000D02*
X85200000Y-99900000D01*
X99500000Y-41500000D02*
X98800000Y-40400000D01*
X81700000Y-100100000D02*
X81600000Y-99900000D01*
X114900000Y-104561611D02*
X114900000Y-103600000D01*
X99600000Y-82900000D02*
X99700000Y-83100000D01*
X76950000Y-132900000D02*
X76150000Y-133500000D01*
X112675000Y-120750000D02*
X112375000Y-122450000D01*
X76400000Y-64600000D02*
G75*
G03*
X75900000Y-64100000I-500000J0D01*
G01*
X99400000Y-143600000D02*
X98900000Y-141900000D01*
X72900000Y-53600000D02*
G75*
G03*
X72400000Y-54100000I0J-500000D01*
G01*
X73650000Y-131700000D02*
X74050000Y-132300000D01*
X105750000Y-42850000D02*
X106800000Y-42850000D01*
X90000000Y-115600000D02*
X89300000Y-117200000D01*
X109700000Y-84600000D02*
X110700000Y-82900000D01*
X89800000Y-141900000D02*
X89900000Y-142100000D01*
X103750000Y-42850000D02*
X103650000Y-42850000D01*
X94900000Y-132600000D02*
X95671612Y-132600000D01*
X116225000Y-121400000D02*
X116325000Y-121300000D01*
X103050000Y-42850000D02*
X102950000Y-44450000D01*
X99800000Y-141900000D02*
X99400000Y-143600000D01*
X124700000Y-57500000D02*
X124600000Y-57500000D01*
X112400000Y-142600000D02*
G75*
G03*
X112900000Y-142100000I0J500000D01*
G01*
X96200000Y-158600000D02*
G75*
G03*
X95800000Y-159000000I0J-400000D01*
G01*
X77000000Y-98500000D02*
X77000000Y-100100000D01*
X75350000Y-133400000D02*
X75150000Y-133200000D01*
X97600000Y-160800000D02*
X98400000Y-160800000D01*
X124550000Y-74400000D02*
X125250000Y-74400000D01*
X100700000Y-40400000D02*
X100400000Y-42100000D01*
X112450000Y-50200000D02*
X112350000Y-50000000D01*
X84200000Y-100100000D02*
X84400000Y-100100000D01*
X101400000Y-160800000D02*
X101400000Y-160600000D01*
X114275000Y-122450000D02*
X114525000Y-120750000D01*
X76150000Y-133500000D02*
X76350000Y-133500000D01*
X87162500Y-62300000D02*
X87687500Y-62300000D01*
X104000000Y-159600000D02*
X103800000Y-159600000D01*
X87587500Y-62400000D02*
X87687500Y-62300000D01*
X106700000Y-42950000D02*
X106800000Y-42850000D01*
X97600000Y-159600000D02*
X97600000Y-160800000D01*
X105450000Y-43450000D02*
X105875000Y-43450000D01*
X95800000Y-160800000D02*
X97000000Y-160800000D01*
X123900000Y-59100000D02*
X123800000Y-59100000D01*
X90200000Y-124872083D02*
X90040000Y-125252083D01*
X79000000Y-135572083D02*
X79440000Y-135412083D01*
X126400000Y-57900000D02*
X125200000Y-58200000D01*
X102200000Y-160400000D02*
X101400000Y-160800000D01*
X84750000Y-83400000D02*
X84850000Y-83500000D01*
X79800000Y-100100000D02*
X80900000Y-99600000D01*
X114050000Y-49000000D02*
X112850000Y-49300000D01*
X94600000Y-159400000D02*
X94400000Y-159600000D01*
X110400000Y-119100000D02*
X109940000Y-119690000D01*
X83950000Y-84300000D02*
X84450000Y-85000000D01*
X127900000Y-101100000D02*
X123900000Y-101100000D01*
X111450000Y-48500000D02*
X111350000Y-48500000D01*
X79900000Y-98500000D02*
X79800000Y-98500000D01*
X119400000Y-119100000D02*
X119850000Y-119710000D01*
X99000000Y-159000000D02*
X99000000Y-160800000D01*
X113900000Y-144100000D02*
X114000000Y-144000000D01*
X81975000Y-61750000D02*
X81125000Y-62700000D01*
X74550000Y-133400000D02*
X75250000Y-133400000D01*
X82375000Y-63450000D02*
X83375000Y-61750000D01*
X115000000Y-142500000D02*
X114900000Y-142500000D01*
X123000000Y-110100000D02*
X122540000Y-110240000D01*
X102400000Y-40700000D02*
X101800000Y-40400000D01*
X111700000Y-104700000D02*
X111890000Y-105150000D01*
X80400000Y-127072083D02*
X80810000Y-127422083D01*
X104200000Y-42100000D02*
X104000000Y-42300000D01*
X113400000Y-143400000D02*
X113900000Y-144100000D01*
X74750000Y-132600000D02*
X75050000Y-132600000D01*
X101500000Y-42750000D02*
X101400000Y-44450000D01*
X97600000Y-160200000D02*
X97800000Y-160200000D01*
X102800000Y-159600000D02*
X102800000Y-160800000D01*
X98400000Y-43850000D02*
X97600000Y-44450000D01*
X127050000Y-72800000D02*
X126850000Y-72700000D01*
X86250000Y-83400000D02*
X86150000Y-83400000D01*
X73950000Y-132900000D02*
X73750000Y-133400000D01*
X81900000Y-100000000D02*
X81700000Y-100100000D01*
X89400000Y-60100000D02*
X89850000Y-60710000D01*
X100400000Y-43350000D02*
X99600000Y-43550000D01*
X108400000Y-107000000D02*
X108810000Y-107350000D01*
X110750000Y-50200000D02*
X111850000Y-50200000D01*
X120900000Y-73600000D02*
X121671612Y-73600000D01*
X87500000Y-117200000D02*
X87400000Y-117200000D01*
X78650000Y-98500000D02*
X78550000Y-100100000D01*
D11*
G36*
X75700000Y-53600000D02*
G01*
X75200000Y-54100000D01*
X75200000Y-53100000D01*
X75700000Y-53600000D01*
G37*
X75700000Y-53600000D02*
X75200000Y-54100000D01*
X75200000Y-53100000D01*
X75700000Y-53600000D01*
D10*
X99000000Y-159000000D02*
X100400000Y-159400000D01*
X124750000Y-73600000D02*
X125050000Y-73600000D01*
X74050000Y-132300000D02*
X73350000Y-132400000D01*
X98500000Y-42750000D02*
X97500000Y-43350000D01*
X106800000Y-110100000D02*
X107260000Y-110240000D01*
X78400000Y-48000000D02*
X78810000Y-48350000D01*
X83975000Y-61750000D02*
X82975000Y-63450000D01*
X88300000Y-115600000D02*
X87500000Y-117200000D01*
X109700000Y-82900000D02*
X109300000Y-84600000D01*
X92844194Y-53600000D02*
X93615806Y-53600000D01*
X81700000Y-45700000D02*
X81890000Y-46150000D01*
X100400000Y-42850000D02*
X100400000Y-43350000D01*
X104200000Y-42100000D02*
X104000000Y-41900000D01*
X84100000Y-99000000D02*
X85000000Y-99500000D01*
X83575000Y-61750000D02*
X84275000Y-61750000D01*
X125150000Y-72800000D02*
X125550000Y-72800000D01*
X98900000Y-43750000D02*
X99300000Y-43750000D01*
X122844194Y-112600000D02*
X123615806Y-112600000D01*
X102400000Y-159600000D02*
X101400000Y-159800000D01*
X99500000Y-40400000D02*
X100400000Y-40400000D01*
X88437500Y-61850000D02*
X88537500Y-61750000D01*
X85100000Y-98500000D02*
X85100000Y-98700000D01*
X85800000Y-62300000D02*
X86325000Y-62300000D01*
X126150000Y-74500000D02*
X126350000Y-74500000D01*
X124750000Y-73200000D02*
X124550000Y-74400000D01*
X83700000Y-124772083D02*
X83890000Y-125222083D01*
X99500000Y-84600000D02*
X100300000Y-82900000D01*
X89500000Y-117100000D02*
X89300000Y-117200000D01*
X102400000Y-159600000D02*
X102400000Y-159800000D01*
X103400000Y-42100000D02*
X104100000Y-42100000D01*
X84900000Y-45561611D02*
X84900000Y-44600000D01*
D11*
G36*
X87400000Y-82200000D02*
G01*
X86400000Y-82200000D01*
X86900000Y-81700000D01*
X87400000Y-82200000D01*
G37*
X87400000Y-82200000D02*
X86400000Y-82200000D01*
X86900000Y-81700000D01*
X87400000Y-82200000D01*
D10*
X101800000Y-40400000D02*
X100800000Y-42100000D01*
X102000000Y-41500000D02*
X101400000Y-41100000D01*
X90000000Y-115600000D02*
X90900000Y-116000000D01*
X100900000Y-42750000D02*
X101500000Y-42750000D01*
X104650000Y-42850000D02*
X104750000Y-42950000D01*
X117400000Y-80172083D02*
X117850000Y-80782083D01*
X97500000Y-43350000D02*
X98400000Y-43850000D01*
X77050000Y-131800000D02*
X77050000Y-132000000D01*
X111975000Y-120750000D02*
X111125000Y-121700000D01*
X88300000Y-115600000D02*
X88200000Y-115600000D01*
X77700000Y-108100000D02*
X76500000Y-108400000D01*
X104000000Y-40400000D02*
X104400000Y-40400000D01*
X75100000Y-107600000D02*
X74400000Y-109300000D01*
X120700000Y-76472083D02*
X120390000Y-76362083D01*
X100800000Y-44450000D02*
X100900000Y-42750000D01*
X72400000Y-54100000D02*
X72400000Y-63600000D01*
X105750000Y-42850000D02*
X104750000Y-44500000D01*
X111300000Y-82900000D02*
X110300000Y-84600000D01*
X89700000Y-143600000D02*
X90500000Y-141900000D01*
X98400000Y-42100000D02*
X99500000Y-41500000D01*
X113575000Y-120750000D02*
X114275000Y-120750000D01*
X104650000Y-42850000D02*
X103850000Y-43750000D01*
X102200000Y-42100000D02*
X103000000Y-42100000D01*
X76300000Y-109200000D02*
X76100000Y-109300000D01*
X78800000Y-130172083D02*
X79260000Y-130312083D01*
X114200000Y-142500000D02*
X113400000Y-143400000D01*
X104000000Y-159600000D02*
X103600000Y-160800000D01*
X91400000Y-139172083D02*
X91850000Y-139782083D01*
X125500000Y-57500000D02*
X124800000Y-59100000D01*
X78400000Y-58900000D02*
X78750000Y-58610000D01*
X113975000Y-120750000D02*
X112975000Y-122450000D01*
X108400000Y-80172083D02*
X107940000Y-80762083D01*
X117587500Y-121400000D02*
X117687500Y-121300000D01*
X112900000Y-65633694D02*
X112900000Y-64672083D01*
X76800000Y-107700000D02*
X77700000Y-108100000D01*
X97000000Y-160800000D02*
X96800000Y-160600000D01*
X115700000Y-142500000D02*
X115600000Y-142500000D01*
X117487500Y-120750000D02*
X116487500Y-122450000D01*
X98500000Y-42750000D02*
X98300000Y-42650000D01*
X80200000Y-98500000D02*
X79800000Y-100100000D01*
X74400000Y-109300000D02*
X75500000Y-109300000D01*
X90500000Y-141900000D02*
X90500000Y-143600000D01*
X94000000Y-160200000D02*
X93000000Y-159800000D01*
X107000000Y-115500000D02*
X107440000Y-115340000D01*
X77000000Y-99300000D02*
X77800000Y-98900000D01*
X86250000Y-83400000D02*
X85450000Y-85000000D01*
X84200000Y-100100000D02*
X84200000Y-99900000D01*
X82400000Y-98500000D02*
X83300000Y-98900000D01*
X85100000Y-98500000D02*
X84900000Y-98400000D01*
X112650000Y-50100000D02*
X112450000Y-50200000D01*
X125000000Y-59000000D02*
X124800000Y-59100000D01*
X97000000Y-160800000D02*
X96800000Y-161000000D01*
X100400000Y-42100000D02*
X101400000Y-40400000D01*
X113150000Y-48600000D02*
X114050000Y-49000000D01*
X106400000Y-78972083D02*
X106750000Y-78682083D01*
X96200000Y-42750000D02*
X96000000Y-42650000D01*
X89800000Y-141900000D02*
X89600000Y-142000000D01*
X124700000Y-57500000D02*
X123900000Y-59100000D01*
X83800000Y-98500000D02*
X83000000Y-100100000D01*
X95800000Y-159600000D02*
X96200000Y-159600000D01*
X105600000Y-160800000D02*
X106600000Y-160400000D01*
X89000000Y-143600000D02*
X89800000Y-141900000D01*
X87487500Y-61750000D02*
X88537500Y-61750000D01*
X117162500Y-121300000D02*
X117687500Y-121300000D01*
X78650000Y-98500000D02*
X77850000Y-100100000D01*
X76400000Y-64600000D02*
X76400000Y-73100000D01*
X98800000Y-40400000D02*
X98400000Y-42100000D01*
X115700000Y-142500000D02*
X114900000Y-144100000D01*
X101400000Y-44450000D02*
X100800000Y-44450000D01*
X89900000Y-84200000D02*
G75*
G03*
X89400000Y-83700000I-500000J0D01*
G01*
X89500000Y-83700000D02*
X87400000Y-83700000D01*
X104900000Y-101600000D02*
X109900000Y-101600000D01*
X85000000Y-99500000D02*
X84200000Y-100100000D01*
X123350000Y-73400000D02*
X123950000Y-73900000D01*
X125150000Y-72800000D02*
G75*
G03*
X124750000Y-73200000I0J-400000D01*
G01*
X105200000Y-159600000D02*
X105000000Y-160800000D01*
X87075000Y-61850000D02*
X87175000Y-61750000D01*
X87850000Y-116500000D02*
X88700000Y-116500000D01*
X89300000Y-117200000D02*
X89200000Y-117000000D01*
X86900000Y-124633694D02*
X86900000Y-123672083D01*
X121400000Y-102100000D02*
X117400000Y-102100000D01*
X86000000Y-99500000D02*
X85200000Y-100100000D01*
X76400000Y-73100000D02*
G75*
G03*
X76900000Y-73600000I500000J0D01*
G01*
X79900000Y-98500000D02*
X79400000Y-100100000D01*
X104800000Y-71172083D02*
X105260000Y-71312083D01*
X76050000Y-132400000D02*
X76950000Y-132900000D01*
X78550000Y-99300000D02*
X78250000Y-99300000D01*
X93330000Y-137812083D02*
X93090000Y-137612083D01*
X93000000Y-159800000D02*
X94000000Y-159400000D01*
X85100000Y-99000000D02*
X86000000Y-99500000D01*
X113150000Y-48600000D02*
X112450000Y-50200000D01*
X98800000Y-84600000D02*
X99600000Y-82900000D01*
X101100000Y-82900000D02*
X101000000Y-82900000D01*
X121290000Y-107000000D02*
X120940000Y-107320000D01*
X85325000Y-61750000D02*
X84275000Y-63450000D01*
X102800000Y-160800000D02*
X103600000Y-159600000D01*
X85550000Y-83400000D02*
X85450000Y-83400000D01*
X127000000Y-123100000D02*
G75*
G03*
X127500000Y-122600000I0J500000D01*
G01*
X87487500Y-61750000D02*
X86487500Y-63450000D01*
X75150000Y-131800000D02*
X75550000Y-131800000D01*
X105000000Y-76572083D02*
X105440000Y-76412083D01*
X89200000Y-115600000D02*
X88400000Y-117200000D01*
%LPC*%
D11*
G36*
X124400000Y-99100000D02*
G01*
X119400000Y-99100000D01*
X119400000Y-94100000D01*
X124400000Y-94100000D01*
X124400000Y-99100000D01*
G37*
X124400000Y-99100000D02*
X119400000Y-99100000D01*
X119400000Y-94100000D01*
X124400000Y-94100000D01*
X124400000Y-99100000D01*
D12*
X78900000Y-40100000D03*
X120900000Y-40100000D03*
X120900000Y-162600000D03*
X78900000Y-162600000D03*
M02*
