G04 #@! TF.GenerationSoftware,KiCad,Pcbnew,7.0.5.1-1-g8f565ef7f0-dirty-deb11*
G04 #@! TF.CreationDate,2023-06-10T14:16:41+00:00*
G04 #@! TF.ProjectId,MS20-VCF,4d533230-2d56-4434-962e-6b696361645f,rev?*
G04 #@! TF.SameCoordinates,Original*
G04 #@! TF.FileFunction,Legend,Bot*
G04 #@! TF.FilePolarity,Positive*
%FSLAX46Y46*%
G04 Gerber Fmt 4.6, Leading zero omitted, Abs format (unit mm)*
G04 Created by KiCad (PCBNEW 7.0.5.1-1-g8f565ef7f0-dirty-deb11) date 2023-06-10 14:16:41*
%MOMM*%
%LPD*%
G01*
G04 APERTURE LIST*
%ADD10C,0.150000*%
%ADD11C,0.300000*%
%ADD12C,0.100000*%
%ADD13O,6.700000X4.200000*%
G04 APERTURE END LIST*
D10*
X85247619Y-38194819D02*
X85247619Y-37194819D01*
X85247619Y-37194819D02*
X85009524Y-37194819D01*
X85009524Y-37194819D02*
X84866667Y-37242438D01*
X84866667Y-37242438D02*
X84771429Y-37337676D01*
X84771429Y-37337676D02*
X84723810Y-37432914D01*
X84723810Y-37432914D02*
X84676191Y-37623390D01*
X84676191Y-37623390D02*
X84676191Y-37766247D01*
X84676191Y-37766247D02*
X84723810Y-37956723D01*
X84723810Y-37956723D02*
X84771429Y-38051961D01*
X84771429Y-38051961D02*
X84866667Y-38147200D01*
X84866667Y-38147200D02*
X85009524Y-38194819D01*
X85009524Y-38194819D02*
X85247619Y-38194819D01*
X84104762Y-38194819D02*
X84200000Y-38147200D01*
X84200000Y-38147200D02*
X84247619Y-38099580D01*
X84247619Y-38099580D02*
X84295238Y-38004342D01*
X84295238Y-38004342D02*
X84295238Y-37718628D01*
X84295238Y-37718628D02*
X84247619Y-37623390D01*
X84247619Y-37623390D02*
X84200000Y-37575771D01*
X84200000Y-37575771D02*
X84104762Y-37528152D01*
X84104762Y-37528152D02*
X83961905Y-37528152D01*
X83961905Y-37528152D02*
X83866667Y-37575771D01*
X83866667Y-37575771D02*
X83819048Y-37623390D01*
X83819048Y-37623390D02*
X83771429Y-37718628D01*
X83771429Y-37718628D02*
X83771429Y-38004342D01*
X83771429Y-38004342D02*
X83819048Y-38099580D01*
X83819048Y-38099580D02*
X83866667Y-38147200D01*
X83866667Y-38147200D02*
X83961905Y-38194819D01*
X83961905Y-38194819D02*
X84104762Y-38194819D01*
X82914286Y-37528152D02*
X82914286Y-38194819D01*
X83342857Y-37528152D02*
X83342857Y-38051961D01*
X83342857Y-38051961D02*
X83295238Y-38147200D01*
X83295238Y-38147200D02*
X83200000Y-38194819D01*
X83200000Y-38194819D02*
X83057143Y-38194819D01*
X83057143Y-38194819D02*
X82961905Y-38147200D01*
X82961905Y-38147200D02*
X82914286Y-38099580D01*
X82438095Y-38194819D02*
X82438095Y-37194819D01*
X82438095Y-37575771D02*
X82342857Y-37528152D01*
X82342857Y-37528152D02*
X82152381Y-37528152D01*
X82152381Y-37528152D02*
X82057143Y-37575771D01*
X82057143Y-37575771D02*
X82009524Y-37623390D01*
X82009524Y-37623390D02*
X81961905Y-37718628D01*
X81961905Y-37718628D02*
X81961905Y-38004342D01*
X81961905Y-38004342D02*
X82009524Y-38099580D01*
X82009524Y-38099580D02*
X82057143Y-38147200D01*
X82057143Y-38147200D02*
X82152381Y-38194819D01*
X82152381Y-38194819D02*
X82342857Y-38194819D01*
X82342857Y-38194819D02*
X82438095Y-38147200D01*
X81390476Y-38194819D02*
X81485714Y-38147200D01*
X81485714Y-38147200D02*
X81533333Y-38051961D01*
X81533333Y-38051961D02*
X81533333Y-37194819D01*
X80628571Y-38147200D02*
X80723809Y-38194819D01*
X80723809Y-38194819D02*
X80914285Y-38194819D01*
X80914285Y-38194819D02*
X81009523Y-38147200D01*
X81009523Y-38147200D02*
X81057142Y-38051961D01*
X81057142Y-38051961D02*
X81057142Y-37671009D01*
X81057142Y-37671009D02*
X81009523Y-37575771D01*
X81009523Y-37575771D02*
X80914285Y-37528152D01*
X80914285Y-37528152D02*
X80723809Y-37528152D01*
X80723809Y-37528152D02*
X80628571Y-37575771D01*
X80628571Y-37575771D02*
X80580952Y-37671009D01*
X80580952Y-37671009D02*
X80580952Y-37766247D01*
X80580952Y-37766247D02*
X81057142Y-37861485D01*
X79390475Y-38194819D02*
X79390475Y-37194819D01*
X79390475Y-37194819D02*
X79057142Y-37909104D01*
X79057142Y-37909104D02*
X78723809Y-37194819D01*
X78723809Y-37194819D02*
X78723809Y-38194819D01*
X78295237Y-38147200D02*
X78152380Y-38194819D01*
X78152380Y-38194819D02*
X77914285Y-38194819D01*
X77914285Y-38194819D02*
X77819047Y-38147200D01*
X77819047Y-38147200D02*
X77771428Y-38099580D01*
X77771428Y-38099580D02*
X77723809Y-38004342D01*
X77723809Y-38004342D02*
X77723809Y-37909104D01*
X77723809Y-37909104D02*
X77771428Y-37813866D01*
X77771428Y-37813866D02*
X77819047Y-37766247D01*
X77819047Y-37766247D02*
X77914285Y-37718628D01*
X77914285Y-37718628D02*
X78104761Y-37671009D01*
X78104761Y-37671009D02*
X78199999Y-37623390D01*
X78199999Y-37623390D02*
X78247618Y-37575771D01*
X78247618Y-37575771D02*
X78295237Y-37480533D01*
X78295237Y-37480533D02*
X78295237Y-37385295D01*
X78295237Y-37385295D02*
X78247618Y-37290057D01*
X78247618Y-37290057D02*
X78199999Y-37242438D01*
X78199999Y-37242438D02*
X78104761Y-37194819D01*
X78104761Y-37194819D02*
X77866666Y-37194819D01*
X77866666Y-37194819D02*
X77723809Y-37242438D01*
X77295237Y-37813866D02*
X76533333Y-37813866D01*
X76104761Y-37290057D02*
X76057142Y-37242438D01*
X76057142Y-37242438D02*
X75961904Y-37194819D01*
X75961904Y-37194819D02*
X75723809Y-37194819D01*
X75723809Y-37194819D02*
X75628571Y-37242438D01*
X75628571Y-37242438D02*
X75580952Y-37290057D01*
X75580952Y-37290057D02*
X75533333Y-37385295D01*
X75533333Y-37385295D02*
X75533333Y-37480533D01*
X75533333Y-37480533D02*
X75580952Y-37623390D01*
X75580952Y-37623390D02*
X76152380Y-38194819D01*
X76152380Y-38194819D02*
X75533333Y-38194819D01*
X74914285Y-37194819D02*
X74819047Y-37194819D01*
X74819047Y-37194819D02*
X74723809Y-37242438D01*
X74723809Y-37242438D02*
X74676190Y-37290057D01*
X74676190Y-37290057D02*
X74628571Y-37385295D01*
X74628571Y-37385295D02*
X74580952Y-37575771D01*
X74580952Y-37575771D02*
X74580952Y-37813866D01*
X74580952Y-37813866D02*
X74628571Y-38004342D01*
X74628571Y-38004342D02*
X74676190Y-38099580D01*
X74676190Y-38099580D02*
X74723809Y-38147200D01*
X74723809Y-38147200D02*
X74819047Y-38194819D01*
X74819047Y-38194819D02*
X74914285Y-38194819D01*
X74914285Y-38194819D02*
X75009523Y-38147200D01*
X75009523Y-38147200D02*
X75057142Y-38099580D01*
X75057142Y-38099580D02*
X75104761Y-38004342D01*
X75104761Y-38004342D02*
X75152380Y-37813866D01*
X75152380Y-37813866D02*
X75152380Y-37575771D01*
X75152380Y-37575771D02*
X75104761Y-37385295D01*
X75104761Y-37385295D02*
X75057142Y-37290057D01*
X75057142Y-37290057D02*
X75009523Y-37242438D01*
X75009523Y-37242438D02*
X74914285Y-37194819D01*
X73533332Y-37194819D02*
X73199999Y-38194819D01*
X73199999Y-38194819D02*
X72866666Y-37194819D01*
X71961904Y-38099580D02*
X72009523Y-38147200D01*
X72009523Y-38147200D02*
X72152380Y-38194819D01*
X72152380Y-38194819D02*
X72247618Y-38194819D01*
X72247618Y-38194819D02*
X72390475Y-38147200D01*
X72390475Y-38147200D02*
X72485713Y-38051961D01*
X72485713Y-38051961D02*
X72533332Y-37956723D01*
X72533332Y-37956723D02*
X72580951Y-37766247D01*
X72580951Y-37766247D02*
X72580951Y-37623390D01*
X72580951Y-37623390D02*
X72533332Y-37432914D01*
X72533332Y-37432914D02*
X72485713Y-37337676D01*
X72485713Y-37337676D02*
X72390475Y-37242438D01*
X72390475Y-37242438D02*
X72247618Y-37194819D01*
X72247618Y-37194819D02*
X72152380Y-37194819D01*
X72152380Y-37194819D02*
X72009523Y-37242438D01*
X72009523Y-37242438D02*
X71961904Y-37290057D01*
X71199999Y-37671009D02*
X71533332Y-37671009D01*
X71533332Y-38194819D02*
X71533332Y-37194819D01*
X71533332Y-37194819D02*
X71057142Y-37194819D01*
X84461904Y-38804819D02*
X84128571Y-39804819D01*
X84128571Y-39804819D02*
X83795238Y-38804819D01*
X82938095Y-39804819D02*
X83509523Y-39804819D01*
X83223809Y-39804819D02*
X83223809Y-38804819D01*
X83223809Y-38804819D02*
X83319047Y-38947676D01*
X83319047Y-38947676D02*
X83414285Y-39042914D01*
X83414285Y-39042914D02*
X83509523Y-39090533D01*
X82509523Y-39709580D02*
X82461904Y-39757200D01*
X82461904Y-39757200D02*
X82509523Y-39804819D01*
X82509523Y-39804819D02*
X82557142Y-39757200D01*
X82557142Y-39757200D02*
X82509523Y-39709580D01*
X82509523Y-39709580D02*
X82509523Y-39804819D01*
X82128571Y-38804819D02*
X81509524Y-38804819D01*
X81509524Y-38804819D02*
X81842857Y-39185771D01*
X81842857Y-39185771D02*
X81700000Y-39185771D01*
X81700000Y-39185771D02*
X81604762Y-39233390D01*
X81604762Y-39233390D02*
X81557143Y-39281009D01*
X81557143Y-39281009D02*
X81509524Y-39376247D01*
X81509524Y-39376247D02*
X81509524Y-39614342D01*
X81509524Y-39614342D02*
X81557143Y-39709580D01*
X81557143Y-39709580D02*
X81604762Y-39757200D01*
X81604762Y-39757200D02*
X81700000Y-39804819D01*
X81700000Y-39804819D02*
X81985714Y-39804819D01*
X81985714Y-39804819D02*
X82080952Y-39757200D01*
X82080952Y-39757200D02*
X82128571Y-39709580D01*
X79985714Y-39281009D02*
X79842857Y-39328628D01*
X79842857Y-39328628D02*
X79795238Y-39376247D01*
X79795238Y-39376247D02*
X79747619Y-39471485D01*
X79747619Y-39471485D02*
X79747619Y-39614342D01*
X79747619Y-39614342D02*
X79795238Y-39709580D01*
X79795238Y-39709580D02*
X79842857Y-39757200D01*
X79842857Y-39757200D02*
X79938095Y-39804819D01*
X79938095Y-39804819D02*
X80319047Y-39804819D01*
X80319047Y-39804819D02*
X80319047Y-38804819D01*
X80319047Y-38804819D02*
X79985714Y-38804819D01*
X79985714Y-38804819D02*
X79890476Y-38852438D01*
X79890476Y-38852438D02*
X79842857Y-38900057D01*
X79842857Y-38900057D02*
X79795238Y-38995295D01*
X79795238Y-38995295D02*
X79795238Y-39090533D01*
X79795238Y-39090533D02*
X79842857Y-39185771D01*
X79842857Y-39185771D02*
X79890476Y-39233390D01*
X79890476Y-39233390D02*
X79985714Y-39281009D01*
X79985714Y-39281009D02*
X80319047Y-39281009D01*
X79176190Y-39804819D02*
X79271428Y-39757200D01*
X79271428Y-39757200D02*
X79319047Y-39661961D01*
X79319047Y-39661961D02*
X79319047Y-38804819D01*
X78414285Y-39757200D02*
X78509523Y-39804819D01*
X78509523Y-39804819D02*
X78699999Y-39804819D01*
X78699999Y-39804819D02*
X78795237Y-39757200D01*
X78795237Y-39757200D02*
X78842856Y-39661961D01*
X78842856Y-39661961D02*
X78842856Y-39281009D01*
X78842856Y-39281009D02*
X78795237Y-39185771D01*
X78795237Y-39185771D02*
X78699999Y-39138152D01*
X78699999Y-39138152D02*
X78509523Y-39138152D01*
X78509523Y-39138152D02*
X78414285Y-39185771D01*
X78414285Y-39185771D02*
X78366666Y-39281009D01*
X78366666Y-39281009D02*
X78366666Y-39376247D01*
X78366666Y-39376247D02*
X78842856Y-39471485D01*
X77557142Y-39757200D02*
X77652380Y-39804819D01*
X77652380Y-39804819D02*
X77842856Y-39804819D01*
X77842856Y-39804819D02*
X77938094Y-39757200D01*
X77938094Y-39757200D02*
X77985713Y-39661961D01*
X77985713Y-39661961D02*
X77985713Y-39281009D01*
X77985713Y-39281009D02*
X77938094Y-39185771D01*
X77938094Y-39185771D02*
X77842856Y-39138152D01*
X77842856Y-39138152D02*
X77652380Y-39138152D01*
X77652380Y-39138152D02*
X77557142Y-39185771D01*
X77557142Y-39185771D02*
X77509523Y-39281009D01*
X77509523Y-39281009D02*
X77509523Y-39376247D01*
X77509523Y-39376247D02*
X77985713Y-39471485D01*
X77080951Y-39138152D02*
X77080951Y-40138152D01*
X77080951Y-39185771D02*
X76985713Y-39138152D01*
X76985713Y-39138152D02*
X76795237Y-39138152D01*
X76795237Y-39138152D02*
X76699999Y-39185771D01*
X76699999Y-39185771D02*
X76652380Y-39233390D01*
X76652380Y-39233390D02*
X76604761Y-39328628D01*
X76604761Y-39328628D02*
X76604761Y-39614342D01*
X76604761Y-39614342D02*
X76652380Y-39709580D01*
X76652380Y-39709580D02*
X76699999Y-39757200D01*
X76699999Y-39757200D02*
X76795237Y-39804819D01*
X76795237Y-39804819D02*
X76985713Y-39804819D01*
X76985713Y-39804819D02*
X77080951Y-39757200D01*
X76223808Y-39757200D02*
X76080951Y-39804819D01*
X76080951Y-39804819D02*
X75842856Y-39804819D01*
X75842856Y-39804819D02*
X75747618Y-39757200D01*
X75747618Y-39757200D02*
X75699999Y-39709580D01*
X75699999Y-39709580D02*
X75652380Y-39614342D01*
X75652380Y-39614342D02*
X75652380Y-39519104D01*
X75652380Y-39519104D02*
X75699999Y-39423866D01*
X75699999Y-39423866D02*
X75747618Y-39376247D01*
X75747618Y-39376247D02*
X75842856Y-39328628D01*
X75842856Y-39328628D02*
X76033332Y-39281009D01*
X76033332Y-39281009D02*
X76128570Y-39233390D01*
X76128570Y-39233390D02*
X76176189Y-39185771D01*
X76176189Y-39185771D02*
X76223808Y-39090533D01*
X76223808Y-39090533D02*
X76223808Y-38995295D01*
X76223808Y-38995295D02*
X76176189Y-38900057D01*
X76176189Y-38900057D02*
X76128570Y-38852438D01*
X76128570Y-38852438D02*
X76033332Y-38804819D01*
X76033332Y-38804819D02*
X75795237Y-38804819D01*
X75795237Y-38804819D02*
X75652380Y-38852438D01*
X75080951Y-39804819D02*
X75176189Y-39757200D01*
X75176189Y-39757200D02*
X75223808Y-39709580D01*
X75223808Y-39709580D02*
X75271427Y-39614342D01*
X75271427Y-39614342D02*
X75271427Y-39328628D01*
X75271427Y-39328628D02*
X75223808Y-39233390D01*
X75223808Y-39233390D02*
X75176189Y-39185771D01*
X75176189Y-39185771D02*
X75080951Y-39138152D01*
X75080951Y-39138152D02*
X74938094Y-39138152D01*
X74938094Y-39138152D02*
X74842856Y-39185771D01*
X74842856Y-39185771D02*
X74795237Y-39233390D01*
X74795237Y-39233390D02*
X74747618Y-39328628D01*
X74747618Y-39328628D02*
X74747618Y-39614342D01*
X74747618Y-39614342D02*
X74795237Y-39709580D01*
X74795237Y-39709580D02*
X74842856Y-39757200D01*
X74842856Y-39757200D02*
X74938094Y-39804819D01*
X74938094Y-39804819D02*
X75080951Y-39804819D01*
X73890475Y-39138152D02*
X73890475Y-39804819D01*
X74319046Y-39138152D02*
X74319046Y-39661961D01*
X74319046Y-39661961D02*
X74271427Y-39757200D01*
X74271427Y-39757200D02*
X74176189Y-39804819D01*
X74176189Y-39804819D02*
X74033332Y-39804819D01*
X74033332Y-39804819D02*
X73938094Y-39757200D01*
X73938094Y-39757200D02*
X73890475Y-39709580D01*
X73414284Y-39138152D02*
X73414284Y-39804819D01*
X73414284Y-39233390D02*
X73366665Y-39185771D01*
X73366665Y-39185771D02*
X73271427Y-39138152D01*
X73271427Y-39138152D02*
X73128570Y-39138152D01*
X73128570Y-39138152D02*
X73033332Y-39185771D01*
X73033332Y-39185771D02*
X72985713Y-39281009D01*
X72985713Y-39281009D02*
X72985713Y-39804819D01*
X72080951Y-39804819D02*
X72080951Y-38804819D01*
X72080951Y-39757200D02*
X72176189Y-39804819D01*
X72176189Y-39804819D02*
X72366665Y-39804819D01*
X72366665Y-39804819D02*
X72461903Y-39757200D01*
X72461903Y-39757200D02*
X72509522Y-39709580D01*
X72509522Y-39709580D02*
X72557141Y-39614342D01*
X72557141Y-39614342D02*
X72557141Y-39328628D01*
X72557141Y-39328628D02*
X72509522Y-39233390D01*
X72509522Y-39233390D02*
X72461903Y-39185771D01*
X72461903Y-39185771D02*
X72366665Y-39138152D01*
X72366665Y-39138152D02*
X72176189Y-39138152D01*
X72176189Y-39138152D02*
X72080951Y-39185771D01*
X79914285Y-40510057D02*
X79866666Y-40462438D01*
X79866666Y-40462438D02*
X79771428Y-40414819D01*
X79771428Y-40414819D02*
X79533333Y-40414819D01*
X79533333Y-40414819D02*
X79438095Y-40462438D01*
X79438095Y-40462438D02*
X79390476Y-40510057D01*
X79390476Y-40510057D02*
X79342857Y-40605295D01*
X79342857Y-40605295D02*
X79342857Y-40700533D01*
X79342857Y-40700533D02*
X79390476Y-40843390D01*
X79390476Y-40843390D02*
X79961904Y-41414819D01*
X79961904Y-41414819D02*
X79342857Y-41414819D01*
X78723809Y-40414819D02*
X78628571Y-40414819D01*
X78628571Y-40414819D02*
X78533333Y-40462438D01*
X78533333Y-40462438D02*
X78485714Y-40510057D01*
X78485714Y-40510057D02*
X78438095Y-40605295D01*
X78438095Y-40605295D02*
X78390476Y-40795771D01*
X78390476Y-40795771D02*
X78390476Y-41033866D01*
X78390476Y-41033866D02*
X78438095Y-41224342D01*
X78438095Y-41224342D02*
X78485714Y-41319580D01*
X78485714Y-41319580D02*
X78533333Y-41367200D01*
X78533333Y-41367200D02*
X78628571Y-41414819D01*
X78628571Y-41414819D02*
X78723809Y-41414819D01*
X78723809Y-41414819D02*
X78819047Y-41367200D01*
X78819047Y-41367200D02*
X78866666Y-41319580D01*
X78866666Y-41319580D02*
X78914285Y-41224342D01*
X78914285Y-41224342D02*
X78961904Y-41033866D01*
X78961904Y-41033866D02*
X78961904Y-40795771D01*
X78961904Y-40795771D02*
X78914285Y-40605295D01*
X78914285Y-40605295D02*
X78866666Y-40510057D01*
X78866666Y-40510057D02*
X78819047Y-40462438D01*
X78819047Y-40462438D02*
X78723809Y-40414819D01*
X78009523Y-40510057D02*
X77961904Y-40462438D01*
X77961904Y-40462438D02*
X77866666Y-40414819D01*
X77866666Y-40414819D02*
X77628571Y-40414819D01*
X77628571Y-40414819D02*
X77533333Y-40462438D01*
X77533333Y-40462438D02*
X77485714Y-40510057D01*
X77485714Y-40510057D02*
X77438095Y-40605295D01*
X77438095Y-40605295D02*
X77438095Y-40700533D01*
X77438095Y-40700533D02*
X77485714Y-40843390D01*
X77485714Y-40843390D02*
X78057142Y-41414819D01*
X78057142Y-41414819D02*
X77438095Y-41414819D01*
X77104761Y-40414819D02*
X76485714Y-40414819D01*
X76485714Y-40414819D02*
X76819047Y-40795771D01*
X76819047Y-40795771D02*
X76676190Y-40795771D01*
X76676190Y-40795771D02*
X76580952Y-40843390D01*
X76580952Y-40843390D02*
X76533333Y-40891009D01*
X76533333Y-40891009D02*
X76485714Y-40986247D01*
X76485714Y-40986247D02*
X76485714Y-41224342D01*
X76485714Y-41224342D02*
X76533333Y-41319580D01*
X76533333Y-41319580D02*
X76580952Y-41367200D01*
X76580952Y-41367200D02*
X76676190Y-41414819D01*
X76676190Y-41414819D02*
X76961904Y-41414819D01*
X76961904Y-41414819D02*
X77057142Y-41367200D01*
X77057142Y-41367200D02*
X77104761Y-41319580D01*
X80057143Y-43631009D02*
X80390476Y-43631009D01*
X80390476Y-44154819D02*
X80390476Y-43154819D01*
X80390476Y-43154819D02*
X79914286Y-43154819D01*
X79533333Y-44154819D02*
X79533333Y-43488152D01*
X79533333Y-43678628D02*
X79485714Y-43583390D01*
X79485714Y-43583390D02*
X79438095Y-43535771D01*
X79438095Y-43535771D02*
X79342857Y-43488152D01*
X79342857Y-43488152D02*
X79247619Y-43488152D01*
X78771428Y-44154819D02*
X78866666Y-44107200D01*
X78866666Y-44107200D02*
X78914285Y-44059580D01*
X78914285Y-44059580D02*
X78961904Y-43964342D01*
X78961904Y-43964342D02*
X78961904Y-43678628D01*
X78961904Y-43678628D02*
X78914285Y-43583390D01*
X78914285Y-43583390D02*
X78866666Y-43535771D01*
X78866666Y-43535771D02*
X78771428Y-43488152D01*
X78771428Y-43488152D02*
X78628571Y-43488152D01*
X78628571Y-43488152D02*
X78533333Y-43535771D01*
X78533333Y-43535771D02*
X78485714Y-43583390D01*
X78485714Y-43583390D02*
X78438095Y-43678628D01*
X78438095Y-43678628D02*
X78438095Y-43964342D01*
X78438095Y-43964342D02*
X78485714Y-44059580D01*
X78485714Y-44059580D02*
X78533333Y-44107200D01*
X78533333Y-44107200D02*
X78628571Y-44154819D01*
X78628571Y-44154819D02*
X78771428Y-44154819D01*
X78009523Y-43488152D02*
X78009523Y-44154819D01*
X78009523Y-43583390D02*
X77961904Y-43535771D01*
X77961904Y-43535771D02*
X77866666Y-43488152D01*
X77866666Y-43488152D02*
X77723809Y-43488152D01*
X77723809Y-43488152D02*
X77628571Y-43535771D01*
X77628571Y-43535771D02*
X77580952Y-43631009D01*
X77580952Y-43631009D02*
X77580952Y-44154819D01*
X77247618Y-43488152D02*
X76866666Y-43488152D01*
X77104761Y-43154819D02*
X77104761Y-44011961D01*
X77104761Y-44011961D02*
X77057142Y-44107200D01*
X77057142Y-44107200D02*
X76961904Y-44154819D01*
X76961904Y-44154819D02*
X76866666Y-44154819D01*
D11*
X48378328Y-72771428D02*
X49449757Y-72771428D01*
X49449757Y-72771428D02*
X49664042Y-72699999D01*
X49664042Y-72699999D02*
X49806900Y-72557142D01*
X49806900Y-72557142D02*
X49878328Y-72342856D01*
X49878328Y-72342856D02*
X49878328Y-72199999D01*
X49878328Y-74199999D02*
X49878328Y-73485713D01*
X49878328Y-73485713D02*
X48378328Y-73485713D01*
X49735471Y-75557142D02*
X49806900Y-75485714D01*
X49806900Y-75485714D02*
X49878328Y-75271428D01*
X49878328Y-75271428D02*
X49878328Y-75128571D01*
X49878328Y-75128571D02*
X49806900Y-74914285D01*
X49806900Y-74914285D02*
X49664042Y-74771428D01*
X49664042Y-74771428D02*
X49521185Y-74699999D01*
X49521185Y-74699999D02*
X49235471Y-74628571D01*
X49235471Y-74628571D02*
X49021185Y-74628571D01*
X49021185Y-74628571D02*
X48735471Y-74699999D01*
X48735471Y-74699999D02*
X48592614Y-74771428D01*
X48592614Y-74771428D02*
X48449757Y-74914285D01*
X48449757Y-74914285D02*
X48378328Y-75128571D01*
X48378328Y-75128571D02*
X48378328Y-75271428D01*
X48378328Y-75271428D02*
X48449757Y-75485714D01*
X48449757Y-75485714D02*
X48521185Y-75557142D01*
X48378328Y-76628571D02*
X49449757Y-76628571D01*
X49449757Y-76628571D02*
X49664042Y-76557142D01*
X49664042Y-76557142D02*
X49806900Y-76414285D01*
X49806900Y-76414285D02*
X49878328Y-76199999D01*
X49878328Y-76199999D02*
X49878328Y-76057142D01*
X49878328Y-78057142D02*
X49878328Y-77342856D01*
X49878328Y-77342856D02*
X48378328Y-77342856D01*
X49735471Y-79414285D02*
X49806900Y-79342857D01*
X49806900Y-79342857D02*
X49878328Y-79128571D01*
X49878328Y-79128571D02*
X49878328Y-78985714D01*
X49878328Y-78985714D02*
X49806900Y-78771428D01*
X49806900Y-78771428D02*
X49664042Y-78628571D01*
X49664042Y-78628571D02*
X49521185Y-78557142D01*
X49521185Y-78557142D02*
X49235471Y-78485714D01*
X49235471Y-78485714D02*
X49021185Y-78485714D01*
X49021185Y-78485714D02*
X48735471Y-78557142D01*
X48735471Y-78557142D02*
X48592614Y-78628571D01*
X48592614Y-78628571D02*
X48449757Y-78771428D01*
X48449757Y-78771428D02*
X48378328Y-78985714D01*
X48378328Y-78985714D02*
X48378328Y-79128571D01*
X48378328Y-79128571D02*
X48449757Y-79342857D01*
X48449757Y-79342857D02*
X48521185Y-79414285D01*
X48378328Y-80485714D02*
X49449757Y-80485714D01*
X49449757Y-80485714D02*
X49664042Y-80414285D01*
X49664042Y-80414285D02*
X49806900Y-80271428D01*
X49806900Y-80271428D02*
X49878328Y-80057142D01*
X49878328Y-80057142D02*
X49878328Y-79914285D01*
X49878328Y-81914285D02*
X49878328Y-81199999D01*
X49878328Y-81199999D02*
X48378328Y-81199999D01*
X49735471Y-83271428D02*
X49806900Y-83200000D01*
X49806900Y-83200000D02*
X49878328Y-82985714D01*
X49878328Y-82985714D02*
X49878328Y-82842857D01*
X49878328Y-82842857D02*
X49806900Y-82628571D01*
X49806900Y-82628571D02*
X49664042Y-82485714D01*
X49664042Y-82485714D02*
X49521185Y-82414285D01*
X49521185Y-82414285D02*
X49235471Y-82342857D01*
X49235471Y-82342857D02*
X49021185Y-82342857D01*
X49021185Y-82342857D02*
X48735471Y-82414285D01*
X48735471Y-82414285D02*
X48592614Y-82485714D01*
X48592614Y-82485714D02*
X48449757Y-82628571D01*
X48449757Y-82628571D02*
X48378328Y-82842857D01*
X48378328Y-82842857D02*
X48378328Y-82985714D01*
X48378328Y-82985714D02*
X48449757Y-83200000D01*
X48449757Y-83200000D02*
X48521185Y-83271428D01*
X48378328Y-84342857D02*
X49449757Y-84342857D01*
X49449757Y-84342857D02*
X49664042Y-84271428D01*
X49664042Y-84271428D02*
X49806900Y-84128571D01*
X49806900Y-84128571D02*
X49878328Y-83914285D01*
X49878328Y-83914285D02*
X49878328Y-83771428D01*
X49878328Y-85771428D02*
X49878328Y-85057142D01*
X49878328Y-85057142D02*
X48378328Y-85057142D01*
X49735471Y-87128571D02*
X49806900Y-87057143D01*
X49806900Y-87057143D02*
X49878328Y-86842857D01*
X49878328Y-86842857D02*
X49878328Y-86700000D01*
X49878328Y-86700000D02*
X49806900Y-86485714D01*
X49806900Y-86485714D02*
X49664042Y-86342857D01*
X49664042Y-86342857D02*
X49521185Y-86271428D01*
X49521185Y-86271428D02*
X49235471Y-86200000D01*
X49235471Y-86200000D02*
X49021185Y-86200000D01*
X49021185Y-86200000D02*
X48735471Y-86271428D01*
X48735471Y-86271428D02*
X48592614Y-86342857D01*
X48592614Y-86342857D02*
X48449757Y-86485714D01*
X48449757Y-86485714D02*
X48378328Y-86700000D01*
X48378328Y-86700000D02*
X48378328Y-86842857D01*
X48378328Y-86842857D02*
X48449757Y-87057143D01*
X48449757Y-87057143D02*
X48521185Y-87128571D01*
%LPC*%
D12*
X101700000Y-95700000D02*
X96700000Y-95700000D01*
X96700000Y-90700000D01*
X101700000Y-90700000D01*
X101700000Y-95700000D01*
G36*
X101700000Y-95700000D02*
G01*
X96700000Y-95700000D01*
X96700000Y-90700000D01*
X101700000Y-90700000D01*
X101700000Y-95700000D01*
G37*
D13*
X56200000Y-36700000D03*
X98200000Y-36700000D03*
X98200000Y-159200000D03*
X56200000Y-159200000D03*
%LPD*%
M02*
