G04 #@! TF.GenerationSoftware,KiCad,Pcbnew,6.0.10+dfsg-1~bpo11+1*
G04 #@! TF.CreationDate,2023-01-12T18:18:12+00:00*
G04 #@! TF.ProjectId,MS20-VCF,4d533230-2d56-4434-962e-6b696361645f,rev?*
G04 #@! TF.SameCoordinates,Original*
G04 #@! TF.FileFunction,Legend,Bot*
G04 #@! TF.FilePolarity,Positive*
%FSLAX46Y46*%
G04 Gerber Fmt 4.6, Leading zero omitted, Abs format (unit mm)*
G04 Created by KiCad (PCBNEW 6.0.10+dfsg-1~bpo11+1) date 2023-01-12 18:18:12*
%MOMM*%
%LPD*%
G01*
G04 APERTURE LIST*
%ADD10C,0.150000*%
%ADD11C,0.300000*%
%ADD12C,0.100000*%
%ADD13O,6.700000X4.200000*%
G04 APERTURE END LIST*
D10*
X107947619Y-41592380D02*
X107947619Y-40592380D01*
X107709523Y-40592380D01*
X107566666Y-40640000D01*
X107471428Y-40735238D01*
X107423809Y-40830476D01*
X107376190Y-41020952D01*
X107376190Y-41163809D01*
X107423809Y-41354285D01*
X107471428Y-41449523D01*
X107566666Y-41544761D01*
X107709523Y-41592380D01*
X107947619Y-41592380D01*
X106804761Y-41592380D02*
X106900000Y-41544761D01*
X106947619Y-41497142D01*
X106995238Y-41401904D01*
X106995238Y-41116190D01*
X106947619Y-41020952D01*
X106900000Y-40973333D01*
X106804761Y-40925714D01*
X106661904Y-40925714D01*
X106566666Y-40973333D01*
X106519047Y-41020952D01*
X106471428Y-41116190D01*
X106471428Y-41401904D01*
X106519047Y-41497142D01*
X106566666Y-41544761D01*
X106661904Y-41592380D01*
X106804761Y-41592380D01*
X105614285Y-40925714D02*
X105614285Y-41592380D01*
X106042857Y-40925714D02*
X106042857Y-41449523D01*
X105995238Y-41544761D01*
X105900000Y-41592380D01*
X105757142Y-41592380D01*
X105661904Y-41544761D01*
X105614285Y-41497142D01*
X105138095Y-41592380D02*
X105138095Y-40592380D01*
X105138095Y-40973333D02*
X105042857Y-40925714D01*
X104852380Y-40925714D01*
X104757142Y-40973333D01*
X104709523Y-41020952D01*
X104661904Y-41116190D01*
X104661904Y-41401904D01*
X104709523Y-41497142D01*
X104757142Y-41544761D01*
X104852380Y-41592380D01*
X105042857Y-41592380D01*
X105138095Y-41544761D01*
X104090476Y-41592380D02*
X104185714Y-41544761D01*
X104233333Y-41449523D01*
X104233333Y-40592380D01*
X103328571Y-41544761D02*
X103423809Y-41592380D01*
X103614285Y-41592380D01*
X103709523Y-41544761D01*
X103757142Y-41449523D01*
X103757142Y-41068571D01*
X103709523Y-40973333D01*
X103614285Y-40925714D01*
X103423809Y-40925714D01*
X103328571Y-40973333D01*
X103280952Y-41068571D01*
X103280952Y-41163809D01*
X103757142Y-41259047D01*
X102090476Y-41592380D02*
X102090476Y-40592380D01*
X101757142Y-41306666D01*
X101423809Y-40592380D01*
X101423809Y-41592380D01*
X100995238Y-41544761D02*
X100852380Y-41592380D01*
X100614285Y-41592380D01*
X100519047Y-41544761D01*
X100471428Y-41497142D01*
X100423809Y-41401904D01*
X100423809Y-41306666D01*
X100471428Y-41211428D01*
X100519047Y-41163809D01*
X100614285Y-41116190D01*
X100804761Y-41068571D01*
X100900000Y-41020952D01*
X100947619Y-40973333D01*
X100995238Y-40878095D01*
X100995238Y-40782857D01*
X100947619Y-40687619D01*
X100900000Y-40640000D01*
X100804761Y-40592380D01*
X100566666Y-40592380D01*
X100423809Y-40640000D01*
X99995238Y-41211428D02*
X99233333Y-41211428D01*
X98804761Y-40687619D02*
X98757142Y-40640000D01*
X98661904Y-40592380D01*
X98423809Y-40592380D01*
X98328571Y-40640000D01*
X98280952Y-40687619D01*
X98233333Y-40782857D01*
X98233333Y-40878095D01*
X98280952Y-41020952D01*
X98852380Y-41592380D01*
X98233333Y-41592380D01*
X97614285Y-40592380D02*
X97519047Y-40592380D01*
X97423809Y-40640000D01*
X97376190Y-40687619D01*
X97328571Y-40782857D01*
X97280952Y-40973333D01*
X97280952Y-41211428D01*
X97328571Y-41401904D01*
X97376190Y-41497142D01*
X97423809Y-41544761D01*
X97519047Y-41592380D01*
X97614285Y-41592380D01*
X97709523Y-41544761D01*
X97757142Y-41497142D01*
X97804761Y-41401904D01*
X97852380Y-41211428D01*
X97852380Y-40973333D01*
X97804761Y-40782857D01*
X97757142Y-40687619D01*
X97709523Y-40640000D01*
X97614285Y-40592380D01*
X96233333Y-40592380D02*
X95900000Y-41592380D01*
X95566666Y-40592380D01*
X94661904Y-41497142D02*
X94709523Y-41544761D01*
X94852380Y-41592380D01*
X94947619Y-41592380D01*
X95090476Y-41544761D01*
X95185714Y-41449523D01*
X95233333Y-41354285D01*
X95280952Y-41163809D01*
X95280952Y-41020952D01*
X95233333Y-40830476D01*
X95185714Y-40735238D01*
X95090476Y-40640000D01*
X94947619Y-40592380D01*
X94852380Y-40592380D01*
X94709523Y-40640000D01*
X94661904Y-40687619D01*
X93900000Y-41068571D02*
X94233333Y-41068571D01*
X94233333Y-41592380D02*
X94233333Y-40592380D01*
X93757142Y-40592380D01*
X107161904Y-42202380D02*
X106828571Y-43202380D01*
X106495238Y-42202380D01*
X105638095Y-43202380D02*
X106209523Y-43202380D01*
X105923809Y-43202380D02*
X105923809Y-42202380D01*
X106019047Y-42345238D01*
X106114285Y-42440476D01*
X106209523Y-42488095D01*
X105209523Y-43107142D02*
X105161904Y-43154761D01*
X105209523Y-43202380D01*
X105257142Y-43154761D01*
X105209523Y-43107142D01*
X105209523Y-43202380D01*
X104780952Y-42297619D02*
X104733333Y-42250000D01*
X104638095Y-42202380D01*
X104400000Y-42202380D01*
X104304761Y-42250000D01*
X104257142Y-42297619D01*
X104209523Y-42392857D01*
X104209523Y-42488095D01*
X104257142Y-42630952D01*
X104828571Y-43202380D01*
X104209523Y-43202380D01*
X102685714Y-42678571D02*
X102542857Y-42726190D01*
X102495238Y-42773809D01*
X102447619Y-42869047D01*
X102447619Y-43011904D01*
X102495238Y-43107142D01*
X102542857Y-43154761D01*
X102638095Y-43202380D01*
X103019047Y-43202380D01*
X103019047Y-42202380D01*
X102685714Y-42202380D01*
X102590476Y-42250000D01*
X102542857Y-42297619D01*
X102495238Y-42392857D01*
X102495238Y-42488095D01*
X102542857Y-42583333D01*
X102590476Y-42630952D01*
X102685714Y-42678571D01*
X103019047Y-42678571D01*
X101876190Y-43202380D02*
X101971428Y-43154761D01*
X102019047Y-43059523D01*
X102019047Y-42202380D01*
X101114285Y-43154761D02*
X101209523Y-43202380D01*
X101400000Y-43202380D01*
X101495238Y-43154761D01*
X101542857Y-43059523D01*
X101542857Y-42678571D01*
X101495238Y-42583333D01*
X101400000Y-42535714D01*
X101209523Y-42535714D01*
X101114285Y-42583333D01*
X101066666Y-42678571D01*
X101066666Y-42773809D01*
X101542857Y-42869047D01*
X100257142Y-43154761D02*
X100352380Y-43202380D01*
X100542857Y-43202380D01*
X100638095Y-43154761D01*
X100685714Y-43059523D01*
X100685714Y-42678571D01*
X100638095Y-42583333D01*
X100542857Y-42535714D01*
X100352380Y-42535714D01*
X100257142Y-42583333D01*
X100209523Y-42678571D01*
X100209523Y-42773809D01*
X100685714Y-42869047D01*
X99780952Y-42535714D02*
X99780952Y-43535714D01*
X99780952Y-42583333D02*
X99685714Y-42535714D01*
X99495238Y-42535714D01*
X99400000Y-42583333D01*
X99352380Y-42630952D01*
X99304761Y-42726190D01*
X99304761Y-43011904D01*
X99352380Y-43107142D01*
X99400000Y-43154761D01*
X99495238Y-43202380D01*
X99685714Y-43202380D01*
X99780952Y-43154761D01*
X98923809Y-43154761D02*
X98780952Y-43202380D01*
X98542857Y-43202380D01*
X98447619Y-43154761D01*
X98400000Y-43107142D01*
X98352380Y-43011904D01*
X98352380Y-42916666D01*
X98400000Y-42821428D01*
X98447619Y-42773809D01*
X98542857Y-42726190D01*
X98733333Y-42678571D01*
X98828571Y-42630952D01*
X98876190Y-42583333D01*
X98923809Y-42488095D01*
X98923809Y-42392857D01*
X98876190Y-42297619D01*
X98828571Y-42250000D01*
X98733333Y-42202380D01*
X98495238Y-42202380D01*
X98352380Y-42250000D01*
X97780952Y-43202380D02*
X97876190Y-43154761D01*
X97923809Y-43107142D01*
X97971428Y-43011904D01*
X97971428Y-42726190D01*
X97923809Y-42630952D01*
X97876190Y-42583333D01*
X97780952Y-42535714D01*
X97638095Y-42535714D01*
X97542857Y-42583333D01*
X97495238Y-42630952D01*
X97447619Y-42726190D01*
X97447619Y-43011904D01*
X97495238Y-43107142D01*
X97542857Y-43154761D01*
X97638095Y-43202380D01*
X97780952Y-43202380D01*
X96590476Y-42535714D02*
X96590476Y-43202380D01*
X97019047Y-42535714D02*
X97019047Y-43059523D01*
X96971428Y-43154761D01*
X96876190Y-43202380D01*
X96733333Y-43202380D01*
X96638095Y-43154761D01*
X96590476Y-43107142D01*
X96114285Y-42535714D02*
X96114285Y-43202380D01*
X96114285Y-42630952D02*
X96066666Y-42583333D01*
X95971428Y-42535714D01*
X95828571Y-42535714D01*
X95733333Y-42583333D01*
X95685714Y-42678571D01*
X95685714Y-43202380D01*
X94780952Y-43202380D02*
X94780952Y-42202380D01*
X94780952Y-43154761D02*
X94876190Y-43202380D01*
X95066666Y-43202380D01*
X95161904Y-43154761D01*
X95209523Y-43107142D01*
X95257142Y-43011904D01*
X95257142Y-42726190D01*
X95209523Y-42630952D01*
X95161904Y-42583333D01*
X95066666Y-42535714D01*
X94876190Y-42535714D01*
X94780952Y-42583333D01*
X102614285Y-43907619D02*
X102566666Y-43860000D01*
X102471428Y-43812380D01*
X102233333Y-43812380D01*
X102138095Y-43860000D01*
X102090476Y-43907619D01*
X102042857Y-44002857D01*
X102042857Y-44098095D01*
X102090476Y-44240952D01*
X102661904Y-44812380D01*
X102042857Y-44812380D01*
X101423809Y-43812380D02*
X101328571Y-43812380D01*
X101233333Y-43860000D01*
X101185714Y-43907619D01*
X101138095Y-44002857D01*
X101090476Y-44193333D01*
X101090476Y-44431428D01*
X101138095Y-44621904D01*
X101185714Y-44717142D01*
X101233333Y-44764761D01*
X101328571Y-44812380D01*
X101423809Y-44812380D01*
X101519047Y-44764761D01*
X101566666Y-44717142D01*
X101614285Y-44621904D01*
X101661904Y-44431428D01*
X101661904Y-44193333D01*
X101614285Y-44002857D01*
X101566666Y-43907619D01*
X101519047Y-43860000D01*
X101423809Y-43812380D01*
X100709523Y-43907619D02*
X100661904Y-43860000D01*
X100566666Y-43812380D01*
X100328571Y-43812380D01*
X100233333Y-43860000D01*
X100185714Y-43907619D01*
X100138095Y-44002857D01*
X100138095Y-44098095D01*
X100185714Y-44240952D01*
X100757142Y-44812380D01*
X100138095Y-44812380D01*
X99757142Y-43907619D02*
X99709523Y-43860000D01*
X99614285Y-43812380D01*
X99376190Y-43812380D01*
X99280952Y-43860000D01*
X99233333Y-43907619D01*
X99185714Y-44002857D01*
X99185714Y-44098095D01*
X99233333Y-44240952D01*
X99804761Y-44812380D01*
X99185714Y-44812380D01*
X102757142Y-47028571D02*
X103090476Y-47028571D01*
X103090476Y-47552380D02*
X103090476Y-46552380D01*
X102614285Y-46552380D01*
X102233333Y-47552380D02*
X102233333Y-46885714D01*
X102233333Y-47076190D02*
X102185714Y-46980952D01*
X102138095Y-46933333D01*
X102042857Y-46885714D01*
X101947619Y-46885714D01*
X101471428Y-47552380D02*
X101566666Y-47504761D01*
X101614285Y-47457142D01*
X101661904Y-47361904D01*
X101661904Y-47076190D01*
X101614285Y-46980952D01*
X101566666Y-46933333D01*
X101471428Y-46885714D01*
X101328571Y-46885714D01*
X101233333Y-46933333D01*
X101185714Y-46980952D01*
X101138095Y-47076190D01*
X101138095Y-47361904D01*
X101185714Y-47457142D01*
X101233333Y-47504761D01*
X101328571Y-47552380D01*
X101471428Y-47552380D01*
X100709523Y-46885714D02*
X100709523Y-47552380D01*
X100709523Y-46980952D02*
X100661904Y-46933333D01*
X100566666Y-46885714D01*
X100423809Y-46885714D01*
X100328571Y-46933333D01*
X100280952Y-47028571D01*
X100280952Y-47552380D01*
X99947619Y-46885714D02*
X99566666Y-46885714D01*
X99804761Y-46552380D02*
X99804761Y-47409523D01*
X99757142Y-47504761D01*
X99661904Y-47552380D01*
X99566666Y-47552380D01*
D11*
X71078571Y-76171428D02*
X72150000Y-76171428D01*
X72364285Y-76100000D01*
X72507142Y-75957142D01*
X72578571Y-75742857D01*
X72578571Y-75600000D01*
X72578571Y-77600000D02*
X72578571Y-76885714D01*
X71078571Y-76885714D01*
X72435714Y-78957142D02*
X72507142Y-78885714D01*
X72578571Y-78671428D01*
X72578571Y-78528571D01*
X72507142Y-78314285D01*
X72364285Y-78171428D01*
X72221428Y-78100000D01*
X71935714Y-78028571D01*
X71721428Y-78028571D01*
X71435714Y-78100000D01*
X71292857Y-78171428D01*
X71150000Y-78314285D01*
X71078571Y-78528571D01*
X71078571Y-78671428D01*
X71150000Y-78885714D01*
X71221428Y-78957142D01*
X71078571Y-80028571D02*
X72150000Y-80028571D01*
X72364285Y-79957142D01*
X72507142Y-79814285D01*
X72578571Y-79600000D01*
X72578571Y-79457142D01*
X72578571Y-81457142D02*
X72578571Y-80742857D01*
X71078571Y-80742857D01*
X72435714Y-82814285D02*
X72507142Y-82742857D01*
X72578571Y-82528571D01*
X72578571Y-82385714D01*
X72507142Y-82171428D01*
X72364285Y-82028571D01*
X72221428Y-81957142D01*
X71935714Y-81885714D01*
X71721428Y-81885714D01*
X71435714Y-81957142D01*
X71292857Y-82028571D01*
X71150000Y-82171428D01*
X71078571Y-82385714D01*
X71078571Y-82528571D01*
X71150000Y-82742857D01*
X71221428Y-82814285D01*
X71078571Y-83885714D02*
X72150000Y-83885714D01*
X72364285Y-83814285D01*
X72507142Y-83671428D01*
X72578571Y-83457142D01*
X72578571Y-83314285D01*
X72578571Y-85314285D02*
X72578571Y-84600000D01*
X71078571Y-84600000D01*
X72435714Y-86671428D02*
X72507142Y-86600000D01*
X72578571Y-86385714D01*
X72578571Y-86242857D01*
X72507142Y-86028571D01*
X72364285Y-85885714D01*
X72221428Y-85814285D01*
X71935714Y-85742857D01*
X71721428Y-85742857D01*
X71435714Y-85814285D01*
X71292857Y-85885714D01*
X71150000Y-86028571D01*
X71078571Y-86242857D01*
X71078571Y-86385714D01*
X71150000Y-86600000D01*
X71221428Y-86671428D01*
X71078571Y-87742857D02*
X72150000Y-87742857D01*
X72364285Y-87671428D01*
X72507142Y-87528571D01*
X72578571Y-87314285D01*
X72578571Y-87171428D01*
X72578571Y-89171428D02*
X72578571Y-88457142D01*
X71078571Y-88457142D01*
X72435714Y-90528571D02*
X72507142Y-90457142D01*
X72578571Y-90242857D01*
X72578571Y-90100000D01*
X72507142Y-89885714D01*
X72364285Y-89742857D01*
X72221428Y-89671428D01*
X71935714Y-89600000D01*
X71721428Y-89600000D01*
X71435714Y-89671428D01*
X71292857Y-89742857D01*
X71150000Y-89885714D01*
X71078571Y-90100000D01*
X71078571Y-90242857D01*
X71150000Y-90457142D01*
X71221428Y-90528571D01*
%LPC*%
D12*
G36*
X124400000Y-99100000D02*
G01*
X119400000Y-99100000D01*
X119400000Y-94100000D01*
X124400000Y-94100000D01*
X124400000Y-99100000D01*
G37*
X124400000Y-99100000D02*
X119400000Y-99100000D01*
X119400000Y-94100000D01*
X124400000Y-94100000D01*
X124400000Y-99100000D01*
D13*
X78900000Y-40100000D03*
X120900000Y-40100000D03*
X120900000Y-162600000D03*
X78900000Y-162600000D03*
M02*
