G04 #@! TF.GenerationSoftware,KiCad,Pcbnew,7.0.7-7.0.7~ubuntu22.04.1*
G04 #@! TF.CreationDate,2023-09-23T22:53:29+02:00*
G04 #@! TF.ProjectId,MS20-VCF,4d533230-2d56-4434-962e-6b696361645f,rev?*
G04 #@! TF.SameCoordinates,Original*
G04 #@! TF.FileFunction,Paste,Bot*
G04 #@! TF.FilePolarity,Positive*
%FSLAX46Y46*%
G04 Gerber Fmt 4.6, Leading zero omitted, Abs format (unit mm)*
G04 Created by KiCad (PCBNEW 7.0.7-7.0.7~ubuntu22.04.1) date 2023-09-23 22:53:29*
%MOMM*%
%LPD*%
G01*
G04 APERTURE LIST*
G04 APERTURE END LIST*
G36*
G01*
X45750000Y-101505000D02*
X45750000Y-101805000D01*
G75*
G02*
X45600000Y-101955000I-150000J0D01*
G01*
X43950000Y-101955000D01*
G75*
G02*
X43800000Y-101805000I0J150000D01*
G01*
X43800000Y-101505000D01*
G75*
G02*
X43950000Y-101355000I150000J0D01*
G01*
X45600000Y-101355000D01*
G75*
G02*
X45750000Y-101505000I0J-150000D01*
G01*
G37*
G36*
G01*
X45750000Y-102775000D02*
X45750000Y-103075000D01*
G75*
G02*
X45600000Y-103225000I-150000J0D01*
G01*
X43950000Y-103225000D01*
G75*
G02*
X43800000Y-103075000I0J150000D01*
G01*
X43800000Y-102775000D01*
G75*
G02*
X43950000Y-102625000I150000J0D01*
G01*
X45600000Y-102625000D01*
G75*
G02*
X45750000Y-102775000I0J-150000D01*
G01*
G37*
G36*
G01*
X45750000Y-104045000D02*
X45750000Y-104345000D01*
G75*
G02*
X45600000Y-104495000I-150000J0D01*
G01*
X43950000Y-104495000D01*
G75*
G02*
X43800000Y-104345000I0J150000D01*
G01*
X43800000Y-104045000D01*
G75*
G02*
X43950000Y-103895000I150000J0D01*
G01*
X45600000Y-103895000D01*
G75*
G02*
X45750000Y-104045000I0J-150000D01*
G01*
G37*
G36*
G01*
X45750000Y-105315000D02*
X45750000Y-105615000D01*
G75*
G02*
X45600000Y-105765000I-150000J0D01*
G01*
X43950000Y-105765000D01*
G75*
G02*
X43800000Y-105615000I0J150000D01*
G01*
X43800000Y-105315000D01*
G75*
G02*
X43950000Y-105165000I150000J0D01*
G01*
X45600000Y-105165000D01*
G75*
G02*
X45750000Y-105315000I0J-150000D01*
G01*
G37*
G36*
G01*
X45750000Y-106585000D02*
X45750000Y-106885000D01*
G75*
G02*
X45600000Y-107035000I-150000J0D01*
G01*
X43950000Y-107035000D01*
G75*
G02*
X43800000Y-106885000I0J150000D01*
G01*
X43800000Y-106585000D01*
G75*
G02*
X43950000Y-106435000I150000J0D01*
G01*
X45600000Y-106435000D01*
G75*
G02*
X45750000Y-106585000I0J-150000D01*
G01*
G37*
G36*
G01*
X45750000Y-107855000D02*
X45750000Y-108155000D01*
G75*
G02*
X45600000Y-108305000I-150000J0D01*
G01*
X43950000Y-108305000D01*
G75*
G02*
X43800000Y-108155000I0J150000D01*
G01*
X43800000Y-107855000D01*
G75*
G02*
X43950000Y-107705000I150000J0D01*
G01*
X45600000Y-107705000D01*
G75*
G02*
X45750000Y-107855000I0J-150000D01*
G01*
G37*
G36*
G01*
X45750000Y-109125000D02*
X45750000Y-109425000D01*
G75*
G02*
X45600000Y-109575000I-150000J0D01*
G01*
X43950000Y-109575000D01*
G75*
G02*
X43800000Y-109425000I0J150000D01*
G01*
X43800000Y-109125000D01*
G75*
G02*
X43950000Y-108975000I150000J0D01*
G01*
X45600000Y-108975000D01*
G75*
G02*
X45750000Y-109125000I0J-150000D01*
G01*
G37*
G36*
G01*
X45750000Y-110395000D02*
X45750000Y-110695000D01*
G75*
G02*
X45600000Y-110845000I-150000J0D01*
G01*
X43950000Y-110845000D01*
G75*
G02*
X43800000Y-110695000I0J150000D01*
G01*
X43800000Y-110395000D01*
G75*
G02*
X43950000Y-110245000I150000J0D01*
G01*
X45600000Y-110245000D01*
G75*
G02*
X45750000Y-110395000I0J-150000D01*
G01*
G37*
G36*
G01*
X40800000Y-110395000D02*
X40800000Y-110695000D01*
G75*
G02*
X40650000Y-110845000I-150000J0D01*
G01*
X39000000Y-110845000D01*
G75*
G02*
X38850000Y-110695000I0J150000D01*
G01*
X38850000Y-110395000D01*
G75*
G02*
X39000000Y-110245000I150000J0D01*
G01*
X40650000Y-110245000D01*
G75*
G02*
X40800000Y-110395000I0J-150000D01*
G01*
G37*
G36*
G01*
X40800000Y-109125000D02*
X40800000Y-109425000D01*
G75*
G02*
X40650000Y-109575000I-150000J0D01*
G01*
X39000000Y-109575000D01*
G75*
G02*
X38850000Y-109425000I0J150000D01*
G01*
X38850000Y-109125000D01*
G75*
G02*
X39000000Y-108975000I150000J0D01*
G01*
X40650000Y-108975000D01*
G75*
G02*
X40800000Y-109125000I0J-150000D01*
G01*
G37*
G36*
G01*
X40800000Y-107855000D02*
X40800000Y-108155000D01*
G75*
G02*
X40650000Y-108305000I-150000J0D01*
G01*
X39000000Y-108305000D01*
G75*
G02*
X38850000Y-108155000I0J150000D01*
G01*
X38850000Y-107855000D01*
G75*
G02*
X39000000Y-107705000I150000J0D01*
G01*
X40650000Y-107705000D01*
G75*
G02*
X40800000Y-107855000I0J-150000D01*
G01*
G37*
G36*
G01*
X40800000Y-106585000D02*
X40800000Y-106885000D01*
G75*
G02*
X40650000Y-107035000I-150000J0D01*
G01*
X39000000Y-107035000D01*
G75*
G02*
X38850000Y-106885000I0J150000D01*
G01*
X38850000Y-106585000D01*
G75*
G02*
X39000000Y-106435000I150000J0D01*
G01*
X40650000Y-106435000D01*
G75*
G02*
X40800000Y-106585000I0J-150000D01*
G01*
G37*
G36*
G01*
X40800000Y-105315000D02*
X40800000Y-105615000D01*
G75*
G02*
X40650000Y-105765000I-150000J0D01*
G01*
X39000000Y-105765000D01*
G75*
G02*
X38850000Y-105615000I0J150000D01*
G01*
X38850000Y-105315000D01*
G75*
G02*
X39000000Y-105165000I150000J0D01*
G01*
X40650000Y-105165000D01*
G75*
G02*
X40800000Y-105315000I0J-150000D01*
G01*
G37*
G36*
G01*
X40800000Y-104045000D02*
X40800000Y-104345000D01*
G75*
G02*
X40650000Y-104495000I-150000J0D01*
G01*
X39000000Y-104495000D01*
G75*
G02*
X38850000Y-104345000I0J150000D01*
G01*
X38850000Y-104045000D01*
G75*
G02*
X39000000Y-103895000I150000J0D01*
G01*
X40650000Y-103895000D01*
G75*
G02*
X40800000Y-104045000I0J-150000D01*
G01*
G37*
G36*
G01*
X40800000Y-102775000D02*
X40800000Y-103075000D01*
G75*
G02*
X40650000Y-103225000I-150000J0D01*
G01*
X39000000Y-103225000D01*
G75*
G02*
X38850000Y-103075000I0J150000D01*
G01*
X38850000Y-102775000D01*
G75*
G02*
X39000000Y-102625000I150000J0D01*
G01*
X40650000Y-102625000D01*
G75*
G02*
X40800000Y-102775000I0J-150000D01*
G01*
G37*
G36*
G01*
X40800000Y-101505000D02*
X40800000Y-101805000D01*
G75*
G02*
X40650000Y-101955000I-150000J0D01*
G01*
X39000000Y-101955000D01*
G75*
G02*
X38850000Y-101805000I0J150000D01*
G01*
X38850000Y-101505000D01*
G75*
G02*
X39000000Y-101355000I150000J0D01*
G01*
X40650000Y-101355000D01*
G75*
G02*
X40800000Y-101505000I0J-150000D01*
G01*
G37*
G36*
G01*
X43050000Y-80595000D02*
X43050000Y-80295000D01*
G75*
G02*
X43200000Y-80145000I150000J0D01*
G01*
X44850000Y-80145000D01*
G75*
G02*
X45000000Y-80295000I0J-150000D01*
G01*
X45000000Y-80595000D01*
G75*
G02*
X44850000Y-80745000I-150000J0D01*
G01*
X43200000Y-80745000D01*
G75*
G02*
X43050000Y-80595000I0J150000D01*
G01*
G37*
G36*
G01*
X43050000Y-79325000D02*
X43050000Y-79025000D01*
G75*
G02*
X43200000Y-78875000I150000J0D01*
G01*
X44850000Y-78875000D01*
G75*
G02*
X45000000Y-79025000I0J-150000D01*
G01*
X45000000Y-79325000D01*
G75*
G02*
X44850000Y-79475000I-150000J0D01*
G01*
X43200000Y-79475000D01*
G75*
G02*
X43050000Y-79325000I0J150000D01*
G01*
G37*
G36*
G01*
X43050000Y-78055000D02*
X43050000Y-77755000D01*
G75*
G02*
X43200000Y-77605000I150000J0D01*
G01*
X44850000Y-77605000D01*
G75*
G02*
X45000000Y-77755000I0J-150000D01*
G01*
X45000000Y-78055000D01*
G75*
G02*
X44850000Y-78205000I-150000J0D01*
G01*
X43200000Y-78205000D01*
G75*
G02*
X43050000Y-78055000I0J150000D01*
G01*
G37*
G36*
G01*
X43050000Y-76785000D02*
X43050000Y-76485000D01*
G75*
G02*
X43200000Y-76335000I150000J0D01*
G01*
X44850000Y-76335000D01*
G75*
G02*
X45000000Y-76485000I0J-150000D01*
G01*
X45000000Y-76785000D01*
G75*
G02*
X44850000Y-76935000I-150000J0D01*
G01*
X43200000Y-76935000D01*
G75*
G02*
X43050000Y-76785000I0J150000D01*
G01*
G37*
G36*
G01*
X43050000Y-75515000D02*
X43050000Y-75215000D01*
G75*
G02*
X43200000Y-75065000I150000J0D01*
G01*
X44850000Y-75065000D01*
G75*
G02*
X45000000Y-75215000I0J-150000D01*
G01*
X45000000Y-75515000D01*
G75*
G02*
X44850000Y-75665000I-150000J0D01*
G01*
X43200000Y-75665000D01*
G75*
G02*
X43050000Y-75515000I0J150000D01*
G01*
G37*
G36*
G01*
X43050000Y-74245000D02*
X43050000Y-73945000D01*
G75*
G02*
X43200000Y-73795000I150000J0D01*
G01*
X44850000Y-73795000D01*
G75*
G02*
X45000000Y-73945000I0J-150000D01*
G01*
X45000000Y-74245000D01*
G75*
G02*
X44850000Y-74395000I-150000J0D01*
G01*
X43200000Y-74395000D01*
G75*
G02*
X43050000Y-74245000I0J150000D01*
G01*
G37*
G36*
G01*
X43050000Y-72975000D02*
X43050000Y-72675000D01*
G75*
G02*
X43200000Y-72525000I150000J0D01*
G01*
X44850000Y-72525000D01*
G75*
G02*
X45000000Y-72675000I0J-150000D01*
G01*
X45000000Y-72975000D01*
G75*
G02*
X44850000Y-73125000I-150000J0D01*
G01*
X43200000Y-73125000D01*
G75*
G02*
X43050000Y-72975000I0J150000D01*
G01*
G37*
G36*
G01*
X43050000Y-71705000D02*
X43050000Y-71405000D01*
G75*
G02*
X43200000Y-71255000I150000J0D01*
G01*
X44850000Y-71255000D01*
G75*
G02*
X45000000Y-71405000I0J-150000D01*
G01*
X45000000Y-71705000D01*
G75*
G02*
X44850000Y-71855000I-150000J0D01*
G01*
X43200000Y-71855000D01*
G75*
G02*
X43050000Y-71705000I0J150000D01*
G01*
G37*
G36*
G01*
X48000000Y-71705000D02*
X48000000Y-71405000D01*
G75*
G02*
X48150000Y-71255000I150000J0D01*
G01*
X49800000Y-71255000D01*
G75*
G02*
X49950000Y-71405000I0J-150000D01*
G01*
X49950000Y-71705000D01*
G75*
G02*
X49800000Y-71855000I-150000J0D01*
G01*
X48150000Y-71855000D01*
G75*
G02*
X48000000Y-71705000I0J150000D01*
G01*
G37*
G36*
G01*
X48000000Y-72975000D02*
X48000000Y-72675000D01*
G75*
G02*
X48150000Y-72525000I150000J0D01*
G01*
X49800000Y-72525000D01*
G75*
G02*
X49950000Y-72675000I0J-150000D01*
G01*
X49950000Y-72975000D01*
G75*
G02*
X49800000Y-73125000I-150000J0D01*
G01*
X48150000Y-73125000D01*
G75*
G02*
X48000000Y-72975000I0J150000D01*
G01*
G37*
G36*
G01*
X48000000Y-74245000D02*
X48000000Y-73945000D01*
G75*
G02*
X48150000Y-73795000I150000J0D01*
G01*
X49800000Y-73795000D01*
G75*
G02*
X49950000Y-73945000I0J-150000D01*
G01*
X49950000Y-74245000D01*
G75*
G02*
X49800000Y-74395000I-150000J0D01*
G01*
X48150000Y-74395000D01*
G75*
G02*
X48000000Y-74245000I0J150000D01*
G01*
G37*
G36*
G01*
X48000000Y-75515000D02*
X48000000Y-75215000D01*
G75*
G02*
X48150000Y-75065000I150000J0D01*
G01*
X49800000Y-75065000D01*
G75*
G02*
X49950000Y-75215000I0J-150000D01*
G01*
X49950000Y-75515000D01*
G75*
G02*
X49800000Y-75665000I-150000J0D01*
G01*
X48150000Y-75665000D01*
G75*
G02*
X48000000Y-75515000I0J150000D01*
G01*
G37*
G36*
G01*
X48000000Y-76785000D02*
X48000000Y-76485000D01*
G75*
G02*
X48150000Y-76335000I150000J0D01*
G01*
X49800000Y-76335000D01*
G75*
G02*
X49950000Y-76485000I0J-150000D01*
G01*
X49950000Y-76785000D01*
G75*
G02*
X49800000Y-76935000I-150000J0D01*
G01*
X48150000Y-76935000D01*
G75*
G02*
X48000000Y-76785000I0J150000D01*
G01*
G37*
G36*
G01*
X48000000Y-78055000D02*
X48000000Y-77755000D01*
G75*
G02*
X48150000Y-77605000I150000J0D01*
G01*
X49800000Y-77605000D01*
G75*
G02*
X49950000Y-77755000I0J-150000D01*
G01*
X49950000Y-78055000D01*
G75*
G02*
X49800000Y-78205000I-150000J0D01*
G01*
X48150000Y-78205000D01*
G75*
G02*
X48000000Y-78055000I0J150000D01*
G01*
G37*
G36*
G01*
X48000000Y-79325000D02*
X48000000Y-79025000D01*
G75*
G02*
X48150000Y-78875000I150000J0D01*
G01*
X49800000Y-78875000D01*
G75*
G02*
X49950000Y-79025000I0J-150000D01*
G01*
X49950000Y-79325000D01*
G75*
G02*
X49800000Y-79475000I-150000J0D01*
G01*
X48150000Y-79475000D01*
G75*
G02*
X48000000Y-79325000I0J150000D01*
G01*
G37*
G36*
G01*
X48000000Y-80595000D02*
X48000000Y-80295000D01*
G75*
G02*
X48150000Y-80145000I150000J0D01*
G01*
X49800000Y-80145000D01*
G75*
G02*
X49950000Y-80295000I0J-150000D01*
G01*
X49950000Y-80595000D01*
G75*
G02*
X49800000Y-80745000I-150000J0D01*
G01*
X48150000Y-80745000D01*
G75*
G02*
X48000000Y-80595000I0J150000D01*
G01*
G37*
M02*
