G04 #@! TF.GenerationSoftware,KiCad,Pcbnew,7.0.5.1-1-g8f565ef7f0-dirty-deb11*
G04 #@! TF.CreationDate,2023-06-10T14:16:31+00:00*
G04 #@! TF.ProjectId,MS20-VCF,4d533230-2d56-4434-962e-6b696361645f,rev?*
G04 #@! TF.SameCoordinates,Original*
G04 #@! TF.FileFunction,Legend,Bot*
G04 #@! TF.FilePolarity,Positive*
%FSLAX46Y46*%
G04 Gerber Fmt 4.6, Leading zero omitted, Abs format (unit mm)*
G04 Created by KiCad (PCBNEW 7.0.5.1-1-g8f565ef7f0-dirty-deb11) date 2023-06-10 14:16:31*
%MOMM*%
%LPD*%
G01*
G04 APERTURE LIST*
%ADD10C,0.300000*%
%ADD11C,0.150000*%
%ADD12C,0.120000*%
%ADD13C,1.600000*%
%ADD14R,1.600000X1.600000*%
%ADD15O,1.600000X1.600000*%
%ADD16R,1.700000X1.700000*%
%ADD17O,1.700000X1.700000*%
%ADD18R,1.500000X1.500000*%
%ADD19C,1.500000*%
%ADD20C,1.440000*%
%ADD21C,1.700000*%
G04 APERTURE END LIST*
D10*
X63928571Y-143678328D02*
X63928571Y-144749757D01*
X63928571Y-144749757D02*
X64000000Y-144964042D01*
X64000000Y-144964042D02*
X64142857Y-145106900D01*
X64142857Y-145106900D02*
X64357143Y-145178328D01*
X64357143Y-145178328D02*
X64500000Y-145178328D01*
X62500000Y-145178328D02*
X63214286Y-145178328D01*
X63214286Y-145178328D02*
X63214286Y-143678328D01*
X61142857Y-145035471D02*
X61214285Y-145106900D01*
X61214285Y-145106900D02*
X61428571Y-145178328D01*
X61428571Y-145178328D02*
X61571428Y-145178328D01*
X61571428Y-145178328D02*
X61785714Y-145106900D01*
X61785714Y-145106900D02*
X61928571Y-144964042D01*
X61928571Y-144964042D02*
X62000000Y-144821185D01*
X62000000Y-144821185D02*
X62071428Y-144535471D01*
X62071428Y-144535471D02*
X62071428Y-144321185D01*
X62071428Y-144321185D02*
X62000000Y-144035471D01*
X62000000Y-144035471D02*
X61928571Y-143892614D01*
X61928571Y-143892614D02*
X61785714Y-143749757D01*
X61785714Y-143749757D02*
X61571428Y-143678328D01*
X61571428Y-143678328D02*
X61428571Y-143678328D01*
X61428571Y-143678328D02*
X61214285Y-143749757D01*
X61214285Y-143749757D02*
X61142857Y-143821185D01*
X60071428Y-143678328D02*
X60071428Y-144749757D01*
X60071428Y-144749757D02*
X60142857Y-144964042D01*
X60142857Y-144964042D02*
X60285714Y-145106900D01*
X60285714Y-145106900D02*
X60500000Y-145178328D01*
X60500000Y-145178328D02*
X60642857Y-145178328D01*
X58642857Y-145178328D02*
X59357143Y-145178328D01*
X59357143Y-145178328D02*
X59357143Y-143678328D01*
X57285714Y-145035471D02*
X57357142Y-145106900D01*
X57357142Y-145106900D02*
X57571428Y-145178328D01*
X57571428Y-145178328D02*
X57714285Y-145178328D01*
X57714285Y-145178328D02*
X57928571Y-145106900D01*
X57928571Y-145106900D02*
X58071428Y-144964042D01*
X58071428Y-144964042D02*
X58142857Y-144821185D01*
X58142857Y-144821185D02*
X58214285Y-144535471D01*
X58214285Y-144535471D02*
X58214285Y-144321185D01*
X58214285Y-144321185D02*
X58142857Y-144035471D01*
X58142857Y-144035471D02*
X58071428Y-143892614D01*
X58071428Y-143892614D02*
X57928571Y-143749757D01*
X57928571Y-143749757D02*
X57714285Y-143678328D01*
X57714285Y-143678328D02*
X57571428Y-143678328D01*
X57571428Y-143678328D02*
X57357142Y-143749757D01*
X57357142Y-143749757D02*
X57285714Y-143821185D01*
X56214285Y-143678328D02*
X56214285Y-144749757D01*
X56214285Y-144749757D02*
X56285714Y-144964042D01*
X56285714Y-144964042D02*
X56428571Y-145106900D01*
X56428571Y-145106900D02*
X56642857Y-145178328D01*
X56642857Y-145178328D02*
X56785714Y-145178328D01*
X54785714Y-145178328D02*
X55500000Y-145178328D01*
X55500000Y-145178328D02*
X55500000Y-143678328D01*
X53428571Y-145035471D02*
X53499999Y-145106900D01*
X53499999Y-145106900D02*
X53714285Y-145178328D01*
X53714285Y-145178328D02*
X53857142Y-145178328D01*
X53857142Y-145178328D02*
X54071428Y-145106900D01*
X54071428Y-145106900D02*
X54214285Y-144964042D01*
X54214285Y-144964042D02*
X54285714Y-144821185D01*
X54285714Y-144821185D02*
X54357142Y-144535471D01*
X54357142Y-144535471D02*
X54357142Y-144321185D01*
X54357142Y-144321185D02*
X54285714Y-144035471D01*
X54285714Y-144035471D02*
X54214285Y-143892614D01*
X54214285Y-143892614D02*
X54071428Y-143749757D01*
X54071428Y-143749757D02*
X53857142Y-143678328D01*
X53857142Y-143678328D02*
X53714285Y-143678328D01*
X53714285Y-143678328D02*
X53499999Y-143749757D01*
X53499999Y-143749757D02*
X53428571Y-143821185D01*
X52357142Y-143678328D02*
X52357142Y-144749757D01*
X52357142Y-144749757D02*
X52428571Y-144964042D01*
X52428571Y-144964042D02*
X52571428Y-145106900D01*
X52571428Y-145106900D02*
X52785714Y-145178328D01*
X52785714Y-145178328D02*
X52928571Y-145178328D01*
X50928571Y-145178328D02*
X51642857Y-145178328D01*
X51642857Y-145178328D02*
X51642857Y-143678328D01*
X49571428Y-145035471D02*
X49642856Y-145106900D01*
X49642856Y-145106900D02*
X49857142Y-145178328D01*
X49857142Y-145178328D02*
X49999999Y-145178328D01*
X49999999Y-145178328D02*
X50214285Y-145106900D01*
X50214285Y-145106900D02*
X50357142Y-144964042D01*
X50357142Y-144964042D02*
X50428571Y-144821185D01*
X50428571Y-144821185D02*
X50499999Y-144535471D01*
X50499999Y-144535471D02*
X50499999Y-144321185D01*
X50499999Y-144321185D02*
X50428571Y-144035471D01*
X50428571Y-144035471D02*
X50357142Y-143892614D01*
X50357142Y-143892614D02*
X50214285Y-143749757D01*
X50214285Y-143749757D02*
X49999999Y-143678328D01*
X49999999Y-143678328D02*
X49857142Y-143678328D01*
X49857142Y-143678328D02*
X49642856Y-143749757D01*
X49642856Y-143749757D02*
X49571428Y-143821185D01*
D11*
X31259580Y-102733333D02*
X31307200Y-102685714D01*
X31307200Y-102685714D02*
X31354819Y-102542857D01*
X31354819Y-102542857D02*
X31354819Y-102447619D01*
X31354819Y-102447619D02*
X31307200Y-102304762D01*
X31307200Y-102304762D02*
X31211961Y-102209524D01*
X31211961Y-102209524D02*
X31116723Y-102161905D01*
X31116723Y-102161905D02*
X30926247Y-102114286D01*
X30926247Y-102114286D02*
X30783390Y-102114286D01*
X30783390Y-102114286D02*
X30592914Y-102161905D01*
X30592914Y-102161905D02*
X30497676Y-102209524D01*
X30497676Y-102209524D02*
X30402438Y-102304762D01*
X30402438Y-102304762D02*
X30354819Y-102447619D01*
X30354819Y-102447619D02*
X30354819Y-102542857D01*
X30354819Y-102542857D02*
X30402438Y-102685714D01*
X30402438Y-102685714D02*
X30450057Y-102733333D01*
X30354819Y-103638095D02*
X30354819Y-103161905D01*
X30354819Y-103161905D02*
X30831009Y-103114286D01*
X30831009Y-103114286D02*
X30783390Y-103161905D01*
X30783390Y-103161905D02*
X30735771Y-103257143D01*
X30735771Y-103257143D02*
X30735771Y-103495238D01*
X30735771Y-103495238D02*
X30783390Y-103590476D01*
X30783390Y-103590476D02*
X30831009Y-103638095D01*
X30831009Y-103638095D02*
X30926247Y-103685714D01*
X30926247Y-103685714D02*
X31164342Y-103685714D01*
X31164342Y-103685714D02*
X31259580Y-103638095D01*
X31259580Y-103638095D02*
X31307200Y-103590476D01*
X31307200Y-103590476D02*
X31354819Y-103495238D01*
X31354819Y-103495238D02*
X31354819Y-103257143D01*
X31354819Y-103257143D02*
X31307200Y-103161905D01*
X31307200Y-103161905D02*
X31259580Y-103114286D01*
X66342857Y-98559580D02*
X66390476Y-98607200D01*
X66390476Y-98607200D02*
X66533333Y-98654819D01*
X66533333Y-98654819D02*
X66628571Y-98654819D01*
X66628571Y-98654819D02*
X66771428Y-98607200D01*
X66771428Y-98607200D02*
X66866666Y-98511961D01*
X66866666Y-98511961D02*
X66914285Y-98416723D01*
X66914285Y-98416723D02*
X66961904Y-98226247D01*
X66961904Y-98226247D02*
X66961904Y-98083390D01*
X66961904Y-98083390D02*
X66914285Y-97892914D01*
X66914285Y-97892914D02*
X66866666Y-97797676D01*
X66866666Y-97797676D02*
X66771428Y-97702438D01*
X66771428Y-97702438D02*
X66628571Y-97654819D01*
X66628571Y-97654819D02*
X66533333Y-97654819D01*
X66533333Y-97654819D02*
X66390476Y-97702438D01*
X66390476Y-97702438D02*
X66342857Y-97750057D01*
X65390476Y-98654819D02*
X65961904Y-98654819D01*
X65676190Y-98654819D02*
X65676190Y-97654819D01*
X65676190Y-97654819D02*
X65771428Y-97797676D01*
X65771428Y-97797676D02*
X65866666Y-97892914D01*
X65866666Y-97892914D02*
X65961904Y-97940533D01*
X64771428Y-97654819D02*
X64676190Y-97654819D01*
X64676190Y-97654819D02*
X64580952Y-97702438D01*
X64580952Y-97702438D02*
X64533333Y-97750057D01*
X64533333Y-97750057D02*
X64485714Y-97845295D01*
X64485714Y-97845295D02*
X64438095Y-98035771D01*
X64438095Y-98035771D02*
X64438095Y-98273866D01*
X64438095Y-98273866D02*
X64485714Y-98464342D01*
X64485714Y-98464342D02*
X64533333Y-98559580D01*
X64533333Y-98559580D02*
X64580952Y-98607200D01*
X64580952Y-98607200D02*
X64676190Y-98654819D01*
X64676190Y-98654819D02*
X64771428Y-98654819D01*
X64771428Y-98654819D02*
X64866666Y-98607200D01*
X64866666Y-98607200D02*
X64914285Y-98559580D01*
X64914285Y-98559580D02*
X64961904Y-98464342D01*
X64961904Y-98464342D02*
X65009523Y-98273866D01*
X65009523Y-98273866D02*
X65009523Y-98035771D01*
X65009523Y-98035771D02*
X64961904Y-97845295D01*
X64961904Y-97845295D02*
X64914285Y-97750057D01*
X64914285Y-97750057D02*
X64866666Y-97702438D01*
X64866666Y-97702438D02*
X64771428Y-97654819D01*
X37766666Y-74459580D02*
X37814285Y-74507200D01*
X37814285Y-74507200D02*
X37957142Y-74554819D01*
X37957142Y-74554819D02*
X38052380Y-74554819D01*
X38052380Y-74554819D02*
X38195237Y-74507200D01*
X38195237Y-74507200D02*
X38290475Y-74411961D01*
X38290475Y-74411961D02*
X38338094Y-74316723D01*
X38338094Y-74316723D02*
X38385713Y-74126247D01*
X38385713Y-74126247D02*
X38385713Y-73983390D01*
X38385713Y-73983390D02*
X38338094Y-73792914D01*
X38338094Y-73792914D02*
X38290475Y-73697676D01*
X38290475Y-73697676D02*
X38195237Y-73602438D01*
X38195237Y-73602438D02*
X38052380Y-73554819D01*
X38052380Y-73554819D02*
X37957142Y-73554819D01*
X37957142Y-73554819D02*
X37814285Y-73602438D01*
X37814285Y-73602438D02*
X37766666Y-73650057D01*
X36814285Y-74554819D02*
X37385713Y-74554819D01*
X37099999Y-74554819D02*
X37099999Y-73554819D01*
X37099999Y-73554819D02*
X37195237Y-73697676D01*
X37195237Y-73697676D02*
X37290475Y-73792914D01*
X37290475Y-73792914D02*
X37385713Y-73840533D01*
X57611009Y-89766666D02*
X57611009Y-89433333D01*
X58134819Y-89433333D02*
X57134819Y-89433333D01*
X57134819Y-89433333D02*
X57134819Y-89909523D01*
X57611009Y-90623809D02*
X57658628Y-90766666D01*
X57658628Y-90766666D02*
X57706247Y-90814285D01*
X57706247Y-90814285D02*
X57801485Y-90861904D01*
X57801485Y-90861904D02*
X57944342Y-90861904D01*
X57944342Y-90861904D02*
X58039580Y-90814285D01*
X58039580Y-90814285D02*
X58087200Y-90766666D01*
X58087200Y-90766666D02*
X58134819Y-90671428D01*
X58134819Y-90671428D02*
X58134819Y-90290476D01*
X58134819Y-90290476D02*
X57134819Y-90290476D01*
X57134819Y-90290476D02*
X57134819Y-90623809D01*
X57134819Y-90623809D02*
X57182438Y-90719047D01*
X57182438Y-90719047D02*
X57230057Y-90766666D01*
X57230057Y-90766666D02*
X57325295Y-90814285D01*
X57325295Y-90814285D02*
X57420533Y-90814285D01*
X57420533Y-90814285D02*
X57515771Y-90766666D01*
X57515771Y-90766666D02*
X57563390Y-90719047D01*
X57563390Y-90719047D02*
X57611009Y-90623809D01*
X57611009Y-90623809D02*
X57611009Y-90290476D01*
X57230057Y-91242857D02*
X57182438Y-91290476D01*
X57182438Y-91290476D02*
X57134819Y-91385714D01*
X57134819Y-91385714D02*
X57134819Y-91623809D01*
X57134819Y-91623809D02*
X57182438Y-91719047D01*
X57182438Y-91719047D02*
X57230057Y-91766666D01*
X57230057Y-91766666D02*
X57325295Y-91814285D01*
X57325295Y-91814285D02*
X57420533Y-91814285D01*
X57420533Y-91814285D02*
X57563390Y-91766666D01*
X57563390Y-91766666D02*
X58134819Y-91195238D01*
X58134819Y-91195238D02*
X58134819Y-91814285D01*
X83785714Y-53354819D02*
X84119047Y-52878628D01*
X84357142Y-53354819D02*
X84357142Y-52354819D01*
X84357142Y-52354819D02*
X83976190Y-52354819D01*
X83976190Y-52354819D02*
X83880952Y-52402438D01*
X83880952Y-52402438D02*
X83833333Y-52450057D01*
X83833333Y-52450057D02*
X83785714Y-52545295D01*
X83785714Y-52545295D02*
X83785714Y-52688152D01*
X83785714Y-52688152D02*
X83833333Y-52783390D01*
X83833333Y-52783390D02*
X83880952Y-52831009D01*
X83880952Y-52831009D02*
X83976190Y-52878628D01*
X83976190Y-52878628D02*
X84357142Y-52878628D01*
X82976190Y-53307200D02*
X83071428Y-53354819D01*
X83071428Y-53354819D02*
X83261904Y-53354819D01*
X83261904Y-53354819D02*
X83357142Y-53307200D01*
X83357142Y-53307200D02*
X83404761Y-53211961D01*
X83404761Y-53211961D02*
X83404761Y-52831009D01*
X83404761Y-52831009D02*
X83357142Y-52735771D01*
X83357142Y-52735771D02*
X83261904Y-52688152D01*
X83261904Y-52688152D02*
X83071428Y-52688152D01*
X83071428Y-52688152D02*
X82976190Y-52735771D01*
X82976190Y-52735771D02*
X82928571Y-52831009D01*
X82928571Y-52831009D02*
X82928571Y-52926247D01*
X82928571Y-52926247D02*
X83404761Y-53021485D01*
X82547618Y-53307200D02*
X82452380Y-53354819D01*
X82452380Y-53354819D02*
X82261904Y-53354819D01*
X82261904Y-53354819D02*
X82166666Y-53307200D01*
X82166666Y-53307200D02*
X82119047Y-53211961D01*
X82119047Y-53211961D02*
X82119047Y-53164342D01*
X82119047Y-53164342D02*
X82166666Y-53069104D01*
X82166666Y-53069104D02*
X82261904Y-53021485D01*
X82261904Y-53021485D02*
X82404761Y-53021485D01*
X82404761Y-53021485D02*
X82499999Y-52973866D01*
X82499999Y-52973866D02*
X82547618Y-52878628D01*
X82547618Y-52878628D02*
X82547618Y-52831009D01*
X82547618Y-52831009D02*
X82499999Y-52735771D01*
X82499999Y-52735771D02*
X82404761Y-52688152D01*
X82404761Y-52688152D02*
X82261904Y-52688152D01*
X82261904Y-52688152D02*
X82166666Y-52735771D01*
X81214285Y-53354819D02*
X81690475Y-53354819D01*
X81690475Y-53354819D02*
X81690475Y-52354819D01*
X80976189Y-52688152D02*
X80738094Y-53354819D01*
X80738094Y-53354819D02*
X80499999Y-52688152D01*
X79595237Y-53354819D02*
X80166665Y-53354819D01*
X79880951Y-53354819D02*
X79880951Y-52354819D01*
X79880951Y-52354819D02*
X79976189Y-52497676D01*
X79976189Y-52497676D02*
X80071427Y-52592914D01*
X80071427Y-52592914D02*
X80166665Y-52640533D01*
X83642857Y-43354819D02*
X83976190Y-42878628D01*
X84214285Y-43354819D02*
X84214285Y-42354819D01*
X84214285Y-42354819D02*
X83833333Y-42354819D01*
X83833333Y-42354819D02*
X83738095Y-42402438D01*
X83738095Y-42402438D02*
X83690476Y-42450057D01*
X83690476Y-42450057D02*
X83642857Y-42545295D01*
X83642857Y-42545295D02*
X83642857Y-42688152D01*
X83642857Y-42688152D02*
X83690476Y-42783390D01*
X83690476Y-42783390D02*
X83738095Y-42831009D01*
X83738095Y-42831009D02*
X83833333Y-42878628D01*
X83833333Y-42878628D02*
X84214285Y-42878628D01*
X82833333Y-43307200D02*
X82928571Y-43354819D01*
X82928571Y-43354819D02*
X83119047Y-43354819D01*
X83119047Y-43354819D02*
X83214285Y-43307200D01*
X83214285Y-43307200D02*
X83261904Y-43211961D01*
X83261904Y-43211961D02*
X83261904Y-42831009D01*
X83261904Y-42831009D02*
X83214285Y-42735771D01*
X83214285Y-42735771D02*
X83119047Y-42688152D01*
X83119047Y-42688152D02*
X82928571Y-42688152D01*
X82928571Y-42688152D02*
X82833333Y-42735771D01*
X82833333Y-42735771D02*
X82785714Y-42831009D01*
X82785714Y-42831009D02*
X82785714Y-42926247D01*
X82785714Y-42926247D02*
X83261904Y-43021485D01*
X82404761Y-43307200D02*
X82309523Y-43354819D01*
X82309523Y-43354819D02*
X82119047Y-43354819D01*
X82119047Y-43354819D02*
X82023809Y-43307200D01*
X82023809Y-43307200D02*
X81976190Y-43211961D01*
X81976190Y-43211961D02*
X81976190Y-43164342D01*
X81976190Y-43164342D02*
X82023809Y-43069104D01*
X82023809Y-43069104D02*
X82119047Y-43021485D01*
X82119047Y-43021485D02*
X82261904Y-43021485D01*
X82261904Y-43021485D02*
X82357142Y-42973866D01*
X82357142Y-42973866D02*
X82404761Y-42878628D01*
X82404761Y-42878628D02*
X82404761Y-42831009D01*
X82404761Y-42831009D02*
X82357142Y-42735771D01*
X82357142Y-42735771D02*
X82261904Y-42688152D01*
X82261904Y-42688152D02*
X82119047Y-42688152D01*
X82119047Y-42688152D02*
X82023809Y-42735771D01*
X81690475Y-42354819D02*
X81357142Y-43354819D01*
X81357142Y-43354819D02*
X81023809Y-42354819D01*
X80547618Y-43354819D02*
X80642856Y-43307200D01*
X80642856Y-43307200D02*
X80690475Y-43259580D01*
X80690475Y-43259580D02*
X80738094Y-43164342D01*
X80738094Y-43164342D02*
X80738094Y-42878628D01*
X80738094Y-42878628D02*
X80690475Y-42783390D01*
X80690475Y-42783390D02*
X80642856Y-42735771D01*
X80642856Y-42735771D02*
X80547618Y-42688152D01*
X80547618Y-42688152D02*
X80404761Y-42688152D01*
X80404761Y-42688152D02*
X80309523Y-42735771D01*
X80309523Y-42735771D02*
X80261904Y-42783390D01*
X80261904Y-42783390D02*
X80214285Y-42878628D01*
X80214285Y-42878628D02*
X80214285Y-43164342D01*
X80214285Y-43164342D02*
X80261904Y-43259580D01*
X80261904Y-43259580D02*
X80309523Y-43307200D01*
X80309523Y-43307200D02*
X80404761Y-43354819D01*
X80404761Y-43354819D02*
X80547618Y-43354819D01*
X79642856Y-43354819D02*
X79738094Y-43307200D01*
X79738094Y-43307200D02*
X79785713Y-43211961D01*
X79785713Y-43211961D02*
X79785713Y-42354819D01*
X78738094Y-43354819D02*
X79309522Y-43354819D01*
X79023808Y-43354819D02*
X79023808Y-42354819D01*
X79023808Y-42354819D02*
X79119046Y-42497676D01*
X79119046Y-42497676D02*
X79214284Y-42592914D01*
X79214284Y-42592914D02*
X79309522Y-42640533D01*
X43061904Y-99654819D02*
X43061904Y-100464342D01*
X43061904Y-100464342D02*
X43014285Y-100559580D01*
X43014285Y-100559580D02*
X42966666Y-100607200D01*
X42966666Y-100607200D02*
X42871428Y-100654819D01*
X42871428Y-100654819D02*
X42680952Y-100654819D01*
X42680952Y-100654819D02*
X42585714Y-100607200D01*
X42585714Y-100607200D02*
X42538095Y-100559580D01*
X42538095Y-100559580D02*
X42490476Y-100464342D01*
X42490476Y-100464342D02*
X42490476Y-99654819D01*
X42109523Y-99654819D02*
X41490476Y-99654819D01*
X41490476Y-99654819D02*
X41823809Y-100035771D01*
X41823809Y-100035771D02*
X41680952Y-100035771D01*
X41680952Y-100035771D02*
X41585714Y-100083390D01*
X41585714Y-100083390D02*
X41538095Y-100131009D01*
X41538095Y-100131009D02*
X41490476Y-100226247D01*
X41490476Y-100226247D02*
X41490476Y-100464342D01*
X41490476Y-100464342D02*
X41538095Y-100559580D01*
X41538095Y-100559580D02*
X41585714Y-100607200D01*
X41585714Y-100607200D02*
X41680952Y-100654819D01*
X41680952Y-100654819D02*
X41966666Y-100654819D01*
X41966666Y-100654819D02*
X42061904Y-100607200D01*
X42061904Y-100607200D02*
X42109523Y-100559580D01*
X33742857Y-121559580D02*
X33790476Y-121607200D01*
X33790476Y-121607200D02*
X33933333Y-121654819D01*
X33933333Y-121654819D02*
X34028571Y-121654819D01*
X34028571Y-121654819D02*
X34171428Y-121607200D01*
X34171428Y-121607200D02*
X34266666Y-121511961D01*
X34266666Y-121511961D02*
X34314285Y-121416723D01*
X34314285Y-121416723D02*
X34361904Y-121226247D01*
X34361904Y-121226247D02*
X34361904Y-121083390D01*
X34361904Y-121083390D02*
X34314285Y-120892914D01*
X34314285Y-120892914D02*
X34266666Y-120797676D01*
X34266666Y-120797676D02*
X34171428Y-120702438D01*
X34171428Y-120702438D02*
X34028571Y-120654819D01*
X34028571Y-120654819D02*
X33933333Y-120654819D01*
X33933333Y-120654819D02*
X33790476Y-120702438D01*
X33790476Y-120702438D02*
X33742857Y-120750057D01*
X32790476Y-121654819D02*
X33361904Y-121654819D01*
X33076190Y-121654819D02*
X33076190Y-120654819D01*
X33076190Y-120654819D02*
X33171428Y-120797676D01*
X33171428Y-120797676D02*
X33266666Y-120892914D01*
X33266666Y-120892914D02*
X33361904Y-120940533D01*
X31885714Y-120654819D02*
X32361904Y-120654819D01*
X32361904Y-120654819D02*
X32409523Y-121131009D01*
X32409523Y-121131009D02*
X32361904Y-121083390D01*
X32361904Y-121083390D02*
X32266666Y-121035771D01*
X32266666Y-121035771D02*
X32028571Y-121035771D01*
X32028571Y-121035771D02*
X31933333Y-121083390D01*
X31933333Y-121083390D02*
X31885714Y-121131009D01*
X31885714Y-121131009D02*
X31838095Y-121226247D01*
X31838095Y-121226247D02*
X31838095Y-121464342D01*
X31838095Y-121464342D02*
X31885714Y-121559580D01*
X31885714Y-121559580D02*
X31933333Y-121607200D01*
X31933333Y-121607200D02*
X32028571Y-121654819D01*
X32028571Y-121654819D02*
X32266666Y-121654819D01*
X32266666Y-121654819D02*
X32361904Y-121607200D01*
X32361904Y-121607200D02*
X32409523Y-121559580D01*
X32231009Y-89566666D02*
X32231009Y-89233333D01*
X32754819Y-89233333D02*
X31754819Y-89233333D01*
X31754819Y-89233333D02*
X31754819Y-89709523D01*
X32231009Y-90423809D02*
X32278628Y-90566666D01*
X32278628Y-90566666D02*
X32326247Y-90614285D01*
X32326247Y-90614285D02*
X32421485Y-90661904D01*
X32421485Y-90661904D02*
X32564342Y-90661904D01*
X32564342Y-90661904D02*
X32659580Y-90614285D01*
X32659580Y-90614285D02*
X32707200Y-90566666D01*
X32707200Y-90566666D02*
X32754819Y-90471428D01*
X32754819Y-90471428D02*
X32754819Y-90090476D01*
X32754819Y-90090476D02*
X31754819Y-90090476D01*
X31754819Y-90090476D02*
X31754819Y-90423809D01*
X31754819Y-90423809D02*
X31802438Y-90519047D01*
X31802438Y-90519047D02*
X31850057Y-90566666D01*
X31850057Y-90566666D02*
X31945295Y-90614285D01*
X31945295Y-90614285D02*
X32040533Y-90614285D01*
X32040533Y-90614285D02*
X32135771Y-90566666D01*
X32135771Y-90566666D02*
X32183390Y-90519047D01*
X32183390Y-90519047D02*
X32231009Y-90423809D01*
X32231009Y-90423809D02*
X32231009Y-90090476D01*
X32754819Y-91614285D02*
X32754819Y-91042857D01*
X32754819Y-91328571D02*
X31754819Y-91328571D01*
X31754819Y-91328571D02*
X31897676Y-91233333D01*
X31897676Y-91233333D02*
X31992914Y-91138095D01*
X31992914Y-91138095D02*
X32040533Y-91042857D01*
X83685714Y-101554819D02*
X84019047Y-101078628D01*
X84257142Y-101554819D02*
X84257142Y-100554819D01*
X84257142Y-100554819D02*
X83876190Y-100554819D01*
X83876190Y-100554819D02*
X83780952Y-100602438D01*
X83780952Y-100602438D02*
X83733333Y-100650057D01*
X83733333Y-100650057D02*
X83685714Y-100745295D01*
X83685714Y-100745295D02*
X83685714Y-100888152D01*
X83685714Y-100888152D02*
X83733333Y-100983390D01*
X83733333Y-100983390D02*
X83780952Y-101031009D01*
X83780952Y-101031009D02*
X83876190Y-101078628D01*
X83876190Y-101078628D02*
X84257142Y-101078628D01*
X82876190Y-101507200D02*
X82971428Y-101554819D01*
X82971428Y-101554819D02*
X83161904Y-101554819D01*
X83161904Y-101554819D02*
X83257142Y-101507200D01*
X83257142Y-101507200D02*
X83304761Y-101411961D01*
X83304761Y-101411961D02*
X83304761Y-101031009D01*
X83304761Y-101031009D02*
X83257142Y-100935771D01*
X83257142Y-100935771D02*
X83161904Y-100888152D01*
X83161904Y-100888152D02*
X82971428Y-100888152D01*
X82971428Y-100888152D02*
X82876190Y-100935771D01*
X82876190Y-100935771D02*
X82828571Y-101031009D01*
X82828571Y-101031009D02*
X82828571Y-101126247D01*
X82828571Y-101126247D02*
X83304761Y-101221485D01*
X82447618Y-101507200D02*
X82352380Y-101554819D01*
X82352380Y-101554819D02*
X82161904Y-101554819D01*
X82161904Y-101554819D02*
X82066666Y-101507200D01*
X82066666Y-101507200D02*
X82019047Y-101411961D01*
X82019047Y-101411961D02*
X82019047Y-101364342D01*
X82019047Y-101364342D02*
X82066666Y-101269104D01*
X82066666Y-101269104D02*
X82161904Y-101221485D01*
X82161904Y-101221485D02*
X82304761Y-101221485D01*
X82304761Y-101221485D02*
X82399999Y-101173866D01*
X82399999Y-101173866D02*
X82447618Y-101078628D01*
X82447618Y-101078628D02*
X82447618Y-101031009D01*
X82447618Y-101031009D02*
X82399999Y-100935771D01*
X82399999Y-100935771D02*
X82304761Y-100888152D01*
X82304761Y-100888152D02*
X82161904Y-100888152D01*
X82161904Y-100888152D02*
X82066666Y-100935771D01*
X81114285Y-101554819D02*
X81590475Y-101554819D01*
X81590475Y-101554819D02*
X81590475Y-100554819D01*
X80876189Y-100888152D02*
X80638094Y-101554819D01*
X80638094Y-101554819D02*
X80399999Y-100888152D01*
X80066665Y-100650057D02*
X80019046Y-100602438D01*
X80019046Y-100602438D02*
X79923808Y-100554819D01*
X79923808Y-100554819D02*
X79685713Y-100554819D01*
X79685713Y-100554819D02*
X79590475Y-100602438D01*
X79590475Y-100602438D02*
X79542856Y-100650057D01*
X79542856Y-100650057D02*
X79495237Y-100745295D01*
X79495237Y-100745295D02*
X79495237Y-100840533D01*
X79495237Y-100840533D02*
X79542856Y-100983390D01*
X79542856Y-100983390D02*
X80114284Y-101554819D01*
X80114284Y-101554819D02*
X79495237Y-101554819D01*
X83742857Y-91754819D02*
X84076190Y-91278628D01*
X84314285Y-91754819D02*
X84314285Y-90754819D01*
X84314285Y-90754819D02*
X83933333Y-90754819D01*
X83933333Y-90754819D02*
X83838095Y-90802438D01*
X83838095Y-90802438D02*
X83790476Y-90850057D01*
X83790476Y-90850057D02*
X83742857Y-90945295D01*
X83742857Y-90945295D02*
X83742857Y-91088152D01*
X83742857Y-91088152D02*
X83790476Y-91183390D01*
X83790476Y-91183390D02*
X83838095Y-91231009D01*
X83838095Y-91231009D02*
X83933333Y-91278628D01*
X83933333Y-91278628D02*
X84314285Y-91278628D01*
X82933333Y-91707200D02*
X83028571Y-91754819D01*
X83028571Y-91754819D02*
X83219047Y-91754819D01*
X83219047Y-91754819D02*
X83314285Y-91707200D01*
X83314285Y-91707200D02*
X83361904Y-91611961D01*
X83361904Y-91611961D02*
X83361904Y-91231009D01*
X83361904Y-91231009D02*
X83314285Y-91135771D01*
X83314285Y-91135771D02*
X83219047Y-91088152D01*
X83219047Y-91088152D02*
X83028571Y-91088152D01*
X83028571Y-91088152D02*
X82933333Y-91135771D01*
X82933333Y-91135771D02*
X82885714Y-91231009D01*
X82885714Y-91231009D02*
X82885714Y-91326247D01*
X82885714Y-91326247D02*
X83361904Y-91421485D01*
X82504761Y-91707200D02*
X82409523Y-91754819D01*
X82409523Y-91754819D02*
X82219047Y-91754819D01*
X82219047Y-91754819D02*
X82123809Y-91707200D01*
X82123809Y-91707200D02*
X82076190Y-91611961D01*
X82076190Y-91611961D02*
X82076190Y-91564342D01*
X82076190Y-91564342D02*
X82123809Y-91469104D01*
X82123809Y-91469104D02*
X82219047Y-91421485D01*
X82219047Y-91421485D02*
X82361904Y-91421485D01*
X82361904Y-91421485D02*
X82457142Y-91373866D01*
X82457142Y-91373866D02*
X82504761Y-91278628D01*
X82504761Y-91278628D02*
X82504761Y-91231009D01*
X82504761Y-91231009D02*
X82457142Y-91135771D01*
X82457142Y-91135771D02*
X82361904Y-91088152D01*
X82361904Y-91088152D02*
X82219047Y-91088152D01*
X82219047Y-91088152D02*
X82123809Y-91135771D01*
X81790475Y-90754819D02*
X81457142Y-91754819D01*
X81457142Y-91754819D02*
X81123809Y-90754819D01*
X80647618Y-91754819D02*
X80742856Y-91707200D01*
X80742856Y-91707200D02*
X80790475Y-91659580D01*
X80790475Y-91659580D02*
X80838094Y-91564342D01*
X80838094Y-91564342D02*
X80838094Y-91278628D01*
X80838094Y-91278628D02*
X80790475Y-91183390D01*
X80790475Y-91183390D02*
X80742856Y-91135771D01*
X80742856Y-91135771D02*
X80647618Y-91088152D01*
X80647618Y-91088152D02*
X80504761Y-91088152D01*
X80504761Y-91088152D02*
X80409523Y-91135771D01*
X80409523Y-91135771D02*
X80361904Y-91183390D01*
X80361904Y-91183390D02*
X80314285Y-91278628D01*
X80314285Y-91278628D02*
X80314285Y-91564342D01*
X80314285Y-91564342D02*
X80361904Y-91659580D01*
X80361904Y-91659580D02*
X80409523Y-91707200D01*
X80409523Y-91707200D02*
X80504761Y-91754819D01*
X80504761Y-91754819D02*
X80647618Y-91754819D01*
X79742856Y-91754819D02*
X79838094Y-91707200D01*
X79838094Y-91707200D02*
X79885713Y-91611961D01*
X79885713Y-91611961D02*
X79885713Y-90754819D01*
X79409522Y-90850057D02*
X79361903Y-90802438D01*
X79361903Y-90802438D02*
X79266665Y-90754819D01*
X79266665Y-90754819D02*
X79028570Y-90754819D01*
X79028570Y-90754819D02*
X78933332Y-90802438D01*
X78933332Y-90802438D02*
X78885713Y-90850057D01*
X78885713Y-90850057D02*
X78838094Y-90945295D01*
X78838094Y-90945295D02*
X78838094Y-91040533D01*
X78838094Y-91040533D02*
X78885713Y-91183390D01*
X78885713Y-91183390D02*
X79457141Y-91754819D01*
X79457141Y-91754819D02*
X78838094Y-91754819D01*
X47261904Y-81354819D02*
X47261904Y-82164342D01*
X47261904Y-82164342D02*
X47214285Y-82259580D01*
X47214285Y-82259580D02*
X47166666Y-82307200D01*
X47166666Y-82307200D02*
X47071428Y-82354819D01*
X47071428Y-82354819D02*
X46880952Y-82354819D01*
X46880952Y-82354819D02*
X46785714Y-82307200D01*
X46785714Y-82307200D02*
X46738095Y-82259580D01*
X46738095Y-82259580D02*
X46690476Y-82164342D01*
X46690476Y-82164342D02*
X46690476Y-81354819D01*
X45690476Y-82354819D02*
X46261904Y-82354819D01*
X45976190Y-82354819D02*
X45976190Y-81354819D01*
X45976190Y-81354819D02*
X46071428Y-81497676D01*
X46071428Y-81497676D02*
X46166666Y-81592914D01*
X46166666Y-81592914D02*
X46261904Y-81640533D01*
X45313333Y-95854819D02*
X45313333Y-96569104D01*
X45313333Y-96569104D02*
X45360952Y-96711961D01*
X45360952Y-96711961D02*
X45456190Y-96807200D01*
X45456190Y-96807200D02*
X45599047Y-96854819D01*
X45599047Y-96854819D02*
X45694285Y-96854819D01*
X44694285Y-96283390D02*
X44789523Y-96235771D01*
X44789523Y-96235771D02*
X44837142Y-96188152D01*
X44837142Y-96188152D02*
X44884761Y-96092914D01*
X44884761Y-96092914D02*
X44884761Y-96045295D01*
X44884761Y-96045295D02*
X44837142Y-95950057D01*
X44837142Y-95950057D02*
X44789523Y-95902438D01*
X44789523Y-95902438D02*
X44694285Y-95854819D01*
X44694285Y-95854819D02*
X44503809Y-95854819D01*
X44503809Y-95854819D02*
X44408571Y-95902438D01*
X44408571Y-95902438D02*
X44360952Y-95950057D01*
X44360952Y-95950057D02*
X44313333Y-96045295D01*
X44313333Y-96045295D02*
X44313333Y-96092914D01*
X44313333Y-96092914D02*
X44360952Y-96188152D01*
X44360952Y-96188152D02*
X44408571Y-96235771D01*
X44408571Y-96235771D02*
X44503809Y-96283390D01*
X44503809Y-96283390D02*
X44694285Y-96283390D01*
X44694285Y-96283390D02*
X44789523Y-96331009D01*
X44789523Y-96331009D02*
X44837142Y-96378628D01*
X44837142Y-96378628D02*
X44884761Y-96473866D01*
X44884761Y-96473866D02*
X44884761Y-96664342D01*
X44884761Y-96664342D02*
X44837142Y-96759580D01*
X44837142Y-96759580D02*
X44789523Y-96807200D01*
X44789523Y-96807200D02*
X44694285Y-96854819D01*
X44694285Y-96854819D02*
X44503809Y-96854819D01*
X44503809Y-96854819D02*
X44408571Y-96807200D01*
X44408571Y-96807200D02*
X44360952Y-96759580D01*
X44360952Y-96759580D02*
X44313333Y-96664342D01*
X44313333Y-96664342D02*
X44313333Y-96473866D01*
X44313333Y-96473866D02*
X44360952Y-96378628D01*
X44360952Y-96378628D02*
X44408571Y-96331009D01*
X44408571Y-96331009D02*
X44503809Y-96283390D01*
X37359580Y-105333333D02*
X37407200Y-105285714D01*
X37407200Y-105285714D02*
X37454819Y-105142857D01*
X37454819Y-105142857D02*
X37454819Y-105047619D01*
X37454819Y-105047619D02*
X37407200Y-104904762D01*
X37407200Y-104904762D02*
X37311961Y-104809524D01*
X37311961Y-104809524D02*
X37216723Y-104761905D01*
X37216723Y-104761905D02*
X37026247Y-104714286D01*
X37026247Y-104714286D02*
X36883390Y-104714286D01*
X36883390Y-104714286D02*
X36692914Y-104761905D01*
X36692914Y-104761905D02*
X36597676Y-104809524D01*
X36597676Y-104809524D02*
X36502438Y-104904762D01*
X36502438Y-104904762D02*
X36454819Y-105047619D01*
X36454819Y-105047619D02*
X36454819Y-105142857D01*
X36454819Y-105142857D02*
X36502438Y-105285714D01*
X36502438Y-105285714D02*
X36550057Y-105333333D01*
X36454819Y-105666667D02*
X36454819Y-106333333D01*
X36454819Y-106333333D02*
X37454819Y-105904762D01*
X41559580Y-75957142D02*
X41607200Y-75909523D01*
X41607200Y-75909523D02*
X41654819Y-75766666D01*
X41654819Y-75766666D02*
X41654819Y-75671428D01*
X41654819Y-75671428D02*
X41607200Y-75528571D01*
X41607200Y-75528571D02*
X41511961Y-75433333D01*
X41511961Y-75433333D02*
X41416723Y-75385714D01*
X41416723Y-75385714D02*
X41226247Y-75338095D01*
X41226247Y-75338095D02*
X41083390Y-75338095D01*
X41083390Y-75338095D02*
X40892914Y-75385714D01*
X40892914Y-75385714D02*
X40797676Y-75433333D01*
X40797676Y-75433333D02*
X40702438Y-75528571D01*
X40702438Y-75528571D02*
X40654819Y-75671428D01*
X40654819Y-75671428D02*
X40654819Y-75766666D01*
X40654819Y-75766666D02*
X40702438Y-75909523D01*
X40702438Y-75909523D02*
X40750057Y-75957142D01*
X41654819Y-76909523D02*
X41654819Y-76338095D01*
X41654819Y-76623809D02*
X40654819Y-76623809D01*
X40654819Y-76623809D02*
X40797676Y-76528571D01*
X40797676Y-76528571D02*
X40892914Y-76433333D01*
X40892914Y-76433333D02*
X40940533Y-76338095D01*
X40750057Y-77290476D02*
X40702438Y-77338095D01*
X40702438Y-77338095D02*
X40654819Y-77433333D01*
X40654819Y-77433333D02*
X40654819Y-77671428D01*
X40654819Y-77671428D02*
X40702438Y-77766666D01*
X40702438Y-77766666D02*
X40750057Y-77814285D01*
X40750057Y-77814285D02*
X40845295Y-77861904D01*
X40845295Y-77861904D02*
X40940533Y-77861904D01*
X40940533Y-77861904D02*
X41083390Y-77814285D01*
X41083390Y-77814285D02*
X41654819Y-77242857D01*
X41654819Y-77242857D02*
X41654819Y-77861904D01*
X47959580Y-104857142D02*
X48007200Y-104809523D01*
X48007200Y-104809523D02*
X48054819Y-104666666D01*
X48054819Y-104666666D02*
X48054819Y-104571428D01*
X48054819Y-104571428D02*
X48007200Y-104428571D01*
X48007200Y-104428571D02*
X47911961Y-104333333D01*
X47911961Y-104333333D02*
X47816723Y-104285714D01*
X47816723Y-104285714D02*
X47626247Y-104238095D01*
X47626247Y-104238095D02*
X47483390Y-104238095D01*
X47483390Y-104238095D02*
X47292914Y-104285714D01*
X47292914Y-104285714D02*
X47197676Y-104333333D01*
X47197676Y-104333333D02*
X47102438Y-104428571D01*
X47102438Y-104428571D02*
X47054819Y-104571428D01*
X47054819Y-104571428D02*
X47054819Y-104666666D01*
X47054819Y-104666666D02*
X47102438Y-104809523D01*
X47102438Y-104809523D02*
X47150057Y-104857142D01*
X48054819Y-105809523D02*
X48054819Y-105238095D01*
X48054819Y-105523809D02*
X47054819Y-105523809D01*
X47054819Y-105523809D02*
X47197676Y-105428571D01*
X47197676Y-105428571D02*
X47292914Y-105333333D01*
X47292914Y-105333333D02*
X47340533Y-105238095D01*
X48054819Y-106761904D02*
X48054819Y-106190476D01*
X48054819Y-106476190D02*
X47054819Y-106476190D01*
X47054819Y-106476190D02*
X47197676Y-106380952D01*
X47197676Y-106380952D02*
X47292914Y-106285714D01*
X47292914Y-106285714D02*
X47340533Y-106190476D01*
X52159580Y-76433333D02*
X52207200Y-76385714D01*
X52207200Y-76385714D02*
X52254819Y-76242857D01*
X52254819Y-76242857D02*
X52254819Y-76147619D01*
X52254819Y-76147619D02*
X52207200Y-76004762D01*
X52207200Y-76004762D02*
X52111961Y-75909524D01*
X52111961Y-75909524D02*
X52016723Y-75861905D01*
X52016723Y-75861905D02*
X51826247Y-75814286D01*
X51826247Y-75814286D02*
X51683390Y-75814286D01*
X51683390Y-75814286D02*
X51492914Y-75861905D01*
X51492914Y-75861905D02*
X51397676Y-75909524D01*
X51397676Y-75909524D02*
X51302438Y-76004762D01*
X51302438Y-76004762D02*
X51254819Y-76147619D01*
X51254819Y-76147619D02*
X51254819Y-76242857D01*
X51254819Y-76242857D02*
X51302438Y-76385714D01*
X51302438Y-76385714D02*
X51350057Y-76433333D01*
X51683390Y-77004762D02*
X51635771Y-76909524D01*
X51635771Y-76909524D02*
X51588152Y-76861905D01*
X51588152Y-76861905D02*
X51492914Y-76814286D01*
X51492914Y-76814286D02*
X51445295Y-76814286D01*
X51445295Y-76814286D02*
X51350057Y-76861905D01*
X51350057Y-76861905D02*
X51302438Y-76909524D01*
X51302438Y-76909524D02*
X51254819Y-77004762D01*
X51254819Y-77004762D02*
X51254819Y-77195238D01*
X51254819Y-77195238D02*
X51302438Y-77290476D01*
X51302438Y-77290476D02*
X51350057Y-77338095D01*
X51350057Y-77338095D02*
X51445295Y-77385714D01*
X51445295Y-77385714D02*
X51492914Y-77385714D01*
X51492914Y-77385714D02*
X51588152Y-77338095D01*
X51588152Y-77338095D02*
X51635771Y-77290476D01*
X51635771Y-77290476D02*
X51683390Y-77195238D01*
X51683390Y-77195238D02*
X51683390Y-77004762D01*
X51683390Y-77004762D02*
X51731009Y-76909524D01*
X51731009Y-76909524D02*
X51778628Y-76861905D01*
X51778628Y-76861905D02*
X51873866Y-76814286D01*
X51873866Y-76814286D02*
X52064342Y-76814286D01*
X52064342Y-76814286D02*
X52159580Y-76861905D01*
X52159580Y-76861905D02*
X52207200Y-76909524D01*
X52207200Y-76909524D02*
X52254819Y-77004762D01*
X52254819Y-77004762D02*
X52254819Y-77195238D01*
X52254819Y-77195238D02*
X52207200Y-77290476D01*
X52207200Y-77290476D02*
X52159580Y-77338095D01*
X52159580Y-77338095D02*
X52064342Y-77385714D01*
X52064342Y-77385714D02*
X51873866Y-77385714D01*
X51873866Y-77385714D02*
X51778628Y-77338095D01*
X51778628Y-77338095D02*
X51731009Y-77290476D01*
X51731009Y-77290476D02*
X51683390Y-77195238D01*
D12*
X31425000Y-96695225D02*
X31425000Y-97195225D01*
X31175000Y-96945225D02*
X31675000Y-96945225D01*
X33940000Y-99500000D02*
X35480000Y-99500000D01*
X30320000Y-99500000D02*
X31860000Y-99500000D01*
X33940000Y-99540000D02*
X35480000Y-99540000D01*
X30320000Y-99540000D02*
X31860000Y-99540000D01*
X33940000Y-99580000D02*
X35479000Y-99580000D01*
X30321000Y-99580000D02*
X31860000Y-99580000D01*
X33940000Y-99620000D02*
X35478000Y-99620000D01*
X30322000Y-99620000D02*
X31860000Y-99620000D01*
X33940000Y-99660000D02*
X35476000Y-99660000D01*
X30324000Y-99660000D02*
X31860000Y-99660000D01*
X33940000Y-99700000D02*
X35473000Y-99700000D01*
X30327000Y-99700000D02*
X31860000Y-99700000D01*
X33940000Y-99740000D02*
X35469000Y-99740000D01*
X30331000Y-99740000D02*
X31860000Y-99740000D01*
X33940000Y-99780000D02*
X35465000Y-99780000D01*
X30335000Y-99780000D02*
X31860000Y-99780000D01*
X33940000Y-99820000D02*
X35461000Y-99820000D01*
X30339000Y-99820000D02*
X31860000Y-99820000D01*
X33940000Y-99860000D02*
X35456000Y-99860000D01*
X30344000Y-99860000D02*
X31860000Y-99860000D01*
X33940000Y-99900000D02*
X35450000Y-99900000D01*
X30350000Y-99900000D02*
X31860000Y-99900000D01*
X33940000Y-99940000D02*
X35443000Y-99940000D01*
X30357000Y-99940000D02*
X31860000Y-99940000D01*
X33940000Y-99980000D02*
X35436000Y-99980000D01*
X30364000Y-99980000D02*
X31860000Y-99980000D01*
X33940000Y-100020000D02*
X35428000Y-100020000D01*
X30372000Y-100020000D02*
X31860000Y-100020000D01*
X33940000Y-100060000D02*
X35420000Y-100060000D01*
X30380000Y-100060000D02*
X31860000Y-100060000D01*
X33940000Y-100100000D02*
X35411000Y-100100000D01*
X30389000Y-100100000D02*
X31860000Y-100100000D01*
X33940000Y-100140000D02*
X35401000Y-100140000D01*
X30399000Y-100140000D02*
X31860000Y-100140000D01*
X33940000Y-100180000D02*
X35391000Y-100180000D01*
X30409000Y-100180000D02*
X31860000Y-100180000D01*
X33940000Y-100221000D02*
X35380000Y-100221000D01*
X30420000Y-100221000D02*
X31860000Y-100221000D01*
X33940000Y-100261000D02*
X35368000Y-100261000D01*
X30432000Y-100261000D02*
X31860000Y-100261000D01*
X33940000Y-100301000D02*
X35355000Y-100301000D01*
X30445000Y-100301000D02*
X31860000Y-100301000D01*
X33940000Y-100341000D02*
X35342000Y-100341000D01*
X30458000Y-100341000D02*
X31860000Y-100341000D01*
X33940000Y-100381000D02*
X35328000Y-100381000D01*
X30472000Y-100381000D02*
X31860000Y-100381000D01*
X33940000Y-100421000D02*
X35314000Y-100421000D01*
X30486000Y-100421000D02*
X31860000Y-100421000D01*
X33940000Y-100461000D02*
X35298000Y-100461000D01*
X30502000Y-100461000D02*
X31860000Y-100461000D01*
X33940000Y-100501000D02*
X35282000Y-100501000D01*
X30518000Y-100501000D02*
X31860000Y-100501000D01*
X33940000Y-100541000D02*
X35265000Y-100541000D01*
X30535000Y-100541000D02*
X31860000Y-100541000D01*
X33940000Y-100581000D02*
X35248000Y-100581000D01*
X30552000Y-100581000D02*
X31860000Y-100581000D01*
X33940000Y-100621000D02*
X35229000Y-100621000D01*
X30571000Y-100621000D02*
X31860000Y-100621000D01*
X33940000Y-100661000D02*
X35210000Y-100661000D01*
X30590000Y-100661000D02*
X31860000Y-100661000D01*
X33940000Y-100701000D02*
X35190000Y-100701000D01*
X30610000Y-100701000D02*
X31860000Y-100701000D01*
X33940000Y-100741000D02*
X35168000Y-100741000D01*
X30632000Y-100741000D02*
X31860000Y-100741000D01*
X33940000Y-100781000D02*
X35147000Y-100781000D01*
X30653000Y-100781000D02*
X31860000Y-100781000D01*
X33940000Y-100821000D02*
X35124000Y-100821000D01*
X30676000Y-100821000D02*
X31860000Y-100821000D01*
X33940000Y-100861000D02*
X35100000Y-100861000D01*
X30700000Y-100861000D02*
X31860000Y-100861000D01*
X33940000Y-100901000D02*
X35075000Y-100901000D01*
X30725000Y-100901000D02*
X31860000Y-100901000D01*
X33940000Y-100941000D02*
X35049000Y-100941000D01*
X30751000Y-100941000D02*
X31860000Y-100941000D01*
X33940000Y-100981000D02*
X35022000Y-100981000D01*
X30778000Y-100981000D02*
X31860000Y-100981000D01*
X33940000Y-101021000D02*
X34995000Y-101021000D01*
X30805000Y-101021000D02*
X31860000Y-101021000D01*
X33940000Y-101061000D02*
X34965000Y-101061000D01*
X30835000Y-101061000D02*
X31860000Y-101061000D01*
X33940000Y-101101000D02*
X34935000Y-101101000D01*
X30865000Y-101101000D02*
X31860000Y-101101000D01*
X33940000Y-101141000D02*
X34904000Y-101141000D01*
X30896000Y-101141000D02*
X31860000Y-101141000D01*
X33940000Y-101181000D02*
X34871000Y-101181000D01*
X30929000Y-101181000D02*
X31860000Y-101181000D01*
X33940000Y-101221000D02*
X34837000Y-101221000D01*
X30963000Y-101221000D02*
X31860000Y-101221000D01*
X33940000Y-101261000D02*
X34801000Y-101261000D01*
X30999000Y-101261000D02*
X31860000Y-101261000D01*
X33940000Y-101301000D02*
X34764000Y-101301000D01*
X31036000Y-101301000D02*
X31860000Y-101301000D01*
X33940000Y-101341000D02*
X34726000Y-101341000D01*
X31074000Y-101341000D02*
X31860000Y-101341000D01*
X33940000Y-101381000D02*
X34685000Y-101381000D01*
X31115000Y-101381000D02*
X31860000Y-101381000D01*
X33940000Y-101421000D02*
X34643000Y-101421000D01*
X31157000Y-101421000D02*
X31860000Y-101421000D01*
X33940000Y-101461000D02*
X34599000Y-101461000D01*
X31201000Y-101461000D02*
X31860000Y-101461000D01*
X33940000Y-101501000D02*
X34553000Y-101501000D01*
X31247000Y-101501000D02*
X31860000Y-101501000D01*
X31295000Y-101541000D02*
X34505000Y-101541000D01*
X31346000Y-101581000D02*
X34454000Y-101581000D01*
X31400000Y-101621000D02*
X34400000Y-101621000D01*
X31457000Y-101661000D02*
X34343000Y-101661000D01*
X31517000Y-101701000D02*
X34283000Y-101701000D01*
X31581000Y-101741000D02*
X34219000Y-101741000D01*
X31649000Y-101781000D02*
X34151000Y-101781000D01*
X31722000Y-101821000D02*
X34078000Y-101821000D01*
X31802000Y-101861000D02*
X33998000Y-101861000D01*
X31889000Y-101901000D02*
X33911000Y-101901000D01*
X31985000Y-101941000D02*
X33815000Y-101941000D01*
X32095000Y-101981000D02*
X33705000Y-101981000D01*
X32223000Y-102021000D02*
X33577000Y-102021000D01*
X32382000Y-102061000D02*
X33418000Y-102061000D01*
X32616000Y-102101000D02*
X33184000Y-102101000D01*
X35520000Y-99500000D02*
G75*
G03*
X35520000Y-99500000I-2620000J0D01*
G01*
X65304775Y-94225000D02*
X64804775Y-94225000D01*
X65054775Y-93975000D02*
X65054775Y-94475000D01*
X62500000Y-96740000D02*
X62500000Y-98280000D01*
X62500000Y-93120000D02*
X62500000Y-94660000D01*
X62460000Y-96740000D02*
X62460000Y-98280000D01*
X62460000Y-93120000D02*
X62460000Y-94660000D01*
X62420000Y-96740000D02*
X62420000Y-98279000D01*
X62420000Y-93121000D02*
X62420000Y-94660000D01*
X62380000Y-96740000D02*
X62380000Y-98278000D01*
X62380000Y-93122000D02*
X62380000Y-94660000D01*
X62340000Y-96740000D02*
X62340000Y-98276000D01*
X62340000Y-93124000D02*
X62340000Y-94660000D01*
X62300000Y-96740000D02*
X62300000Y-98273000D01*
X62300000Y-93127000D02*
X62300000Y-94660000D01*
X62260000Y-96740000D02*
X62260000Y-98269000D01*
X62260000Y-93131000D02*
X62260000Y-94660000D01*
X62220000Y-96740000D02*
X62220000Y-98265000D01*
X62220000Y-93135000D02*
X62220000Y-94660000D01*
X62180000Y-96740000D02*
X62180000Y-98261000D01*
X62180000Y-93139000D02*
X62180000Y-94660000D01*
X62140000Y-96740000D02*
X62140000Y-98256000D01*
X62140000Y-93144000D02*
X62140000Y-94660000D01*
X62100000Y-96740000D02*
X62100000Y-98250000D01*
X62100000Y-93150000D02*
X62100000Y-94660000D01*
X62060000Y-96740000D02*
X62060000Y-98243000D01*
X62060000Y-93157000D02*
X62060000Y-94660000D01*
X62020000Y-96740000D02*
X62020000Y-98236000D01*
X62020000Y-93164000D02*
X62020000Y-94660000D01*
X61980000Y-96740000D02*
X61980000Y-98228000D01*
X61980000Y-93172000D02*
X61980000Y-94660000D01*
X61940000Y-96740000D02*
X61940000Y-98220000D01*
X61940000Y-93180000D02*
X61940000Y-94660000D01*
X61900000Y-96740000D02*
X61900000Y-98211000D01*
X61900000Y-93189000D02*
X61900000Y-94660000D01*
X61860000Y-96740000D02*
X61860000Y-98201000D01*
X61860000Y-93199000D02*
X61860000Y-94660000D01*
X61820000Y-96740000D02*
X61820000Y-98191000D01*
X61820000Y-93209000D02*
X61820000Y-94660000D01*
X61779000Y-96740000D02*
X61779000Y-98180000D01*
X61779000Y-93220000D02*
X61779000Y-94660000D01*
X61739000Y-96740000D02*
X61739000Y-98168000D01*
X61739000Y-93232000D02*
X61739000Y-94660000D01*
X61699000Y-96740000D02*
X61699000Y-98155000D01*
X61699000Y-93245000D02*
X61699000Y-94660000D01*
X61659000Y-96740000D02*
X61659000Y-98142000D01*
X61659000Y-93258000D02*
X61659000Y-94660000D01*
X61619000Y-96740000D02*
X61619000Y-98128000D01*
X61619000Y-93272000D02*
X61619000Y-94660000D01*
X61579000Y-96740000D02*
X61579000Y-98114000D01*
X61579000Y-93286000D02*
X61579000Y-94660000D01*
X61539000Y-96740000D02*
X61539000Y-98098000D01*
X61539000Y-93302000D02*
X61539000Y-94660000D01*
X61499000Y-96740000D02*
X61499000Y-98082000D01*
X61499000Y-93318000D02*
X61499000Y-94660000D01*
X61459000Y-96740000D02*
X61459000Y-98065000D01*
X61459000Y-93335000D02*
X61459000Y-94660000D01*
X61419000Y-96740000D02*
X61419000Y-98048000D01*
X61419000Y-93352000D02*
X61419000Y-94660000D01*
X61379000Y-96740000D02*
X61379000Y-98029000D01*
X61379000Y-93371000D02*
X61379000Y-94660000D01*
X61339000Y-96740000D02*
X61339000Y-98010000D01*
X61339000Y-93390000D02*
X61339000Y-94660000D01*
X61299000Y-96740000D02*
X61299000Y-97990000D01*
X61299000Y-93410000D02*
X61299000Y-94660000D01*
X61259000Y-96740000D02*
X61259000Y-97968000D01*
X61259000Y-93432000D02*
X61259000Y-94660000D01*
X61219000Y-96740000D02*
X61219000Y-97947000D01*
X61219000Y-93453000D02*
X61219000Y-94660000D01*
X61179000Y-96740000D02*
X61179000Y-97924000D01*
X61179000Y-93476000D02*
X61179000Y-94660000D01*
X61139000Y-96740000D02*
X61139000Y-97900000D01*
X61139000Y-93500000D02*
X61139000Y-94660000D01*
X61099000Y-96740000D02*
X61099000Y-97875000D01*
X61099000Y-93525000D02*
X61099000Y-94660000D01*
X61059000Y-96740000D02*
X61059000Y-97849000D01*
X61059000Y-93551000D02*
X61059000Y-94660000D01*
X61019000Y-96740000D02*
X61019000Y-97822000D01*
X61019000Y-93578000D02*
X61019000Y-94660000D01*
X60979000Y-96740000D02*
X60979000Y-97795000D01*
X60979000Y-93605000D02*
X60979000Y-94660000D01*
X60939000Y-96740000D02*
X60939000Y-97765000D01*
X60939000Y-93635000D02*
X60939000Y-94660000D01*
X60899000Y-96740000D02*
X60899000Y-97735000D01*
X60899000Y-93665000D02*
X60899000Y-94660000D01*
X60859000Y-96740000D02*
X60859000Y-97704000D01*
X60859000Y-93696000D02*
X60859000Y-94660000D01*
X60819000Y-96740000D02*
X60819000Y-97671000D01*
X60819000Y-93729000D02*
X60819000Y-94660000D01*
X60779000Y-96740000D02*
X60779000Y-97637000D01*
X60779000Y-93763000D02*
X60779000Y-94660000D01*
X60739000Y-96740000D02*
X60739000Y-97601000D01*
X60739000Y-93799000D02*
X60739000Y-94660000D01*
X60699000Y-96740000D02*
X60699000Y-97564000D01*
X60699000Y-93836000D02*
X60699000Y-94660000D01*
X60659000Y-96740000D02*
X60659000Y-97526000D01*
X60659000Y-93874000D02*
X60659000Y-94660000D01*
X60619000Y-96740000D02*
X60619000Y-97485000D01*
X60619000Y-93915000D02*
X60619000Y-94660000D01*
X60579000Y-96740000D02*
X60579000Y-97443000D01*
X60579000Y-93957000D02*
X60579000Y-94660000D01*
X60539000Y-96740000D02*
X60539000Y-97399000D01*
X60539000Y-94001000D02*
X60539000Y-94660000D01*
X60499000Y-96740000D02*
X60499000Y-97353000D01*
X60499000Y-94047000D02*
X60499000Y-94660000D01*
X60459000Y-94095000D02*
X60459000Y-97305000D01*
X60419000Y-94146000D02*
X60419000Y-97254000D01*
X60379000Y-94200000D02*
X60379000Y-97200000D01*
X60339000Y-94257000D02*
X60339000Y-97143000D01*
X60299000Y-94317000D02*
X60299000Y-97083000D01*
X60259000Y-94381000D02*
X60259000Y-97019000D01*
X60219000Y-94449000D02*
X60219000Y-96951000D01*
X60179000Y-94522000D02*
X60179000Y-96878000D01*
X60139000Y-94602000D02*
X60139000Y-96798000D01*
X60099000Y-94689000D02*
X60099000Y-96711000D01*
X60059000Y-94785000D02*
X60059000Y-96615000D01*
X60019000Y-94895000D02*
X60019000Y-96505000D01*
X59979000Y-95023000D02*
X59979000Y-96377000D01*
X59939000Y-95182000D02*
X59939000Y-96218000D01*
X59899000Y-95416000D02*
X59899000Y-95984000D01*
X65120000Y-95700000D02*
G75*
G03*
X65120000Y-95700000I-2620000J0D01*
G01*
X34795225Y-71975000D02*
X35295225Y-71975000D01*
X35045225Y-72225000D02*
X35045225Y-71725000D01*
X37600000Y-69460000D02*
X37600000Y-67920000D01*
X37600000Y-73080000D02*
X37600000Y-71540000D01*
X37640000Y-69460000D02*
X37640000Y-67920000D01*
X37640000Y-73080000D02*
X37640000Y-71540000D01*
X37680000Y-69460000D02*
X37680000Y-67921000D01*
X37680000Y-73079000D02*
X37680000Y-71540000D01*
X37720000Y-69460000D02*
X37720000Y-67922000D01*
X37720000Y-73078000D02*
X37720000Y-71540000D01*
X37760000Y-69460000D02*
X37760000Y-67924000D01*
X37760000Y-73076000D02*
X37760000Y-71540000D01*
X37800000Y-69460000D02*
X37800000Y-67927000D01*
X37800000Y-73073000D02*
X37800000Y-71540000D01*
X37840000Y-69460000D02*
X37840000Y-67931000D01*
X37840000Y-73069000D02*
X37840000Y-71540000D01*
X37880000Y-69460000D02*
X37880000Y-67935000D01*
X37880000Y-73065000D02*
X37880000Y-71540000D01*
X37920000Y-69460000D02*
X37920000Y-67939000D01*
X37920000Y-73061000D02*
X37920000Y-71540000D01*
X37960000Y-69460000D02*
X37960000Y-67944000D01*
X37960000Y-73056000D02*
X37960000Y-71540000D01*
X38000000Y-69460000D02*
X38000000Y-67950000D01*
X38000000Y-73050000D02*
X38000000Y-71540000D01*
X38040000Y-69460000D02*
X38040000Y-67957000D01*
X38040000Y-73043000D02*
X38040000Y-71540000D01*
X38080000Y-69460000D02*
X38080000Y-67964000D01*
X38080000Y-73036000D02*
X38080000Y-71540000D01*
X38120000Y-69460000D02*
X38120000Y-67972000D01*
X38120000Y-73028000D02*
X38120000Y-71540000D01*
X38160000Y-69460000D02*
X38160000Y-67980000D01*
X38160000Y-73020000D02*
X38160000Y-71540000D01*
X38200000Y-69460000D02*
X38200000Y-67989000D01*
X38200000Y-73011000D02*
X38200000Y-71540000D01*
X38240000Y-69460000D02*
X38240000Y-67999000D01*
X38240000Y-73001000D02*
X38240000Y-71540000D01*
X38280000Y-69460000D02*
X38280000Y-68009000D01*
X38280000Y-72991000D02*
X38280000Y-71540000D01*
X38321000Y-69460000D02*
X38321000Y-68020000D01*
X38321000Y-72980000D02*
X38321000Y-71540000D01*
X38361000Y-69460000D02*
X38361000Y-68032000D01*
X38361000Y-72968000D02*
X38361000Y-71540000D01*
X38401000Y-69460000D02*
X38401000Y-68045000D01*
X38401000Y-72955000D02*
X38401000Y-71540000D01*
X38441000Y-69460000D02*
X38441000Y-68058000D01*
X38441000Y-72942000D02*
X38441000Y-71540000D01*
X38481000Y-69460000D02*
X38481000Y-68072000D01*
X38481000Y-72928000D02*
X38481000Y-71540000D01*
X38521000Y-69460000D02*
X38521000Y-68086000D01*
X38521000Y-72914000D02*
X38521000Y-71540000D01*
X38561000Y-69460000D02*
X38561000Y-68102000D01*
X38561000Y-72898000D02*
X38561000Y-71540000D01*
X38601000Y-69460000D02*
X38601000Y-68118000D01*
X38601000Y-72882000D02*
X38601000Y-71540000D01*
X38641000Y-69460000D02*
X38641000Y-68135000D01*
X38641000Y-72865000D02*
X38641000Y-71540000D01*
X38681000Y-69460000D02*
X38681000Y-68152000D01*
X38681000Y-72848000D02*
X38681000Y-71540000D01*
X38721000Y-69460000D02*
X38721000Y-68171000D01*
X38721000Y-72829000D02*
X38721000Y-71540000D01*
X38761000Y-69460000D02*
X38761000Y-68190000D01*
X38761000Y-72810000D02*
X38761000Y-71540000D01*
X38801000Y-69460000D02*
X38801000Y-68210000D01*
X38801000Y-72790000D02*
X38801000Y-71540000D01*
X38841000Y-69460000D02*
X38841000Y-68232000D01*
X38841000Y-72768000D02*
X38841000Y-71540000D01*
X38881000Y-69460000D02*
X38881000Y-68253000D01*
X38881000Y-72747000D02*
X38881000Y-71540000D01*
X38921000Y-69460000D02*
X38921000Y-68276000D01*
X38921000Y-72724000D02*
X38921000Y-71540000D01*
X38961000Y-69460000D02*
X38961000Y-68300000D01*
X38961000Y-72700000D02*
X38961000Y-71540000D01*
X39001000Y-69460000D02*
X39001000Y-68325000D01*
X39001000Y-72675000D02*
X39001000Y-71540000D01*
X39041000Y-69460000D02*
X39041000Y-68351000D01*
X39041000Y-72649000D02*
X39041000Y-71540000D01*
X39081000Y-69460000D02*
X39081000Y-68378000D01*
X39081000Y-72622000D02*
X39081000Y-71540000D01*
X39121000Y-69460000D02*
X39121000Y-68405000D01*
X39121000Y-72595000D02*
X39121000Y-71540000D01*
X39161000Y-69460000D02*
X39161000Y-68435000D01*
X39161000Y-72565000D02*
X39161000Y-71540000D01*
X39201000Y-69460000D02*
X39201000Y-68465000D01*
X39201000Y-72535000D02*
X39201000Y-71540000D01*
X39241000Y-69460000D02*
X39241000Y-68496000D01*
X39241000Y-72504000D02*
X39241000Y-71540000D01*
X39281000Y-69460000D02*
X39281000Y-68529000D01*
X39281000Y-72471000D02*
X39281000Y-71540000D01*
X39321000Y-69460000D02*
X39321000Y-68563000D01*
X39321000Y-72437000D02*
X39321000Y-71540000D01*
X39361000Y-69460000D02*
X39361000Y-68599000D01*
X39361000Y-72401000D02*
X39361000Y-71540000D01*
X39401000Y-69460000D02*
X39401000Y-68636000D01*
X39401000Y-72364000D02*
X39401000Y-71540000D01*
X39441000Y-69460000D02*
X39441000Y-68674000D01*
X39441000Y-72326000D02*
X39441000Y-71540000D01*
X39481000Y-69460000D02*
X39481000Y-68715000D01*
X39481000Y-72285000D02*
X39481000Y-71540000D01*
X39521000Y-69460000D02*
X39521000Y-68757000D01*
X39521000Y-72243000D02*
X39521000Y-71540000D01*
X39561000Y-69460000D02*
X39561000Y-68801000D01*
X39561000Y-72199000D02*
X39561000Y-71540000D01*
X39601000Y-69460000D02*
X39601000Y-68847000D01*
X39601000Y-72153000D02*
X39601000Y-71540000D01*
X39641000Y-72105000D02*
X39641000Y-68895000D01*
X39681000Y-72054000D02*
X39681000Y-68946000D01*
X39721000Y-72000000D02*
X39721000Y-69000000D01*
X39761000Y-71943000D02*
X39761000Y-69057000D01*
X39801000Y-71883000D02*
X39801000Y-69117000D01*
X39841000Y-71819000D02*
X39841000Y-69181000D01*
X39881000Y-71751000D02*
X39881000Y-69249000D01*
X39921000Y-71678000D02*
X39921000Y-69322000D01*
X39961000Y-71598000D02*
X39961000Y-69402000D01*
X40001000Y-71511000D02*
X40001000Y-69489000D01*
X40041000Y-71415000D02*
X40041000Y-69585000D01*
X40081000Y-71305000D02*
X40081000Y-69695000D01*
X40121000Y-71177000D02*
X40121000Y-69823000D01*
X40161000Y-71018000D02*
X40161000Y-69982000D01*
X40201000Y-70784000D02*
X40201000Y-70216000D01*
X40220000Y-70500000D02*
G75*
G03*
X40220000Y-70500000I-2620000J0D01*
G01*
X57700000Y-94640000D02*
X57700000Y-94220000D01*
X55930000Y-94220000D02*
X55930000Y-86980000D01*
X59470000Y-94220000D02*
X55930000Y-94220000D01*
X55930000Y-86980000D02*
X59470000Y-86980000D01*
X59470000Y-86980000D02*
X59470000Y-94220000D01*
X57700000Y-86560000D02*
X57700000Y-86980000D01*
X84765000Y-48165000D02*
X89835000Y-48165000D01*
X84765000Y-57935000D02*
X84765000Y-48165000D01*
X84765000Y-57935000D02*
X89835000Y-57935000D01*
X89835000Y-57935000D02*
X89835000Y-48165000D01*
X84765000Y-38015000D02*
X89835000Y-38015000D01*
X84765000Y-47785000D02*
X84765000Y-38015000D01*
X84765000Y-47785000D02*
X89835000Y-47785000D01*
X89835000Y-47785000D02*
X89835000Y-38015000D01*
X42300000Y-111160000D02*
X44250000Y-111160000D01*
X42300000Y-111160000D02*
X40350000Y-111160000D01*
X42300000Y-101040000D02*
X45750000Y-101040000D01*
X42300000Y-101040000D02*
X40350000Y-101040000D01*
X30295225Y-126375000D02*
X30795225Y-126375000D01*
X30545225Y-126625000D02*
X30545225Y-126125000D01*
X33100000Y-123860000D02*
X33100000Y-122320000D01*
X33100000Y-127480000D02*
X33100000Y-125940000D01*
X33140000Y-123860000D02*
X33140000Y-122320000D01*
X33140000Y-127480000D02*
X33140000Y-125940000D01*
X33180000Y-123860000D02*
X33180000Y-122321000D01*
X33180000Y-127479000D02*
X33180000Y-125940000D01*
X33220000Y-123860000D02*
X33220000Y-122322000D01*
X33220000Y-127478000D02*
X33220000Y-125940000D01*
X33260000Y-123860000D02*
X33260000Y-122324000D01*
X33260000Y-127476000D02*
X33260000Y-125940000D01*
X33300000Y-123860000D02*
X33300000Y-122327000D01*
X33300000Y-127473000D02*
X33300000Y-125940000D01*
X33340000Y-123860000D02*
X33340000Y-122331000D01*
X33340000Y-127469000D02*
X33340000Y-125940000D01*
X33380000Y-123860000D02*
X33380000Y-122335000D01*
X33380000Y-127465000D02*
X33380000Y-125940000D01*
X33420000Y-123860000D02*
X33420000Y-122339000D01*
X33420000Y-127461000D02*
X33420000Y-125940000D01*
X33460000Y-123860000D02*
X33460000Y-122344000D01*
X33460000Y-127456000D02*
X33460000Y-125940000D01*
X33500000Y-123860000D02*
X33500000Y-122350000D01*
X33500000Y-127450000D02*
X33500000Y-125940000D01*
X33540000Y-123860000D02*
X33540000Y-122357000D01*
X33540000Y-127443000D02*
X33540000Y-125940000D01*
X33580000Y-123860000D02*
X33580000Y-122364000D01*
X33580000Y-127436000D02*
X33580000Y-125940000D01*
X33620000Y-123860000D02*
X33620000Y-122372000D01*
X33620000Y-127428000D02*
X33620000Y-125940000D01*
X33660000Y-123860000D02*
X33660000Y-122380000D01*
X33660000Y-127420000D02*
X33660000Y-125940000D01*
X33700000Y-123860000D02*
X33700000Y-122389000D01*
X33700000Y-127411000D02*
X33700000Y-125940000D01*
X33740000Y-123860000D02*
X33740000Y-122399000D01*
X33740000Y-127401000D02*
X33740000Y-125940000D01*
X33780000Y-123860000D02*
X33780000Y-122409000D01*
X33780000Y-127391000D02*
X33780000Y-125940000D01*
X33821000Y-123860000D02*
X33821000Y-122420000D01*
X33821000Y-127380000D02*
X33821000Y-125940000D01*
X33861000Y-123860000D02*
X33861000Y-122432000D01*
X33861000Y-127368000D02*
X33861000Y-125940000D01*
X33901000Y-123860000D02*
X33901000Y-122445000D01*
X33901000Y-127355000D02*
X33901000Y-125940000D01*
X33941000Y-123860000D02*
X33941000Y-122458000D01*
X33941000Y-127342000D02*
X33941000Y-125940000D01*
X33981000Y-123860000D02*
X33981000Y-122472000D01*
X33981000Y-127328000D02*
X33981000Y-125940000D01*
X34021000Y-123860000D02*
X34021000Y-122486000D01*
X34021000Y-127314000D02*
X34021000Y-125940000D01*
X34061000Y-123860000D02*
X34061000Y-122502000D01*
X34061000Y-127298000D02*
X34061000Y-125940000D01*
X34101000Y-123860000D02*
X34101000Y-122518000D01*
X34101000Y-127282000D02*
X34101000Y-125940000D01*
X34141000Y-123860000D02*
X34141000Y-122535000D01*
X34141000Y-127265000D02*
X34141000Y-125940000D01*
X34181000Y-123860000D02*
X34181000Y-122552000D01*
X34181000Y-127248000D02*
X34181000Y-125940000D01*
X34221000Y-123860000D02*
X34221000Y-122571000D01*
X34221000Y-127229000D02*
X34221000Y-125940000D01*
X34261000Y-123860000D02*
X34261000Y-122590000D01*
X34261000Y-127210000D02*
X34261000Y-125940000D01*
X34301000Y-123860000D02*
X34301000Y-122610000D01*
X34301000Y-127190000D02*
X34301000Y-125940000D01*
X34341000Y-123860000D02*
X34341000Y-122632000D01*
X34341000Y-127168000D02*
X34341000Y-125940000D01*
X34381000Y-123860000D02*
X34381000Y-122653000D01*
X34381000Y-127147000D02*
X34381000Y-125940000D01*
X34421000Y-123860000D02*
X34421000Y-122676000D01*
X34421000Y-127124000D02*
X34421000Y-125940000D01*
X34461000Y-123860000D02*
X34461000Y-122700000D01*
X34461000Y-127100000D02*
X34461000Y-125940000D01*
X34501000Y-123860000D02*
X34501000Y-122725000D01*
X34501000Y-127075000D02*
X34501000Y-125940000D01*
X34541000Y-123860000D02*
X34541000Y-122751000D01*
X34541000Y-127049000D02*
X34541000Y-125940000D01*
X34581000Y-123860000D02*
X34581000Y-122778000D01*
X34581000Y-127022000D02*
X34581000Y-125940000D01*
X34621000Y-123860000D02*
X34621000Y-122805000D01*
X34621000Y-126995000D02*
X34621000Y-125940000D01*
X34661000Y-123860000D02*
X34661000Y-122835000D01*
X34661000Y-126965000D02*
X34661000Y-125940000D01*
X34701000Y-123860000D02*
X34701000Y-122865000D01*
X34701000Y-126935000D02*
X34701000Y-125940000D01*
X34741000Y-123860000D02*
X34741000Y-122896000D01*
X34741000Y-126904000D02*
X34741000Y-125940000D01*
X34781000Y-123860000D02*
X34781000Y-122929000D01*
X34781000Y-126871000D02*
X34781000Y-125940000D01*
X34821000Y-123860000D02*
X34821000Y-122963000D01*
X34821000Y-126837000D02*
X34821000Y-125940000D01*
X34861000Y-123860000D02*
X34861000Y-122999000D01*
X34861000Y-126801000D02*
X34861000Y-125940000D01*
X34901000Y-123860000D02*
X34901000Y-123036000D01*
X34901000Y-126764000D02*
X34901000Y-125940000D01*
X34941000Y-123860000D02*
X34941000Y-123074000D01*
X34941000Y-126726000D02*
X34941000Y-125940000D01*
X34981000Y-123860000D02*
X34981000Y-123115000D01*
X34981000Y-126685000D02*
X34981000Y-125940000D01*
X35021000Y-123860000D02*
X35021000Y-123157000D01*
X35021000Y-126643000D02*
X35021000Y-125940000D01*
X35061000Y-123860000D02*
X35061000Y-123201000D01*
X35061000Y-126599000D02*
X35061000Y-125940000D01*
X35101000Y-123860000D02*
X35101000Y-123247000D01*
X35101000Y-126553000D02*
X35101000Y-125940000D01*
X35141000Y-126505000D02*
X35141000Y-123295000D01*
X35181000Y-126454000D02*
X35181000Y-123346000D01*
X35221000Y-126400000D02*
X35221000Y-123400000D01*
X35261000Y-126343000D02*
X35261000Y-123457000D01*
X35301000Y-126283000D02*
X35301000Y-123517000D01*
X35341000Y-126219000D02*
X35341000Y-123581000D01*
X35381000Y-126151000D02*
X35381000Y-123649000D01*
X35421000Y-126078000D02*
X35421000Y-123722000D01*
X35461000Y-125998000D02*
X35461000Y-123802000D01*
X35501000Y-125911000D02*
X35501000Y-123889000D01*
X35541000Y-125815000D02*
X35541000Y-123985000D01*
X35581000Y-125705000D02*
X35581000Y-124095000D01*
X35621000Y-125577000D02*
X35621000Y-124223000D01*
X35661000Y-125418000D02*
X35661000Y-124382000D01*
X35701000Y-125184000D02*
X35701000Y-124616000D01*
X35720000Y-124900000D02*
G75*
G03*
X35720000Y-124900000I-2620000J0D01*
G01*
X32300000Y-94440000D02*
X32300000Y-94020000D01*
X30530000Y-94020000D02*
X30530000Y-86780000D01*
X34070000Y-94020000D02*
X30530000Y-94020000D01*
X30530000Y-86780000D02*
X34070000Y-86780000D01*
X34070000Y-86780000D02*
X34070000Y-94020000D01*
X32300000Y-86360000D02*
X32300000Y-86780000D01*
X84765000Y-96475000D02*
X89835000Y-96475000D01*
X84765000Y-106245000D02*
X84765000Y-96475000D01*
X84765000Y-106245000D02*
X89835000Y-106245000D01*
X89835000Y-106245000D02*
X89835000Y-96475000D01*
X84765000Y-86375000D02*
X89835000Y-86375000D01*
X84765000Y-96145000D02*
X84765000Y-86375000D01*
X84765000Y-96145000D02*
X89835000Y-96145000D01*
X89835000Y-96145000D02*
X89835000Y-86375000D01*
X46500000Y-70940000D02*
X44550000Y-70940000D01*
X46500000Y-70940000D02*
X48450000Y-70940000D01*
X46500000Y-81060000D02*
X43050000Y-81060000D01*
X46500000Y-81060000D02*
X48450000Y-81060000D01*
X49580000Y-96780000D02*
X50080000Y-95780000D01*
X50580000Y-96780000D02*
X49580000Y-96780000D01*
X50080000Y-95780000D02*
X50580000Y-96780000D01*
X34710000Y-95390000D02*
X55290000Y-95390000D01*
X47050000Y-95390000D02*
X47050000Y-94080000D01*
X55290000Y-95390000D02*
X55290000Y-86270000D01*
X36010000Y-94080000D02*
X42950000Y-94080000D01*
X42950000Y-94080000D02*
X42950000Y-95390000D01*
X42950000Y-94080000D02*
X42950000Y-94080000D01*
X47050000Y-94080000D02*
X53990000Y-94080000D01*
X53990000Y-94080000D02*
X53990000Y-87580000D01*
X36010000Y-87580000D02*
X36010000Y-94080000D01*
X53990000Y-87580000D02*
X36010000Y-87580000D01*
X34710000Y-86270000D02*
X34710000Y-95390000D01*
X55290000Y-86270000D02*
X34710000Y-86270000D01*
X35630000Y-109120000D02*
X35630000Y-101880000D01*
X38370000Y-109120000D02*
X35630000Y-109120000D01*
X38370000Y-109120000D02*
X38370000Y-101880000D01*
X38370000Y-101880000D02*
X35630000Y-101880000D01*
X39830000Y-80220000D02*
X39830000Y-72980000D01*
X42570000Y-80220000D02*
X39830000Y-80220000D01*
X42570000Y-80220000D02*
X42570000Y-72980000D01*
X42570000Y-72980000D02*
X39830000Y-72980000D01*
X48970000Y-101880000D02*
X48970000Y-109120000D01*
X46230000Y-101880000D02*
X48970000Y-101880000D01*
X46230000Y-101880000D02*
X46230000Y-109120000D01*
X46230000Y-109120000D02*
X48970000Y-109120000D01*
X53170000Y-72980000D02*
X53170000Y-80220000D01*
X50430000Y-72980000D02*
X53170000Y-72980000D01*
X50430000Y-72980000D02*
X50430000Y-80220000D01*
X50430000Y-80220000D02*
X53170000Y-80220000D01*
%LPC*%
D13*
X87000000Y-60800000D03*
X87000000Y-65800000D03*
X87800000Y-113800000D03*
X87800000Y-118800000D03*
X38500000Y-126800000D03*
X43500000Y-126800000D03*
D14*
X83200000Y-56820000D03*
D15*
X83200000Y-49200000D03*
D14*
X83200000Y-46810000D03*
D15*
X83200000Y-39190000D03*
D14*
X80600000Y-56820000D03*
D15*
X80600000Y-49200000D03*
D14*
X80600000Y-46810000D03*
D15*
X80600000Y-39190000D03*
D14*
X78000000Y-56820000D03*
D15*
X78000000Y-49200000D03*
D14*
X78000000Y-46810000D03*
D15*
X78000000Y-39190000D03*
D16*
X87000000Y-69000000D03*
D17*
X87000000Y-71540000D03*
X87000000Y-74080000D03*
X87000000Y-76620000D03*
X87000000Y-79160000D03*
X87000000Y-81700000D03*
D16*
X33000000Y-130000000D03*
D17*
X33000000Y-132540000D03*
X33000000Y-135080000D03*
X33000000Y-137620000D03*
X33000000Y-140160000D03*
X33000000Y-142700000D03*
D18*
X76040000Y-76260000D03*
D19*
X76040000Y-78800000D03*
X76040000Y-81340000D03*
D18*
X71760000Y-81340000D03*
D19*
X71760000Y-78800000D03*
X71760000Y-76260000D03*
D18*
X66700000Y-126200000D03*
D19*
X66700000Y-123660000D03*
X66700000Y-121120000D03*
D13*
X53960000Y-68700000D03*
D15*
X43800000Y-68700000D03*
D13*
X31300000Y-62500000D03*
D15*
X41460000Y-62500000D03*
D13*
X54900000Y-72300000D03*
D15*
X54900000Y-82460000D03*
D13*
X43800000Y-65600000D03*
D15*
X53960000Y-65600000D03*
D13*
X67300000Y-82480000D03*
D15*
X67300000Y-72320000D03*
D13*
X51180000Y-82800000D03*
D15*
X41020000Y-82800000D03*
D13*
X58000000Y-72300000D03*
D15*
X58000000Y-82460000D03*
D13*
X66480000Y-65600000D03*
D15*
X56320000Y-65600000D03*
D13*
X53960000Y-62500000D03*
D15*
X43800000Y-62500000D03*
D13*
X56320000Y-68700000D03*
D15*
X66480000Y-68700000D03*
D13*
X74600000Y-46720000D03*
D15*
X74600000Y-56880000D03*
D13*
X38300000Y-122560000D03*
D15*
X38300000Y-112400000D03*
D13*
X60380000Y-107700000D03*
D15*
X50220000Y-107700000D03*
D13*
X44500000Y-112400000D03*
D15*
X44500000Y-122560000D03*
D13*
X50700000Y-110400000D03*
D15*
X50700000Y-120560000D03*
D13*
X64040000Y-118200000D03*
D15*
X74200000Y-118200000D03*
D13*
X71000000Y-138960000D03*
D15*
X71000000Y-128800000D03*
D13*
X47600000Y-110400000D03*
D15*
X47600000Y-120560000D03*
D13*
X41400000Y-122560000D03*
D15*
X41400000Y-112400000D03*
D13*
X60000000Y-120560000D03*
D15*
X60000000Y-110400000D03*
D13*
X33900000Y-114380000D03*
D15*
X33900000Y-104220000D03*
D13*
X56900000Y-110400000D03*
D15*
X56900000Y-120560000D03*
D13*
X53800000Y-110400000D03*
D15*
X53800000Y-120560000D03*
D13*
X64040000Y-115100000D03*
D15*
X74200000Y-115100000D03*
D14*
X77000000Y-112600000D03*
D15*
X77000000Y-115140000D03*
X77000000Y-117680000D03*
X77000000Y-120220000D03*
X84620000Y-120220000D03*
X84620000Y-117680000D03*
X84620000Y-115140000D03*
X84620000Y-112600000D03*
D16*
X87000000Y-130000000D03*
D17*
X87000000Y-132540000D03*
X87000000Y-135080000D03*
X87000000Y-137620000D03*
X87000000Y-140160000D03*
X87000000Y-142700000D03*
D13*
X72300000Y-72180000D03*
D15*
X72300000Y-62020000D03*
D14*
X75580000Y-62680000D03*
D15*
X75580000Y-65220000D03*
X75580000Y-67760000D03*
X75580000Y-70300000D03*
X83200000Y-70300000D03*
X83200000Y-67760000D03*
X83200000Y-65220000D03*
X83200000Y-62680000D03*
D18*
X70940000Y-121160000D03*
D19*
X70940000Y-123700000D03*
X70940000Y-126240000D03*
D13*
X50400000Y-104600000D03*
X55400000Y-104600000D03*
D14*
X78000000Y-95120000D03*
D15*
X78000000Y-87500000D03*
D14*
X80600000Y-95120000D03*
D15*
X80600000Y-87500000D03*
D14*
X83200000Y-95120000D03*
D15*
X83200000Y-87500000D03*
D14*
X83200000Y-105120000D03*
D15*
X83200000Y-97500000D03*
D14*
X80600000Y-105120000D03*
D15*
X80600000Y-97500000D03*
D14*
X78000000Y-105120000D03*
D15*
X78000000Y-97500000D03*
D13*
X56500000Y-62500000D03*
X61500000Y-62500000D03*
X31300000Y-65600000D03*
D15*
X41460000Y-65600000D03*
D13*
X61100000Y-82480000D03*
D15*
X61100000Y-72320000D03*
D13*
X64200000Y-82480000D03*
D15*
X64200000Y-72320000D03*
D16*
X33000000Y-69000000D03*
D17*
X33000000Y-71540000D03*
X33000000Y-74080000D03*
X33000000Y-76620000D03*
X33000000Y-79160000D03*
X33000000Y-81700000D03*
D13*
X37400000Y-81200000D03*
X37400000Y-76200000D03*
X36000000Y-133100000D03*
D15*
X46160000Y-133100000D03*
D13*
X36000000Y-130000000D03*
D15*
X46160000Y-130000000D03*
D13*
X83180000Y-59480000D03*
X78180000Y-59480000D03*
X82000000Y-123300000D03*
X77000000Y-123300000D03*
X80580000Y-73480000D03*
X75580000Y-73480000D03*
X84600000Y-109400000D03*
X79600000Y-109400000D03*
D14*
X32900000Y-98500000D03*
D13*
X32900000Y-100500000D03*
D14*
X63500000Y-95700000D03*
D13*
X61500000Y-95700000D03*
D14*
X36600000Y-70500000D03*
D13*
X38600000Y-70500000D03*
X57700000Y-95680000D03*
D15*
X57700000Y-85520000D03*
D20*
X87300000Y-55590000D03*
X87300000Y-53050000D03*
X87300000Y-50510000D03*
X87300000Y-45440000D03*
X87300000Y-42900000D03*
X87300000Y-40360000D03*
G36*
G01*
X45750000Y-101505000D02*
X45750000Y-101805000D01*
G75*
G02*
X45600000Y-101955000I-150000J0D01*
G01*
X43950000Y-101955000D01*
G75*
G02*
X43800000Y-101805000I0J150000D01*
G01*
X43800000Y-101505000D01*
G75*
G02*
X43950000Y-101355000I150000J0D01*
G01*
X45600000Y-101355000D01*
G75*
G02*
X45750000Y-101505000I0J-150000D01*
G01*
G37*
G36*
G01*
X45750000Y-102775000D02*
X45750000Y-103075000D01*
G75*
G02*
X45600000Y-103225000I-150000J0D01*
G01*
X43950000Y-103225000D01*
G75*
G02*
X43800000Y-103075000I0J150000D01*
G01*
X43800000Y-102775000D01*
G75*
G02*
X43950000Y-102625000I150000J0D01*
G01*
X45600000Y-102625000D01*
G75*
G02*
X45750000Y-102775000I0J-150000D01*
G01*
G37*
G36*
G01*
X45750000Y-104045000D02*
X45750000Y-104345000D01*
G75*
G02*
X45600000Y-104495000I-150000J0D01*
G01*
X43950000Y-104495000D01*
G75*
G02*
X43800000Y-104345000I0J150000D01*
G01*
X43800000Y-104045000D01*
G75*
G02*
X43950000Y-103895000I150000J0D01*
G01*
X45600000Y-103895000D01*
G75*
G02*
X45750000Y-104045000I0J-150000D01*
G01*
G37*
G36*
G01*
X45750000Y-105315000D02*
X45750000Y-105615000D01*
G75*
G02*
X45600000Y-105765000I-150000J0D01*
G01*
X43950000Y-105765000D01*
G75*
G02*
X43800000Y-105615000I0J150000D01*
G01*
X43800000Y-105315000D01*
G75*
G02*
X43950000Y-105165000I150000J0D01*
G01*
X45600000Y-105165000D01*
G75*
G02*
X45750000Y-105315000I0J-150000D01*
G01*
G37*
G36*
G01*
X45750000Y-106585000D02*
X45750000Y-106885000D01*
G75*
G02*
X45600000Y-107035000I-150000J0D01*
G01*
X43950000Y-107035000D01*
G75*
G02*
X43800000Y-106885000I0J150000D01*
G01*
X43800000Y-106585000D01*
G75*
G02*
X43950000Y-106435000I150000J0D01*
G01*
X45600000Y-106435000D01*
G75*
G02*
X45750000Y-106585000I0J-150000D01*
G01*
G37*
G36*
G01*
X45750000Y-107855000D02*
X45750000Y-108155000D01*
G75*
G02*
X45600000Y-108305000I-150000J0D01*
G01*
X43950000Y-108305000D01*
G75*
G02*
X43800000Y-108155000I0J150000D01*
G01*
X43800000Y-107855000D01*
G75*
G02*
X43950000Y-107705000I150000J0D01*
G01*
X45600000Y-107705000D01*
G75*
G02*
X45750000Y-107855000I0J-150000D01*
G01*
G37*
G36*
G01*
X45750000Y-109125000D02*
X45750000Y-109425000D01*
G75*
G02*
X45600000Y-109575000I-150000J0D01*
G01*
X43950000Y-109575000D01*
G75*
G02*
X43800000Y-109425000I0J150000D01*
G01*
X43800000Y-109125000D01*
G75*
G02*
X43950000Y-108975000I150000J0D01*
G01*
X45600000Y-108975000D01*
G75*
G02*
X45750000Y-109125000I0J-150000D01*
G01*
G37*
G36*
G01*
X45750000Y-110395000D02*
X45750000Y-110695000D01*
G75*
G02*
X45600000Y-110845000I-150000J0D01*
G01*
X43950000Y-110845000D01*
G75*
G02*
X43800000Y-110695000I0J150000D01*
G01*
X43800000Y-110395000D01*
G75*
G02*
X43950000Y-110245000I150000J0D01*
G01*
X45600000Y-110245000D01*
G75*
G02*
X45750000Y-110395000I0J-150000D01*
G01*
G37*
G36*
G01*
X40800000Y-110395000D02*
X40800000Y-110695000D01*
G75*
G02*
X40650000Y-110845000I-150000J0D01*
G01*
X39000000Y-110845000D01*
G75*
G02*
X38850000Y-110695000I0J150000D01*
G01*
X38850000Y-110395000D01*
G75*
G02*
X39000000Y-110245000I150000J0D01*
G01*
X40650000Y-110245000D01*
G75*
G02*
X40800000Y-110395000I0J-150000D01*
G01*
G37*
G36*
G01*
X40800000Y-109125000D02*
X40800000Y-109425000D01*
G75*
G02*
X40650000Y-109575000I-150000J0D01*
G01*
X39000000Y-109575000D01*
G75*
G02*
X38850000Y-109425000I0J150000D01*
G01*
X38850000Y-109125000D01*
G75*
G02*
X39000000Y-108975000I150000J0D01*
G01*
X40650000Y-108975000D01*
G75*
G02*
X40800000Y-109125000I0J-150000D01*
G01*
G37*
G36*
G01*
X40800000Y-107855000D02*
X40800000Y-108155000D01*
G75*
G02*
X40650000Y-108305000I-150000J0D01*
G01*
X39000000Y-108305000D01*
G75*
G02*
X38850000Y-108155000I0J150000D01*
G01*
X38850000Y-107855000D01*
G75*
G02*
X39000000Y-107705000I150000J0D01*
G01*
X40650000Y-107705000D01*
G75*
G02*
X40800000Y-107855000I0J-150000D01*
G01*
G37*
G36*
G01*
X40800000Y-106585000D02*
X40800000Y-106885000D01*
G75*
G02*
X40650000Y-107035000I-150000J0D01*
G01*
X39000000Y-107035000D01*
G75*
G02*
X38850000Y-106885000I0J150000D01*
G01*
X38850000Y-106585000D01*
G75*
G02*
X39000000Y-106435000I150000J0D01*
G01*
X40650000Y-106435000D01*
G75*
G02*
X40800000Y-106585000I0J-150000D01*
G01*
G37*
G36*
G01*
X40800000Y-105315000D02*
X40800000Y-105615000D01*
G75*
G02*
X40650000Y-105765000I-150000J0D01*
G01*
X39000000Y-105765000D01*
G75*
G02*
X38850000Y-105615000I0J150000D01*
G01*
X38850000Y-105315000D01*
G75*
G02*
X39000000Y-105165000I150000J0D01*
G01*
X40650000Y-105165000D01*
G75*
G02*
X40800000Y-105315000I0J-150000D01*
G01*
G37*
G36*
G01*
X40800000Y-104045000D02*
X40800000Y-104345000D01*
G75*
G02*
X40650000Y-104495000I-150000J0D01*
G01*
X39000000Y-104495000D01*
G75*
G02*
X38850000Y-104345000I0J150000D01*
G01*
X38850000Y-104045000D01*
G75*
G02*
X39000000Y-103895000I150000J0D01*
G01*
X40650000Y-103895000D01*
G75*
G02*
X40800000Y-104045000I0J-150000D01*
G01*
G37*
G36*
G01*
X40800000Y-102775000D02*
X40800000Y-103075000D01*
G75*
G02*
X40650000Y-103225000I-150000J0D01*
G01*
X39000000Y-103225000D01*
G75*
G02*
X38850000Y-103075000I0J150000D01*
G01*
X38850000Y-102775000D01*
G75*
G02*
X39000000Y-102625000I150000J0D01*
G01*
X40650000Y-102625000D01*
G75*
G02*
X40800000Y-102775000I0J-150000D01*
G01*
G37*
G36*
G01*
X40800000Y-101505000D02*
X40800000Y-101805000D01*
G75*
G02*
X40650000Y-101955000I-150000J0D01*
G01*
X39000000Y-101955000D01*
G75*
G02*
X38850000Y-101805000I0J150000D01*
G01*
X38850000Y-101505000D01*
G75*
G02*
X39000000Y-101355000I150000J0D01*
G01*
X40650000Y-101355000D01*
G75*
G02*
X40800000Y-101505000I0J-150000D01*
G01*
G37*
D14*
X32100000Y-124900000D03*
D13*
X34100000Y-124900000D03*
X32300000Y-95480000D03*
D15*
X32300000Y-85320000D03*
D20*
X87300000Y-103900000D03*
X87300000Y-101360000D03*
X87300000Y-98820000D03*
X87300000Y-93800000D03*
X87300000Y-91260000D03*
X87300000Y-88720000D03*
G36*
G01*
X43050000Y-80595000D02*
X43050000Y-80295000D01*
G75*
G02*
X43200000Y-80145000I150000J0D01*
G01*
X44850000Y-80145000D01*
G75*
G02*
X45000000Y-80295000I0J-150000D01*
G01*
X45000000Y-80595000D01*
G75*
G02*
X44850000Y-80745000I-150000J0D01*
G01*
X43200000Y-80745000D01*
G75*
G02*
X43050000Y-80595000I0J150000D01*
G01*
G37*
G36*
G01*
X43050000Y-79325000D02*
X43050000Y-79025000D01*
G75*
G02*
X43200000Y-78875000I150000J0D01*
G01*
X44850000Y-78875000D01*
G75*
G02*
X45000000Y-79025000I0J-150000D01*
G01*
X45000000Y-79325000D01*
G75*
G02*
X44850000Y-79475000I-150000J0D01*
G01*
X43200000Y-79475000D01*
G75*
G02*
X43050000Y-79325000I0J150000D01*
G01*
G37*
G36*
G01*
X43050000Y-78055000D02*
X43050000Y-77755000D01*
G75*
G02*
X43200000Y-77605000I150000J0D01*
G01*
X44850000Y-77605000D01*
G75*
G02*
X45000000Y-77755000I0J-150000D01*
G01*
X45000000Y-78055000D01*
G75*
G02*
X44850000Y-78205000I-150000J0D01*
G01*
X43200000Y-78205000D01*
G75*
G02*
X43050000Y-78055000I0J150000D01*
G01*
G37*
G36*
G01*
X43050000Y-76785000D02*
X43050000Y-76485000D01*
G75*
G02*
X43200000Y-76335000I150000J0D01*
G01*
X44850000Y-76335000D01*
G75*
G02*
X45000000Y-76485000I0J-150000D01*
G01*
X45000000Y-76785000D01*
G75*
G02*
X44850000Y-76935000I-150000J0D01*
G01*
X43200000Y-76935000D01*
G75*
G02*
X43050000Y-76785000I0J150000D01*
G01*
G37*
G36*
G01*
X43050000Y-75515000D02*
X43050000Y-75215000D01*
G75*
G02*
X43200000Y-75065000I150000J0D01*
G01*
X44850000Y-75065000D01*
G75*
G02*
X45000000Y-75215000I0J-150000D01*
G01*
X45000000Y-75515000D01*
G75*
G02*
X44850000Y-75665000I-150000J0D01*
G01*
X43200000Y-75665000D01*
G75*
G02*
X43050000Y-75515000I0J150000D01*
G01*
G37*
G36*
G01*
X43050000Y-74245000D02*
X43050000Y-73945000D01*
G75*
G02*
X43200000Y-73795000I150000J0D01*
G01*
X44850000Y-73795000D01*
G75*
G02*
X45000000Y-73945000I0J-150000D01*
G01*
X45000000Y-74245000D01*
G75*
G02*
X44850000Y-74395000I-150000J0D01*
G01*
X43200000Y-74395000D01*
G75*
G02*
X43050000Y-74245000I0J150000D01*
G01*
G37*
G36*
G01*
X43050000Y-72975000D02*
X43050000Y-72675000D01*
G75*
G02*
X43200000Y-72525000I150000J0D01*
G01*
X44850000Y-72525000D01*
G75*
G02*
X45000000Y-72675000I0J-150000D01*
G01*
X45000000Y-72975000D01*
G75*
G02*
X44850000Y-73125000I-150000J0D01*
G01*
X43200000Y-73125000D01*
G75*
G02*
X43050000Y-72975000I0J150000D01*
G01*
G37*
G36*
G01*
X43050000Y-71705000D02*
X43050000Y-71405000D01*
G75*
G02*
X43200000Y-71255000I150000J0D01*
G01*
X44850000Y-71255000D01*
G75*
G02*
X45000000Y-71405000I0J-150000D01*
G01*
X45000000Y-71705000D01*
G75*
G02*
X44850000Y-71855000I-150000J0D01*
G01*
X43200000Y-71855000D01*
G75*
G02*
X43050000Y-71705000I0J150000D01*
G01*
G37*
G36*
G01*
X48000000Y-71705000D02*
X48000000Y-71405000D01*
G75*
G02*
X48150000Y-71255000I150000J0D01*
G01*
X49800000Y-71255000D01*
G75*
G02*
X49950000Y-71405000I0J-150000D01*
G01*
X49950000Y-71705000D01*
G75*
G02*
X49800000Y-71855000I-150000J0D01*
G01*
X48150000Y-71855000D01*
G75*
G02*
X48000000Y-71705000I0J150000D01*
G01*
G37*
G36*
G01*
X48000000Y-72975000D02*
X48000000Y-72675000D01*
G75*
G02*
X48150000Y-72525000I150000J0D01*
G01*
X49800000Y-72525000D01*
G75*
G02*
X49950000Y-72675000I0J-150000D01*
G01*
X49950000Y-72975000D01*
G75*
G02*
X49800000Y-73125000I-150000J0D01*
G01*
X48150000Y-73125000D01*
G75*
G02*
X48000000Y-72975000I0J150000D01*
G01*
G37*
G36*
G01*
X48000000Y-74245000D02*
X48000000Y-73945000D01*
G75*
G02*
X48150000Y-73795000I150000J0D01*
G01*
X49800000Y-73795000D01*
G75*
G02*
X49950000Y-73945000I0J-150000D01*
G01*
X49950000Y-74245000D01*
G75*
G02*
X49800000Y-74395000I-150000J0D01*
G01*
X48150000Y-74395000D01*
G75*
G02*
X48000000Y-74245000I0J150000D01*
G01*
G37*
G36*
G01*
X48000000Y-75515000D02*
X48000000Y-75215000D01*
G75*
G02*
X48150000Y-75065000I150000J0D01*
G01*
X49800000Y-75065000D01*
G75*
G02*
X49950000Y-75215000I0J-150000D01*
G01*
X49950000Y-75515000D01*
G75*
G02*
X49800000Y-75665000I-150000J0D01*
G01*
X48150000Y-75665000D01*
G75*
G02*
X48000000Y-75515000I0J150000D01*
G01*
G37*
G36*
G01*
X48000000Y-76785000D02*
X48000000Y-76485000D01*
G75*
G02*
X48150000Y-76335000I150000J0D01*
G01*
X49800000Y-76335000D01*
G75*
G02*
X49950000Y-76485000I0J-150000D01*
G01*
X49950000Y-76785000D01*
G75*
G02*
X49800000Y-76935000I-150000J0D01*
G01*
X48150000Y-76935000D01*
G75*
G02*
X48000000Y-76785000I0J150000D01*
G01*
G37*
G36*
G01*
X48000000Y-78055000D02*
X48000000Y-77755000D01*
G75*
G02*
X48150000Y-77605000I150000J0D01*
G01*
X49800000Y-77605000D01*
G75*
G02*
X49950000Y-77755000I0J-150000D01*
G01*
X49950000Y-78055000D01*
G75*
G02*
X49800000Y-78205000I-150000J0D01*
G01*
X48150000Y-78205000D01*
G75*
G02*
X48000000Y-78055000I0J150000D01*
G01*
G37*
G36*
G01*
X48000000Y-79325000D02*
X48000000Y-79025000D01*
G75*
G02*
X48150000Y-78875000I150000J0D01*
G01*
X49800000Y-78875000D01*
G75*
G02*
X49950000Y-79025000I0J-150000D01*
G01*
X49950000Y-79325000D01*
G75*
G02*
X49800000Y-79475000I-150000J0D01*
G01*
X48150000Y-79475000D01*
G75*
G02*
X48000000Y-79325000I0J150000D01*
G01*
G37*
G36*
G01*
X48000000Y-80595000D02*
X48000000Y-80295000D01*
G75*
G02*
X48150000Y-80145000I150000J0D01*
G01*
X49800000Y-80145000D01*
G75*
G02*
X49950000Y-80295000I0J-150000D01*
G01*
X49950000Y-80595000D01*
G75*
G02*
X49800000Y-80745000I-150000J0D01*
G01*
X48150000Y-80745000D01*
G75*
G02*
X48000000Y-80595000I0J150000D01*
G01*
G37*
G36*
G01*
X50680000Y-92950000D02*
X49480000Y-92950000D01*
G75*
G02*
X49230000Y-92700000I0J250000D01*
G01*
X49230000Y-91500000D01*
G75*
G02*
X49480000Y-91250000I250000J0D01*
G01*
X50680000Y-91250000D01*
G75*
G02*
X50930000Y-91500000I0J-250000D01*
G01*
X50930000Y-92700000D01*
G75*
G02*
X50680000Y-92950000I-250000J0D01*
G01*
G37*
D21*
X50080000Y-89560000D03*
X47540000Y-92100000D03*
X47540000Y-89560000D03*
X45000000Y-92100000D03*
X45000000Y-89560000D03*
X42460000Y-92100000D03*
X42460000Y-89560000D03*
X39920000Y-92100000D03*
X39920000Y-89560000D03*
D13*
X37000000Y-108000000D03*
X37000000Y-103000000D03*
X41200000Y-79100000D03*
X41200000Y-74100000D03*
X47600000Y-103000000D03*
X47600000Y-108000000D03*
X51800000Y-74100000D03*
X51800000Y-79100000D03*
%LPD*%
M02*
